<svg id="Group_1183" data-name="Group 1183" xmlns="http://www.w3.org/2000/svg" xmlns:xlink="http://www.w3.org/1999/xlink" width="122.098" height="40.991" viewBox="0 0 122.098 40.991">
  <defs>
    <linearGradient id="linear-gradient" x1="0.011" y1="0.5" x2="1" y2="0.533" gradientUnits="objectBoundingBox">
      <stop offset="0" stop-color="#e25fc1"/>
      <stop offset="0.409" stop-color="#44cfdd"/>
      <stop offset="0.729" stop-color="#aded66"/>
      <stop offset="1" stop-color="#f6ca4f"/>
    </linearGradient>
    <clipPath id="clip-path">
      <rect id="Rectangle_33" data-name="Rectangle 33" width="122.098" height="40.991" fill="url(#linear-gradient)"/>
    </clipPath>
  </defs>
  <g id="Group_45" data-name="Group 45" clip-path="url(#clip-path)">
    <path id="Path_15" data-name="Path 15" d="M0,24.141V.4H3.71l9.209,14.559H11.031L20.206.4h3.743V24.141h-5.2V9.314l.928.235-6,9.482H10.236L4.273,9.549l.894-.235V24.141Zm39.584.4A12.463,12.463,0,0,1,34.7,23.6a12.244,12.244,0,0,1-3.925-2.623,11.9,11.9,0,0,1-2.617-3.917,12.466,12.466,0,0,1-.928-4.825A12.428,12.428,0,0,1,28.156,7.4,12.016,12.016,0,0,1,30.74,3.513,11.777,11.777,0,0,1,34.632.925a13.284,13.284,0,0,1,9.739,0,11.963,11.963,0,0,1,3.909,2.589,11.84,11.84,0,0,1,2.6,3.9,12.554,12.554,0,0,1,.928,4.859A12.466,12.466,0,0,1,50.88,17.1,11.906,11.906,0,0,1,44.4,23.6a12.291,12.291,0,0,1-4.82.941m-.066-4.808a6.991,6.991,0,0,0,3.66-.941,6.349,6.349,0,0,0,2.435-2.639,8.544,8.544,0,0,0,.861-3.917,8.828,8.828,0,0,0-.5-3.043,6.827,6.827,0,0,0-1.425-2.354,6.178,6.178,0,0,0-2.2-1.513,7.422,7.422,0,0,0-2.832-.521,7.09,7.09,0,0,0-3.66.925,6.286,6.286,0,0,0-2.435,2.589,8.414,8.414,0,0,0-.861,3.917,8.97,8.97,0,0,0,.5,3.06,6.933,6.933,0,0,0,1.408,2.37,6.167,6.167,0,0,0,2.2,1.53,7.338,7.338,0,0,0,2.849.538m15.6,4.4V.4h3.644L60.32,5.144v19Zm16.132,0L57.472,6.22,58.764.4l13.78,17.921Zm0,0L69.86,19.4V.4h5.2V24.141Zm19.411.37a12.573,12.573,0,0,1-4.853-.925A11.833,11.833,0,0,1,81.9,20.981a12.029,12.029,0,0,1-2.6-3.917,12.466,12.466,0,0,1-.928-4.825A12.466,12.466,0,0,1,79.3,7.414,11.78,11.78,0,0,1,81.884,3.53,11.909,11.909,0,0,1,85.777.958,12.576,12.576,0,0,1,90.63.033a12.732,12.732,0,0,1,4.952.908,12.041,12.041,0,0,1,3.793,2.488L95.9,6.994a6.57,6.57,0,0,0-2.236-1.58,7.513,7.513,0,0,0-3.031-.572,7.33,7.33,0,0,0-2.8.521,6.118,6.118,0,0,0-2.186,1.5A6.959,6.959,0,0,0,84.22,9.213a8.6,8.6,0,0,0-.513,3.026,8.71,8.71,0,0,0,.513,3.06,6.956,6.956,0,0,0,1.425,2.354,6.307,6.307,0,0,0,2.186,1.513,7.13,7.13,0,0,0,2.8.538,7.814,7.814,0,0,0,3.114-.572,6.882,6.882,0,0,0,2.286-1.58l3.511,2.955a14.941,14.941,0,0,1-3.859,3.1,12.917,12.917,0,0,1-5.018.908ZM102.389.4h5.2V24.141h-5.2Zm14.476,0H122.1V24.141h-5.234ZM105.5,9.65h13.084v4.573H105.5ZM0,40.588V16.85H3.71l9.209,14.559H11.031L20.206,16.85h3.743V40.588h-5.2V25.76l.928.235-6,9.482H10.236L4.273,26l.894-.235V40.588Zm39.584.4A12.463,12.463,0,0,1,34.7,40.05a12.244,12.244,0,0,1-3.925-2.623,11.9,11.9,0,0,1-2.617-3.917,13.056,13.056,0,0,1,0-9.667A12.016,12.016,0,0,1,30.74,19.96a11.777,11.777,0,0,1,3.892-2.589,13.284,13.284,0,0,1,9.739,0,11.963,11.963,0,0,1,3.909,2.589,11.84,11.84,0,0,1,2.6,3.9,13.1,13.1,0,0,1,0,9.684A11.906,11.906,0,0,1,44.4,40.05a12.291,12.291,0,0,1-4.82.941m-.066-4.808a6.992,6.992,0,0,0,3.66-.941A6.349,6.349,0,0,0,45.613,32.6a8.544,8.544,0,0,0,.861-3.917,8.828,8.828,0,0,0-.5-3.043,6.826,6.826,0,0,0-1.425-2.354,6.178,6.178,0,0,0-2.2-1.513,7.421,7.421,0,0,0-2.832-.521,7.09,7.09,0,0,0-3.66.925,6.286,6.286,0,0,0-2.435,2.589,8.414,8.414,0,0,0-.861,3.917,8.97,8.97,0,0,0,.5,3.06,6.934,6.934,0,0,0,1.408,2.37,6.168,6.168,0,0,0,2.2,1.53,7.338,7.338,0,0,0,2.849.538m15.6,4.4V16.85h3.644L60.32,21.59v19Zm16.132,0L57.472,22.666l1.292-5.817,13.78,17.921Zm0,0L69.86,35.847v-19h5.2V40.588Zm19.411.37a12.573,12.573,0,0,1-4.853-.925A11.833,11.833,0,0,1,81.9,37.427a12.029,12.029,0,0,1-2.6-3.917,13.012,13.012,0,0,1,0-9.65,11.78,11.78,0,0,1,2.584-3.884A11.909,11.909,0,0,1,85.777,17.4a12.575,12.575,0,0,1,4.853-.925,12.732,12.732,0,0,1,4.952.908,14.765,14.765,0,0,1,3.958,3.119L95.9,23.44a6.57,6.57,0,0,0-2.236-1.58,7.513,7.513,0,0,0-3.031-.572,7.33,7.33,0,0,0-2.8.521,6.119,6.119,0,0,0-2.186,1.5,6.958,6.958,0,0,0-1.425,2.354,8.6,8.6,0,0,0-.513,3.026,8.71,8.71,0,0,0,.513,3.06A6.955,6.955,0,0,0,85.644,34.1a6.307,6.307,0,0,0,2.186,1.513,7.13,7.13,0,0,0,2.8.538,7.814,7.814,0,0,0,3.114-.572A6.882,6.882,0,0,0,96.029,34l3.511,3.564a12.388,12.388,0,0,1-8.877,3.4ZM102.389,16.85h5.2V40.588h-5.2Zm14.476,0H122.1V40.588h-5.234ZM105.5,30.669V26.1h13.084v4.573Z" fill="url(#linear-gradient)"/>
  </g>
</svg>
