<svg width="67" height="57" viewBox="0 0 67 57" fill="none" xmlns="http://www.w3.org/2000/svg">
<path d="M19.4375 35.9695V44.7058" stroke="white" stroke-width="3" stroke-miterlimit="10"/>
<path d="M19.4375 47.4998V50.2698" stroke="white" stroke-width="3" stroke-miterlimit="10"/>
<path d="M3.72834 55.2582H35.1482C36.8854 55.2582 37.9517 53.3545 37.044 51.8738L33.0372 45.3337L21.3341 26.2306C20.4663 24.8154 18.4095 24.8154 17.5425 26.2306L6.62743 44.0476L1.83253 51.8738C0.924868 53.3553 1.99111 55.2582 3.72834 55.2582Z" stroke="white" stroke-width="3" stroke-miterlimit="10"/>
<path d="M6.62799 2.76148V44.0485L17.543 26.2315C18.41 24.8163 20.4668 24.8163 21.3346 26.2315L33.0378 45.3346H64.1995C64.8959 45.3346 65.4609 44.7696 65.4609 44.0732V2.76148C65.4609 2.065 64.8959 1.5 64.1995 1.5H7.88947C7.19299 1.5 6.62799 2.065 6.62799 2.76148Z" stroke="white" stroke-width="3" stroke-miterlimit="10"/>
<path d="M6.97108 1.82983L29.3008 23.4168L34.2782 28.2293C35.2639 29.1824 36.8282 29.1824 37.8132 28.2293L42.7906 23.4168L65.1211 1.82983" stroke="white" stroke-width="3" stroke-miterlimit="10"/>
<path d="M48.4876 28.9233L65.1211 45.0038" stroke="white" stroke-width="3" stroke-miterlimit="10"/>
</svg>
