<svg width="71" height="71" viewBox="0 0 71 71" fill="none" xmlns="http://www.w3.org/2000/svg">
<path d="M70.1059 29.0287L60.1767 21.8075V4.16004C60.1732 3.05779 59.7338 2.00167 58.9544 1.22226C58.175 0.442847 57.1189 0.00344995 56.0167 0H14.6256C13.5233 0.00344995 12.4672 0.442847 11.6878 1.22226C10.9084 2.00167 10.469 3.05779 10.4655 4.16004V21.8075L0.536362 29.0287C0.369701 29.1505 0.234225 29.31 0.141005 29.4942C0.0477857 29.6783 -0.000531097 29.8819 4.40312e-06 30.0883V66.7176C4.40312e-06 67.7585 0.413484 68.7567 1.14948 69.4927C1.88548 70.2287 2.88371 70.6422 3.92457 70.6422H47.0948C47.4418 70.6422 47.7745 70.5044 48.0198 70.259C48.2652 70.0137 48.403 69.681 48.403 69.334C48.403 68.9871 48.2652 68.6543 48.0198 68.409C47.7745 68.1637 47.4418 68.0258 47.0948 68.0258H3.92457C3.57762 68.0258 3.24488 67.888 2.99954 67.6427C2.75421 67.3973 2.61638 67.0646 2.61638 66.7176V32.7047L31.5666 53.7666C32.6553 54.5657 33.9706 54.9967 35.3211 54.9967C36.6716 54.9967 37.9869 54.5657 39.0756 53.7666L68.0258 32.7047V66.7176C68.0258 67.0646 67.888 67.3973 67.6427 67.6427C67.3973 67.888 67.0646 68.0258 66.7176 68.0258H52.3276C51.9806 68.0258 51.6479 68.1637 51.4025 68.409C51.1572 68.6543 51.0194 68.9871 51.0194 69.334C51.0194 69.681 51.1572 70.0137 51.4025 70.259C51.6479 70.5044 51.9806 70.6422 52.3276 70.6422H66.7176C67.7585 70.6422 68.7567 70.2287 69.4927 69.4927C70.2287 68.7567 70.6422 67.7585 70.6422 66.7176V30.0883C70.6427 29.8819 70.5944 29.6783 70.5012 29.4942C70.408 29.31 70.2725 29.1505 70.1059 29.0287ZM37.5319 51.595C36.8913 52.0667 36.1167 52.3212 35.3211 52.3212C34.5256 52.3212 33.7509 52.0667 33.1103 51.595L3.53211 30.0883L10.4655 25.0387V31.2395C10.4655 31.5865 10.6033 31.9192 10.8487 32.1646C11.094 32.4099 11.4268 32.5477 11.7737 32.5477C12.1207 32.5477 12.4534 32.4099 12.6987 32.1646C12.9441 31.9192 13.0819 31.5865 13.0819 31.2395V4.16004C13.0801 3.95684 13.1189 3.75532 13.1958 3.56725C13.2728 3.37918 13.3864 3.20831 13.5301 3.06462C13.6738 2.92093 13.8447 2.80729 14.0328 2.73033C14.2208 2.65337 14.4224 2.61463 14.6256 2.61638H56.0167C56.2199 2.61463 56.4214 2.65337 56.6094 2.73033C56.7975 2.80729 56.9684 2.92093 57.1121 3.06462C57.2558 3.20831 57.3694 3.37918 57.4464 3.56725C57.5233 3.75532 57.5621 3.95684 57.5603 4.16004V31.2395C57.5603 31.5865 57.6981 31.9192 57.9435 32.1646C58.1888 32.4099 58.5216 32.5477 58.8685 32.5477C59.2155 32.5477 59.5482 32.4099 59.7935 32.1646C60.0389 31.9192 60.1767 31.5865 60.1767 31.2395V25.0387L67.1101 30.0883L37.5319 51.595Z" fill="white"/>
<path d="M44.4773 14.3901C44.4773 14.7371 44.6151 15.0698 44.8604 15.3152C45.1058 15.5605 45.4385 15.6983 45.7855 15.6983C46.1324 15.6983 46.4652 15.5605 46.7105 15.3152C46.9558 15.0698 47.0936 14.7371 47.0936 14.3901V9.15737C47.0936 8.81042 46.9558 8.47768 46.7105 8.23234C46.4652 7.98701 46.1324 7.84918 45.7855 7.84918H40.5527C40.2057 7.84918 39.873 7.98701 39.6277 8.23234C39.3823 8.47768 39.2445 8.81042 39.2445 9.15737C39.2445 9.50432 39.3823 9.83707 39.6277 10.0824C39.873 10.3277 40.2057 10.4656 40.5527 10.4656H42.6327L38.7082 14.3901H27.4708C27.2986 14.3891 27.128 14.4221 26.9686 14.4872C26.8092 14.5523 26.6642 14.6483 26.542 14.7695L22.6174 18.6941C22.4948 18.8157 22.3975 18.9604 22.3311 19.1198C22.2647 19.2792 22.2305 19.4502 22.2305 19.6229C22.2305 19.7956 22.2647 19.9666 22.3311 20.126C22.3975 20.2854 22.4948 20.4301 22.6174 20.5517C22.739 20.6743 22.8837 20.7716 23.0431 20.838C23.2026 20.9045 23.3735 20.9387 23.5462 20.9387C23.7189 20.9387 23.8899 20.9045 24.0493 20.838C24.2088 20.7716 24.3534 20.6743 24.4751 20.5517L28.0072 17.0065H39.2445C39.4167 17.0075 39.5873 16.9745 39.7467 16.9094C39.9061 16.8443 40.0511 16.7484 40.1733 16.6271L44.4773 12.3101V14.3901Z" fill="white"/>
<path d="M27.4706 28.7802H22.2379C21.8909 28.7802 21.5582 28.918 21.3128 29.1633C21.0675 29.4086 20.9297 29.7414 20.9297 30.0883V37.9375C20.9297 38.2844 21.0675 38.6172 21.3128 38.8625C21.5582 39.1078 21.8909 39.2457 22.2379 39.2457H27.4706C27.8176 39.2457 28.1503 39.1078 28.3957 38.8625C28.641 38.6172 28.7788 38.2844 28.7788 37.9375V30.0883C28.7788 29.7414 28.641 29.4086 28.3957 29.1633C28.1503 28.918 27.8176 28.7802 27.4706 28.7802ZM26.1624 36.6293H23.5461V31.3965H26.1624V36.6293Z" fill="white"/>
<path d="M37.9355 26.1638H32.7027C32.3558 26.1638 32.023 26.3016 31.7777 26.547C31.5324 26.7923 31.3945 27.1251 31.3945 27.472V37.9375C31.3945 38.2845 31.5324 38.6172 31.7777 38.8625C32.023 39.1079 32.3558 39.2457 32.7027 39.2457H37.9355C38.2824 39.2457 38.6152 39.1079 38.8605 38.8625C39.1058 38.6172 39.2437 38.2845 39.2437 37.9375V27.472C39.2437 27.1251 39.1058 26.7923 38.8605 26.547C38.6152 26.3016 38.2824 26.1638 37.9355 26.1638ZM36.6273 36.6293H34.0109V28.7802H36.6273V36.6293Z" fill="white"/>
<path d="M48.4003 23.5474H43.1676C42.8206 23.5474 42.4879 23.6852 42.2425 23.9305C41.9972 24.1759 41.8594 24.5086 41.8594 24.8556V37.9374C41.8594 38.2844 41.9972 38.6171 42.2425 38.8625C42.4879 39.1078 42.8206 39.2456 43.1676 39.2456H48.4003C48.7473 39.2456 49.08 39.1078 49.3253 38.8625C49.5707 38.6171 49.7085 38.2844 49.7085 37.9374V24.8556C49.7085 24.5086 49.5707 24.1759 49.3253 23.9305C49.08 23.6852 48.7473 23.5474 48.4003 23.5474ZM47.0921 36.6293H44.4758V26.1637H47.0921V36.6293Z" fill="white"/>
</svg>
