<svg width="77" height="77" viewBox="0 0 77 77" fill="none" xmlns="http://www.w3.org/2000/svg">
<path d="M7.56891 40.83C6.90732 40.83 6.37109 40.294 6.37109 39.6322V31.3227C6.37109 30.6611 6.90717 30.1249 7.56891 30.1249H22.2625C22.9241 30.1249 23.4603 30.6611 23.4603 31.3227C23.4603 31.9843 22.9242 32.5205 22.2625 32.5205H8.76672V39.6322C8.76672 40.2938 8.23049 40.83 7.56891 40.83Z" fill="white"/>
<path d="M7.56891 63.6688C6.90732 63.6688 6.37109 63.1327 6.37109 62.471V60.5546C6.37109 59.893 6.90717 59.3568 7.56891 59.3568C8.23034 59.3568 8.76672 59.893 8.76672 60.5546V62.471C8.76672 63.1327 8.23049 63.6688 7.56891 63.6688Z" fill="white"/>
<path d="M7.56891 54.15C6.90732 54.15 6.37109 53.6138 6.37109 52.9522V49.1512C6.37109 48.4896 6.90717 47.9534 7.56891 47.9534C8.23034 47.9534 8.76672 48.4894 8.76672 49.1512V52.9522C8.76672 53.6136 8.23049 54.15 7.56891 54.15Z" fill="white"/>
<path d="M7.56891 42.7463C6.90732 42.7463 6.37109 42.2102 6.37109 41.5485V39.6321C6.37109 38.9706 6.90717 38.4343 7.56891 38.4343C8.23034 38.4343 8.76672 38.9706 8.76672 39.6321V41.5485C8.76672 42.2102 8.23049 42.7463 7.56891 42.7463Z" fill="white"/>
<path d="M69.4275 73.15H7.56891C6.90732 73.15 6.37109 72.6139 6.37109 71.9522V62.471C6.37109 61.8095 6.90717 61.2734 7.56891 61.2734C8.23034 61.2734 8.76672 61.8095 8.76672 62.471V70.7544H68.2297V32.5205H63.9957C63.3343 32.5205 62.7979 31.9844 62.7979 31.3227C62.7979 30.6611 63.3342 30.1249 63.9957 30.1249H69.4273C70.0889 30.1249 70.6251 30.6611 70.6251 31.3227V71.9522C70.6251 72.6139 70.0889 73.15 69.4275 73.15Z" fill="white"/>
<path d="M38.498 58.5264C38.2239 58.5264 37.9502 58.4329 37.7269 58.2452L6.79787 32.2394C6.29152 31.814 6.22653 31.0584 6.65234 30.5517C7.07861 30.0455 7.83413 29.9804 8.34002 30.4063L38.4978 55.7638L68.6567 30.4063C69.1611 29.9804 69.9182 30.0455 70.344 30.5523C70.7698 31.0585 70.7046 31.8142 70.1984 32.2395L39.2691 58.2455C39.0458 58.4329 38.7721 58.5264 38.498 58.5264Z" fill="white"/>
<path d="M69.4276 73.15H7.56902C7.0656 73.15 6.61592 72.835 6.44375 72.3626C6.27111 71.8895 6.41279 71.3594 6.79795 71.0357L30.9585 50.7209C31.4048 50.3458 32.0543 50.3458 32.5007 50.7209L38.4979 55.7638L44.4961 50.7209C44.9414 50.3458 45.5913 50.3458 46.0376 50.7209L70.1984 71.0357C70.5835 71.3594 70.7252 71.8895 70.5526 72.3626C70.3805 72.835 69.931 73.15 69.4276 73.15ZM10.8549 70.7543H66.1417L45.2668 53.2025L39.2692 58.2452C38.8229 58.6205 38.1733 58.6205 37.727 58.2452L31.7298 53.2025L10.8549 70.7543Z" fill="white"/>
<path d="M31.6666 34.241C31.005 34.241 30.4688 33.7048 30.4688 33.0432V31.7112C30.4688 31.0497 31.0048 30.5134 31.6666 30.5134C32.3281 30.5134 32.8644 31.0495 32.8644 31.7112V33.0432C32.8644 33.7046 32.328 34.241 31.6666 34.241Z" fill="white"/>
<path d="M32.3764 53.3616C31.7453 53.3616 31.2171 52.8684 31.1815 52.2308C31.1446 51.5702 31.6503 51.005 32.3105 50.968C38.3162 50.6331 43.0207 45.6538 43.0207 39.6322C43.0207 33.3715 37.9273 28.2783 31.6672 28.2783C25.4065 28.2783 20.3133 33.3717 20.3133 39.6322C20.3133 40.0771 20.339 40.5254 20.3906 40.9653C20.4668 41.6221 19.996 42.2168 19.3392 42.2935C18.687 42.3679 18.0872 41.8991 18.011 41.2423C17.9492 40.7112 17.918 40.1694 17.918 39.6322C17.918 32.0508 24.0861 25.8828 31.6676 25.8828C39.2485 25.8828 45.4165 32.0508 45.4165 39.6322C45.4165 46.9241 39.7185 52.9542 32.4445 53.3598C32.4214 53.3612 32.3989 53.3616 32.3764 53.3616Z" fill="white"/>
<path d="M31.6668 47.419C29.0588 47.419 26.9375 45.404 26.9375 42.9266C26.9375 42.265 27.4737 41.7288 28.1353 41.7288C28.7969 41.7288 29.3331 42.2648 29.3331 42.9266C29.3331 44.0826 30.3802 45.0236 31.667 45.0236C32.9537 45.0236 34.0002 44.0826 34.0002 42.9266C34.0002 41.7705 32.9537 40.83 31.667 40.83C29.059 40.83 26.9377 38.8148 26.9377 36.3378C26.9377 33.8604 29.059 31.8453 31.667 31.8453C34.2745 31.8453 36.3959 33.8606 36.3959 36.3378C36.3959 36.9994 35.8596 37.5356 35.1981 37.5356C34.5365 37.5356 34.0002 36.9996 34.0002 36.3378C34.0002 35.1817 32.9537 34.2408 31.667 34.2408C30.3802 34.2408 29.3331 35.1817 29.3331 36.3378C29.3331 37.4941 30.3802 38.4344 31.667 38.4344C34.2745 38.4344 36.3959 40.4496 36.3959 42.9266C36.3957 45.404 34.2742 47.419 31.6668 47.419Z" fill="white"/>
<path d="M31.6666 48.93C31.005 48.93 30.4688 48.3937 30.4688 47.7321V46.2213C30.4688 45.5597 31.0048 45.0234 31.6666 45.0234C32.3281 45.0234 32.8644 45.5597 32.8644 46.2213V47.7321C32.8644 48.3936 32.328 48.93 31.6666 48.93Z" fill="white"/>
<path d="M52.6041 19.711C51.9425 19.711 51.4062 19.1748 51.4062 18.5132V17.5479C51.4062 16.8863 51.9423 16.3501 52.6041 16.3501C53.2655 16.3501 53.8019 16.8863 53.8019 17.5479V18.5132C53.8019 19.1746 53.2656 19.711 52.6041 19.711Z" fill="white"/>
<path d="M52.6017 33.575C46.9282 33.575 42.3125 28.959 42.3125 23.2855C42.3125 17.6121 46.928 12.9965 52.6017 12.9965C58.2751 12.9965 62.8912 17.612 62.8912 23.2855C62.8912 28.959 58.2752 33.575 52.6017 33.575ZM52.6017 15.3919C48.249 15.3919 44.7081 18.9329 44.7081 23.2855C44.7081 27.6382 48.249 31.1795 52.6017 31.1795C56.9542 31.1795 60.4957 27.6382 60.4957 23.2855C60.4957 18.9329 56.9544 15.3919 52.6017 15.3919Z" fill="white"/>
<path d="M52.6033 29.2561C50.5323 29.2561 48.8477 27.6481 48.8477 25.6716C48.8477 25.01 49.3837 24.4738 50.0455 24.4738C50.7071 24.4738 51.2431 25.01 51.2431 25.6716C51.2431 26.3272 51.8533 26.8605 52.6034 26.8605C53.3534 26.8605 53.9635 26.327 53.9635 25.6716C53.9635 25.016 53.3534 24.4832 52.6034 24.4832C50.5324 24.4832 48.8478 22.8756 48.8478 20.8993C48.8478 18.923 50.5326 17.3154 52.6034 17.3154C54.6742 17.3154 56.359 18.923 56.359 20.8993C56.359 21.5609 55.8228 22.0971 55.1612 22.0971C54.4996 22.0971 53.9634 21.5611 53.9634 20.8993C53.9634 20.2437 53.3532 19.7109 52.6033 19.7109C51.8531 19.7109 51.243 20.2437 51.243 20.8993C51.243 21.5549 51.8531 22.0877 52.6033 22.0877C54.6741 22.0877 56.3589 23.6955 56.3589 25.6716C56.359 27.6481 54.6741 29.2561 52.6033 29.2561Z" fill="white"/>
<path d="M52.6041 30.3504C51.9425 30.3504 51.4062 29.8143 51.4062 29.1526V28.0583C51.4062 27.3967 51.9423 26.8605 52.6041 26.8605C53.2655 26.8605 53.8019 27.3965 53.8019 28.0583V29.1526C53.8019 29.8143 53.2656 30.3504 52.6041 30.3504Z" fill="white"/>
<path d="M31.6666 10.5905C31.005 10.5905 30.4688 10.0545 30.4688 9.39272V8.4219C30.4688 7.76047 31.0048 7.22424 31.6666 7.22424C32.3281 7.22424 32.8644 7.76032 32.8644 8.4219V9.39272C32.8644 10.0545 32.328 10.5905 31.6666 10.5905Z" fill="white"/>
<path d="M31.6686 24.5385C25.9647 24.5385 21.3242 19.8982 21.3242 14.1942C21.3242 8.4903 25.9645 3.84998 31.6686 3.84998C37.3724 3.84998 42.0127 8.4903 42.0127 14.1942C42.0127 19.8982 37.3724 24.5385 31.6686 24.5385ZM31.6686 6.24545C27.2854 6.24545 23.7198 9.81132 23.7198 14.1942C23.7198 18.5773 27.2856 22.1429 31.6686 22.1429C36.0515 22.1429 39.6173 18.5771 39.6173 14.1942C39.6173 9.81116 36.0515 6.24545 31.6686 6.24545Z" fill="white"/>
<path d="M31.6661 20.1932C29.5864 20.1932 27.8945 18.5791 27.8945 16.5948C27.8945 15.9333 28.4306 15.397 29.0923 15.397C29.7539 15.397 30.2902 15.9331 30.2902 16.5948C30.2902 17.2583 30.9072 17.7977 31.6661 17.7977C32.4246 17.7977 33.0417 17.2581 33.0417 16.5948C33.0417 15.9316 32.4246 15.392 31.6661 15.392C29.5864 15.392 27.8945 13.7779 27.8945 11.7936C27.8945 9.8093 29.5864 8.19507 31.6661 8.19507C33.7455 8.19507 35.4371 9.8093 35.4371 11.7936C35.4371 12.4552 34.9011 12.9914 34.2393 12.9914C33.5777 12.9914 33.0415 12.4552 33.0415 11.7936C33.0415 11.1302 32.4244 10.5907 31.666 10.5907C30.9071 10.5907 30.29 11.1303 30.29 11.7936C30.29 12.4569 30.9071 12.9965 31.666 12.9965C33.7453 12.9965 35.437 14.6106 35.437 16.5948C35.437 18.5791 33.7453 20.1932 31.6661 20.1932Z" fill="white"/>
<path d="M31.6666 21.2946C31.005 21.2946 30.4688 20.7585 30.4688 20.0968V18.9955C30.4688 18.334 31.0048 17.7977 31.6666 17.7977C32.3281 17.7977 32.8644 18.3338 32.8644 18.9955V20.0968C32.8644 20.7585 32.328 21.2946 31.6666 21.2946Z" fill="white"/>
<path d="M49.7994 42.1938C49.1378 42.1938 48.6016 41.6576 48.6016 40.996V36.53C48.6016 35.8685 49.1378 35.3322 49.7994 35.3322C50.461 35.3322 50.9972 35.8684 50.9972 36.53V40.996C50.9972 41.6576 50.4611 42.1938 49.7994 42.1938Z" fill="white"/>
<path d="M55.3969 38.1382C54.7353 38.1382 54.1992 37.6021 54.1992 36.9404V35.503C54.1992 34.8414 54.7353 34.3053 55.3969 34.3053C56.0585 34.3053 56.5947 34.8414 56.5947 35.503V36.9404C56.5947 37.6021 56.0586 38.1382 55.3969 38.1382Z" fill="white"/>
<path d="M45.9009 11.4968C45.2392 11.4968 44.7031 10.9607 44.7031 10.299V7.78387C44.7031 7.12229 45.2392 6.58606 45.9009 6.58606C46.5624 6.58606 47.0986 7.12213 47.0986 7.78387V10.2992C47.0986 10.9607 46.5624 11.4968 45.9009 11.4968Z" fill="white"/>
<path d="M19.1158 26.7943C18.4544 26.7943 17.918 26.258 17.918 25.5965V22.4649C17.918 21.8033 18.4542 21.2672 19.1158 21.2672C19.7774 21.2672 20.3136 21.8033 20.3136 22.4649V25.5965C20.3134 26.2579 19.7774 26.7943 19.1158 26.7943Z" fill="white"/>
</svg>
