<svg width="65" height="63" viewBox="0 0 65 63" fill="none" xmlns="http://www.w3.org/2000/svg">
<g clip-path="url(#clip0_619_1176)">
<path d="M51.7435 41.3976C51.6492 41.3062 51.5372 41.2337 51.414 41.1842C51.2908 41.1348 51.1587 41.1093 51.0253 41.1093C50.8919 41.1093 50.7599 41.1348 50.6366 41.1842C50.5134 41.2337 50.4014 41.3062 50.3071 41.3976L49.0339 42.6316L46.4547 40.1317C54.1046 30.3265 53.3229 16.2678 44.1061 7.33421C39.2608 2.63794 32.6892 -0.000430591 25.8369 -0.00048828C18.9846 -0.00054597 12.4129 2.63771 7.56754 7.3339C2.72219 12.0301 5.95218e-05 18.3995 9.76112e-10 25.041C-5.95198e-05 31.6825 2.72195 38.0519 7.56723 42.7482C11.9757 47.0202 17.8289 49.6036 24.0478 50.0224C30.2668 50.4412 36.4323 48.6671 41.408 45.027L43.9851 47.5249L42.7119 48.7589C42.5215 48.9435 42.4145 49.1939 42.4145 49.4549C42.4145 49.716 42.5215 49.9664 42.7119 50.151L54.1046 61.1929C55.3022 62.3537 56.9265 63.0059 58.6202 63.0059C60.3139 63.0059 61.9382 62.3538 63.1359 61.1931C64.3335 60.0323 65.0064 58.458 65.0064 56.8164C65.0064 55.1748 64.3336 53.6004 63.136 52.4396L51.7435 41.3976ZM9.0037 41.3558C6.7745 39.2173 5.00328 36.673 3.79182 33.8689C2.58037 31.0649 1.95256 28.0565 1.94448 25.0165C1.9364 21.9766 2.54821 18.9651 3.74475 16.155C4.94128 13.345 6.69896 10.7918 8.91677 8.64222C11.1346 6.49265 13.7688 4.78905 16.668 3.62932C19.5673 2.46959 22.6744 1.87659 25.8109 1.88441C28.9473 1.89223 32.0513 2.50071 34.9443 3.67488C37.8374 4.84904 40.4625 6.56576 42.6689 8.72636C51.9504 17.7224 51.9504 32.3601 42.6689 41.3562C38.2045 45.6831 32.1496 48.1139 25.8361 48.1139C19.5226 48.1139 13.4677 45.6831 9.00332 41.3562L9.0037 41.3558ZM42.9846 43.7705C43.3665 43.4411 43.7401 43.1002 44.1056 42.7478C44.471 42.3937 44.8226 42.0315 45.1603 41.6611L47.5978 44.0236L45.4217 46.1327L42.9846 43.7705ZM61.6998 59.8005C60.8824 60.5909 59.7749 61.0347 58.6203 61.0347C57.4658 61.0347 56.3583 60.5909 55.5409 59.8005L44.8664 49.455L51.0253 43.4857L61.6998 53.8318C62.5126 54.6254 62.9687 55.6982 62.9687 56.8164C62.9687 57.9346 62.5126 59.0074 61.6998 59.801V59.8005ZM25.8885 8.09538H25.7844C25.0866 8.09536 24.3967 8.23831 23.7599 8.51484C23.1231 8.79137 22.5538 9.19524 22.0893 9.69997C21.6248 10.2047 21.2757 10.7989 21.0647 11.4436C20.8538 12.0882 20.7858 12.7689 20.8653 13.4408L22.9354 30.9422C23.0171 31.6324 23.3579 32.2693 23.8929 32.7317C24.4278 33.1941 25.1195 33.4496 25.8363 33.4496C26.5531 33.4496 27.2448 33.1941 27.7797 32.7317C28.3147 32.2693 28.6554 31.6324 28.7372 30.9422L30.8074 13.4409C30.8869 12.769 30.8189 12.0884 30.608 11.4437C30.397 10.799 30.0479 10.2048 29.5834 9.70009C29.1189 9.19536 28.5496 8.79149 27.9128 8.51496C27.276 8.23843 26.5861 8.09548 25.8883 8.0955L25.8885 8.09538ZM28.7893 13.2166L26.7192 30.7179C26.6943 30.9279 26.5905 31.1216 26.4277 31.2623C26.265 31.4029 26.0545 31.4807 25.8364 31.4807C25.6183 31.4807 25.4079 31.4029 25.2451 31.2623C25.0823 31.1216 24.9785 30.9279 24.9536 30.7179L22.8835 13.2166C22.8366 12.8203 22.8767 12.4189 23.0011 12.0388C23.1255 11.6586 23.3314 11.3081 23.6053 11.0105C23.8792 10.7128 24.2149 10.4746 24.5904 10.3115C24.966 10.1484 25.3729 10.0641 25.7844 10.0641H25.8885C26.3 10.0641 26.7068 10.1484 27.0824 10.3115C27.4579 10.4746 27.7937 10.7128 28.0676 11.0105C28.3415 11.3081 28.5474 11.6586 28.6718 12.0388C28.7962 12.4189 28.8362 12.8203 28.7893 13.2166ZM25.8364 34.6936C25.0923 34.6936 24.3648 34.9074 23.7461 35.3081C23.1273 35.7089 22.6451 36.2784 22.3603 36.9447C22.0755 37.6111 22.001 38.3443 22.1462 39.0517C22.2914 39.7591 22.6497 40.4089 23.1759 40.9189C23.7021 41.4289 24.3725 41.7763 25.1024 41.917C25.8322 42.0577 26.5888 41.9855 27.2763 41.7094C27.9638 41.4334 28.5514 40.966 28.9648 40.3663C29.3783 39.7666 29.5989 39.0616 29.5989 38.3403C29.5978 37.3735 29.2011 36.4465 28.4957 35.7628C27.7903 35.0792 26.834 34.6946 25.8364 34.6936ZM25.8364 40.0183C25.494 40.0183 25.1593 39.9199 24.8746 39.7355C24.5899 39.5511 24.368 39.289 24.2369 38.9824C24.1059 38.6758 24.0716 38.3384 24.1384 38.0129C24.2052 37.6874 24.3701 37.3885 24.6122 37.1538C24.8544 36.9191 25.1628 36.7593 25.4987 36.6945C25.8345 36.6298 26.1826 36.663 26.4989 36.79C26.8153 36.917 27.0857 37.1321 27.2759 37.4081C27.4661 37.684 27.5677 38.0084 27.5677 38.3403C27.5672 38.7852 27.3846 39.2117 27.06 39.5263C26.7355 39.8409 26.2954 40.0178 25.8364 40.0183Z" fill="white"/>
</g>
<defs>
<clipPath id="clip0_619_1176">
<rect width="65" height="63" fill="white"/>
</clipPath>
</defs>
</svg>
