<svg width="332" height="40" viewBox="0 0 332 40" fill="none" xmlns="http://www.w3.org/2000/svg">
<path d="M179.911 17.1056L189.133 6.16504H179.747L170.557 17.0675V6.16504H162.422V33.9544H170.557V28.2029L174.159 23.9296L180.019 33.9544H189.76L179.911 17.1056Z" fill="#333333"/>
<path d="M148.174 6.16504H148.171H140.039H140.036L140.038 6.16855L128.295 33.9543H136.43L138.306 29.5146H149.904L151.78 33.9543H159.915L148.172 6.16855L148.174 6.16504ZM140.861 23.4693L144.105 15.793L147.349 23.4693H140.861Z" fill="#333333"/>
<path d="M19.938 33.955H22.4298C22.4298 31.1646 24.6618 28.9019 27.4146 28.9019V26.376C23.2853 26.376 19.938 29.7697 19.938 33.955Z" fill="#333333"/>
<path d="M24.9224 33.954H27.4146V31.4287C26.0382 31.4287 24.9224 32.5584 24.9224 33.954Z" fill="#333333"/>
<path d="M14.9531 33.9546H17.4458C17.4458 28.3737 21.9093 23.8503 27.4145 23.8503V21.3223C20.5328 21.3223 14.9531 26.9791 14.9531 33.9546Z" fill="#333333"/>
<path d="M9.96851 33.9544H12.461C12.461 25.5832 19.1562 18.7964 27.4144 18.7964V16.2705C17.7799 16.2705 9.96851 24.1882 9.96851 33.9544Z" fill="#333333"/>
<path d="M4.98438 33.955H7.47695C7.47695 22.7938 16.4037 13.7457 27.4146 13.7457V11.2178C15.0275 11.2178 4.98438 21.3985 4.98438 33.955Z" fill="#333333"/>
<path d="M0 33.9544H2.49159C2.49159 20.003 13.6512 8.69158 27.4145 8.69158V6.16504H0V33.9544Z" fill="#333333"/>
<path d="M55.0245 17.0997H45.287V6.16504H37.1521V33.9544H45.287V23.4817H55.0245V33.9544H63.1591V6.16504H55.0245V17.0997Z" fill="#333333"/>
<path d="M118.356 21.7043L106.741 6.16504H99.7798V33.9544H107.249V18.4935L118.865 33.9544H125.788V6.16504H118.356V21.7043Z" fill="#333333"/>
<path d="M85.5301 6.16504H85.5271H77.3955H77.3924L77.394 6.16855L65.6516 33.9543H73.7863L75.6624 29.5146H87.2601L89.1362 33.9543H97.2709L85.5285 6.16868L85.5301 6.16504ZM78.2174 23.4693L81.4613 15.793L84.7052 23.4693H78.2174Z" fill="#333333"/>
<path d="M150.725 0.120117H142.591L141.317 3.13428H149.452L150.725 0.120117Z" fill="#333333"/>
<path d="M208.614 0H207.64V39.9997H208.614V0Z" fill="#333333"/>
<path d="M242.328 15.1336C241.636 11.9207 239.014 10.0805 236.017 10.0805C230.571 10.0805 228.266 14.6955 228.266 19.2519C228.266 23.8083 230.571 28.4234 236.017 28.4234C239.821 28.4234 242.241 25.444 242.616 21.7348H244.575C244.028 26.8461 240.829 30.1174 236.017 30.1174C229.534 30.1174 226.307 24.9477 226.307 19.2521C226.307 13.5564 229.534 8.38672 236.017 8.38672C239.907 8.38672 243.768 10.7524 244.287 15.1337L242.328 15.1336Z" fill="#333333"/>
<path d="M248.294 22.6392C248.322 25.3263 249.706 28.5687 253.192 28.5687C255.843 28.5687 257.283 26.9915 257.86 24.7133H259.675C258.897 28.1304 256.938 30.1166 253.192 30.1166C248.467 30.1166 246.478 26.4364 246.478 22.1429C246.478 18.1706 248.467 14.1689 253.192 14.1689C257.975 14.1689 259.877 18.4042 259.733 22.6392H248.294ZM257.917 21.0914C257.831 18.3166 256.131 15.7168 253.192 15.7168C250.224 15.7168 248.582 18.3456 248.294 21.0914H257.917Z" fill="#333333"/>
<path d="M262.154 14.607H263.97V17.2067H264.027C264.69 15.3957 266.678 14.1689 268.782 14.1689C272.96 14.1689 274.228 16.3886 274.228 19.9812V29.6785H272.412V20.2736C272.412 17.6739 271.577 15.7168 268.637 15.7168C265.756 15.7168 264.027 17.9368 263.97 20.8868V29.6785H262.154V14.607Z" fill="#333333"/>
<path d="M280.538 14.6074H283.564V16.1555H280.538V26.3199C280.538 27.5174 280.711 28.2183 282.008 28.3061C282.526 28.3061 283.045 28.2767 283.564 28.2183V29.7956C283.016 29.7956 282.498 29.854 281.95 29.854C279.529 29.854 278.694 29.0361 278.723 26.4659V16.1555H276.13V14.6074H278.723V10.0801H280.538L280.538 14.6074Z" fill="#333333"/>
<path d="M286.186 14.6077H287.857V18.1421H287.915C288.837 15.7175 290.854 14.2866 293.534 14.4031V16.2433C290.249 16.0681 288.001 18.5215 288.001 21.647V29.6792H286.186V14.6077Z" fill="#333333"/>
<path d="M307.307 29.679H305.636V26.9628H305.578C304.627 28.9781 302.668 30.1171 300.45 30.1171C296.704 30.1171 295.234 27.8974 295.234 24.3922V14.6074H297.05V24.4215C297.136 27.1378 298.144 28.569 301.026 28.569C304.138 28.569 305.492 25.5896 305.492 22.5228V14.6074H307.307V29.679Z" fill="#333333"/>
<path d="M310.737 14.607H312.408V17.1481H312.494C313.446 15.3373 315.002 14.1689 317.364 14.1689C319.323 14.1689 321.081 15.1329 321.629 17.119C322.522 15.1329 324.395 14.1689 326.354 14.1689C329.61 14.1689 331.281 15.8923 331.281 19.4554V29.6785H329.466V19.5432C329.466 17.0603 328.544 15.7167 325.951 15.7167C322.81 15.7167 321.917 18.3454 321.917 21.1494V29.6783H320.102V19.4553C320.13 17.4109 319.295 15.7167 316.99 15.7167C313.849 15.7167 312.581 18.1118 312.552 21.2663V29.6783H310.737V14.607Z" fill="#333333"/>
</svg>
