<svg width="83" height="83" viewBox="0 0 83 83" fill="none" xmlns="http://www.w3.org/2000/svg">
<path d="M41.5001 6.91699C28.1163 6.91699 17.2917 17.7416 17.2917 31.1253C17.2917 49.2816 41.5001 76.0837 41.5001 76.0837C41.5001 76.0837 65.7084 49.2816 65.7084 31.1253C65.7084 17.7416 54.8838 6.91699 41.5001 6.91699ZM41.5001 39.7712C39.2071 39.7712 37.008 38.8603 35.3866 37.2389C33.7651 35.6174 32.8542 33.4183 32.8542 31.1253C32.8542 28.8323 33.7651 26.6332 35.3866 25.0118C37.008 23.3904 39.2071 22.4795 41.5001 22.4795C43.7931 22.4795 45.9922 23.3904 47.6136 25.0118C49.235 26.6332 50.1459 28.8323 50.1459 31.1253C50.1459 33.4183 49.235 35.6174 47.6136 37.2389C45.9922 38.8603 43.7931 39.7712 41.5001 39.7712Z" fill="#D9C5B2"/>
</svg>
