<?xml version="1.0" encoding="UTF-8"?><svg id="Layer_1" xmlns="http://www.w3.org/2000/svg" viewBox="0 0 715.69 237.38"><path d="M273.63,159.98c-3.74,8.09-7.58,16.61-18.58,19.61-4.77,1.35-10.27,1.56-12.56,1.56-5.5,0-11.1-1.35-12.14-2.8-1.25-1.87-1.25-6.33-1.35-10.79-.1-9.44-.1-14.43-.1-23.87,0-10.27,0-15.88.31-25.53.21-7.47,7.58-8.61,11.31-9.13v-1.04h-38.09v1.04c3.63.41,7.47,1.66,9.44,3.94,1.56,1.87,1.56,7.16,1.56,11.93v20.13c0,7.78-.1,17.64-.21,21.48-.1,4.46-.62,9.55-1.97,11.21-1.87,2.18-6.12,3.43-9.55,3.94v1.04h69.12l3.84-22.42-1.04-.31Z" fill="#fff"/><path d="M346.69,175.03c-1.66-3.53-2.8-5.92-4.36-10.17-6.54-17.54-13.18-35.29-21.8-58.33h-.83c-2.49,3.22-7.78,7.78-12.87,9.55l1.66,3.74c-6.54,15.57-14.43,34.25-20.34,47.33-3.22,7.06-5.5,10.48-6.43,11.42-.41.52-3.43,2.6-7.06,3.01v1.14h22.31v-1.04c-3.63-.42-8.62-1.35-8.62-4.98,0-1.35.73-4.15,2.18-7.89,1.87-4.88,3.63-9.03,5.71-14.22h25.95c4.15,10.9,7.27,19.93,7.27,22.31,0,3.94-5.4,4.46-8.3,4.78v1.04h35.49v-1.25c-6.33-.21-9.34-5.19-9.96-6.43ZM297.19,152.41c5.5-13.59,10.17-24.8,12.46-30.1,2.8,6.95,7.58,19.3,11.73,30.1h-24.18Z" fill="#fff"/><path d="M411.3,143.58v-.41c9.65-1.87,16.4-7.68,16.4-16.71,0-8.2-5.19-13.7-12.46-16.29-4.56-1.66-9.44-2.18-14.84-2.18h-38.5v1.04c3.74.41,5.81.93,7.89,3.11,1.66,1.76,1.97,7.78,2.08,12.66.1,8.3.1,11.94.1,20.24,0,7.58-.1,17.64-.21,21.48-.1,4.46-.52,9.55-1.87,11.21-1.87,2.18-5.71,3.43-9.13,3.94v1.04h39.13c6.12,0,13.39-.1,18.78-2.08,6.44-2.28,13.28-8.51,13.28-18.37,0-11.1-10.27-17.54-20.65-18.68ZM387.63,117.43c.21-5.09.21-5.4.52-7.16,1.04-.42,3.11-.73,5.6-.73,4.05,0,7.37.73,9.96,2.08,4.57,2.28,7.68,7.99,7.68,14.84,0,9.44-5.19,16.4-15.77,17.12-1.66.1-4.25.1-8.2.1,0-1.25-.1-16.61.21-26.26ZM407.66,178.56c-3.84,2.28-7.99,2.6-11.42,2.6-4.15,0-6.02-1.14-7.06-2.7-1.45-2.18-1.56-5.5-1.66-10.69-.1-4.57-.1-13.6-.1-22.52h8.72c3.32,0,5.6.31,8.3,1.25,6.43,2.39,11,9.03,11,16.92,0,6.95-2.8,12.14-7.78,15.15Z" fill="#fff"/><path d="M482.22,140.68c-4.77-1.87-9.75-3.63-13.59-5.19-6.44-2.49-12.04-6.33-12.04-13.18,0-7.58,6.33-13.8,14.74-13.8,9.65,0,18.47,12.14,21.9,21.59h1.14v-22h-1.14c-1.04,1.66-2.7,4.25-3.11,4.25-.93,0-6.95-5.5-19.93-5.5s-26.98,7.47-26.98,22.52c0,9.44,5.6,16.09,13.91,19.51,5.4,2.18,10.58,3.84,14.94,5.4,6.74,2.39,12.04,5.71,12.04,12.77,0,9.34-6.33,14.94-15.78,14.94-3.94,0-8.09-1.97-10.27-3.43-4.88-3.22-11.73-12.04-14.32-19.41h-1.04l.31,23.46h.93c1.14-1.56,2.8-3.94,3.22-3.94.72,0,7.99,4.98,21.9,4.98,15.78,0,29.16-8.41,29.16-22.52,0-10.59-5.71-16.5-15.98-20.45Z" fill="#fff"/><path d="M571.43,172.75c-9.86-12.14-24.08-29.58-28.12-35.08,4.25-4.57,9.55-10.48,14.11-15.05,6.54-6.54,14.22-12.97,21.17-13.59v-1.04h-28.13v1.04c3.63.52,7.16,2.08,7.16,6.12,0,2.39-1.87,5.5-4.05,8.2-6.02,7.26-18.16,20.55-22.93,23.46,0-15.46,0-18.99.21-25.32.31-11.52,5.92-11.83,11.1-12.45v-1.04h-37.15v1.04c3.63.41,6.75,1.45,8.72,3.74,1.56,1.87,1.66,6.95,1.66,12.04v20.24c0,8.41,0,17.64-.1,21.48-.1,4.46-.1,9.96-1.56,11.62-1.66,1.97-5.6,3.01-9.03,3.53v1.04h38.3v-1.04c-2.8-.21-8.41-1.35-10.38-4.05-1.35-1.76-1.66-5.6-1.76-9.55-.1-4.57-.1-12.77-.1-20.03h.31c.73,0,1.66.62,4.78,4.46,7.89,9.86,14.32,18.27,22.62,28.54.73.93,1.45,1.35,1.97,1.66h27.61v-1.04c-3.42-.21-7.58-1.45-8.51-1.87-1.25-.52-5.29-3.94-7.89-7.06Z" fill="#fff"/><path d="M664.68,175.03c-1.66-3.53-2.8-5.92-4.36-10.17-6.54-17.54-13.18-35.29-21.8-58.33h-.83c-2.49,3.22-7.78,7.78-12.87,9.55l1.66,3.74c-6.54,15.57-14.43,34.25-20.34,47.33-3.22,7.06-5.5,10.48-6.43,11.42-.41.52-3.43,2.6-7.06,3.01v1.14h22.31v-1.04c-3.63-.42-8.62-1.35-8.62-4.98,0-1.35.73-4.15,2.18-7.89,1.87-4.88,3.63-9.03,5.71-14.22h25.95c4.15,10.9,7.27,19.93,7.27,22.31,0,3.94-5.4,4.46-8.3,4.78v1.04h35.49v-1.25c-6.33-.21-9.34-5.19-9.96-6.43ZM615.18,152.41c5.5-13.59,10.17-24.8,12.46-30.1,2.8,6.95,7.58,19.3,11.73,30.1h-24.18Z" fill="#fff"/><path d="M650.05,94.29v-.52c-1.56-4.36-4.77-7.37-8.82-7.89l-13.91,17.23,1.04.62,21.69-9.44Z" fill="#fff"/><polygon points="216.74 81.5 227.39 55.11 223.63 55.11 214.72 77.9 205.82 55.11 202.06 55.11 212.66 81.5 216.74 81.5" fill="#fff"/><rect x="230.66" y="55.11" width="3.28" height="26.39" fill="#fff"/><polygon points="255.52 78.57 243.26 78.57 243.26 55.11 239.97 55.11 239.97 81.5 255.52 81.5 255.52 78.57" fill="#fff"/><path d="M264.03,75.64h13.37l2.33,5.86h3.64l-10.64-26.39h-4.08l-10.6,26.39h3.64l2.33-5.86ZM270.72,58.04l5.7,14.68h-11.44l5.74-14.68Z" fill="#fff"/><path d="M309.21,68.32c0-7.48-5.34-13.22-13.53-13.22h-9.02v26.39h9.02c8.19,0,13.53-5.66,13.53-13.18ZM289.94,58.04h5.74c6.53,0,10.13,4.59,10.13,10.29s-3.72,10.25-10.13,10.25h-5.74v-20.54Z" fill="#fff"/><path d="M325.89,81.98c7.8,0,13.1-5.86,13.1-13.65s-5.3-13.65-13.1-13.65-13.1,5.86-13.1,13.65,5.26,13.65,13.1,13.65ZM325.89,57.6c5.9,0,9.69,4.55,9.69,10.72s-3.8,10.72-9.69,10.72-9.69-4.59-9.69-10.72,3.76-10.72,9.69-10.72Z" fill="#fff"/><polygon points="366.41 81.5 369.69 81.5 369.69 55.11 364.99 55.11 356.75 75.21 348.56 55.11 343.85 55.11 343.85 81.5 347.14 81.5 347.14 59.54 356.08 81.5 357.43 81.5 366.41 59.54 366.41 81.5" fill="#fff"/><polygon points="383.4 81.5 386.68 81.5 386.68 70.34 397.05 55.11 393.21 55.11 385.02 67.37 376.83 55.11 372.99 55.11 383.4 70.34 383.4 81.5" fill="#fff"/><path d="M70.98,102.9c2.05,3.46,3.24,5.96,5.52,11.36,2.73,6.58,5.39,12.99,8.12,19.61.29.68.57,1.37.86,2.07.26.64.53,1.3.81,1.96.53,1.26,1.04,2.53,1.59,3.83.22.55.46,1.1.68,1.65.22.55.46,1.1.68,1.65,3.74,8.98,7.75,18.57,12.37,29.51h3.72l4.56-11.03c2.42-5.77,5.04-12.1,7.68-18.48h-3.43c-1.54,3.74-2.82,6.91-3.78,9.27-1.1-2.62-2.46-5.79-3.94-9.27-.22-.55-.46-1.1-.7-1.65-.24-.55-.46-1.08-.71-1.65-.33-.81-.68-1.61-1.04-2.46-.22-.53-.44-1.06-.68-1.61-.22-.53-.46-1.08-.7-1.63-6.42-15.1-13.34-31.71-13.34-33.78,0-3.7,5.22-4.91,7.77-5.33.49-.09.9-.15,1.12-.18v-1.08h-37.13v1.19c6.62.22,8.98,4.44,9.97,6.05Z" fill="#fff"/><path d="M129.74,102.79c0,1.3-.57,4.05-2.33,9.05l2.05,4.77c.72-1.63,1.41-3.21,2.07-4.71,3.46-8.12,5.85-10.72,6.82-11.69.53-.55,3.78-3.04,7.35-3.46v-1.08h-26.47v1.08c.57.07,1.21.15,1.87.27,3.83.64,8.63,2.27,8.63,5.77Z" fill="#fff"/><path d="M82.09,136.39c-1.04-.48-2.07-1.03-3.06-1.65-2.82-1.81-5.3-4.11-7.5-6.64-1.78-2.05-3.35-4.27-4.77-6.58-.68-1.14-1.32-2.29-1.91-3.48l-1.08.35,4.01,23.35h16.51c-.75-1.8-1.48-3.59-2.22-5.35Z" fill="#fff"/><path d="M88.08,69.3c1.28,1.83,2.31,3.89,3.24,5.9.99,2.16,1.96,4.34,2.88,6.54,1.5,3.54,2.97,7.09,4.47,10.61.07.17.13.31.2.48.17.38.33.79.49,1.17.15.33.29.66.42.99.55,1.3,1.1,2.58,1.65,3.89.59,1.37,1.17,2.77,1.76,4.14,1.48,3.48,2.97,6.98,4.42,10.47.68,1.34,1.17,2.79,1.72,4.16.62,1.48,1.23,2.95,1.83,4.44,1.19,2.97,2.36,5.96,3.5,8.94.27.7.57,1.45.71,2.22.18.83.17,1.69-.24,2.47-.31.59-.79,1.05-1.34,1.41-.82.55-1.83.88-2.71,1.17-.97.29-2.22.51-3.67.7.4.95.79,1.87,1.15,2.73h28.15l-5.41-12.46-.04-.09c-.53-1.08-1.06-2.25-1.67-3.67-.06-.13-.11-.24-.17-.37-.02-.02-.02-.04-.04-.07-.02-.05-.06-.11-.07-.18-.24-.57-.48-1.14-.75-1.78-.02-.06-.04-.09-.06-.15-.13-.29-.26-.62-.38-.92-.07-.18-.15-.37-.22-.55-.09-.22-.18-.44-.29-.66-.09-.26-.2-.53-.33-.81l-.07-.2c-.2-.44-.38-.9-.59-1.37-.29-.7-.6-1.41-.92-2.14-.29-.7-.6-1.41-.92-2.14-.31-.73-.62-1.47-.95-2.24-1.59-3.74-3.34-7.81-5.08-11.91-.24-.59-.48-1.17-.73-1.76-.16-.38-.31-.77-.48-1.15-.57-1.3-1.12-2.6-1.65-3.9-3.24-7.72-6.18-14.92-7.79-19.37-.02-.04-.04-.07-.06-.11-.79-2.22-1.26-3.74-1.26-4.29,0-1.5.93-2.68,2.16-3.45,1.39-.9,3.06-1.37,4.67-1.72.7-.15,1.37-.24,2.05-.35v-1.08h-37.1v1.19c3.94.13,7.2,2.09,9.46,5.28Z" fill="#fff"/><path d="M41.05,142.48l34.3,53.86h54.05l34.3-53.86V41.05H41.05v101.43ZM46.12,46.12h112.49v94.87l-32,50.26h-48.48l-32-50.26V46.12Z" fill="#fff"/></svg>