<svg width="361" height="89" viewBox="0 0 361 89" fill="none" xmlns="http://www.w3.org/2000/svg">
<path d="M132.264 67.6365C130.137 72.2373 127.954 77.0827 121.698 78.7889C118.985 79.5566 115.858 79.676 114.555 79.676C111.428 79.676 108.243 78.9083 107.652 78.0837C106.941 77.0202 106.941 74.4837 106.884 71.9473C106.827 66.5787 106.827 63.7408 106.827 58.3722C106.827 52.5316 106.827 49.3411 107.003 43.8531C107.123 39.6049 111.314 38.9565 113.435 38.6608V38.0693H91.774V38.6608C93.8383 38.894 96.0221 39.6049 97.1424 40.9015C98.0295 41.965 98.0295 44.9735 98.0295 47.6862V59.1343C98.0295 63.5588 97.9727 69.1663 97.9101 71.3502C97.8532 73.8866 97.5575 76.7813 96.7898 77.7254C95.7264 78.9652 93.3095 79.676 91.3589 79.9661V80.5575H130.666L132.85 67.8071L132.258 67.6308L132.264 67.6365Z" fill="white"/>
<path d="M173.812 76.1955C172.868 74.188 172.22 72.8288 171.333 70.4118C167.614 60.4366 163.838 50.3421 158.936 37.239H158.464C157.048 39.0703 154.039 41.6636 151.145 42.6702L152.089 44.7971C148.369 53.6519 143.883 64.2754 140.522 71.7141C138.69 75.7292 137.394 77.6742 136.865 78.2088C136.632 78.5045 134.914 79.6874 132.85 79.9206V80.5689H145.537V79.9774C143.473 79.7386 140.635 79.2097 140.635 77.1453C140.635 76.3775 141.05 74.7851 141.875 72.6582C142.939 69.8829 143.939 67.5227 145.122 64.5711H159.88C162.24 70.7701 164.014 75.9055 164.014 77.259C164.014 79.4997 160.943 79.7955 159.294 79.9774V80.5689H179.476V79.858C175.877 79.7386 174.165 76.9064 173.812 76.2012V76.1955ZM145.663 63.3314C148.79 55.6026 151.446 49.2274 152.748 46.2132C154.341 50.1658 157.059 57.1893 159.419 63.3314H145.668H145.663Z" fill="white"/>
<path d="M210.555 58.3097V58.0765C216.042 57.013 219.881 53.7088 219.881 48.5734C219.881 43.91 216.93 40.7821 212.795 39.3091C210.202 38.3651 207.427 38.0693 204.356 38.0693H182.462V38.6608C184.589 38.894 185.766 39.1897 186.949 40.4295C187.893 41.4304 188.069 44.854 188.132 47.6293C188.188 52.3496 188.188 54.4197 188.188 59.14C188.188 63.4508 188.132 69.172 188.069 71.3558C188.012 73.8923 187.773 76.787 187.006 77.7311C185.942 78.9708 183.758 79.6817 181.813 79.9718V80.5632H204.066C207.546 80.5632 211.681 80.5064 214.746 79.3803C218.408 78.0837 222.298 74.5406 222.298 68.9331C222.298 62.6205 216.458 58.958 210.555 58.3097ZM197.094 43.4379C197.213 40.5432 197.213 40.3669 197.39 39.366C197.981 39.1271 199.158 38.9508 200.574 38.9508C202.877 38.9508 204.765 39.366 206.238 40.1338C208.837 41.4304 210.606 44.6777 210.606 48.5734C210.606 53.942 207.654 57.9002 201.638 58.3097C200.694 58.3665 199.221 58.3665 196.975 58.3665C196.975 57.6557 196.918 48.9203 197.094 43.4323V43.4379ZM208.485 78.2031C206.301 79.4997 203.941 79.6817 201.99 79.6817C199.63 79.6817 198.567 79.0334 197.975 78.1462C197.151 76.9064 197.088 75.0183 197.031 72.0667C196.975 69.4677 196.975 64.3323 196.975 59.2594H201.933C203.821 59.2594 205.118 59.4357 206.653 59.9703C210.31 61.3295 212.909 65.1057 212.909 69.5928C212.909 73.5454 211.317 76.497 208.485 78.2088V78.2031Z" fill="white"/>
<path d="M250.886 56.6604C248.173 55.5969 245.341 54.596 243.157 53.7088C239.495 52.2927 236.31 50.1089 236.31 46.2133C236.31 41.9024 239.91 38.3651 244.693 38.3651C250.181 38.3651 255.196 45.2692 257.147 50.6435H257.795V38.1319H257.147C256.556 39.076 255.612 40.5489 255.378 40.5489C254.849 40.5489 251.426 37.421 244.045 37.421C236.663 37.421 228.701 41.6693 228.701 50.2283C228.701 55.5969 231.886 59.3789 236.612 61.3238C239.683 62.5636 242.628 63.5077 245.108 64.3949C248.941 65.7541 251.955 67.6422 251.955 71.6573C251.955 76.969 248.355 80.1538 242.981 80.1538C240.74 80.1538 238.38 79.0334 237.141 78.2031C234.366 76.3719 230.47 71.3558 228.997 67.1645H228.406L228.582 80.5064H229.111C229.759 79.6192 230.703 78.2657 230.942 78.2657C231.352 78.2657 235.486 81.0978 243.396 81.0978C252.37 81.0978 259.979 76.315 259.979 68.2905C259.979 62.2679 256.732 58.9068 250.891 56.6604H250.886Z" fill="white"/>
<path d="M301.618 74.8989C296.011 67.9948 287.924 58.0765 285.627 54.9486C288.043 52.3496 291.057 48.9885 293.651 46.3895C297.37 42.6702 301.737 39.0134 305.69 38.6608V38.0693H289.693V38.6608C291.757 38.9565 293.764 39.8437 293.764 42.1413C293.764 43.5005 292.701 45.2692 291.461 46.8047C288.038 50.9335 281.134 58.4917 278.421 60.1466C278.421 51.3544 278.421 49.3468 278.541 45.7469C278.717 39.1954 281.907 39.0191 284.853 38.6665V38.075H263.727V38.6665C265.791 38.8997 267.565 39.4911 268.686 40.7934C269.573 41.8569 269.63 44.746 269.63 47.6407V59.1514C269.63 63.9342 269.63 69.1834 269.573 71.3672C269.516 73.9037 269.516 77.0316 268.686 77.9756C267.741 79.096 265.501 79.6874 263.55 79.9832V80.5746H285.331V79.9832C283.738 79.8637 280.548 79.2154 279.428 77.6799C278.66 76.679 278.484 74.4951 278.427 72.2487C278.37 69.6497 278.37 64.9863 278.37 60.8575H278.546C278.962 60.8575 279.49 61.2101 281.265 63.3939C285.752 69.0014 289.408 73.7842 294.128 79.6249C294.543 80.1538 294.953 80.3926 295.249 80.5689H310.95V79.9775C309.005 79.858 306.639 79.1528 306.11 78.914C305.4 78.6182 303.102 76.6733 301.624 74.8989H301.618Z" fill="white"/>
<path d="M354.647 76.1955C353.703 74.188 353.055 72.8288 352.168 70.4118C348.449 60.4366 344.673 50.3421 339.77 37.239H339.298C337.882 39.0703 334.874 41.6636 331.98 42.6702L332.924 44.7971C329.204 53.6519 324.717 64.2754 321.357 71.7141C319.525 75.7292 318.229 77.6742 317.7 78.2088C317.467 78.5045 315.749 79.6874 313.685 79.9206V80.5689H326.372V79.9774C324.308 79.7386 321.47 79.2097 321.47 77.1453C321.47 76.3775 321.885 74.7851 322.71 72.6582C323.773 69.8829 324.774 67.5227 325.957 64.5711H340.714C343.075 70.7701 344.849 75.9055 344.849 77.259C344.849 79.4997 341.778 79.7955 340.129 79.9774V80.5689H360.311V79.858C356.712 79.7386 355 76.9064 354.647 76.2012V76.1955ZM326.497 63.3314C329.625 55.6026 332.281 49.2274 333.583 46.2132C335.176 50.1658 337.894 57.1893 340.254 63.3314H326.503H326.497Z" fill="white"/>
<path d="M346.327 30.278V29.9823C345.44 27.5027 343.615 25.7909 341.312 25.4952L333.401 35.294L333.993 35.6466L346.327 30.278Z" fill="white"/>
<path d="M99.9117 23.0042L105.968 7.99603H103.83L98.763 20.9569L93.7017 7.99603H91.5635L97.5915 23.0042H99.9117Z" fill="white"/>
<path d="M109.693 7.99603H107.828V23.0042H109.693V7.99603Z" fill="white"/>
<path d="M121.966 21.3379H114.994V7.99603H113.123V23.0042H121.966V21.3379Z" fill="white"/>
<path d="M126.805 19.6716H134.408L135.733 23.0042H137.803L131.753 7.99603H129.432L123.404 23.0042H125.474L126.799 19.6716H126.805ZM130.61 9.66235L133.851 18.011H127.345L130.61 9.66235Z" fill="white"/>
<path d="M152.498 15.5087C152.498 11.2547 149.461 7.99036 144.804 7.99036H139.674V22.9986H144.804C149.461 22.9986 152.498 19.7797 152.498 15.503V15.5087ZM141.54 9.66236H144.804C148.517 9.66236 150.565 12.2727 150.565 15.5144C150.565 18.756 148.449 21.3436 144.804 21.3436H141.54V9.66236Z" fill="white"/>
<path d="M161.983 23.2773C166.419 23.2773 169.433 19.9446 169.433 15.5144C169.433 11.0842 166.419 7.75153 161.983 7.75153C157.548 7.75153 154.534 11.0842 154.534 15.5144C154.534 19.9446 157.525 23.2773 161.983 23.2773ZM161.983 9.41215C165.339 9.41215 167.494 11.9998 167.494 15.5087C167.494 19.0176 165.333 21.6053 161.983 21.6053C158.634 21.6053 156.473 18.9949 156.473 15.5087C156.473 12.0225 158.611 9.41215 161.983 9.41215Z" fill="white"/>
<path d="M185.027 23.0042H186.892V7.99603H184.219L179.533 19.4271L174.876 7.99603H172.197V23.0042H174.068V10.5154L179.152 23.0042H179.92L185.027 10.5154V23.0042Z" fill="white"/>
<path d="M194.689 23.0042H196.554V16.6575L202.451 7.99603H200.267L195.61 14.9684L190.952 7.99603H188.769L194.689 16.6575V23.0042Z" fill="white"/>
<path d="M17.0208 35.1746C18.1866 37.1424 18.8634 38.5641 20.16 41.6352C21.7125 45.3773 23.2252 49.0227 24.7777 52.7875C24.9426 53.1743 25.1018 53.5667 25.2667 53.9648C25.4146 54.3287 25.5681 54.7041 25.7274 55.0794C26.0288 55.796 26.3188 56.5183 26.6316 57.2576C26.7567 57.5704 26.8932 57.8832 27.0183 58.196C27.1434 58.5087 27.2799 58.8215 27.405 59.1343C29.5318 64.2413 31.8123 69.6952 34.4396 75.9169H36.5551L39.1482 69.644C40.5245 66.3626 42.0144 62.7627 43.5157 59.1343H41.5651C40.6894 61.2613 39.9615 63.0641 39.4155 64.4062C38.79 62.9162 38.0166 61.1134 37.1749 59.1343C37.0498 58.8215 36.9133 58.5087 36.7768 58.196C36.6404 57.8832 36.5153 57.5817 36.3731 57.2576C36.1854 56.7969 35.9864 56.342 35.7817 55.8586C35.6565 55.5571 35.5314 55.2557 35.3949 54.9429C35.2698 54.6415 35.1334 54.3287 34.9969 54.0159C31.3459 45.4284 27.4107 35.9822 27.4107 34.805C27.4107 32.7008 30.3792 32.0126 31.8293 31.7738C32.108 31.7226 32.3411 31.6885 32.4662 31.6714V31.0572H11.3511V31.7339C15.1157 31.8591 16.4578 34.259 17.0208 35.1746Z" fill="white"/>
<path d="M50.4363 35.1121C50.4363 35.8514 50.1122 37.4153 49.1113 40.2589L50.2771 42.9716C50.6865 42.0446 51.0789 41.1461 51.4543 40.293C53.4219 35.6751 54.7811 34.1965 55.3327 33.6448C55.6341 33.332 57.4823 31.9159 59.5125 31.6771V31.0629H44.4595V31.6771C44.7836 31.7169 45.1476 31.7624 45.5229 31.8306C47.701 32.1946 50.4306 33.1216 50.4306 35.1121H50.4363Z" fill="white"/>
<path d="M23.3387 54.2206C22.7472 53.9477 22.1615 53.6349 21.5985 53.2823C19.9948 52.2529 18.5845 50.9449 17.3334 49.5061C16.3211 48.3402 15.4283 47.0777 14.6208 45.764C14.2341 45.1156 13.8701 44.4616 13.5346 43.7849L12.9204 43.9839L15.2008 57.2632H24.5898C24.1633 56.2396 23.7481 55.2216 23.3273 54.2206H23.3387Z" fill="white"/>
<path d="M26.7454 16.066C27.4733 17.1067 28.0591 18.2783 28.5879 19.4214C29.1509 20.6498 29.7025 21.8896 30.2257 23.1407C31.0788 25.154 31.9147 27.1729 32.7677 29.1747C32.8075 29.2714 32.8417 29.351 32.8815 29.4477C32.9782 29.6638 33.0691 29.897 33.1601 30.1131C33.2454 30.3008 33.325 30.4885 33.399 30.6761C33.7118 31.4154 34.0245 32.1434 34.3373 32.8884C34.6728 33.6675 35.0027 34.4637 35.3382 35.2429C36.1798 37.222 37.0272 39.2124 37.8518 41.1972C38.2385 41.9593 38.5171 42.7839 38.8299 43.5631C39.1825 44.4047 39.5294 45.2407 39.8706 46.0881C40.5473 47.7772 41.2127 49.4776 41.861 51.1724C42.0145 51.5705 42.1851 51.997 42.2647 52.4349C42.3671 52.9069 42.3614 53.396 42.1282 53.8396C41.952 54.1752 41.679 54.4368 41.3662 54.6415C40.8999 54.9543 40.3255 55.142 39.8251 55.3069C39.2735 55.4718 38.5626 55.5969 37.738 55.705C37.9655 56.2453 38.1873 56.7685 38.392 57.2576H54.4004L51.3238 50.1715L51.3011 50.1203C50.9997 49.5061 50.6983 48.8407 50.3514 48.0331C50.3173 47.9592 50.2888 47.8966 50.2547 47.8227C50.2433 47.8113 50.2433 47.7999 50.232 47.7829C50.2206 47.7544 50.1978 47.7203 50.1922 47.6805C50.0557 47.3563 49.9192 47.0322 49.7656 46.6682C49.7543 46.6341 49.7429 46.617 49.7315 46.5829C49.6576 46.418 49.5837 46.2303 49.5154 46.0597C49.4756 45.9573 49.4301 45.8493 49.3903 45.7469C49.3391 45.6218 49.288 45.4967 49.2254 45.3716C49.1742 45.2237 49.1117 45.0701 49.0377 44.9109L48.9979 44.7972C48.8842 44.5469 48.7818 44.2853 48.6624 44.018C48.4975 43.6199 48.3212 43.2161 48.1392 42.801C47.9743 42.4029 47.798 41.9991 47.616 41.584C47.4397 41.1688 47.2634 40.748 47.0758 40.31C46.1716 38.1831 45.1764 35.8684 44.1869 33.5367C44.0504 33.2012 43.9139 32.8713 43.7717 32.5358C43.6807 32.3197 43.5954 32.0979 43.4988 31.8818C43.1746 31.1425 42.8618 30.4031 42.5604 29.6638C40.7179 25.2734 39.046 21.1787 38.1304 18.6479C38.119 18.6252 38.1077 18.6081 38.0963 18.5854C37.647 17.3229 37.3797 16.4584 37.3797 16.1456C37.3797 15.2926 37.9086 14.6215 38.6081 14.1836C39.3986 13.6717 40.3483 13.4044 41.2638 13.2054C41.6619 13.1201 42.0429 13.0689 42.4296 13.0064V12.3922H21.3315V13.0689C23.5722 13.1428 25.4261 14.2575 26.7113 16.0717L26.7454 16.066Z" fill="white"/>
<path d="M0 57.6841L19.5058 88.3147H50.243L69.7488 57.6841V0H0V57.6841ZM2.88322 2.88335H66.8542V56.8367L48.6564 85.42H21.0867L2.88891 56.8367V2.88335H2.88322Z" fill="white"/>
</svg>
