<svg width="203" height="274" viewBox="0 0 203 274" fill="none" xmlns="http://www.w3.org/2000/svg">
<path fill-rule="evenodd" clip-rule="evenodd" d="M178.015 269.624C228.44 269.624 269.318 228.746 269.318 178.32C269.318 127.895 228.44 87.0168 178.015 87.0168C127.59 87.0168 86.7117 127.895 86.7117 178.32C86.7117 228.746 127.59 269.624 178.015 269.624ZM178.015 270.624C228.993 270.624 270.318 229.298 270.318 178.32C270.318 127.342 228.993 86.0168 178.015 86.0168C127.037 86.0168 85.7117 127.342 85.7117 178.32C85.7117 229.298 127.037 270.624 178.015 270.624Z" fill="#6246E5"/>
<path fill-rule="evenodd" clip-rule="evenodd" d="M170.728 270.838C227.19 270.838 272.962 225.066 272.962 168.604C272.962 112.142 227.19 66.3699 170.728 66.3699C114.266 66.3699 68.4939 112.142 68.4939 168.604C68.4939 225.066 114.266 270.838 170.728 270.838ZM170.728 271.838C227.742 271.838 273.962 225.618 273.962 168.604C273.962 111.589 227.742 65.3699 170.728 65.3699C113.713 65.3699 67.4939 111.589 67.4939 168.604C67.4939 225.618 113.713 271.838 170.728 271.838Z" fill="#6246E5"/>
<path fill-rule="evenodd" clip-rule="evenodd" d="M164.655 272.66C226.484 272.66 276.606 222.538 276.606 160.71C276.606 98.8813 226.484 48.7595 164.655 48.7595C102.827 48.7595 52.7053 98.8813 52.7053 160.71C52.7053 222.538 102.827 272.66 164.655 272.66ZM164.655 273.66C227.036 273.66 277.606 223.09 277.606 160.71C277.606 98.329 227.036 47.7595 164.655 47.7595C102.275 47.7595 51.7053 98.329 51.7053 160.71C51.7053 223.09 102.275 273.66 164.655 273.66Z" fill="#6246E5"/>
<path fill-rule="evenodd" clip-rule="evenodd" d="M158.583 269.623C225.107 269.623 279.035 215.695 279.035 149.171C279.035 82.6478 225.107 28.7197 158.583 28.7197C92.0592 28.7197 38.1311 82.6478 38.1311 149.171C38.1311 215.695 92.0592 269.623 158.583 269.623ZM158.583 270.623C225.659 270.623 280.035 216.247 280.035 149.171C280.035 82.0955 225.659 27.7197 158.583 27.7197C91.5069 27.7197 37.1311 82.0955 37.1311 149.171C37.1311 216.247 91.5069 270.623 158.583 270.623Z" fill="#6246E5"/>
<path fill-rule="evenodd" clip-rule="evenodd" d="M152.814 266.587C223.865 266.587 281.464 208.989 281.464 137.937C281.464 66.886 223.865 9.2876 152.814 9.2876C81.7625 9.2876 24.1641 66.886 24.1641 137.937C24.1641 208.989 81.7625 266.587 152.814 266.587ZM152.814 267.587C224.417 267.587 282.464 209.541 282.464 137.937C282.464 66.3338 224.417 8.2876 152.814 8.2876C81.2102 8.2876 23.1641 66.3338 23.1641 137.937C23.1641 209.541 81.2102 267.587 152.814 267.587Z" fill="#6246E5"/>
<path fill-rule="evenodd" clip-rule="evenodd" d="M143.098 266.587C221.192 266.587 284.5 203.279 284.5 125.185C284.5 47.0906 221.192 -16.2173 143.098 -16.2173C65.0036 -16.2173 1.69568 47.0906 1.69568 125.185C1.69568 203.279 65.0036 266.587 143.098 266.587ZM143.098 267.587C221.744 267.587 285.5 203.831 285.5 125.185C285.5 46.5383 221.744 -17.2173 143.098 -17.2173C64.4513 -17.2173 0.695679 46.5383 0.695679 125.185C0.695679 203.831 64.4513 267.587 143.098 267.587Z" fill="#6246E5"/>
</svg>
