<svg width="224" height="146" viewBox="0 0 224 146" fill="none" xmlns="http://www.w3.org/2000/svg">
<path d="M38.4832 20.7998C40.8576 20.7998 43.232 20.9795 45.6512 21.294C48.0704 21.6084 50.176 22.0127 51.9232 22.462C53.6704 22.9112 55.2832 23.4053 56.7168 23.8546C58.1504 24.3487 59.2256 24.753 59.9872 25.0675L61.1072 25.5167L61.3312 25.8312L60.6592 28.4367L60.1664 30.6829C60.0768 31.0872 59.9424 31.6712 59.808 32.4349C59.6736 33.1986 59.5392 33.9623 59.4944 34.681C59.4048 35.3998 59.3152 36.2983 59.2704 37.3315L58.1952 37.4213C54.2976 29.6047 47.264 25.6964 37.0944 25.6964C35.3024 25.6964 33.4656 26.0109 31.5392 26.6398C29.6128 27.2687 27.6864 28.302 25.7152 29.7844C23.744 31.2669 21.9968 33.0638 20.4288 35.1752C18.8608 37.2866 17.6064 40.0269 16.6208 43.3961C15.6352 46.7653 15.1424 50.449 15.1424 54.4472C15.1424 57.5469 15.456 60.5118 16.0384 63.4318C16.6656 66.3518 17.6064 69.0921 18.9056 71.6977C20.2048 74.3032 21.7728 76.5943 23.6544 78.526C25.4912 80.5026 27.7312 82.03 30.3744 83.153C33.0176 84.2761 35.8848 84.8601 38.976 84.8601C43.7696 84.8601 47.7568 84.0964 50.8928 82.569C54.0288 81.0416 57.4336 78.2564 61.1072 74.1684L63.5712 76.145C56.448 85.489 47.936 90.161 38.08 90.161C33.7792 90.161 29.7472 89.5321 26.0736 88.2293C22.3552 86.9715 19.2192 85.2644 16.6208 83.0632C14.0224 80.9069 11.7824 78.3463 9.94558 75.4712C8.06398 72.686 6.71998 69.6312 5.82398 66.3967C4.92798 63.1623 4.47998 59.8829 4.47998 56.4687C4.47998 51.4823 5.42078 46.7653 7.34718 42.318C9.22878 37.8706 11.7824 34.0521 14.9184 30.9524C18.0544 27.8527 21.6832 25.382 25.8048 23.5401C29.9264 21.6983 34.1376 20.7998 38.4832 20.7998Z" fill="white"/>
<path d="M111.462 22.1475C114.15 22.1475 116.346 22.0576 118.003 21.833L118.182 22.1475C118.048 24.1241 118.003 25.2921 118.003 25.6964C118.003 26.6847 118.048 27.7179 118.182 28.7961L118.003 29.2004C108.416 28.3918 99.008 27.9875 89.824 27.9875C89.2416 30.009 88.9728 34.9955 88.9728 42.9469V51.033C96.2304 51.033 103.936 50.6736 112.09 49.9998L112.403 50.3142C112.179 51.2127 112.09 52.3358 112.09 53.6835C112.09 54.9862 112.179 56.0644 112.403 56.9629L112.09 57.2773C105.325 56.6035 97.6192 56.2441 88.9728 56.2441V68.3733C88.9728 77.0435 89.3312 83.9616 90.048 89.1727L89.824 89.4872C88.6592 89.3524 86.8672 89.2626 84.4928 89.2626C83.4176 89.2626 82.432 89.2626 81.536 89.2626C80.64 89.2626 80.0128 89.3075 79.6992 89.3524L79.1616 89.4872L79.072 89.1727C79.744 84.4558 80.1024 77.5376 80.1024 68.3733V42.9918C80.1024 34.0521 79.744 27.1339 79.072 22.1924L79.296 21.8779C80.4608 22.1025 82.208 22.1924 84.5376 22.1924C84.4928 22.1475 111.462 22.1475 111.462 22.1475Z" fill="white"/>
<path d="M133.19 42.9918C133.19 34.0521 132.832 27.1339 132.16 22.1924L132.384 21.8779C133.638 22.1025 135.386 22.1924 137.67 22.1924C139.91 22.1924 141.702 22.1025 143.002 21.8779L143.181 22.1924C142.464 27.0441 142.106 33.9622 142.106 42.9918V68.4182C142.106 77.0884 142.464 84.0066 143.181 89.2176L143.002 89.5321C141.702 89.3075 139.955 89.2176 137.67 89.2176C135.386 89.2176 133.638 89.3075 132.384 89.5321L132.16 89.2176C132.832 84.5007 133.19 77.5826 133.19 68.4182V42.9918Z" fill="white"/>
<path d="M209.44 77.0435C209.261 67.4749 208.902 60.8712 208.41 57.3223L208.589 57.0078C209.754 57.1426 211.501 57.2324 213.83 57.2324C214.906 57.2324 215.891 57.2324 216.787 57.2324C217.683 57.2324 218.31 57.1875 218.669 57.0976L219.206 57.0078L219.296 57.3223C218.579 62.174 218.221 68.0589 218.221 74.977V75.6509C218.221 78.0767 218.579 79.7389 219.296 80.6373V80.9518C211.904 87.1961 202.72 90.2958 191.699 90.2958C186.637 90.2958 181.978 89.3524 177.722 87.5106C173.466 85.6687 169.882 83.198 167.059 80.0533C164.237 76.9087 162.042 73.3149 160.474 69.2269C158.906 65.1389 158.099 60.8263 158.099 56.334C158.099 51.8866 158.771 47.7536 160.16 43.8903C161.549 40.0269 163.386 36.7026 165.715 33.9623C168.045 31.177 170.778 28.7961 173.869 26.8195C176.96 24.8429 180.23 23.3155 183.725 22.3721C187.219 21.3838 190.714 20.8896 194.298 20.8896C196.672 20.8896 199.091 21.0693 201.6 21.3838C204.109 21.6983 206.304 22.1026 208.141 22.5518C210.022 23.001 211.725 23.4952 213.248 23.9444C214.771 24.4386 215.936 24.8429 216.742 25.1573L217.952 25.6066L218.176 25.921C217.011 30.7727 216.339 34.9506 216.115 38.4995L215.085 38.5893C212.755 34.5912 209.619 31.4915 205.722 29.2004C201.824 26.9543 197.568 25.7863 192.909 25.7863C185.83 25.7863 180.051 28.4816 175.571 33.8275C171.091 39.1733 168.851 46.3161 168.851 55.3007C168.851 58.1309 169.12 60.961 169.702 63.7013C170.24 66.4417 171.181 69.182 172.48 71.8324C173.779 74.4829 175.392 76.8189 177.274 78.8404C179.155 80.817 181.574 82.4343 184.486 83.6921C187.398 84.95 190.624 85.534 194.163 85.534C201.51 85.534 206.573 84.2312 209.395 81.5807L209.44 77.0435Z" fill="white"/>
<path d="M41.7537 119.046C41.3505 119.046 40.9473 119.091 40.4993 119.091H37.3185V124.841H35.6609V108.849C37.2289 108.759 39.0657 108.669 40.9025 108.669C44.5761 108.669 47.0849 110.421 47.0849 113.79C47.0849 116.216 45.6961 117.923 43.4113 118.642L48.0257 124.841H46.0097L41.7537 119.046ZM41.0369 117.609C43.6353 117.609 45.4273 116.216 45.4273 113.79C45.4273 111.364 43.6353 110.196 40.9473 110.196C39.6929 110.196 38.6625 110.241 37.3185 110.286V117.609H41.0369Z" fill="white"/>
<path d="M61.1968 116.081V117.654H52.7296V123.359H62.1824V124.886H51.072V108.894H62.1824V110.421H52.7296V116.126L61.1968 116.081Z" fill="white"/>
<path d="M66.5281 124.841H64.6465L71.9041 108.714H73.5169L80.7745 124.841H78.9377L77.1905 120.933H68.2753L66.5281 124.841ZM68.9025 119.45H76.4737L72.7105 110.87L68.9025 119.45Z" fill="white"/>
<path d="M83.9553 124.841V108.849H85.6129V123.359H94.5281V124.886L83.9553 124.841Z" fill="white"/>
<path d="M113.927 116.081V117.654H105.459V123.359H114.912V124.886H103.802V108.894H114.912V110.421H105.459V116.126L113.927 116.081Z" fill="white"/>
<path d="M129.741 110.96C127.949 110.421 125.888 110.062 124.365 110.062C122.08 110.062 120.557 111.14 120.557 113.026C120.557 114.644 121.766 115.228 124.634 115.812C128.173 116.575 130.726 117.384 130.726 120.484C130.726 123.538 128.262 125.201 124.768 125.201C122.707 125.201 120.198 124.706 118.138 123.853L118.586 122.281C120.691 123.134 123.021 123.628 124.858 123.628C127.322 123.628 129.024 122.55 129.024 120.574C129.024 118.103 126.291 117.743 123.693 117.204C120.154 116.486 118.81 115.452 118.81 113.071C118.81 110.286 121.05 108.534 124.454 108.534C126.47 108.534 128.71 108.938 130.234 109.478L129.741 110.96Z" fill="white"/>
<path d="M140.224 124.841H138.567V110.376H132.25V108.849H146.541V110.376H140.224V124.841Z" fill="white"/>
<path d="M147.795 124.841H145.914L153.171 108.714H154.784L162.042 124.841H160.205L158.458 120.933H149.542L147.795 124.841ZM150.17 119.45H157.741L153.978 110.87L150.17 119.45Z" fill="white"/>
<path d="M169.389 124.841H167.731V110.376H161.415V108.849H175.706V110.376H169.389V124.841Z" fill="white"/>
<path d="M188.026 116.081V117.654H179.558V123.359H189.011V124.886H177.901V108.894H189.011V110.421H179.558V116.126L188.026 116.081Z" fill="white"/>
<path d="M25.7152 116.126H4.47998V117.429H25.7152V116.126Z" fill="white"/>
<path d="M219.52 116.126H198.285V117.429H219.52V116.126Z" fill="white"/>
</svg>
