<svg width="1259" height="1828" viewBox="0 0 1259 1828" fill="none" xmlns="http://www.w3.org/2000/svg">
<g clip-path="url(#clip0_86_10169)">
<path d="M449.512 -13.1389L436.835 18.8645" stroke="black" stroke-opacity="0.25" stroke-miterlimit="10"/>
<path d="M436.835 18.8638L349.911 -16.0602" stroke="black" stroke-opacity="0.25" stroke-miterlimit="10"/>
<path d="M349.911 -16.0601L338.865 13.0747" stroke="black" stroke-opacity="0.25" stroke-miterlimit="10"/>
<path d="M338.865 13.0741L424.827 47.5268" stroke="black" stroke-opacity="0.25" stroke-miterlimit="10"/>
<path d="M424.827 47.527L1223.43 368.41" stroke="black" stroke-opacity="0.25" stroke-miterlimit="10"/>
<path d="M1223.43 368.41L1247.73 307.951" stroke="black" stroke-opacity="0.25" stroke-miterlimit="10"/>
<path d="M777.29 118.713L764.517 150.538" stroke="black" stroke-opacity="0.25" stroke-miterlimit="10"/>
<path d="M764.517 150.537L1206.18 327.992" stroke="black" stroke-opacity="0.25" stroke-miterlimit="10"/>
<path d="M1206.2 327.997L1218.9 296.354" stroke="black" stroke-opacity="0.25" stroke-miterlimit="10"/>
<path d="M349.745 -15.6493L436.835 18.8638" stroke="black" stroke-opacity="0.25" stroke-miterlimit="10"/>
<path d="M436.835 18.8645L449.512 -13.1389" stroke="black" stroke-opacity="0.25" stroke-miterlimit="10"/>
<path d="M1209.85 486.895L1094.6 440.545" stroke="black" stroke-opacity="0.25" stroke-miterlimit="10"/>
<path d="M1094.59 440.545L999.531 676.939" stroke="black" stroke-opacity="0.25" stroke-miterlimit="10"/>
<path d="M999.531 676.94L1114.79 723.302" stroke="black" stroke-opacity="0.25" stroke-miterlimit="10"/>
<path d="M1114.79 723.291L1209.85 486.909" stroke="black" stroke-opacity="0.25" stroke-miterlimit="10"/>
<path d="M853.458 1040.17L758.399 1276.56" stroke="black" stroke-opacity="0.25" stroke-miterlimit="10"/>
<path d="M758.4 1276.56L873.539 1322.86" stroke="black" stroke-opacity="0.25" stroke-miterlimit="10"/>
<path d="M873.539 1322.86L968.598 1086.48" stroke="black" stroke-opacity="0.25" stroke-miterlimit="10"/>
<path d="M968.598 1086.48L853.464 1040.16" stroke="black" stroke-opacity="0.25" stroke-miterlimit="10"/>
<path d="M681.373 1717.87L594.886 1683.08" stroke="black" stroke-opacity="0.25" stroke-miterlimit="10"/>
<path d="M594.886 1683.08L517.065 1876.4" stroke="black" stroke-opacity="0.25" stroke-miterlimit="10"/>
<path d="M517.052 1876.39L276.297 1779.46" stroke="black" stroke-opacity="0.25" stroke-miterlimit="10"/>
<path d="M276.298 1779.46L258.579 1823.44" stroke="black" stroke-opacity="0.25" stroke-miterlimit="10"/>
<path d="M258.579 1823.44L585.968 1955.11" stroke="black" stroke-opacity="0.25" stroke-miterlimit="10"/>
<path d="M585.968 1955.11L681.373 1717.87" stroke="black" stroke-opacity="0.25" stroke-miterlimit="10"/>
<path d="M21.7524 801.471L-22.8353 912.314" stroke="black" stroke-opacity="0.25" stroke-miterlimit="10"/>
<path d="M-22.8356 912.314L80.936 954.057" stroke="black" stroke-opacity="0.25" stroke-miterlimit="10"/>
<path d="M80.9411 954.045L125.5 843.205" stroke="black" stroke-opacity="0.25" stroke-miterlimit="10"/>
<path d="M125.512 843.209L21.7522 801.471" stroke="black" stroke-opacity="0.25" stroke-miterlimit="10"/>
<path d="M413.735 76.6724L327.147 42.2062" stroke="black" stroke-opacity="0.25" stroke-miterlimit="10"/>
<path d="M327.147 42.2056L277.356 165.982" stroke="black" stroke-opacity="0.25" stroke-miterlimit="10"/>
<path d="M277.356 165.983L363.779 200.86" stroke="black" stroke-opacity="0.25" stroke-miterlimit="10"/>
<path d="M363.78 200.86L413.735 76.6724" stroke="black" stroke-opacity="0.25" stroke-miterlimit="10"/>
<path d="M338.87 13.062L327.273 41.8908" stroke="black" stroke-opacity="0.25" stroke-miterlimit="10"/>
<path d="M327.273 41.892L413.735 76.6724" stroke="black" stroke-opacity="0.25" stroke-miterlimit="10"/>
<path d="M413.735 76.6724L363.823 200.751" stroke="black" stroke-opacity="0.25" stroke-miterlimit="10"/>
<path d="M363.824 200.75L277.361 165.97" stroke="black" stroke-opacity="0.25" stroke-miterlimit="10"/>
<path d="M277.356 165.983L21.7521 801.472" stroke="black" stroke-opacity="0.25" stroke-miterlimit="10"/>
<path d="M21.7522 801.471L125.512 843.209" stroke="black" stroke-opacity="0.25" stroke-miterlimit="10"/>
<path d="M125.512 843.209L80.9362 954.057" stroke="black" stroke-opacity="0.25" stroke-miterlimit="10"/>
<path d="M80.9409 954.045L-22.8428 912.297" stroke="black" stroke-opacity="0.25" stroke-miterlimit="10"/>
<path d="M-206.523 1585.44L50.0398 1688.63" stroke="black" stroke-opacity="0.25" stroke-miterlimit="10"/>
<path d="M50.0279 1688.63L176.875 1739.65" stroke="black" stroke-opacity="0.25" stroke-miterlimit="10"/>
<path d="M176.875 1739.65L517.031 1876.48" stroke="black" stroke-opacity="0.25" stroke-miterlimit="10"/>
<path d="M517.023 1876.47L620.559 1619.04" stroke="black" stroke-opacity="0.25" stroke-miterlimit="10"/>
<path d="M620.56 1619.04L678.302 1642.27" stroke="black" stroke-opacity="0.25" stroke-miterlimit="10"/>
<path d="M678.302 1642.27L773.181 1406.41" stroke="black" stroke-opacity="0.25" stroke-miterlimit="10"/>
<path d="M773.181 1406.41L715.426 1383.17" stroke="black" stroke-opacity="0.25" stroke-miterlimit="10"/>
<path d="M715.438 1383.18L878.935 976.736" stroke="black" stroke-opacity="0.25" stroke-miterlimit="10"/>
<path d="M878.935 976.736L936.617 999.939" stroke="black" stroke-opacity="0.25" stroke-miterlimit="10"/>
<path d="M936.622 999.926L1031.71 763.554" stroke="black" stroke-opacity="0.25" stroke-miterlimit="10"/>
<path d="M1031.71 763.554L974.048 740.361" stroke="black" stroke-opacity="0.25" stroke-miterlimit="10"/>
<path d="M974.035 740.356L1137.38 334.175" stroke="black" stroke-opacity="0.25" stroke-miterlimit="10"/>
<path d="M1137.38 334.175L338.869 13.0629" stroke="black" stroke-opacity="0.25" stroke-miterlimit="10"/>
<path d="M307.448 1252.68L132.252 1688.21" stroke="black" stroke-opacity="0.25" stroke-miterlimit="10"/>
<path d="M132.252 1688.21L500.214 1836.07" stroke="black" stroke-opacity="0.25" stroke-miterlimit="10"/>
<path d="M500.231 1836.06L603.608 1578.76" stroke="black" stroke-opacity="0.25" stroke-miterlimit="10"/>
<path d="M603.608 1578.76L661.275 1601.93" stroke="black" stroke-opacity="0.25" stroke-miterlimit="10"/>
<path d="M661.275 1601.93L733.029 1423.76" stroke="black" stroke-opacity="0.25" stroke-miterlimit="10"/>
<path d="M733.029 1423.76L683.871 1404.09" stroke="black" stroke-opacity="0.25" stroke-miterlimit="10"/>
<path d="M683.859 1404.08L507.791 1333.26" stroke="black" stroke-opacity="0.25" stroke-miterlimit="10"/>
<path d="M507.791 1333.26L307.447 1252.68" stroke="black" stroke-opacity="0.25" stroke-miterlimit="10"/>
<path d="M1096.76 351.413L813.654 237.783" stroke="black" stroke-opacity="0.25" stroke-miterlimit="10"/>
<path d="M813.654 237.782L578.868 822.705" stroke="black" stroke-opacity="0.25" stroke-miterlimit="10"/>
<path d="M578.886 822.697L919.385 959.512" stroke="black" stroke-opacity="0.25" stroke-miterlimit="10"/>
<path d="M919.385 959.513L991.275 780.798" stroke="black" stroke-opacity="0.25" stroke-miterlimit="10"/>
<path d="M991.275 780.798L933.424 757.527" stroke="black" stroke-opacity="0.25" stroke-miterlimit="10"/>
<path d="M933.424 757.526L1096.76 351.399" stroke="black" stroke-opacity="0.25" stroke-miterlimit="10"/>
<path d="M573.097 837.123L398.364 1272.44" stroke="black" stroke-opacity="0.25" stroke-miterlimit="10"/>
<path d="M398.364 1272.44L499.198 1313" stroke="black" stroke-opacity="0.25" stroke-miterlimit="10"/>
<path d="M499.198 1313L680.802 1386.06" stroke="black" stroke-opacity="0.25" stroke-miterlimit="10"/>
<path d="M680.802 1386.06L855.871 950.773" stroke="black" stroke-opacity="0.25" stroke-miterlimit="10"/>
<path d="M855.866 950.786L619.494 855.702" stroke="black" stroke-opacity="0.25" stroke-miterlimit="10"/>
<path d="M619.494 855.703L573.097 837.123" stroke="black" stroke-opacity="0.25" stroke-miterlimit="10"/>
<path d="M-166.11 1568.2L117.843 1682.41" stroke="black" stroke-opacity="0.25" stroke-miterlimit="10"/>
<path d="M117.839 1682.42L293.027 1246.88" stroke="black" stroke-opacity="0.25" stroke-miterlimit="10"/>
<path d="M293.027 1246.88L208.027 1212.69" stroke="black" stroke-opacity="0.25" stroke-miterlimit="10"/>
<path d="M208.027 1212.69L268.259 1062.92" stroke="black" stroke-opacity="0.25" stroke-miterlimit="10"/>
<path d="M268.255 1062.93L-5.65206 952.861" stroke="black" stroke-opacity="0.25" stroke-miterlimit="10"/>
<path d="M632.726 646.89L477.449 584.428" stroke="black" stroke-opacity="0.25" stroke-miterlimit="10"/>
<path d="M477.449 584.428L336.956 933.686" stroke="black" stroke-opacity="0.25" stroke-miterlimit="10"/>
<path d="M336.956 933.686L152.459 859.484" stroke="black" stroke-opacity="0.25" stroke-miterlimit="10"/>
<path d="M152.459 859.484L103.991 979.973" stroke="black" stroke-opacity="0.25" stroke-miterlimit="10"/>
<path d="M103.991 979.972L288.568 1054.22" stroke="black" stroke-opacity="0.25" stroke-miterlimit="10"/>
<path d="M288.568 1054.22L228.215 1204.01" stroke="black" stroke-opacity="0.25" stroke-miterlimit="10"/>
<path d="M228.215 1204.01L383.956 1266.65" stroke="black" stroke-opacity="0.25" stroke-miterlimit="10"/>
<path d="M383.951 1266.66L444.123 1116.72" stroke="black" stroke-opacity="0.25" stroke-miterlimit="10"/>
<path d="M444.128 1116.71L369.523 1086.7" stroke="black" stroke-opacity="0.25" stroke-miterlimit="10"/>
<path d="M369.518 1086.71L469.695 837.645" stroke="black" stroke-opacity="0.25" stroke-miterlimit="10"/>
<path d="M469.695 837.645L544.13 867.587" stroke="black" stroke-opacity="0.25" stroke-miterlimit="10"/>
<path d="M544.13 867.587L632.714 646.885" stroke="black" stroke-opacity="0.25" stroke-miterlimit="10"/>
<path d="M235.503 353.325L171.748 511.817" stroke="black" stroke-opacity="0.25" stroke-miterlimit="10"/>
<path d="M171.748 511.817L62.1656 784.234" stroke="black" stroke-opacity="0.25" stroke-miterlimit="10"/>
<path d="M62.1607 784.246L165.932 825.99" stroke="black" stroke-opacity="0.25" stroke-miterlimit="10"/>
<path d="M165.937 825.978L158.26 845.064" stroke="black" stroke-opacity="0.25" stroke-miterlimit="10"/>
<path d="M158.259 845.064L305.365 904.239" stroke="black" stroke-opacity="0.25" stroke-miterlimit="10"/>
<path d="M305.365 904.238L352.895 786.012" stroke="black" stroke-opacity="0.25" stroke-miterlimit="10"/>
<path d="M352.895 786.012L375.898 795.265" stroke="black" stroke-opacity="0.25" stroke-miterlimit="10"/>
<path d="M375.897 795.266L509.398 463.32" stroke="black" stroke-opacity="0.25" stroke-miterlimit="10"/>
<path d="M509.398 463.32L235.503 353.325" stroke="black" stroke-opacity="0.25" stroke-miterlimit="10"/>
<path d="M800.336 232.172L442.576 88.2735" stroke="black" stroke-opacity="0.25" stroke-miterlimit="10"/>
<path d="M442.576 88.2739L381.067 241.181" stroke="black" stroke-opacity="0.25" stroke-miterlimit="10"/>
<path d="M381.067 241.181L294.581 206.391" stroke="black" stroke-opacity="0.25" stroke-miterlimit="10"/>
<path d="M294.581 206.391L241.362 338.76" stroke="black" stroke-opacity="0.25" stroke-miterlimit="10"/>
<path d="M241.362 338.76L529.602 454.708" stroke="black" stroke-opacity="0.25" stroke-miterlimit="10"/>
<path d="M529.602 454.708L483.245 570.02" stroke="black" stroke-opacity="0.25" stroke-miterlimit="10"/>
<path d="M483.245 570.019L639.198 632.753" stroke="black" stroke-opacity="0.25" stroke-miterlimit="10"/>
<path d="M639.198 632.754L800.336 232.172" stroke="black" stroke-opacity="0.25" stroke-miterlimit="10"/>
<path d="M750.084 144.732L762.882 112.917" stroke="black" stroke-opacity="0.25" stroke-miterlimit="10"/>
<path d="M478.063 -1.65474L465.245 30.2782" stroke="black" stroke-opacity="0.25" stroke-miterlimit="10"/>
<path d="M465.245 30.2789L750.084 144.732" stroke="black" stroke-opacity="0.25" stroke-miterlimit="10"/>
<path d="M444.188 1116.74L374.999 1088.9" stroke="black" stroke-opacity="0.25" stroke-miterlimit="10"/>
<path d="M374.994 1088.92L381.257 1073.35" stroke="black" stroke-opacity="0.25" stroke-miterlimit="10"/>
<path d="M381.257 1073.35L450.422 1101.17" stroke="black" stroke-opacity="0.25" stroke-miterlimit="10"/>
<path d="M450.427 1101.16L444.188 1116.74" stroke="black" stroke-opacity="0.25" stroke-miterlimit="10"/>
<path d="M450.427 1101.16L381.262 1073.34" stroke="black" stroke-opacity="0.25" stroke-miterlimit="10"/>
<path d="M381.257 1073.35L387.52 1057.78" stroke="black" stroke-opacity="0.25" stroke-miterlimit="10"/>
<path d="M387.52 1057.78L456.685 1085.6" stroke="black" stroke-opacity="0.25" stroke-miterlimit="10"/>
<path d="M456.685 1085.6L450.422 1101.17" stroke="black" stroke-opacity="0.25" stroke-miterlimit="10"/>
<path d="M456.685 1085.6L387.52 1057.78" stroke="black" stroke-opacity="0.25" stroke-miterlimit="10"/>
<path d="M387.52 1057.78L393.782 1042.21" stroke="black" stroke-opacity="0.25" stroke-miterlimit="10"/>
<path d="M393.782 1042.21L462.947 1070.03" stroke="black" stroke-opacity="0.25" stroke-miterlimit="10"/>
<path d="M462.947 1070.03L456.684 1085.6" stroke="black" stroke-opacity="0.25" stroke-miterlimit="10"/>
<path d="M462.947 1070.03L393.782 1042.21" stroke="black" stroke-opacity="0.25" stroke-miterlimit="10"/>
<path d="M393.782 1042.21L400.045 1026.64" stroke="black" stroke-opacity="0.25" stroke-miterlimit="10"/>
<path d="M400.045 1026.64L469.21 1054.46" stroke="black" stroke-opacity="0.25" stroke-miterlimit="10"/>
<path d="M469.21 1054.46L462.947 1070.03" stroke="black" stroke-opacity="0.25" stroke-miterlimit="10"/>
<path d="M469.21 1054.46L400.045 1026.64" stroke="black" stroke-opacity="0.25" stroke-miterlimit="10"/>
<path d="M400.045 1026.64L406.307 1011.07" stroke="black" stroke-opacity="0.25" stroke-miterlimit="10"/>
<path d="M406.308 1011.07L440.89 1024.98" stroke="black" stroke-opacity="0.25" stroke-miterlimit="10"/>
<path d="M440.89 1024.98L406.308 1011.07" stroke="black" stroke-opacity="0.25" stroke-miterlimit="10"/>
<path d="M406.308 1011.07L412.571 995.503" stroke="black" stroke-opacity="0.25" stroke-miterlimit="10"/>
<path d="M451.418 1029.22L475.472 1038.9" stroke="black" stroke-opacity="0.25" stroke-miterlimit="10"/>
<path d="M475.472 1038.9L471.116 1049.73" stroke="black" stroke-opacity="0.25" stroke-miterlimit="10"/>
<path d="M475.472 1038.9L451.418 1029.22" stroke="black" stroke-opacity="0.25" stroke-miterlimit="10"/>
<path d="M423.093 999.751L481.73 1023.34" stroke="black" stroke-opacity="0.25" stroke-miterlimit="10"/>
<path d="M481.73 1023.34L475.472 1038.9" stroke="black" stroke-opacity="0.25" stroke-miterlimit="10"/>
<path d="M481.73 1023.34L423.093 999.751" stroke="black" stroke-opacity="0.25" stroke-miterlimit="10"/>
<path d="M414.476 990.766L418.828 979.948" stroke="black" stroke-opacity="0.25" stroke-miterlimit="10"/>
<path d="M418.828 979.948L487.993 1007.77" stroke="black" stroke-opacity="0.25" stroke-miterlimit="10"/>
<path d="M487.993 1007.77L481.73 1023.34" stroke="black" stroke-opacity="0.25" stroke-miterlimit="10"/>
<path d="M487.993 1007.77L418.828 979.948" stroke="black" stroke-opacity="0.25" stroke-miterlimit="10"/>
<path d="M418.828 979.947L425.091 964.378" stroke="black" stroke-opacity="0.25" stroke-miterlimit="10"/>
<path d="M425.091 964.378L494.256 992.201" stroke="black" stroke-opacity="0.25" stroke-miterlimit="10"/>
<path d="M494.256 992.201L487.993 1007.77" stroke="black" stroke-opacity="0.25" stroke-miterlimit="10"/>
<path d="M494.256 992.201L425.091 964.378" stroke="black" stroke-opacity="0.25" stroke-miterlimit="10"/>
<path d="M425.091 964.378L431.354 948.809" stroke="black" stroke-opacity="0.25" stroke-miterlimit="10"/>
<path d="M431.354 948.809L500.519 976.631" stroke="black" stroke-opacity="0.25" stroke-miterlimit="10"/>
<path d="M500.519 976.631L494.256 992.2" stroke="black" stroke-opacity="0.25" stroke-miterlimit="10"/>
<path d="M500.519 976.631L431.354 948.809" stroke="black" stroke-opacity="0.25" stroke-miterlimit="10"/>
<path d="M431.354 948.809L437.616 933.241" stroke="black" stroke-opacity="0.25" stroke-miterlimit="10"/>
<path d="M437.611 933.252L506.776 961.075" stroke="black" stroke-opacity="0.25" stroke-miterlimit="10"/>
<path d="M506.781 961.063L500.519 976.632" stroke="black" stroke-opacity="0.25" stroke-miterlimit="10"/>
<path d="M506.781 961.063L437.616 933.241" stroke="black" stroke-opacity="0.25" stroke-miterlimit="10"/>
<path d="M437.612 933.253L443.874 917.684" stroke="black" stroke-opacity="0.25" stroke-miterlimit="10"/>
<path d="M443.874 917.684L513.039 945.506" stroke="black" stroke-opacity="0.25" stroke-miterlimit="10"/>
<path d="M513.039 945.506L506.777 961.075" stroke="black" stroke-opacity="0.25" stroke-miterlimit="10"/>
<path d="M513.039 945.506L443.874 917.684" stroke="black" stroke-opacity="0.25" stroke-miterlimit="10"/>
<path d="M443.874 917.684L450.137 902.116" stroke="black" stroke-opacity="0.25" stroke-miterlimit="10"/>
<path d="M450.137 902.116L519.302 929.938" stroke="black" stroke-opacity="0.25" stroke-miterlimit="10"/>
<path d="M519.302 929.938L513.039 945.507" stroke="black" stroke-opacity="0.25" stroke-miterlimit="10"/>
<path d="M519.302 929.938L450.137 902.116" stroke="black" stroke-opacity="0.25" stroke-miterlimit="10"/>
<path d="M450.137 902.115L456.4 886.546" stroke="black" stroke-opacity="0.25" stroke-miterlimit="10"/>
<path d="M456.399 886.546L525.564 914.369" stroke="black" stroke-opacity="0.25" stroke-miterlimit="10"/>
<path d="M525.564 914.369L519.302 929.937" stroke="black" stroke-opacity="0.25" stroke-miterlimit="10"/>
<path d="M525.564 914.369L456.399 886.546" stroke="black" stroke-opacity="0.25" stroke-miterlimit="10"/>
<path d="M456.4 886.547L462.662 870.978" stroke="black" stroke-opacity="0.25" stroke-miterlimit="10"/>
<path d="M462.662 870.978L531.827 898.8" stroke="black" stroke-opacity="0.25" stroke-miterlimit="10"/>
<path d="M531.827 898.8L525.564 914.369" stroke="black" stroke-opacity="0.25" stroke-miterlimit="10"/>
<path d="M531.827 898.8L462.662 870.978" stroke="black" stroke-opacity="0.25" stroke-miterlimit="10"/>
<path d="M462.662 870.978L468.92 855.421" stroke="black" stroke-opacity="0.25" stroke-miterlimit="10"/>
<path d="M468.92 855.421L538.085 883.244" stroke="black" stroke-opacity="0.25" stroke-miterlimit="10"/>
<path d="M538.09 883.232L531.827 898.801" stroke="black" stroke-opacity="0.25" stroke-miterlimit="10"/>
<path d="M538.09 883.232L468.925 855.41" stroke="black" stroke-opacity="0.25" stroke-miterlimit="10"/>
<path d="M468.92 855.422L475.183 839.853" stroke="black" stroke-opacity="0.25" stroke-miterlimit="10"/>
<path d="M475.183 839.853L544.348 867.675" stroke="black" stroke-opacity="0.25" stroke-miterlimit="10"/>
<path d="M544.348 867.675L538.085 883.244" stroke="black" stroke-opacity="0.25" stroke-miterlimit="10"/>
<path d="M469.21 1054.46L412.565 995.516" stroke="black" stroke-opacity="0.25" stroke-miterlimit="10"/>
<path d="M471.116 1049.73L414.471 990.779" stroke="black" stroke-opacity="0.25" stroke-miterlimit="10"/>
<path d="M409.582 1102.82L415.844 1087.25" stroke="black" stroke-opacity="0.25" stroke-miterlimit="10"/>
<path d="M415.839 1087.26L440.89 1024.98" stroke="black" stroke-opacity="0.25" stroke-miterlimit="10"/>
<path d="M449.498 1045.2L440.89 1024.98" stroke="black" stroke-opacity="0.25" stroke-miterlimit="10"/>
<path d="M440.89 1024.98L420.681 1033.61" stroke="black" stroke-opacity="0.25" stroke-miterlimit="10"/>
<path d="M442.796 1020.25L503.503 869.333" stroke="black" stroke-opacity="0.25" stroke-miterlimit="10"/>
<path d="M503.503 869.333L509.765 853.764" stroke="black" stroke-opacity="0.25" stroke-miterlimit="10"/>
<path d="M518.378 873.968L509.765 853.764" stroke="black" stroke-opacity="0.25" stroke-miterlimit="10"/>
<path d="M509.765 853.764L489.561 862.377" stroke="black" stroke-opacity="0.25" stroke-miterlimit="10"/>
<path d="M444.188 1116.74L374.999 1088.9" stroke="black" stroke-opacity="0.25" stroke-miterlimit="10"/>
<path d="M374.994 1088.92L381.257 1073.35" stroke="black" stroke-opacity="0.25" stroke-miterlimit="10"/>
<path d="M381.257 1073.35L450.422 1101.17" stroke="black" stroke-opacity="0.25" stroke-miterlimit="10"/>
<path d="M450.427 1101.16L444.188 1116.74" stroke="black" stroke-opacity="0.25" stroke-miterlimit="10"/>
<path d="M450.427 1101.16L381.262 1073.34" stroke="black" stroke-opacity="0.25" stroke-miterlimit="10"/>
<path d="M381.257 1073.35L387.52 1057.78" stroke="black" stroke-opacity="0.25" stroke-miterlimit="10"/>
<path d="M387.52 1057.78L456.685 1085.6" stroke="black" stroke-opacity="0.25" stroke-miterlimit="10"/>
<path d="M456.685 1085.6L450.422 1101.17" stroke="black" stroke-opacity="0.25" stroke-miterlimit="10"/>
<path d="M456.685 1085.6L387.52 1057.78" stroke="black" stroke-opacity="0.25" stroke-miterlimit="10"/>
<path d="M387.52 1057.78L393.782 1042.21" stroke="black" stroke-opacity="0.25" stroke-miterlimit="10"/>
<path d="M393.782 1042.21L462.947 1070.03" stroke="black" stroke-opacity="0.25" stroke-miterlimit="10"/>
<path d="M462.947 1070.03L456.684 1085.6" stroke="black" stroke-opacity="0.25" stroke-miterlimit="10"/>
<path d="M462.947 1070.03L393.782 1042.21" stroke="black" stroke-opacity="0.25" stroke-miterlimit="10"/>
<path d="M393.782 1042.21L400.045 1026.64" stroke="black" stroke-opacity="0.25" stroke-miterlimit="10"/>
<path d="M400.045 1026.64L469.21 1054.46" stroke="black" stroke-opacity="0.25" stroke-miterlimit="10"/>
<path d="M469.21 1054.46L462.947 1070.03" stroke="black" stroke-opacity="0.25" stroke-miterlimit="10"/>
<path d="M469.21 1054.46L400.045 1026.64" stroke="black" stroke-opacity="0.25" stroke-miterlimit="10"/>
<path d="M400.045 1026.64L406.307 1011.07" stroke="black" stroke-opacity="0.25" stroke-miterlimit="10"/>
<path d="M406.308 1011.07L440.89 1024.98" stroke="black" stroke-opacity="0.25" stroke-miterlimit="10"/>
<path d="M440.89 1024.98L406.308 1011.07" stroke="black" stroke-opacity="0.25" stroke-miterlimit="10"/>
<path d="M406.308 1011.07L412.571 995.503" stroke="black" stroke-opacity="0.25" stroke-miterlimit="10"/>
<path d="M451.418 1029.22L475.472 1038.9" stroke="black" stroke-opacity="0.25" stroke-miterlimit="10"/>
<path d="M475.472 1038.9L471.116 1049.73" stroke="black" stroke-opacity="0.25" stroke-miterlimit="10"/>
<path d="M475.472 1038.9L451.418 1029.22" stroke="black" stroke-opacity="0.25" stroke-miterlimit="10"/>
<path d="M423.093 999.751L429.355 1002.27" stroke="black" stroke-opacity="0.25" stroke-miterlimit="10"/>
<path d="M448.103 1009.81L456.733 1013.28" stroke="black" stroke-opacity="0.25" stroke-miterlimit="10"/>
<path d="M475.481 1020.82L481.73 1023.34" stroke="black" stroke-opacity="0.25" stroke-miterlimit="10"/>
<path d="M481.73 1023.34L475.472 1038.9" stroke="black" stroke-opacity="0.25" stroke-miterlimit="10"/>
<path d="M481.73 1023.34L475.481 1020.82" stroke="black" stroke-opacity="0.25" stroke-miterlimit="10"/>
<path d="M456.733 1013.28L448.103 1009.81" stroke="black" stroke-opacity="0.25" stroke-miterlimit="10"/>
<path d="M429.355 1002.27L423.093 999.751" stroke="black" stroke-opacity="0.25" stroke-miterlimit="10"/>
<path d="M414.476 990.766L418.828 979.948" stroke="black" stroke-opacity="0.25" stroke-miterlimit="10"/>
<path d="M418.828 979.948L430.347 984.582" stroke="black" stroke-opacity="0.25" stroke-miterlimit="10"/>
<path d="M449.095 992.123L457.726 995.595" stroke="black" stroke-opacity="0.25" stroke-miterlimit="10"/>
<path d="M476.474 1003.14L488.005 1007.77" stroke="black" stroke-opacity="0.25" stroke-miterlimit="10"/>
<path d="M487.993 1007.77L481.73 1023.34" stroke="black" stroke-opacity="0.25" stroke-miterlimit="10"/>
<path d="M487.993 1007.77L476.473 1003.14" stroke="black" stroke-opacity="0.25" stroke-miterlimit="10"/>
<path d="M457.726 995.595L449.095 992.123" stroke="black" stroke-opacity="0.25" stroke-miterlimit="10"/>
<path d="M430.347 984.582L418.828 979.948" stroke="black" stroke-opacity="0.25" stroke-miterlimit="10"/>
<path d="M418.828 979.947L425.091 964.378" stroke="black" stroke-opacity="0.25" stroke-miterlimit="10"/>
<path d="M425.091 964.378L436.611 969.012" stroke="black" stroke-opacity="0.25" stroke-miterlimit="10"/>
<path d="M455.358 976.553L463.989 980.025" stroke="black" stroke-opacity="0.25" stroke-miterlimit="10"/>
<path d="M482.737 987.567L494.268 992.206" stroke="black" stroke-opacity="0.25" stroke-miterlimit="10"/>
<path d="M494.256 992.201L487.993 1007.77" stroke="black" stroke-opacity="0.25" stroke-miterlimit="10"/>
<path d="M494.256 992.201L482.737 987.567" stroke="black" stroke-opacity="0.25" stroke-miterlimit="10"/>
<path d="M463.989 980.025L455.358 976.553" stroke="black" stroke-opacity="0.25" stroke-miterlimit="10"/>
<path d="M436.611 969.012L425.091 964.378" stroke="black" stroke-opacity="0.25" stroke-miterlimit="10"/>
<path d="M425.091 964.378L431.354 948.809" stroke="black" stroke-opacity="0.25" stroke-miterlimit="10"/>
<path d="M431.354 948.809L442.873 953.443" stroke="black" stroke-opacity="0.25" stroke-miterlimit="10"/>
<path d="M461.621 960.985L470.251 964.457" stroke="black" stroke-opacity="0.25" stroke-miterlimit="10"/>
<path d="M488.999 971.998L500.531 976.636" stroke="black" stroke-opacity="0.25" stroke-miterlimit="10"/>
<path d="M500.519 976.631L494.256 992.2" stroke="black" stroke-opacity="0.25" stroke-miterlimit="10"/>
<path d="M500.519 976.631L488.999 971.998" stroke="black" stroke-opacity="0.25" stroke-miterlimit="10"/>
<path d="M470.251 964.457L461.621 960.985" stroke="black" stroke-opacity="0.25" stroke-miterlimit="10"/>
<path d="M442.873 953.443L431.354 948.809" stroke="black" stroke-opacity="0.25" stroke-miterlimit="10"/>
<path d="M431.354 948.809L437.616 933.241" stroke="black" stroke-opacity="0.25" stroke-miterlimit="10"/>
<path d="M437.612 933.252L449.131 937.886" stroke="black" stroke-opacity="0.25" stroke-miterlimit="10"/>
<path d="M467.884 945.416L476.514 948.888" stroke="black" stroke-opacity="0.25" stroke-miterlimit="10"/>
<path d="M495.262 956.429L506.793 961.068" stroke="black" stroke-opacity="0.25" stroke-miterlimit="10"/>
<path d="M506.781 961.063L500.519 976.632" stroke="black" stroke-opacity="0.25" stroke-miterlimit="10"/>
<path d="M506.781 961.063L495.262 956.429" stroke="black" stroke-opacity="0.25" stroke-miterlimit="10"/>
<path d="M476.514 948.888L467.884 945.416" stroke="black" stroke-opacity="0.25" stroke-miterlimit="10"/>
<path d="M449.131 937.886L437.612 933.252" stroke="black" stroke-opacity="0.25" stroke-miterlimit="10"/>
<path d="M437.612 933.253L443.874 917.684" stroke="black" stroke-opacity="0.25" stroke-miterlimit="10"/>
<path d="M443.874 917.684L455.394 922.318" stroke="black" stroke-opacity="0.25" stroke-miterlimit="10"/>
<path d="M474.141 929.859L482.772 933.331" stroke="black" stroke-opacity="0.25" stroke-miterlimit="10"/>
<path d="M501.52 940.873L513.051 945.511" stroke="black" stroke-opacity="0.25" stroke-miterlimit="10"/>
<path d="M513.039 945.506L506.777 961.075" stroke="black" stroke-opacity="0.25" stroke-miterlimit="10"/>
<path d="M513.039 945.506L501.52 940.873" stroke="black" stroke-opacity="0.25" stroke-miterlimit="10"/>
<path d="M482.772 933.331L474.141 929.859" stroke="black" stroke-opacity="0.25" stroke-miterlimit="10"/>
<path d="M455.394 922.318L443.874 917.684" stroke="black" stroke-opacity="0.25" stroke-miterlimit="10"/>
<path d="M443.874 917.684L450.137 902.116" stroke="black" stroke-opacity="0.25" stroke-miterlimit="10"/>
<path d="M450.137 902.116L461.656 906.749" stroke="black" stroke-opacity="0.25" stroke-miterlimit="10"/>
<path d="M480.404 914.29L489.035 917.762" stroke="black" stroke-opacity="0.25" stroke-miterlimit="10"/>
<path d="M507.782 925.304L519.314 929.943" stroke="black" stroke-opacity="0.25" stroke-miterlimit="10"/>
<path d="M519.302 929.938L513.039 945.507" stroke="black" stroke-opacity="0.25" stroke-miterlimit="10"/>
<path d="M519.302 929.938L507.783 925.304" stroke="black" stroke-opacity="0.25" stroke-miterlimit="10"/>
<path d="M489.035 917.762L480.404 914.29" stroke="black" stroke-opacity="0.25" stroke-miterlimit="10"/>
<path d="M461.656 906.749L450.137 902.116" stroke="black" stroke-opacity="0.25" stroke-miterlimit="10"/>
<path d="M450.137 902.115L456.4 886.546" stroke="black" stroke-opacity="0.25" stroke-miterlimit="10"/>
<path d="M456.4 886.546L467.919 891.18" stroke="black" stroke-opacity="0.25" stroke-miterlimit="10"/>
<path d="M486.667 898.722L495.297 902.194" stroke="black" stroke-opacity="0.25" stroke-miterlimit="10"/>
<path d="M514.045 909.735L525.577 914.374" stroke="black" stroke-opacity="0.25" stroke-miterlimit="10"/>
<path d="M525.564 914.369L519.302 929.937" stroke="black" stroke-opacity="0.25" stroke-miterlimit="10"/>
<path d="M525.564 914.369L514.045 909.735" stroke="black" stroke-opacity="0.25" stroke-miterlimit="10"/>
<path d="M495.297 902.194L486.667 898.722" stroke="black" stroke-opacity="0.25" stroke-miterlimit="10"/>
<path d="M467.919 891.18L456.4 886.546" stroke="black" stroke-opacity="0.25" stroke-miterlimit="10"/>
<path d="M456.4 886.547L462.662 870.978" stroke="black" stroke-opacity="0.25" stroke-miterlimit="10"/>
<path d="M462.662 870.978L474.182 875.612" stroke="black" stroke-opacity="0.25" stroke-miterlimit="10"/>
<path d="M492.929 883.154L501.56 886.625" stroke="black" stroke-opacity="0.25" stroke-miterlimit="10"/>
<path d="M520.308 894.166L531.839 898.805" stroke="black" stroke-opacity="0.25" stroke-miterlimit="10"/>
<path d="M531.827 898.8L525.564 914.369" stroke="black" stroke-opacity="0.25" stroke-miterlimit="10"/>
<path d="M531.827 898.8L520.308 894.166" stroke="black" stroke-opacity="0.25" stroke-miterlimit="10"/>
<path d="M501.56 886.625L492.929 883.154" stroke="black" stroke-opacity="0.25" stroke-miterlimit="10"/>
<path d="M474.182 875.612L462.662 870.978" stroke="black" stroke-opacity="0.25" stroke-miterlimit="10"/>
<path d="M462.662 870.978L468.92 855.421" stroke="black" stroke-opacity="0.25" stroke-miterlimit="10"/>
<path d="M468.92 855.421L480.44 860.055" stroke="black" stroke-opacity="0.25" stroke-miterlimit="10"/>
<path d="M499.187 867.596L507.818 871.068" stroke="black" stroke-opacity="0.25" stroke-miterlimit="10"/>
<path d="M526.566 878.61L538.097 883.249" stroke="black" stroke-opacity="0.25" stroke-miterlimit="10"/>
<path d="M538.09 883.232L531.827 898.801" stroke="black" stroke-opacity="0.25" stroke-miterlimit="10"/>
<path d="M538.09 883.232L526.571 878.598" stroke="black" stroke-opacity="0.25" stroke-miterlimit="10"/>
<path d="M507.818 871.068L499.187 867.596" stroke="black" stroke-opacity="0.25" stroke-miterlimit="10"/>
<path d="M480.44 860.055L468.92 855.421" stroke="black" stroke-opacity="0.25" stroke-miterlimit="10"/>
<path d="M468.92 855.422L475.183 839.853" stroke="black" stroke-opacity="0.25" stroke-miterlimit="10"/>
<path d="M475.182 839.852L486.702 844.486" stroke="black" stroke-opacity="0.25" stroke-miterlimit="10"/>
<path d="M505.45 852.028L514.081 855.499" stroke="black" stroke-opacity="0.25" stroke-miterlimit="10"/>
<path d="M532.828 863.041L544.36 867.68" stroke="black" stroke-opacity="0.25" stroke-miterlimit="10"/>
<path d="M544.348 867.675L538.085 883.244" stroke="black" stroke-opacity="0.25" stroke-miterlimit="10"/>
<path d="M469.21 1054.46L412.565 995.516" stroke="black" stroke-opacity="0.25" stroke-miterlimit="10"/>
<path d="M471.116 1049.73L414.471 990.779" stroke="black" stroke-opacity="0.25" stroke-miterlimit="10"/>
<path d="M409.582 1102.82L415.844 1087.25" stroke="black" stroke-opacity="0.25" stroke-miterlimit="10"/>
<path d="M415.839 1087.26L440.89 1024.98" stroke="black" stroke-opacity="0.25" stroke-miterlimit="10"/>
<path d="M449.498 1045.2L440.89 1024.98" stroke="black" stroke-opacity="0.25" stroke-miterlimit="10"/>
<path d="M440.89 1024.98L420.681 1033.61" stroke="black" stroke-opacity="0.25" stroke-miterlimit="10"/>
<path d="M442.796 1020.25L503.503 869.333" stroke="black" stroke-opacity="0.25" stroke-miterlimit="10"/>
<path d="M503.503 869.333L509.765 853.764" stroke="black" stroke-opacity="0.25" stroke-miterlimit="10"/>
<path d="M518.378 873.968L509.765 853.764" stroke="black" stroke-opacity="0.25" stroke-miterlimit="10"/>
<path d="M509.765 853.764L489.561 862.377" stroke="black" stroke-opacity="0.25" stroke-miterlimit="10"/>
<path d="M160.743 973.998L192.285 895.586" stroke="black" stroke-opacity="0.25" stroke-miterlimit="10"/>
<path d="M192.285 895.586L300.094 938.954" stroke="black" stroke-opacity="0.25" stroke-miterlimit="10"/>
<path d="M300.094 938.954L268.551 1017.37" stroke="black" stroke-opacity="0.25" stroke-miterlimit="10"/>
<path d="M268.552 1017.37L160.73 973.994" stroke="black" stroke-opacity="0.25" stroke-miterlimit="10"/>
<path fill-rule="evenodd" clip-rule="evenodd" d="M585.92 738.459L566.76 713.998L555.156 742.81L585.92 738.459Z" fill="black" fill-opacity="0.25" stroke="black" stroke-opacity="0.25" stroke-miterlimit="10"/>
<path fill-rule="evenodd" clip-rule="evenodd" d="M517.21 610.463L492.748 629.623L521.572 641.232L517.21 610.463Z" fill="black" fill-opacity="0.25" stroke="black" stroke-opacity="0.25" stroke-miterlimit="10"/>
<path fill-rule="evenodd" clip-rule="evenodd" d="M403.08 1193.97L383.932 1169.51L372.316 1198.32L403.08 1193.97Z" fill="black" fill-opacity="0.25" stroke="black" stroke-opacity="0.25" stroke-miterlimit="10"/>
<path fill-rule="evenodd" clip-rule="evenodd" d="M264.01 1141.59L283.165 1166.07L294.762 1137.24L264.01 1141.59Z" fill="black" fill-opacity="0.25" stroke="black" stroke-opacity="0.25" stroke-miterlimit="10"/>
<path d="M1247.73 307.951L1239.63 328.064" stroke="black" stroke-opacity="0.25" stroke-miterlimit="10"/>
<path d="M1228.06 356.903L1210.69 400.15" stroke="black" stroke-opacity="0.25" stroke-miterlimit="10"/>
<path d="M1199.1 428.979L1180.56 475.127" stroke="black" stroke-opacity="0.25" stroke-miterlimit="10"/>
<path d="M1209.87 486.918L1197.12 518.624" stroke="black" stroke-opacity="0.25" stroke-miterlimit="10"/>
<path d="M1185.52 547.453L1168.13 590.69" stroke="black" stroke-opacity="0.25" stroke-miterlimit="10"/>
<path d="M1156.53 619.519L1139.14 662.756" stroke="black" stroke-opacity="0.25" stroke-miterlimit="10"/>
<path d="M1127.54 691.583L1114.79 723.289" stroke="black" stroke-opacity="0.25" stroke-miterlimit="10"/>
<path d="M911.109 1063.35L926.001 1069.34" stroke="black" stroke-opacity="0.25" stroke-miterlimit="10"/>
<path d="M953.73 1080.49L968.622 1086.48" stroke="black" stroke-opacity="0.25" stroke-miterlimit="10"/>
<path d="M968.622 1086.48L955.868 1118.19" stroke="black" stroke-opacity="0.25" stroke-miterlimit="10"/>
<path d="M944.271 1147.02L926.879 1190.26" stroke="black" stroke-opacity="0.25" stroke-miterlimit="10"/>
<path d="M915.282 1219.08L897.89 1262.32" stroke="black" stroke-opacity="0.25" stroke-miterlimit="10"/>
<path d="M886.293 1291.15L873.539 1322.86" stroke="black" stroke-opacity="0.25" stroke-miterlimit="10"/>
<path d="M873.539 1322.86L858.671 1316.88" stroke="black" stroke-opacity="0.25" stroke-miterlimit="10"/>
<path d="M830.942 1305.72L816.05 1299.73" stroke="black" stroke-opacity="0.25" stroke-miterlimit="10"/>
<path d="M773.169 1406.4L801.913 1417.97" stroke="black" stroke-opacity="0.25" stroke-miterlimit="10"/>
<path d="M801.925 1417.97L786.662 1455.91" stroke="black" stroke-opacity="0.25" stroke-miterlimit="10"/>
<path d="M775.066 1484.74L757.673 1527.98" stroke="black" stroke-opacity="0.25" stroke-miterlimit="10"/>
<path d="M746.077 1556.81L728.684 1600.04" stroke="black" stroke-opacity="0.25" stroke-miterlimit="10"/>
<path d="M717.087 1628.87L699.695 1672.11" stroke="black" stroke-opacity="0.25" stroke-miterlimit="10"/>
<path d="M688.097 1700.94L670.705 1744.18" stroke="black" stroke-opacity="0.25" stroke-miterlimit="10"/>
<path d="M659.108 1773.01L641.715 1816.24" stroke="black" stroke-opacity="0.25" stroke-miterlimit="10"/>
<path d="M1180.55 475.122L1209.87 486.918" stroke="black" stroke-opacity="0.25" stroke-miterlimit="10"/>
<path d="M1114.79 723.291L1099.92 717.322" stroke="black" stroke-opacity="0.25" stroke-miterlimit="10"/>
<path d="M1071.62 705.938L1056.73 699.948" stroke="black" stroke-opacity="0.25" stroke-miterlimit="10"/>
<path d="M1056.73 699.948L1047.48 723.021" stroke="black" stroke-opacity="0.25" stroke-miterlimit="10"/>
<path d="M1035.92 751.864L1018.58 795.125" stroke="black" stroke-opacity="0.25" stroke-miterlimit="10"/>
<path d="M1007.04 823.974L989.703 867.236" stroke="black" stroke-opacity="0.25" stroke-miterlimit="10"/>
<path d="M978.142 896.079L960.81 939.34" stroke="black" stroke-opacity="0.25" stroke-miterlimit="10"/>
<path d="M949.25 968.184L931.918 1011.45" stroke="black" stroke-opacity="0.25" stroke-miterlimit="10"/>
<path d="M920.37 1040.29L911.109 1063.35" stroke="black" stroke-opacity="0.25" stroke-miterlimit="10"/>
<path d="M773.169 1406.4L788.821 1367.49" stroke="black" stroke-opacity="0.25" stroke-miterlimit="10"/>
<path d="M800.394 1338.65L816.045 1299.74" stroke="black" stroke-opacity="0.25" stroke-miterlimit="10"/>
<path d="M318.79 929.062L314.614 939.445" stroke="black" stroke-opacity="0.25" stroke-miterlimit="10"/>
<path d="M185.622 875.493L181.445 885.876" stroke="black" stroke-opacity="0.25" stroke-miterlimit="10"/>
<path d="M318.79 929.062L185.61 875.489" stroke="black" stroke-opacity="0.25" stroke-miterlimit="10"/>
<path d="M191.828 890.053L304.247 935.261" stroke="black" stroke-opacity="0.25" stroke-miterlimit="10"/>
<path d="M139.007 991.376L143.184 980.993" stroke="black" stroke-opacity="0.25" stroke-miterlimit="10"/>
<path d="M272.175 1044.94L276.352 1034.56" stroke="black" stroke-opacity="0.25" stroke-miterlimit="10"/>
<path d="M139.007 991.375L272.175 1044.94" stroke="black" stroke-opacity="0.25" stroke-miterlimit="10"/>
<path d="M265.981 1030.39L153.567 985.169" stroke="black" stroke-opacity="0.25" stroke-miterlimit="10"/>
<path d="M307.66 956.73L314.618 939.433" stroke="black" stroke-opacity="0.25" stroke-miterlimit="10"/>
<path d="M304.247 935.261L297.284 952.571" stroke="black" stroke-opacity="0.25" stroke-miterlimit="10"/>
<path d="M297.289 952.558L307.661 956.73" stroke="black" stroke-opacity="0.25" stroke-miterlimit="10"/>
<path d="M276.352 1034.56L283.31 1017.26" stroke="black" stroke-opacity="0.25" stroke-miterlimit="10"/>
<path d="M272.934 1013.1L283.305 1017.28" stroke="black" stroke-opacity="0.25" stroke-miterlimit="10"/>
<path d="M272.934 1013.1L265.976 1030.4" stroke="black" stroke-opacity="0.25" stroke-miterlimit="10"/>
<path d="M181.445 885.876L143.183 980.993" stroke="black" stroke-opacity="0.25" stroke-miterlimit="10"/>
<path d="M153.567 985.17L191.828 890.053" stroke="black" stroke-opacity="0.25" stroke-miterlimit="10"/>
</g>
<defs>
<clipPath id="clip0_86_10169">
<rect width="1572.58" height="987.588" fill="white" transform="translate(1258.12 368.566) rotate(111.913)"/>
</clipPath>
</defs>
</svg>
