<svg width="92.000000" height="92.000000" viewBox="0 0 92 92" fill="none" xmlns="http://www.w3.org/2000/svg" xmlns:xlink="http://www.w3.org/1999/xlink">
	<desc>
			Created with Pixso.
	</desc>
	<defs/>
	<path id="Vector" d="M78.52 13.47C69.83 4.78 58.28 0 46 0C33.71 0 22.16 4.78 13.47 13.47C4.78 22.16 0 33.71 0 46C0 58.28 4.78 69.83 13.47 78.52C22.16 87.21 33.71 92 46 92C58.28 92 69.83 87.21 78.52 78.52C87.21 69.83 92 58.28 92 46C92 33.71 87.21 22.16 78.52 13.47ZM20.39 42.01C18.89 42.01 17.67 40.8 17.67 39.29C17.67 34.48 21.59 30.57 26.4 30.57C31.21 30.57 35.13 34.48 35.13 39.29C35.13 40.8 33.91 42.01 32.41 42.01C30.91 42.01 29.7 40.8 29.7 39.29C29.7 37.48 28.22 36 26.4 36C24.58 36 23.11 37.48 23.11 39.29C23.11 40.8 21.89 42.01 20.39 42.01ZM67.51 63.89C61.76 69.63 54.12 72.8 46 72.8C37.87 72.8 30.23 69.63 24.48 63.89C23.42 62.83 23.42 61.11 24.48 60.05C25.54 58.98 27.26 58.98 28.32 60.05C33.04 64.77 39.32 67.37 46 67.37C52.67 67.37 58.95 64.77 63.67 60.05C64.73 58.98 66.45 58.98 67.51 60.05C68.57 61.11 68.57 62.83 67.51 63.89ZM71.6 42.01C70.1 42.01 68.88 40.8 68.88 39.29C68.88 37.48 67.41 36 65.59 36C63.77 36 62.29 37.48 62.29 39.29C62.29 40.8 61.08 42.01 59.58 42.01C58.08 42.01 56.86 40.8 56.86 39.29C56.86 34.48 60.78 30.57 65.59 30.57C70.4 30.57 74.32 34.48 74.32 39.29C74.32 40.8 73.1 42.01 71.6 42.01Z" fill="#FFFFFF" fill-opacity="1.000000" fill-rule="nonzero"/>
</svg>
