<svg width="1098.915283" height="637.425415" viewBox="0 0 1098.92 637.425" fill="none" xmlns="http://www.w3.org/2000/svg" xmlns:xlink="http://www.w3.org/1999/xlink">
	<desc>
			Created with Pixso.
	</desc>
	<defs/>
	<path id="XMLID 38 (Border)" d="M3.05 627.92C3.06 630.14 3.61 631.4 4.83 631.46C3.07 631.37 1.83 630.27 1.06 628.34C-7.21 607.62 37.77 490.7 44.49 478.38C71.99 427.95 104.13 376.52 141.02 328.31C141.8 327.29 142.62 326.22 143.47 325.13C158.49 305.69 181.85 275.46 152.31 258.6C122.46 241.56 82.61 234.16 58.29 212.6C34.41 191.43 62.87 164.04 83.83 145.71C88.6 141.54 145.25 99.62 154.28 104.23C157.15 105.67 132.69 129.95 114.11 148.38C104.41 158 96.31 166.04 94.55 168.4C71.14 199.87 95.4 208.49 139.65 224.06C173.16 235.85 213.18 249.07 219.25 274.19C225.17 298.72 204.49 325.04 184.45 345.53C134.85 396.26 86.6 447.93 51.91 503.03C47.5 510.06 3.01 607.92 3.05 627.92ZM4.44 611.62C3.41 615.04 2.61 618.03 2.05 620.58C2.1 617.51 2.49 613.73 3.22 609.26C5.18 597.21 9.45 580.84 16.03 560.14C21.31 543.54 27.35 526.34 34.15 508.53C40.08 492.97 44.12 483.24 46.25 479.34C76.45 423.94 108.57 374 142.6 329.53C143.12 328.85 143.94 327.79 145.05 326.35C156.6 311.41 163.75 299.81 166.5 291.53C169.04 283.89 169.2 277.17 166.96 271.38C164.75 265.64 160.19 260.8 153.3 256.87C145.23 252.26 132.11 246.42 113.94 239.35C100.52 234.13 90.71 230.02 84.5 227C74.25 222.02 65.95 216.72 59.62 211.1C55.5 207.45 52.91 203.43 51.85 199.04C50.4 193.08 51.78 186.42 55.98 179.09C60.85 170.59 70.57 159.97 85.14 147.22C91.06 142.04 102.2 134.08 118.55 123.35C136.15 111.8 147.24 105.94 151.83 105.75C151.45 106.34 150.92 107.06 150.25 107.9C148.27 110.42 145.12 113.97 140.78 118.56C135.41 124.25 126.05 133.71 112.7 146.96C100.76 158.8 94.18 165.55 92.94 167.2C85 177.88 82.18 187.02 84.46 194.61C85.46 197.92 87.43 200.94 90.37 203.66C94.43 207.43 100.93 211.23 109.85 215.06C115.36 217.42 125.07 221.05 138.98 225.95C139.76 226.22 140.92 226.63 142.48 227.18C165 235.08 180.95 241.59 190.32 246.71C205.86 255.2 214.85 264.51 217.3 274.66C221.74 293.06 210.32 316.22 183.02 344.13C153.03 374.81 129.05 400.54 111.08 421.33C86.3 450 66.01 476.88 50.22 501.97C48.74 504.33 44.98 512.17 38.95 525.47C32.21 540.36 25.93 554.93 20.11 569.16C12.83 587 7.6 601.15 4.44 611.62Z" fill="#FFFFFF" fill-opacity="1.000000" fill-rule="evenodd"/>
	<path id="XMLID 37 (Border)" d="M118.39 33.56C117.68 36.26 117.01 38.76 115.77 39.3C108.03 42.63 97.67 32.01 86.93 21.01C84.85 18.88 82.76 16.73 80.67 14.67C67.76 1.97 54.92 -7.48 45.96 9.39C38.09 24.22 59.47 40.32 85.33 53.66C111.19 66.99 141.56 77.57 151.62 81.35C175.91 90.47 198.07 105.23 220.95 118.42C257.96 139.76 276.1 143.28 294.57 146.15C304.03 147.64 319.05 149.2 337.07 147.03C349.45 145.55 364.48 143.74 377.18 134.4C384.14 129.28 388.46 123.32 390.5 120.52C393.91 115.82 396.42 111.06 397.7 107.9C397.96 107.27 398.17 106.7 398.33 106.21C398.7 105.04 398.78 104.31 398.54 104.21C398.3 104.12 397.82 104.6 397.02 105.56C396.72 105.93 396.37 106.37 395.96 106.87C394.17 109.11 391.35 112.63 387.25 116.78C384.14 119.92 380.09 124.05 375.13 127.42C364.01 135.01 351.37 136.83 344.48 137.75C332.23 139.39 322.96 138.09 311.71 136.5C311.35 136.45 310.99 136.4 310.63 136.35C298.01 134.56 286.37 131.56 275.47 127.34C264.54 123.12 254.35 117.68 244.59 111.03C242.83 109.83 232.05 102.17 221.79 94.71C211.56 87.25 201.82 79.96 202.17 79.49C206.19 73.89 214.47 72.24 221.71 69.6C228.96 66.96 235.14 63.38 235.02 53.93C234.91 45.61 229.82 40.99 222.84 38.42C215.87 35.86 207.01 35.33 199.34 35.25C195.84 35.21 192.59 35.42 189.4 35.62C187.97 35.71 186.56 35.8 185.14 35.87C180.57 36.1 175.97 36.1 170.82 35.11C165.53 34.1 161.25 31.99 157.1 29.83C152.96 27.68 148.92 25.43 144.09 24.17L143.81 24.09C139.39 22.92 135.69 21.94 132.17 22.05C128.58 22.16 125.15 23.43 121.28 26.78C119.86 28.02 119.1 30.87 118.39 33.56ZM388.88 119.34C390.01 117.78 391.05 116.22 392.01 114.64C390.87 115.9 389.76 117.08 388.68 118.18L388.43 118.43C383.64 123.27 379.59 126.82 376.26 129.08C368.42 134.42 357.91 137.97 344.75 139.73C336.4 140.85 325.29 140.44 311.43 138.48C310.99 138.42 310.63 138.37 310.35 138.33C297.71 136.54 285.84 133.5 274.75 129.2C263.92 125.02 253.49 119.52 243.46 112.68C239.27 109.81 231.66 104.35 220.62 96.32C214.69 92 210.08 88.59 206.79 86.07C204.84 84.57 203.36 83.39 202.36 82.54C200.73 81.17 200.02 79.99 200.23 79C200.28 78.76 200.39 78.54 200.54 78.32C202.94 74.98 208.32 71.94 216.69 69.2C218.64 68.55 220.09 68.06 221.03 67.72C225.05 66.25 227.95 64.65 229.72 62.9C230.24 62.38 230.71 61.82 231.1 61.22C232.42 59.25 233.05 56.82 233.02 53.95C232.99 51.53 232.46 49.38 231.44 47.5C229.73 44.35 226.63 41.95 222.15 40.3C216.91 38.38 209.3 37.36 199.32 37.25C197.04 37.22 193.77 37.35 189.53 37.62C187.62 37.74 186.19 37.82 185.24 37.86C179.63 38.15 174.7 37.89 170.44 37.08C166.5 36.32 161.75 34.5 156.18 31.61C155.92 31.47 155.53 31.27 155.01 31C150.16 28.46 146.35 26.83 143.58 26.1L143.3 26.03C138.07 24.64 134.38 23.99 132.23 24.05C132.15 24.05 132.08 24.06 132 24.06C128.8 24.22 125.66 25.63 122.59 28.3C121.95 28.85 121.19 30.78 120.32 34.07C119.24 38.16 117.99 40.52 116.56 41.13C116.23 41.27 115.91 41.39 115.57 41.49C111.61 42.69 106.85 41.24 101.29 37.14C97.93 34.67 92.67 29.76 85.5 22.41C82.73 19.57 80.65 17.46 79.26 16.1C71.69 8.64 65.68 4.23 61.24 2.85C59.41 2.29 57.69 2.19 56.08 2.56C52.87 3.29 50.09 5.88 47.73 10.33C47.07 11.57 46.64 12.84 46.45 14.15C45.71 19.15 48.36 24.66 54.41 30.66C61.09 37.31 71.71 44.38 86.25 51.88C101.18 59.58 121.58 68.18 147.43 77.67C149.82 78.54 151.45 79.15 152.32 79.47C165 84.23 183.11 93.63 206.65 107.67C213.43 111.71 218.53 114.72 221.94 116.68C238.46 126.21 252.93 133.09 265.35 137.32C273.52 140.1 283.37 142.38 294.88 144.17C309.07 146.4 323.02 146.7 336.74 145.06C345.33 144.03 351.97 142.92 356.5 141.73C364.1 139.74 370.6 136.76 376 132.79C380.43 129.53 384.76 125 388.88 119.34Z" fill="#FFFFFF" fill-opacity="1.000000" fill-rule="evenodd"/>
	<path id="XMLID 33 (Border)" d="M454.8 309.05C458.31 304.52 460.37 302.05 460.96 301.66C461.74 301.08 462.86 300.8 464.31 300.81C465.77 300.82 467.12 301.17 468.38 301.85C469.64 302.54 470.59 303.48 471.28 304.64C471.95 305.79 471.9 307.25 471.11 309.01C470.51 310.16 468.67 313.22 465.53 318.15C462.39 323.07 458.19 329.21 452.91 336.57C447.62 343.92 441.48 352.03 434.44 360.92C427.4 369.81 419.81 378.89 411.73 388.17C403.62 397.44 395.08 406.48 386.1 415.25C377.13 424.04 368.05 431.89 358.89 438.83C357.33 439.8 355.04 441.29 352.02 443.3C349.01 445.33 345.45 447.25 341.37 449.06C337.28 450.89 332.9 452.3 328.23 453.36C323.57 454.41 319.02 454.62 314.56 454.01C311.05 453.4 308.29 452.04 306.28 449.89C304.25 447.75 302.87 444.93 302.1 441.42C301.34 437.93 301.16 433.9 301.58 429.33C301.9 425.84 302.45 422.13 303.23 418.24C303.46 417.06 303.72 415.86 303.99 414.65C303.16 415.51 302.29 416.37 301.39 417.23C297.62 420.82 293.22 424.44 288.2 428.1C281.97 432.64 275.48 436.68 268.77 440.24C262.04 443.79 255.54 446.76 249.21 449.17C242.88 451.57 237.5 452.85 233.03 453C226.04 453.15 220.04 452.14 215 449.98C209.96 447.82 205.86 444.94 202.68 441.33C199.5 437.72 197.19 433.68 195.75 429.21C194.32 424.74 193.62 420.27 193.65 415.81C193.68 409.6 194.7 402.46 196.68 394.42C198.67 386.37 201.59 378.05 205.4 369.42C209.24 360.82 214.03 352.29 219.8 343.87C225.57 335.46 232.3 327.63 240.03 320.4C247.73 313.17 256.35 306.9 265.89 301.62C275.44 296.34 286.04 292.65 297.7 290.58C304.89 289.27 311.3 288.91 316.91 289.53C322.55 290.15 327.42 291.48 331.59 293.53C335.76 295.6 339.18 298.27 341.89 301.6C344 304.19 345.68 306.89 346.96 309.7C347.32 310.49 347.65 311.29 347.95 312.1C348.37 311.31 348.78 310.54 349.18 309.78C351.05 306.3 352.75 303.2 354.28 300.49C356.15 297.21 357.67 294.69 358.83 292.94C361.96 287.53 365.2 283.61 368.5 281.19C371.8 278.79 374.88 277.15 377.7 276.29C380.51 275.44 382.95 275.1 384.97 275.31C387.08 275.56 388.5 275.68 389.26 275.68C392.75 275.7 395.62 276.44 397.83 277.91C400.04 279.38 401.75 281.04 402.9 282.88C404.04 284.74 404.77 286.68 405.04 288.7C405.31 290.75 405.35 292.45 405.17 293.8C404.36 297.48 402.6 302.13 399.84 307.75C397.09 313.38 393.9 319.56 390.27 326.34C386.64 333.11 382.66 340.32 378.35 347.96C374.04 355.6 369.93 363.12 365.99 370.45C362.07 377.81 358.53 384.98 355.4 391.93C352.25 398.9 349.99 405.1 348.59 410.53C347.41 414.99 347.53 417.48 348.98 417.96C350.44 418.45 353.1 417.35 357.01 414.65C363.83 410.23 371.05 404.39 378.65 397.15C386.26 389.92 393.82 382.19 401.33 373.98C408.85 365.77 416.08 357.47 423 349.05C429.93 340.64 436.09 333.01 441.46 326.16C446.84 319.31 451.29 313.61 454.8 309.05ZM403.06 288.97C403.3 290.77 403.34 292.27 403.2 293.45C402.41 296.99 400.7 301.46 398.05 306.87C395.35 312.39 392.17 318.57 388.51 325.39C385.02 331.9 381.06 339.09 376.61 346.98C372.6 354.08 368.47 361.59 364.23 369.51C360.21 377.05 356.66 384.25 353.57 391.11C350.4 398.12 348.1 404.43 346.65 410.04C345.4 414.76 345.59 417.82 347.21 419.22C347.53 419.5 347.91 419.71 348.35 419.86C350.43 420.56 353.69 419.37 358.13 416.31C365.04 411.82 372.34 405.92 380.03 398.6C387.57 391.44 395.16 383.68 402.81 375.33C410.48 366.95 417.73 358.61 424.55 350.33C431.64 341.72 437.8 334.07 443.04 327.39L456.37 310.28C459.75 305.92 461.65 303.6 462.06 303.33C462.48 303.02 463.29 302.8 464.3 302.81C464.82 302.81 465.32 302.87 465.8 302.99C466.36 303.12 466.9 303.33 467.43 303.61C467.9 303.87 468.32 304.18 468.69 304.54C469.02 304.87 469.32 305.24 469.57 305.66C469.88 306.21 469.8 307.04 469.31 308.14C468.62 309.46 466.8 312.44 463.84 317.07C460.61 322.15 456.42 328.25 451.28 335.4C445.92 342.85 439.79 350.94 432.87 359.68C425.99 368.36 418.45 377.42 410.22 386.85C402.11 396.14 393.6 405.12 384.71 413.82C375.87 422.47 366.88 430.26 357.75 437.19C356.07 438.24 353.79 439.73 350.92 441.64C348.01 443.6 344.55 445.46 340.56 447.23C336.7 448.96 332.44 450.35 327.79 451.41C323.44 452.38 319.2 452.6 315.05 452.06C314.99 452.05 314.92 452.04 314.86 452.03C311.81 451.5 309.43 450.33 307.74 448.52C305.97 446.66 304.75 444.15 304.06 440.99C303.34 437.71 303.18 433.88 303.57 429.51C303.98 425.07 304.77 420.26 305.94 415.09L307.52 408.12L302.55 413.26C298.38 417.57 293.2 421.98 287.02 426.49C280.94 430.92 274.54 434.91 267.83 438.47C261.19 441.98 254.75 444.92 248.5 447.3C242.38 449.62 237.2 450.86 232.97 451C226.3 451.15 220.58 450.2 215.79 448.14C211.02 446.1 207.15 443.39 204.18 440.01C202.22 437.79 200.61 435.39 199.35 432.82C198.69 431.46 198.12 430.06 197.66 428.6C196.4 424.67 195.73 420.73 195.66 416.78C195.65 416.46 195.65 416.14 195.65 415.82C195.68 409.79 196.67 402.82 198.63 394.9C200.56 387.05 203.42 378.83 207.23 370.23C211.05 361.67 215.79 353.26 221.45 345C227.17 336.67 233.82 328.95 241.4 321.86C242.18 321.12 242.98 320.39 243.79 319.67C250.77 313.45 258.47 308.01 266.86 303.37C276.23 298.18 286.63 294.57 298.05 292.55C305.08 291.27 311.3 290.92 316.69 291.52C322.07 292.11 326.74 293.38 330.71 295.32C334.62 297.27 337.83 299.78 340.34 302.86C342.88 305.99 344.79 309.3 346.07 312.79L347.62 317.01L349.72 313.04C352.01 308.72 354.11 304.86 356.03 301.48C357.87 298.24 359.36 295.76 360.5 294.04L360.57 293.94C363.54 288.79 366.58 285.08 369.68 282.8C372.81 280.53 375.67 279 378.28 278.21C380.86 277.42 383.02 277.12 384.77 277.3C386.87 277.55 388.36 277.68 389.25 277.68C392.36 277.7 394.85 278.33 396.72 279.57C398.72 280.9 400.22 282.36 401.2 283.94C402.21 285.58 402.83 287.25 403.06 288.97ZM269.48 426.37C264.07 428.87 259.6 430.21 256.05 430.4C250.42 430.56 246.23 429.27 243.58 426.53C243.04 425.98 242.57 425.37 242.16 424.7C239.89 420.99 239.14 416.19 239.91 410.28C240.64 404.65 242.62 398.22 245.85 390.99C248.99 383.89 252.86 376.61 257.43 369.13C262.02 361.65 267.06 354.44 272.53 347.48C278.09 340.43 283.62 334.18 289.11 328.75C294.74 323.2 300.01 318.83 304.93 315.62C310.15 312.22 314.72 310.64 318.64 310.86C320.12 310.87 322.09 311.14 324.53 311.65C325.36 311.84 326.16 312.09 326.94 312.4C328.68 313.11 330.28 314.17 331.74 315.56C333.81 317.56 335.39 320.38 336.45 324.04C337.51 327.67 337.41 332.55 336.13 338.68L336.08 338.91L335.98 339.13C332.43 346.56 329.05 353.82 325.84 360.89C322.54 368.08 319.36 375.51 316.28 383.18L316.23 383.31L316.15 383.44C312.36 389.96 307.76 396.02 302.38 401.64C297.01 407.24 291.51 412.14 285.9 416.34C280.2 420.59 274.73 423.94 269.48 426.37ZM306.03 317.3C310.9 314.12 315.09 312.64 318.57 312.86C319.92 312.87 321.77 313.12 324.1 313.61C326.45 314.12 328.51 315.24 330.35 317C332.19 318.77 333.57 321.3 334.53 324.6C335.5 327.89 335.38 332.46 334.18 338.27C330.85 345.24 327.46 352.5 324.02 360.06C320.56 367.61 317.38 375.07 314.42 382.43C310.71 388.81 306.21 394.76 300.93 400.26C295.66 405.76 290.25 410.59 284.7 414.74C279.14 418.89 273.79 422.17 268.64 424.56C263.47 426.95 259.23 428.23 255.95 428.41C249.93 428.57 245.91 426.98 243.86 423.66C241.84 420.34 241.18 415.98 241.89 410.54C242.59 405.12 244.52 398.86 247.67 391.8C250.8 384.74 254.63 377.53 259.14 370.18C263.64 362.84 268.62 355.68 274.1 348.72C279.59 341.76 285.04 335.58 290.52 330.17C295.99 324.78 301.15 320.47 306.03 317.3Z" fill="#FFFFFF" fill-opacity="1.000000" fill-rule="evenodd"/>
	<path id="XMLID 30 (Border)" d="M509.81 275.88C500.31 292.66 490.73 310.55 481.06 329.61C480.74 330.23 480.43 330.86 480.11 331.49C480.8 331.59 481.5 331.69 482.2 331.79C492.6 333.25 503.3 334.39 514.3 335.16C526.03 336.01 537.01 335.96 547.2 335.06C557.4 334.15 566.29 332.11 573.89 328.95C581.48 325.79 586.74 321.01 589.69 314.62C591.45 310.95 593.64 308.53 596.28 307.39C598.9 306.25 601.28 306.11 603.43 306.99C605.56 307.87 607.16 309.49 608.21 311.83C609.27 314.16 609.21 316.89 608.02 319.97C604.46 328.49 599.4 335.41 592.77 340.71C586.14 346 578.69 350.14 570.42 353.1C562.15 356.06 553.3 358.02 543.89 358.93C534.48 359.85 525.16 360.13 515.93 359.8C506.7 359.46 498.03 358.74 489.87 357.61C481.74 356.5 474.64 355.35 468.64 354.14C467.05 357.44 465.56 360.68 464.08 363.87C462.6 367.06 461.08 370.3 459.52 373.6C461.42 380.99 463.46 389.74 465.65 399.83C467.81 409.94 469.56 421.02 470.84 433.04C472.13 445.09 472.84 457.81 472.97 471.21C473.09 484.6 472.14 498.29 470.13 512.24C467.1 532.41 463.13 549.52 458.2 563.56C453.27 577.6 447.87 589.14 442 598.12C436.14 607.1 430.07 614.06 423.84 618.99C417.61 623.9 411.66 627.46 406.01 629.67C400.36 631.86 395.28 633.09 390.7 633.38C386.15 633.63 382.6 633.57 380.08 633.17C372.31 631.97 365.53 628.9 359.75 624.04C353.96 619.15 349.33 612.92 345.87 605.32C342.43 597.73 340.23 589.09 339.3 579.38C338.4 569.66 338.93 559.38 340.93 548.53C343.33 535.93 347.09 521.93 352.22 506.52C357.36 491.11 363.41 474.98 370.39 458.15C377.38 441.29 384.9 424.21 392.94 406.88C400.99 389.55 409.13 372.76 417.39 356.49C410.64 348.88 404.82 344.88 399.99 344.47C396.9 344.25 395.54 342.83 395.94 340.22C396.35 337.61 397.71 334.74 400.06 331.66C402.41 328.56 405.19 325.72 408.4 323.13C411.62 320.53 414.39 319.24 416.72 319.25C417.11 319.26 418.9 319.66 422.09 320.44C425.29 321.24 429.4 322.13 434.45 323.12C440.32 311.7 445.98 301.01 451.37 291.05C456.76 281.08 461.62 272.22 465.93 264.47C470.24 256.75 473.87 250.25 476.81 245.02C479.76 239.79 481.72 236.32 482.68 234.58C485.24 229.93 488.46 225.92 492.35 222.55C496.25 219.17 500.29 216.39 504.48 214.17C508.68 211.97 512.61 210.29 516.29 209.13C519.98 207.98 522.9 207.21 525.04 206.83C528.13 206.65 530.81 207.3 533.04 208.77C535.25 210.24 536.94 212.14 538.1 214.48C539.25 216.82 539.73 219.39 539.52 222.2C539.31 225 538.51 227.57 537.15 229.89C528.74 243.24 519.62 258.58 509.81 275.88ZM606.5 312.92C607.21 314.7 607.09 316.8 606.16 319.23C603.16 326.4 599.07 332.37 593.87 337.13C593.11 337.83 592.33 338.5 591.52 339.14C590.11 340.27 588.66 341.34 587.18 342.36C581.85 346.02 576.04 348.97 569.75 351.22C561.58 354.14 552.9 356.05 543.7 356.94C538.64 357.43 533.57 357.75 528.5 357.87C524.34 357.97 520.17 357.95 516 357.8C506.79 357.47 498.18 356.74 490.15 355.63C481.89 354.5 474.86 353.35 469.03 352.18L467.51 351.87L466.84 353.27C465.74 355.55 464.22 358.81 462.26 363.03L457.4 373.4L457.58 374.1C459.47 381.46 461.51 390.18 463.69 400.25C465.87 410.43 467.59 421.43 468.86 433.26C470.14 445.31 470.84 457.97 470.97 471.22C471.09 484.53 470.15 498.1 468.15 511.95C465.13 532.04 461.19 549.02 456.31 562.9C451.42 576.82 446.09 588.19 440.33 597.03C434.6 605.8 428.69 612.6 422.6 617.42C416.52 622.21 410.75 625.67 405.28 627.81C399.82 629.92 394.92 631.11 390.58 631.38C386.14 631.63 382.75 631.57 380.4 631.19C375.91 630.5 371.76 629.16 367.96 627.16C365.51 625.88 363.2 624.33 361.03 622.51C360.99 622.47 360.94 622.43 360.89 622.39C355.4 617.71 351 611.74 347.69 604.49C344.33 597.08 342.2 588.64 341.3 579.19C340.41 569.63 340.94 559.53 342.9 548.89C345.29 536.34 349.03 522.43 354.12 507.15C359.24 491.79 365.28 475.71 372.23 458.91C379.16 442.21 386.67 425.15 394.76 407.72C402.75 390.49 410.89 373.72 419.17 357.4L419.79 356.19L418.89 355.17C411.8 347.17 405.55 342.94 400.16 342.47C399.11 342.4 398.42 342.2 398.1 341.86C397.88 341.63 397.82 341.18 397.92 340.53C398.28 338.22 399.52 335.67 401.65 332.87C403.89 329.92 406.56 327.19 409.66 324.68C412.51 322.39 414.86 321.24 416.71 321.25C416.91 321.25 418.54 321.63 421.62 322.38C424.87 323.19 429.01 324.09 434.06 325.08L435.54 325.37L436.23 324.03C441.74 313.32 447.37 302.65 453.13 292L467.68 265.44L478.56 246L484.43 235.56C486.27 232.2 488.48 229.19 491.05 226.53C491.88 225.67 492.76 224.85 493.66 224.06C497.42 220.8 501.34 218.09 505.42 215.93C509.51 213.79 513.34 212.16 516.89 211.04C520.42 209.94 523.21 209.2 525.27 208.82C527.65 208.7 529.71 209.14 531.45 210.14C531.61 210.23 531.77 210.33 531.93 210.43C533.04 211.17 534 212.03 534.8 213.02C535.39 213.74 535.89 214.52 536.31 215.37C536.55 215.85 536.75 216.35 536.92 216.85C537.46 218.47 537.67 220.2 537.53 222.05C537.4 223.74 537.03 225.35 536.42 226.85C536.14 227.54 535.82 228.21 535.44 228.85C527.02 242.21 517.9 257.55 508.07 274.9C498.18 292.37 488.26 310.93 478.32 330.59L477.07 333.07L479.82 333.47C491.11 335.11 502.56 336.34 514.16 337.16C525.91 338 536.98 337.97 547.38 337.05C557.76 336.13 566.85 334.05 574.65 330.8C580.77 328.26 585.47 324.7 588.78 320.13C589.83 318.68 590.74 317.12 591.5 315.46C593.05 312.24 594.91 310.16 597.07 309.22C598.99 308.39 600.71 308.21 602.22 308.68C602.37 308.73 602.52 308.78 602.67 308.84C603.08 309.01 603.47 309.22 603.84 309.47C604.91 310.2 605.76 311.26 606.39 312.65C606.43 312.74 606.47 312.83 606.5 312.92ZM455.22 452.24C457.27 469.06 457.27 487.17 455.21 506.56L447.41 543.87C444.58 556.75 440.94 568.39 436.48 578.81C431.92 589.47 426.12 597.96 419.11 604.3C416.97 606.23 414.67 607.82 412.2 609.07C406.22 612.09 399.25 613.14 391.28 612.22C389 611.93 387.04 611.2 385.41 610.02C382.91 608.22 381.17 605.38 380.17 601.51C378.69 595.68 378.62 587.95 379.96 578.33C381.3 568.79 383.8 557.65 387.48 544.91C391.17 532.1 395.73 518.24 401.14 503.35C406.65 488.17 412.86 472.45 419.77 456.19C426.66 439.91 433.99 423.24 441.75 406.17L443.89 401.47L445.47 406.39C449.92 420.16 453.16 435.45 455.22 452.24ZM453.23 452.48C455.27 469.19 455.26 487.14 453.22 506.35C450.82 518.36 448.23 530.74 445.46 543.44C442.67 556.14 439.08 567.66 434.65 578.02C430.21 588.36 424.59 596.65 417.76 602.82C410.94 608.99 402.19 611.47 391.53 610.23C386.68 609.62 383.53 606.55 382.11 601.01C380.7 595.48 380.63 588.01 381.95 578.61C383.26 569.21 385.74 558.16 389.4 545.46C393.06 532.76 397.6 518.94 403.02 504.03C408.43 489.12 414.62 473.43 421.61 456.97C428.2 441.39 435.11 425.65 442.33 409.73C442.75 408.82 443.16 407.91 443.57 407C443.88 407.95 444.17 408.9 444.47 409.86C448.4 422.73 451.33 436.93 453.23 452.48Z" fill="#FFFFFF" fill-opacity="1.000000" fill-rule="evenodd"/>
	<path id="XMLID 26 (Border)" d="M788.17 310.87C791.68 306.34 793.74 303.87 794.33 303.48C795.12 302.9 796.23 302.62 797.69 302.63C799.15 302.64 800.49 302.99 801.75 303.67C803.01 304.36 803.97 305.3 804.66 306.46C805.32 307.61 805.27 309.07 804.48 310.83C803.89 311.98 802.04 315.04 798.9 319.97C795.76 324.89 791.57 331.03 786.28 338.39C780.99 345.74 774.85 353.85 767.81 362.74C760.77 371.63 753.19 380.71 745.1 389.99C736.99 399.26 728.45 408.3 719.48 417.07C710.5 425.86 701.42 433.71 692.26 440.65C690.71 441.63 688.41 443.12 685.4 445.12C682.38 447.15 678.82 449.07 674.74 450.88C670.66 452.71 666.27 454.12 661.61 455.19C656.94 456.23 652.39 456.44 647.93 455.83C644.43 455.22 641.67 453.86 639.65 451.71C637.62 449.57 636.24 446.75 635.48 443.24C634.71 439.75 634.54 435.72 634.95 431.15C635.27 427.66 635.83 423.95 636.6 420.06C636.83 418.88 637.09 417.68 637.36 416.47C636.53 417.33 635.67 418.19 634.76 419.05C631 422.64 626.59 426.26 621.57 429.92C615.34 434.46 608.85 438.5 602.14 442.06C595.42 445.61 588.91 448.58 582.58 450.99C576.26 453.39 570.87 454.67 566.41 454.82C559.42 454.98 553.41 453.96 548.37 451.8C543.33 449.64 539.23 446.76 536.05 443.15C532.87 439.54 530.56 435.5 529.13 431.03C527.69 426.56 527 422.09 527.02 417.63C527.06 411.42 528.07 404.29 530.06 396.24C532.04 388.19 534.96 379.87 538.77 371.24C542.61 362.64 547.4 354.11 553.17 345.69C558.95 337.28 565.68 329.45 573.4 322.22C581.11 314.99 589.72 308.72 599.26 303.44C608.81 298.16 619.41 294.47 631.07 292.4C638.27 291.09 644.67 290.73 650.28 291.35C655.92 291.97 660.79 293.3 664.96 295.35C669.13 297.42 672.56 300.09 675.26 303.42C677.37 306.01 679.05 308.71 680.33 311.52C680.7 312.31 681.03 313.11 681.32 313.93C681.74 313.13 682.15 312.36 682.56 311.6C684.42 308.12 686.12 305.02 687.66 302.31C689.53 299.03 691.04 296.51 692.21 294.76C695.33 289.35 698.57 285.43 701.87 283.01C705.17 280.61 708.25 278.97 711.07 278.12C713.88 277.26 716.32 276.92 718.35 277.13C720.46 277.38 721.87 277.5 722.63 277.5C726.12 277.52 728.99 278.26 731.2 279.73C733.41 281.2 735.13 282.86 736.27 284.7C737.41 286.56 738.14 288.5 738.42 290.52C738.69 292.57 738.72 294.27 738.54 295.62C737.74 299.3 735.97 303.95 733.22 309.57C730.46 315.2 727.27 321.38 723.64 328.16C720.01 334.93 716.03 342.14 711.72 349.78C707.41 357.42 703.3 364.94 699.36 372.27C695.44 379.63 691.9 386.8 688.77 393.75C685.62 400.72 683.36 406.92 681.96 412.35C680.78 416.81 680.9 419.3 682.36 419.78C683.81 420.27 686.47 419.17 690.39 416.47C697.21 412.05 704.42 406.21 712.02 398.97C719.64 391.74 727.19 384.01 734.7 375.8C742.22 367.59 749.45 359.29 756.38 350.88C763.3 342.46 769.46 334.83 774.84 327.98C780.21 321.13 784.66 315.43 788.17 310.87ZM802.94 307.48C803.26 308.03 803.17 308.86 802.68 309.96C801.99 311.28 800.17 314.26 797.21 318.89C793.98 323.97 789.79 330.08 784.65 337.22C779.3 344.67 773.16 352.76 766.24 361.5C759.37 370.18 751.82 379.24 743.59 388.67C735.48 397.96 726.97 406.95 718.08 415.64C709.24 424.29 700.26 432.08 691.12 439.01C689.44 440.06 687.16 441.55 684.29 443.46C681.38 445.42 677.93 447.28 673.93 449.05C670.07 450.78 665.81 452.18 661.16 453.24C656.82 454.21 652.57 454.42 648.42 453.88C648.36 453.87 648.3 453.86 648.24 453.85C645.18 453.32 642.81 452.15 641.11 450.34C639.34 448.48 638.12 445.97 637.43 442.81C636.71 439.53 636.55 435.7 636.95 431.33C637.35 426.89 638.14 422.08 639.31 416.91L640.89 409.94L635.93 415.08C631.76 419.39 626.58 423.8 620.39 428.31C614.31 432.74 607.92 436.73 601.21 440.29C594.57 443.8 588.12 446.74 581.87 449.12C575.75 451.44 570.57 452.68 566.34 452.82C559.68 452.97 553.95 452.02 549.16 449.96C544.4 447.92 540.53 445.21 537.55 441.83C535.59 439.61 533.98 437.21 532.73 434.64C532.06 433.28 531.5 431.88 531.03 430.42C529.77 426.49 529.1 422.55 529.03 418.61C529.02 418.28 529.02 417.96 529.02 417.64C529.05 411.61 530.05 404.64 532 396.72C533.93 388.88 536.8 380.65 540.6 372.05C544.42 363.49 549.16 355.08 554.82 346.82C560.54 338.49 567.19 330.77 574.77 323.68C575.55 322.94 576.35 322.22 577.16 321.5C584.14 315.27 591.84 309.83 600.23 305.19C609.6 300 620 296.4 631.42 294.37C638.46 293.09 644.67 292.74 650.07 293.34C655.44 293.93 660.11 295.2 664.08 297.14C667.99 299.09 671.2 301.6 673.71 304.68C676.25 307.81 678.16 311.12 679.44 314.61L680.99 318.83L683.09 314.86C685.38 310.54 687.48 306.68 689.4 303.3C691.24 300.06 692.73 297.58 693.87 295.86L693.94 295.76C696.91 290.61 699.95 286.9 703.06 284.62C706.18 282.35 709.04 280.82 711.65 280.03C714.23 279.24 716.39 278.94 718.14 279.12C720.24 279.37 721.74 279.5 722.62 279.5C725.73 279.52 728.22 280.15 730.09 281.39C732.1 282.72 733.59 284.18 734.57 285.76C735.58 287.4 736.2 289.07 736.43 290.79C736.67 292.59 736.72 294.09 736.57 295.28C735.78 298.81 734.07 303.28 731.42 308.69C728.72 314.21 725.54 320.39 721.88 327.21C718.39 333.72 714.43 340.91 709.98 348.8C705.97 355.91 701.84 363.42 697.6 371.33C693.59 378.87 690.03 386.07 686.95 392.93C683.78 399.94 681.47 406.25 680.02 411.86C678.77 416.58 678.96 419.64 680.58 421.04C680.9 421.32 681.28 421.53 681.72 421.68C683.8 422.38 687.06 421.19 691.5 418.13C698.41 413.64 705.71 407.74 713.4 400.42C720.94 393.26 728.54 385.5 736.18 377.15C743.85 368.77 751.1 360.43 757.92 352.15C765.01 343.54 771.17 335.89 776.41 329.22L789.75 312.1C793.13 307.74 795.02 305.42 795.43 305.15C795.85 304.84 796.66 304.62 797.68 304.63C798.19 304.63 798.69 304.69 799.17 304.81C799.73 304.94 800.28 305.15 800.8 305.43C801.27 305.69 801.69 306 802.06 306.36C802.4 306.69 802.69 307.06 802.94 307.48ZM602.85 428.19C597.44 430.69 592.97 432.03 589.43 432.22C583.79 432.38 579.6 431.09 576.95 428.35C576.42 427.8 575.94 427.19 575.53 426.52C573.26 422.81 572.51 418.01 573.28 412.1C574.01 406.47 575.99 400.04 579.22 392.81C582.37 385.71 586.23 378.43 590.81 370.95C595.4 363.47 600.43 356.26 605.91 349.3C611.46 342.25 616.99 336 622.49 330.57C628.11 325.02 633.39 320.65 638.31 317.44C643.53 314.04 648.09 312.46 652.01 312.68C653.5 312.69 655.46 312.96 657.9 313.48C658.73 313.66 659.53 313.91 660.31 314.22C662.05 314.93 663.65 315.99 665.11 317.38C667.19 319.38 668.76 322.2 669.83 325.86C670.89 329.49 670.78 334.37 669.51 340.5L669.46 340.73L669.35 340.95C665.81 348.38 662.43 355.64 659.21 362.71C655.92 369.9 652.73 377.33 649.65 385L649.6 385.13L649.52 385.26C645.73 391.78 641.14 397.85 635.75 403.46C630.38 409.06 624.88 413.96 619.27 418.16C613.58 422.41 608.1 425.76 602.85 428.19ZM639.4 319.12C644.27 315.94 648.46 314.47 651.94 314.68C653.29 314.69 655.14 314.94 657.47 315.43C659.82 315.94 661.88 317.06 663.72 318.82C665.56 320.59 666.94 323.12 667.91 326.42C668.87 329.71 668.76 334.28 667.55 340.09C664.22 347.06 660.83 354.32 657.39 361.88C653.93 369.43 650.75 376.89 647.8 384.25C644.08 390.63 639.58 396.58 634.31 402.08C629.03 407.58 623.62 412.41 618.07 416.56C612.52 420.71 607.16 423.99 602.01 426.38C596.84 428.77 592.61 430.05 589.32 430.23C583.31 430.39 579.29 428.8 577.24 425.48C575.21 422.16 574.56 417.8 575.26 412.36C575.96 406.94 577.89 400.68 581.05 393.62C584.18 386.56 588.01 379.35 592.51 372C597.01 364.66 602 357.5 607.48 350.54C612.96 343.58 618.42 337.4 623.89 331.99C629.36 326.6 634.52 322.29 639.4 319.12Z" fill="#FFFFFF" fill-opacity="1.000000" fill-rule="evenodd"/>
	<path id="XMLID 10 (Border)" d="M804.1 289.6C801.94 294.05 799.67 298.79 797.31 303.82C798.65 305.97 802.04 307.01 807.49 306.93C812.91 306.87 819.14 306.27 826.14 305.14C833.13 304 840.32 302.8 847.69 301.46C855.08 300.15 861.38 299.32 866.63 298.95C870.7 298.78 873.81 299.63 875.93 301.49C878.06 303.35 879.5 305.64 880.27 308.35C881.04 311.07 881.16 313.93 880.66 316.93C880.17 319.93 879.22 322.41 877.86 324.34C877.07 325.49 875.11 328.83 871.99 334.35C868.84 339.86 865.28 346.55 861.25 354.39C857.22 362.23 853.19 370.61 849.18 379.52C845.15 388.42 841.95 396.7 839.57 404.35C837.2 412 836.06 418.55 836.11 424C836.17 429.44 838.35 432.46 842.62 433.07C844.95 433.47 848.94 431.75 854.58 427.89C860.24 424.04 866.8 418.83 874.33 412.27C881.83 405.72 889.78 398.09 898.19 389.41C906.57 380.72 914.75 371.84 922.66 362.76C930.57 353.68 937.8 344.7 944.34 335.79C950.9 326.9 956.04 318.87 959.76 311.7C960.75 309.77 962.26 308.47 964.29 307.78C966.34 307.12 968.36 307.09 970.41 307.67C972.45 308.24 974.08 309.54 975.33 311.48C976.58 313.43 976.91 316.15 976.31 319.63C976.11 320.61 974.5 323.54 971.45 328.49C968.41 333.42 964.35 339.56 959.26 346.91C954.17 354.26 948.11 362.42 941.07 371.42C934.04 380.41 926.47 389.43 918.37 398.51C910.26 407.59 901.72 416.28 892.75 424.57C883.77 432.86 874.7 439.95 865.54 445.82C856.39 451.7 847.28 456 838.25 458.78C829.2 461.54 820.51 461.93 812.18 459.95C804.22 457.97 798.19 454.73 794.03 450.25C789.87 445.76 787.25 440.41 786.1 434.2C784.98 427.99 785.02 421.19 786.22 413.82C787.41 406.44 789.26 399.09 791.71 391.72C794.17 384.35 797.09 377.14 800.41 370.08C803.74 363.02 807 356.68 810.12 351.06C813.24 345.46 815.95 340.86 818.21 337.28C820.45 333.7 821.88 331.53 822.47 330.75C824.62 328.04 824.87 326.01 823.22 324.63C821.57 323.27 819.4 323.06 816.67 324.01C813.74 325.15 809.71 326.1 804.57 326.86C799.42 327.61 794.27 327.28 789.13 325.9C784 324.53 779.49 321.58 775.64 317.1C771.79 312.61 769.78 305.72 769.63 296.4C769.45 293.48 769.91 289.8 771 285.35C772.09 280.89 773.81 276.59 776.16 272.42C778.52 268.25 781.39 264.63 784.8 261.55C788.3 258.46 792.34 256.83 797 256.66C801.08 256.48 804.42 257.37 807.03 259.32C809.63 261.28 810.92 264.48 810.89 268.95C810.88 271.08 810.15 274.08 808.67 277.97C807.19 281.84 805.66 285.73 804.1 289.6ZM806.8 277.26C805.23 281.35 803.72 285.19 802.27 288.79L795.03 303.95L795.62 304.88C797.38 307.62 801.38 309.02 807.51 308.93C813.05 308.87 819.36 308.26 826.46 307.11C834.74 305.76 841.94 304.54 848.05 303.43C855.36 302.14 861.59 301.31 866.74 300.95C870.27 300.81 872.9 301.48 874.62 302.99C875.53 303.79 876.29 304.68 876.92 305.66C877.54 306.65 878.02 307.73 878.35 308.9C879.03 311.3 879.14 313.87 878.69 316.6C878.25 319.29 877.42 321.48 876.22 323.19C875.41 324.37 873.42 327.76 870.25 333.36C867.28 338.57 863.68 345.28 859.47 353.47C855.4 361.41 851.36 369.81 847.36 378.69C843.29 387.67 840.06 396.03 837.66 403.76C835.24 411.59 834.05 418.34 834.11 424.02C834.15 428.02 835.18 430.94 837.2 432.8C838.49 433.99 840.2 434.74 842.31 435.05C845.18 435.53 849.65 433.69 855.71 429.54C861.29 425.74 867.94 420.49 875.64 413.78C883.14 407.23 891.14 399.57 899.62 390.8C908.19 381.93 916.37 373.02 924.16 364.07C932.22 354.82 939.49 345.79 945.95 336.97C952.57 328 957.77 319.88 961.53 312.62C961.92 311.86 962.42 311.23 963.02 310.73C963.57 310.27 964.2 309.92 964.93 309.68C965.72 309.42 966.51 309.28 967.3 309.26C968.15 309.24 969.01 309.35 969.86 309.59C970.18 309.68 970.48 309.79 970.77 309.93C971.89 310.45 972.85 311.33 973.65 312.56C974.62 314.07 974.85 316.3 974.34 319.25C974.16 320.03 972.63 322.76 969.74 327.44C966.73 332.34 962.69 338.45 957.62 345.77C952.58 353.05 946.54 361.19 939.5 370.18C932.53 379.1 924.98 388.1 916.88 397.18C916.1 398.05 915.32 398.91 914.54 399.77C907.18 407.86 899.45 415.65 891.39 423.1C882.49 431.32 873.52 438.33 864.46 444.14C855.51 449.88 846.58 454.13 837.66 456.87C830.13 459.17 822.88 459.76 815.89 458.65C814.8 458.47 813.72 458.26 812.64 458C805.1 456.13 799.39 453.09 795.5 448.89C794.08 447.36 792.86 445.73 791.82 443.98C790 440.93 788.75 437.55 788.07 433.84C786.99 427.85 787.03 421.29 788.19 414.14C789.35 406.98 791.16 399.72 793.61 392.36C796.01 385.17 798.88 378.03 802.22 370.93C805.41 364.18 808.62 357.87 811.87 352.03C814.95 346.5 817.63 341.94 819.9 338.34C822.05 334.91 823.44 332.78 824.06 331.95C825.99 329.53 826.71 327.42 826.23 325.63C825.98 324.7 825.41 323.85 824.5 323.1C823.89 322.59 823.24 322.21 822.54 321.93C820.68 321.19 818.51 321.25 816.01 322.12C813.2 323.21 809.24 324.15 804.28 324.88C802.93 325.08 801.57 325.2 800.22 325.24C796.71 325.34 793.19 324.92 789.65 323.97C788.78 323.74 787.93 323.46 787.1 323.12C783.4 321.65 780.08 319.21 777.16 315.79C773.61 311.67 771.77 305.19 771.63 296.37C771.46 293.66 771.9 290.08 772.94 285.82C773.99 281.55 775.64 277.41 777.91 273.4C780.11 269.49 782.79 266.1 785.94 263.23C786.01 263.16 786.07 263.1 786.14 263.04C787.76 261.61 789.51 260.53 791.4 259.8C793.17 259.11 795.06 258.73 797.08 258.66C800.69 258.5 803.6 259.26 805.83 260.92C806.01 261.06 806.19 261.21 806.35 261.36C808.07 262.96 808.91 265.48 808.89 268.94C808.88 270.84 808.18 273.62 806.8 277.26Z" fill="#FFFFFF" fill-opacity="1.000000" fill-rule="evenodd"/>
	<path id="XMLID 7 (Border)" d="M994.9 243.45C992.47 245.97 990.37 248.96 988.61 252.46C985.28 259.43 984.22 266.22 985.45 272.8C986.67 279.42 989.81 283.99 994.84 286.55C997.34 287.74 1000.07 288.23 1002.98 288.05C1005.9 287.87 1008.72 287.1 1011.45 285.77C1014.15 284.43 1016.73 282.51 1019.19 279.99C1021.62 277.48 1023.72 274.49 1025.48 270.99C1027.25 267.52 1028.4 264.04 1028.89 260.54C1029.39 257.06 1029.37 253.79 1028.8 250.78C1028.22 247.77 1027.13 245.07 1025.49 242.62C1023.85 240.17 1021.77 238.26 1019.25 236.9C1016.73 235.71 1014.03 235.22 1011.11 235.4C1008.19 235.58 1005.38 236.35 1002.65 237.68C999.92 239.02 997.34 240.94 994.9 243.45ZM1016.7 238.04C1017.26 238.22 1017.81 238.44 1018.34 238.69C1019.13 239.11 1019.86 239.6 1020.55 240.15C1021.8 241.15 1022.89 242.34 1023.83 243.73C1024.16 244.24 1024.48 244.75 1024.76 245.29C1025.74 247.09 1026.43 249.04 1026.82 251.15C1027.36 253.93 1027.39 256.96 1026.91 260.25C1026.44 263.49 1025.38 266.77 1023.7 270.09C1022.04 273.37 1020.06 276.21 1017.75 278.6C1015.46 280.95 1013.06 282.74 1010.56 283.97C1008.39 285.03 1006.17 285.7 1003.91 285.96C1003.56 286 1003.21 286.03 1002.86 286.05C1000.79 286.18 998.84 285.93 997.04 285.29C996.59 285.14 996.16 284.96 995.73 284.75C994.57 284.16 993.52 283.44 992.59 282.6C989.95 280.22 988.23 276.83 987.41 272.43C987.28 271.7 987.17 270.97 987.1 270.24C986.53 264.77 987.64 259.13 990.41 253.32C992.05 250.06 994.03 247.23 996.34 244.84C998.61 242.5 1001.01 240.71 1003.53 239.48C1005.73 238.4 1007.97 237.74 1010.26 237.48C1010.59 237.44 1010.91 237.41 1011.23 237.39C1013.16 237.27 1014.99 237.49 1016.7 238.04ZM950.79 433.9C953.21 434.11 956.37 432.95 960.28 430.47C966.91 426.04 974.6 420.12 983.38 412.69C992.15 405.27 1001.12 397.27 1010.3 388.67C1019.47 380.1 1028.49 371.44 1037.37 362.75C1046.26 354.07 1054.21 346.1 1061.24 338.87C1068.27 331.63 1074.06 325.65 1078.67 320.91C1083.25 316.19 1085.85 313.63 1086.42 313.24C1087.21 312.66 1088.31 312.38 1089.78 312.39C1091.24 312.4 1092.59 312.75 1093.85 313.44C1095.1 314.12 1096.06 315.06 1096.75 316.22C1097.42 317.4 1097.37 318.83 1096.56 320.59C1095.98 321.74 1093.54 324.91 1089.25 330.02C1084.94 335.14 1079.39 341.53 1072.55 349.16C1065.71 356.79 1057.81 365.28 1048.82 374.66C1039.85 384.02 1030.48 393.44 1020.71 402.9C1010.95 412.37 1000.99 421.57 990.86 430.55C980.7 439.53 971.06 447.47 961.9 454.41C960.54 455.38 958.29 456.87 955.16 458.88C952.04 460.91 948.5 462.83 944.51 464.63C940.51 466.46 936.19 467.94 931.53 469.07C926.86 470.2 922.2 470.48 917.54 469.87C910.36 468.85 905.96 464.9 904.37 457.99C902.75 451.1 902.95 442.65 904.94 432.67C906.93 422.69 910.24 411.79 914.87 399.97C919.49 388.15 924.36 376.83 929.48 366C934.59 355.16 939.43 345.47 944.05 336.96C948.65 328.45 952.03 322.35 954.19 318.68C957.33 313.45 960.55 309.59 963.85 307.09C967.16 304.58 970.24 302.9 973.05 302.04C975.86 301.18 978.3 300.85 980.33 301.06C982.37 301.24 983.79 301.34 984.55 301.34C988.05 301.56 990.95 302.35 993.27 303.72C995.59 305.08 997.32 306.75 998.49 308.69C999.63 310.63 1000.37 312.62 1000.64 314.67C1000.91 316.72 1000.97 318.42 1000.76 319.76C999.58 325.01 996.62 332.02 991.91 340.82C987.2 349.63 982.01 359.01 976.32 368.97C970.63 378.94 965.19 389.06 960 399.31C954.8 409.58 951.12 418.77 948.94 426.9C947.74 431.36 948.36 433.69 950.79 433.9ZM1095.03 317.24C1095.34 317.79 1095.26 318.62 1094.77 319.72C1094.17 320.85 1091.81 323.86 1087.72 328.74C1083.24 334.07 1077.68 340.43 1071.06 347.83C1064.34 355.33 1056.44 363.81 1047.38 373.28C1038.31 382.72 1028.97 392.12 1019.32 401.47C1009.83 410.66 999.9 419.86 989.53 429.05C979.49 437.93 969.89 445.84 960.71 452.8C959.44 453.71 957.23 455.17 954.08 457.2C951 459.2 947.54 461.07 943.68 462.81C939.79 464.59 935.58 466.03 931.06 467.13C927.49 467.99 923.95 468.32 920.44 468.13C919.56 468.08 918.68 468 917.8 467.88C914.53 467.42 911.92 466.26 909.98 464.4C908.2 462.7 906.98 460.41 906.32 457.54C904.77 450.94 904.96 442.78 906.9 433.06C908.88 423.17 912.15 412.38 916.74 400.7C921.28 389.06 926.13 377.77 931.28 366.85C936.5 355.79 941.34 346.14 945.81 337.92C950.36 329.49 953.73 323.42 955.91 319.7C958.91 314.71 961.96 311.04 965.06 308.68C968.17 306.32 971.02 304.75 973.63 303.95C976.21 303.17 978.37 302.87 980.12 303.05C982.19 303.23 983.64 303.33 984.48 303.34C987.61 303.54 990.21 304.24 992.26 305.44C994.27 306.62 995.77 308.05 996.77 309.72C997.8 311.45 998.42 313.19 998.65 314.93C998.9 316.8 998.95 318.29 998.79 319.4C997.64 324.43 994.76 331.26 990.15 339.87C985.4 348.76 980.22 358.13 974.58 367.98C968.97 377.81 963.51 387.95 958.21 398.4C952.95 408.81 949.21 418.13 947 426.38C946.31 428.95 946.17 430.99 946.57 432.51C946.84 433.53 947.31 434.32 947.97 434.89C948.65 435.46 949.53 435.8 950.62 435.89C953.47 436.14 957.04 434.89 961.36 432.16C968.04 427.69 975.84 421.69 984.67 414.22C993.47 406.78 1002.47 398.75 1011.66 390.13C1020.16 382.19 1029.19 373.54 1038.77 364.18C1047.39 355.76 1055.36 347.79 1062.67 340.26L1080.11 322.3C1084.55 317.72 1087.03 315.25 1087.55 314.89C1087.97 314.58 1088.75 314.38 1089.77 314.39C1090.28 314.39 1090.78 314.45 1091.27 314.57C1091.82 314.7 1092.37 314.91 1092.89 315.19C1093.36 315.45 1093.78 315.76 1094.15 316.12C1094.49 316.45 1094.78 316.82 1095.03 317.24Z" fill="#FFFFFF" fill-opacity="1.000000" fill-rule="evenodd"/>
</svg>
