<svg xmlns="http://www.w3.org/2000/svg" xmlns:xlink="http://www.w3.org/1999/xlink" width="1080" zoomAndPan="magnify" viewBox="0 0 810 809.999993" height="1080" preserveAspectRatio="xMidYMid meet" version="1.0"><defs><g/><clipPath id="0278407b56"><path d="M 216.246094 154.117188 L 593.496094 154.117188 L 593.496094 531.367188 L 216.246094 531.367188 Z M 216.246094 154.117188 " clip-rule="nonzero"/></clipPath><clipPath id="f8ef1a6b20"><path d="M 303 205.289062 L 507.941406 205.289062 L 507.941406 480.539062 L 303 480.539062 Z M 303 205.289062 " clip-rule="nonzero"/></clipPath></defs><g clip-path="url(#0278407b56)"><path fill="#000000" d="M 404.871094 531.367188 C 300.894531 531.367188 216.246094 446.71875 216.246094 342.742188 C 216.246094 238.765625 300.894531 154.117188 404.871094 154.117188 C 508.847656 154.117188 593.496094 238.765625 593.496094 342.742188 C 593.496094 446.71875 508.847656 531.367188 404.871094 531.367188 Z M 404.871094 156.902344 C 302.382812 156.902344 219.035156 240.25 219.035156 342.742188 C 219.035156 445.230469 302.382812 528.578125 404.871094 528.578125 C 507.359375 528.578125 590.710938 445.230469 590.710938 342.742188 C 590.710938 240.253906 507.359375 156.902344 404.871094 156.902344 Z M 404.871094 156.902344 " fill-opacity="1" fill-rule="nonzero"/></g><g clip-path="url(#f8ef1a6b20)"><path fill="#060606" d="M 507.675781 326.835938 C 508.167969 320.113281 506.703125 313.210938 502.972656 307.519531 C 498.605469 300.890625 491.792969 296.523438 484.476562 293.761719 C 483.230469 293.285156 481.957031 292.859375 480.667969 292.460938 C 482.078125 287.507812 482.902344 282.453125 483.136719 277.304688 C 483.339844 273.164062 483.175781 269.035156 482.636719 264.925781 C 482.097656 260.8125 481.199219 256.78125 479.9375 252.832031 C 478.679688 248.878906 477.074219 245.074219 475.128906 241.410156 C 473.1875 237.746094 470.929688 234.285156 468.363281 231.027344 C 465.867188 227.945312 463.125 225.097656 460.144531 222.484375 C 457.160156 219.871094 453.976562 217.527344 450.59375 215.457031 C 447.210938 213.382812 443.675781 211.613281 439.992188 210.144531 C 436.308594 208.675781 432.527344 207.527344 428.644531 206.703125 C 424.871094 205.910156 421.054688 205.441406 417.199219 205.289062 C 416.929688 205.292969 416.671875 205.355469 416.429688 205.480469 C 416.1875 205.601562 415.980469 205.773438 415.816406 205.988281 C 415.652344 206.207031 415.542969 206.445312 415.492188 206.714844 C 415.4375 206.980469 415.445312 207.246094 415.515625 207.507812 C 419.0625 221.964844 423.039062 238.652344 416.8125 252.957031 C 410.875 266.535156 396.742188 273.492188 383.003906 276.664062 C 366.433594 280.484375 348.90625 279.695312 332.785156 285.546875 C 320.375 290.046875 307.480469 298.96875 304.296875 312.589844 C 301.753906 323.480469 305.660156 337.183594 316.15625 342.542969 C 317.457031 343.207031 318.8125 343.726562 320.222656 344.101562 C 322.40625 344.683594 323.339844 341.308594 321.160156 340.726562 C 310.128906 337.78125 305.425781 324.703125 307.496094 314.339844 C 310.175781 300.949219 323.164062 292.441406 335.261719 288.386719 C 351.316406 283.003906 368.59375 283.792969 384.941406 279.804688 C 398.371094 276.558594 412.09375 269.625 418.777344 256.914062 C 426.039062 243.082031 423.550781 226.699219 420.210938 212.101562 C 419.964844 211.039062 419.703125 209.988281 419.453125 208.929688 C 422.960938 209.207031 426.421875 209.765625 429.839844 210.59375 C 433.261719 211.425781 436.589844 212.523438 439.835938 213.882812 C 443.082031 215.242188 446.195312 216.851562 449.183594 218.710938 C 452.171875 220.566406 454.996094 222.648438 457.652344 224.953125 C 460.519531 227.46875 463.144531 230.21875 465.523438 233.195312 C 467.902344 236.175781 470.003906 239.339844 471.824219 242.691406 C 473.648438 246.042969 475.160156 249.527344 476.363281 253.144531 C 477.570312 256.765625 478.449219 260.460938 479 264.234375 C 480.328125 273.03125 480.023438 282.703125 477.421875 291.535156 C 471.832031 290.074219 466.144531 289.363281 460.367188 289.398438 C 452.496094 289.492188 443.757812 291.636719 438.390625 297.835938 C 435.75 300.871094 434.167969 304.710938 434.847656 308.765625 C 435.496094 312.425781 437.949219 315.496094 440.921875 317.570312 C 447.175781 321.929688 455.414062 321.320312 461.890625 317.851562 C 470.648438 313.152344 476.3125 304.976562 479.589844 295.824219 C 486.226562 297.769531 492.667969 300.9375 497.417969 306.085938 C 499.574219 308.472656 501.242188 311.160156 502.417969 314.148438 C 503.597656 317.140625 504.207031 320.242188 504.257812 323.457031 C 504.582031 336.335938 497.425781 349.34375 487.058594 356.789062 C 474.046875 366.132812 457.800781 369.015625 442.160156 370.226562 C 423.890625 371.640625 405.449219 371.796875 387.136719 371.492188 C 368.066406 371.179688 349.035156 370.109375 330.039062 368.28125 C 325.410156 367.847656 320.78125 367.355469 316.15625 366.800781 C 315.039062 366.679688 314.144531 368.027344 314.46875 369.019531 C 321.558594 390.648438 328.65625 412.273438 335.757812 433.902344 C 339.304688 444.714844 342.851562 455.527344 346.398438 466.339844 C 347.253906 468.9375 348.039062 471.601562 348.992188 474.179688 C 349.746094 476.214844 350.789062 478.234375 352.753906 479.335938 C 354.722656 480.4375 357.179688 480.386719 359.417969 480.347656 L 367.851562 480.226562 L 436.242188 479.199219 L 470.433594 478.679688 C 474.890625 478.617188 479.914062 478.492188 481.898438 473.730469 C 482.808594 471.558594 482.945312 469.109375 483.261719 466.800781 L 484.457031 458.238281 C 487.582031 435.746094 490.710938 413.269531 493.84375 390.8125 C 494.222656 388.050781 494.609375 385.285156 495 382.523438 C 495.050781 382.296875 495.0625 382.074219 495.027344 381.84375 C 494.996094 381.617188 494.921875 381.402344 494.808594 381.203125 C 494.695312 381.003906 494.550781 380.832031 494.371094 380.6875 C 494.191406 380.542969 493.992188 380.4375 493.773438 380.367188 C 492.953125 380.136719 491.746094 380.652344 491.617188 381.59375 L 482.535156 446.875 C 481.769531 452.40625 481 457.933594 480.226562 463.460938 C 479.886719 465.914062 479.671875 468.429688 479.140625 470.851562 C 478.660156 473.03125 477.644531 474.390625 475.40625 474.886719 C 473.167969 475.378906 470.792969 475.175781 468.539062 475.210938 L 460.105469 475.332031 L 443.546875 475.585938 L 377.332031 476.578125 L 360.78125 476.824219 C 358.738281 476.859375 355.753906 477.378906 354.035156 475.980469 C 352.449219 474.683594 351.988281 472.132812 351.394531 470.304688 L 341.011719 438.636719 L 320.394531 375.800781 L 318.679688 370.570312 C 338.03125 372.734375 357.453125 374.125 376.949219 374.742188 C 396.878906 375.359375 416.871094 375.222656 436.78125 374.09375 C 453.480469 373.132812 470.984375 370.960938 485.519531 362.027344 C 497.769531 354.46875 506.597656 341.367188 507.675781 326.835938 Z M 468.96875 307.539062 C 464.589844 312.609375 458.476562 317.109375 451.507812 317.175781 C 445.332031 317.234375 436.9375 312.664062 438.324219 305.367188 C 439.765625 297.769531 448.882812 294.109375 455.65625 293.214844 C 462.429688 292.320312 469.625 293.214844 476.320312 294.914062 C 474.625 299.5625 472.171875 303.769531 468.96875 307.539062 Z M 468.96875 307.539062 " fill-opacity="1" fill-rule="nonzero"/></g><path fill="#060606" d="M 379.511719 400.183594 C 378.960938 398.003906 375.582031 398.925781 376.132812 401.117188 L 387.265625 444.976562 L 390.417969 457.394531 C 390.96875 459.574219 394.351562 458.652344 393.792969 456.460938 C 390.082031 441.84375 386.371094 427.226562 382.664062 412.601562 Z M 379.511719 400.183594 " fill-opacity="1" fill-rule="nonzero"/><path fill="#060606" d="M 441.070312 396.945312 C 439.890625 410.207031 438.421875 423.4375 436.671875 436.640625 C 436.179688 440.359375 435.660156 444.070312 435.113281 447.773438 C 435.058594 447.996094 435.050781 448.222656 435.082031 448.449219 C 435.113281 448.679688 435.1875 448.890625 435.300781 449.09375 C 435.414062 449.292969 435.5625 449.464844 435.742188 449.609375 C 435.921875 449.753906 436.121094 449.859375 436.339844 449.925781 C 437.164062 450.152344 438.359375 449.648438 438.496094 448.707031 C 440.445312 435.324219 442.105469 421.902344 443.476562 408.441406 C 443.867188 404.613281 444.230469 400.78125 444.574219 396.945312 C 444.574219 396.714844 444.527344 396.492188 444.4375 396.277344 C 444.347656 396.0625 444.222656 395.875 444.058594 395.710938 C 443.894531 395.546875 443.707031 395.417969 443.492188 395.332031 C 443.277344 395.242188 443.054688 395.199219 442.820312 395.199219 C 442.589844 395.199219 442.367188 395.242188 442.152344 395.332031 C 441.9375 395.417969 441.75 395.546875 441.585938 395.710938 C 441.421875 395.875 441.292969 396.0625 441.203125 396.277344 C 441.117188 396.492188 441.070312 396.714844 441.070312 396.945312 Z M 441.070312 396.945312 " fill-opacity="1" fill-rule="nonzero"/><g fill="#000000" fill-opacity="1"><g transform="translate(157.865224, 640.765236)"><g><path d="M 4.578125 0 L 6.171875 0 C 6.5 0 6.703125 -0.203125 6.703125 -0.53125 L 6.703125 -39.390625 C 6.703125 -40.25 7.03125 -40.046875 7.359375 -39.59375 C 7.828125 -38.71875 8.625 -37.59375 9.421875 -36.671875 L 26.328125 -16.640625 C 26.53125 -16.375 26.921875 -16.3125 27.125 -16.578125 L 43.640625 -34.953125 C 44.625 -36.078125 45.421875 -37.203125 45.953125 -37.9375 C 46.21875 -38.390625 46.546875 -38.65625 46.546875 -37.796875 L 46.546875 -0.53125 C 46.546875 -0.203125 46.75 0 47.078125 0 L 52.578125 0 C 52.921875 0 53.109375 -0.203125 53.109375 -0.53125 L 53.109375 -46.625 C 53.109375 -47.015625 52.984375 -47.140625 52.71875 -47.140625 L 50.796875 -47.140625 C 50.53125 -47.140625 50.46875 -47.015625 50.265625 -46.890625 L 29.90625 -23.609375 C 29.703125 -23.34375 29.3125 -23.40625 29.109375 -23.671875 L 9.421875 -46.8125 C 9.28125 -47.015625 9.015625 -47.140625 8.75 -47.140625 L 1.859375 -47.140625 C 1.390625 -47.140625 1.265625 -46.890625 1.65625 -46.546875 C 3.046875 -45.484375 4.046875 -44.09375 4.046875 -42.5 L 4.046875 -0.53125 C 4.046875 -0.203125 4.25 0 4.578125 0 Z M 4.578125 0 "/></g></g></g><g fill="#000000" fill-opacity="1"><g transform="translate(214.953604, 640.765236)"><g><path d="M 1.0625 0 L 2.984375 0 C 3.25 0 3.453125 -0.125 3.578125 -0.390625 L 8.546875 -10.015625 C 8.6875 -10.28125 8.890625 -10.40625 9.15625 -10.40625 L 30.640625 -11.609375 C 30.90625 -11.609375 31.09375 -11.40625 31.234375 -11.203125 L 37.796875 -0.328125 C 37.9375 -0.125 38.125 0 38.390625 0 L 44.953125 0 C 45.359375 0 45.484375 -0.265625 45.296875 -0.65625 L 24.140625 -35.484375 C 24 -35.671875 23.8125 -35.8125 23.546875 -35.8125 L 16.3125 -35.8125 C 15.453125 -35.8125 15.71875 -35.484375 16.109375 -35.21875 C 17.046875 -34.609375 17.765625 -33.890625 17.765625 -33.03125 C 17.765625 -32.890625 17.765625 -32.625 17.578125 -32.234375 L 0.65625 -0.65625 C 0.46875 -0.328125 0.65625 0 1.0625 0 Z M 9.875 -12.328125 L 17.640625 -26.65625 C 18.171875 -27.65625 18.828125 -29.171875 19.234375 -29.96875 C 19.5625 -30.640625 19.765625 -30.4375 19.953125 -30.046875 C 20.484375 -29.109375 21.28125 -27.515625 21.8125 -26.65625 L 29.515625 -14.0625 C 29.703125 -13.65625 29.640625 -13.46875 29.171875 -13.390625 L 10.28125 -11.734375 C 9.609375 -11.671875 9.6875 -12 9.875 -12.328125 Z M 9.875 -12.328125 "/></g></g></g><g fill="#000000" fill-opacity="1"><g transform="translate(260.969094, 640.765236)"><g><path d="M 10.546875 -20.625 L 10.546875 -33.28125 C 10.546875 -33.625 10.75 -33.8125 11.078125 -33.8125 L 18.234375 -33.8125 C 22.140625 -33.8125 24.875 -32.5625 26.65625 -31.4375 C 27.125 -31.09375 27.390625 -31.359375 27.125 -31.828125 L 25.265625 -35.34375 C 25.125 -35.609375 24.875 -35.75 24.609375 -35.75 L 4.515625 -35.75 C 4.171875 -35.75 3.984375 -35.609375 3.984375 -35.21875 L 3.984375 -0.53125 C 3.984375 -0.203125 4.171875 0 4.515625 0 L 10.015625 0 C 10.34375 0 10.546875 -0.203125 10.546875 -0.53125 L 10.546875 -17.578125 C 10.546875 -17.90625 10.75 -18.109375 11.078125 -18.109375 L 18.96875 -18.109375 C 19.828125 -18.109375 20.5625 -17.90625 20.828125 -17.109375 C 21.015625 -16.578125 21.21875 -16.515625 21.421875 -17.171875 L 22.546875 -21.09375 C 22.75 -21.8125 22.484375 -21.75 22.078125 -21.359375 C 21.15625 -20.421875 19.890625 -20.09375 18.5 -20.09375 L 11.078125 -20.09375 C 10.75 -20.09375 10.546875 -20.296875 10.546875 -20.625 Z M 10.546875 -20.625 "/></g></g></g><g fill="#000000" fill-opacity="1"><g transform="translate(290.076877, 640.765236)"><g><path d="M 10.546875 -0.53125 L 10.546875 -35.28125 C 10.546875 -35.609375 10.34375 -35.8125 10.015625 -35.8125 L 4.515625 -35.8125 C 4.171875 -35.8125 3.984375 -35.609375 3.984375 -35.28125 L 3.984375 -0.53125 C 3.984375 -0.203125 4.171875 0 4.515625 0 L 10.015625 0 C 10.34375 0 10.546875 -0.203125 10.546875 -0.53125 Z M 10.546875 -0.53125 "/></g></g></g><g fill="#000000" fill-opacity="1"><g transform="translate(304.59762, 640.765236)"><g><path d="M 28.515625 0.265625 L 28.515625 -35.28125 C 28.515625 -35.609375 28.3125 -35.8125 27.984375 -35.8125 L 27.125 -35.8125 C 26.796875 -35.8125 26.59375 -35.609375 26.59375 -35.28125 L 26.59375 -11.34375 C 26.59375 -10.875 26.53125 -10.484375 26.0625 -11.203125 C 25.59375 -12.140625 24.796875 -13.0625 24.203125 -13.859375 L 7.828125 -35.484375 C 7.6875 -35.671875 7.421875 -35.8125 7.15625 -35.8125 L 2.328125 -35.8125 C 1.53125 -35.8125 1.71875 -35.546875 2.125 -35.28125 C 3.109375 -34.34375 3.78125 -33.03125 3.78125 -31.828125 L 3.78125 -0.53125 C 3.78125 -0.203125 3.984375 0 4.3125 0 L 5.234375 0 C 5.5625 0 5.765625 -0.203125 5.765625 -0.53125 L 5.765625 -27.515625 C 5.765625 -27.984375 5.828125 -28.375 6.296875 -27.59375 C 6.96875 -26.59375 7.828125 -25.390625 8.03125 -25.125 L 27.84375 0.53125 C 28.109375 0.921875 28.515625 0.734375 28.515625 0.265625 Z M 28.515625 0.265625 "/></g></g></g><g fill="#000000" fill-opacity="1"><g transform="translate(337.086937, 640.765236)"><g><path d="M 4.515625 0 L 10.015625 0 C 10.34375 0 10.546875 -0.203125 10.546875 -0.53125 L 10.546875 -35.28125 C 10.546875 -35.609375 10.34375 -35.8125 10.015625 -35.8125 L 4.515625 -35.8125 C 4.171875 -35.8125 3.984375 -35.609375 3.984375 -35.28125 L 3.984375 -0.53125 C 3.984375 -0.203125 4.171875 0 4.515625 0 Z M 26.1875 0.59375 C 26.984375 0.59375 28.453125 0.46875 29.515625 0.203125 C 29.84375 0.125 30.046875 0 30.046875 -0.265625 L 30.046875 -0.921875 C 30.046875 -1.265625 29.84375 -1.328125 29.4375 -1.265625 C 28.71875 -1.0625 28.109375 -0.921875 27.515625 -0.921875 C 25 -0.921875 24 -4.375 23.46875 -8.484375 L 22.484375 -17.109375 C 21.953125 -21.625 19.6875 -24.734375 15.390625 -24.734375 C 14.515625 -24.734375 14.859375 -25.0625 15.1875 -25.390625 L 24.671875 -35.140625 C 25 -35.484375 24.875 -35.8125 24.40625 -35.8125 L 22.546875 -35.8125 C 22.28125 -35.8125 22.078125 -35.75 21.890625 -35.546875 L 11.265625 -24.265625 C 10.875 -23.875 10.875 -23.671875 11.609375 -23.671875 C 11.875 -23.734375 12.0625 -23.734375 12.328125 -23.734375 C 15.390625 -23.734375 15.453125 -20.625 15.78125 -17.90625 L 16.84375 -9.078125 C 17.765625 -1.1875 21.546875 0.59375 26.1875 0.59375 Z M 26.1875 0.59375 "/></g></g></g><g fill="#000000" fill-opacity="1"><g transform="translate(366.459925, 640.765236)"><g><path d="M 1.0625 0 L 2.984375 0 C 3.25 0 3.453125 -0.125 3.578125 -0.390625 L 8.546875 -10.015625 C 8.6875 -10.28125 8.890625 -10.40625 9.15625 -10.40625 L 30.640625 -11.609375 C 30.90625 -11.609375 31.09375 -11.40625 31.234375 -11.203125 L 37.796875 -0.328125 C 37.9375 -0.125 38.125 0 38.390625 0 L 44.953125 0 C 45.359375 0 45.484375 -0.265625 45.296875 -0.65625 L 24.140625 -35.484375 C 24 -35.671875 23.8125 -35.8125 23.546875 -35.8125 L 16.3125 -35.8125 C 15.453125 -35.8125 15.71875 -35.484375 16.109375 -35.21875 C 17.046875 -34.609375 17.765625 -33.890625 17.765625 -33.03125 C 17.765625 -32.890625 17.765625 -32.625 17.578125 -32.234375 L 0.65625 -0.65625 C 0.46875 -0.328125 0.65625 0 1.0625 0 Z M 9.875 -12.328125 L 17.640625 -26.65625 C 18.171875 -27.65625 18.828125 -29.171875 19.234375 -29.96875 C 19.5625 -30.640625 19.765625 -30.4375 19.953125 -30.046875 C 20.484375 -29.109375 21.28125 -27.515625 21.8125 -26.65625 L 29.515625 -14.0625 C 29.703125 -13.65625 29.640625 -13.46875 29.171875 -13.390625 L 10.28125 -11.734375 C 9.609375 -11.671875 9.6875 -12 9.875 -12.328125 Z M 9.875 -12.328125 "/></g></g></g><g fill="#000000" fill-opacity="1"><g transform="translate(412.475426, 640.765236)"><g/></g></g><g fill="#000000" fill-opacity="1"><g transform="translate(422.421142, 640.765236)"><g><path d="M 11.078125 -23.9375 C 7.765625 -23.9375 4.96875 -21.21875 4.96875 -17.90625 C 4.96875 -14.59375 7.765625 -11.796875 11.078125 -11.796875 C 14.453125 -11.796875 17.109375 -14.59375 17.109375 -17.90625 C 17.109375 -21.21875 14.453125 -23.9375 11.078125 -23.9375 Z M 11.078125 -23.9375 "/></g></g></g><g fill="#000000" fill-opacity="1"><g transform="translate(445.627814, 640.765236)"><g/></g></g><g fill="#000000" fill-opacity="1"><g transform="translate(455.57353, 640.765236)"><g><path d="M 15.71875 -45.359375 C 19.890625 -45.15625 21.28125 -41.703125 21.15625 -38.203125 C 21.15625 -37.671875 20.890625 -36.40625 20.6875 -35.875 C 20.359375 -34.953125 20.75 -35.015625 21.359375 -35.75 C 23.671875 -38.71875 24.796875 -41.640625 23.734375 -43.5 C 22.484375 -46.625 18.828125 -47.75 15.71875 -47.875 C 8.8125 -48.078125 4.90625 -42.96875 4.640625 -37.203125 C 4.515625 -31.765625 6.234375 -28.3125 7.953125 -25 L 12.328125 -16.703125 C 14.515625 -12.53125 15.25 -9.6875 15.125 -6.96875 C 15.046875 -4.109375 12.671875 -1.65625 9.546875 -1.796875 C 4.25 -1.984375 2.390625 -6.5 3.046875 -11.46875 C 3.109375 -12.0625 2.59375 -12.265625 2.328125 -11.9375 C 0.46875 -9.875 -0.59375 -6.703125 0.46875 -4.25 C 1.984375 -0.59375 5.765625 0.59375 9.484375 0.734375 C 16.78125 1 20.15625 -5.234375 20.421875 -10.609375 C 20.5625 -14.921875 19.234375 -18.5 17.3125 -22.140625 L 12.9375 -30.3125 C 10.75 -34.28125 9.546875 -37.140625 9.6875 -40.390625 C 9.75 -43.234375 12 -45.484375 15.71875 -45.359375 Z M 15.71875 -45.359375 "/></g></g></g><g fill="#000000" fill-opacity="1"><g transform="translate(479.841069, 640.765236)"><g><path d="M 25.59375 -31.828125 L 23.8125 -35.40625 C 23.671875 -35.671875 23.46875 -35.8125 23.203125 -35.8125 L 2.453125 -35.8125 C 2.1875 -35.8125 1.984375 -35.671875 1.859375 -35.40625 L 0 -31.890625 C -0.265625 -31.4375 0 -31.171875 0.46875 -31.4375 C 2.0625 -32.5625 4.3125 -33.890625 8.15625 -33.890625 L 9.015625 -33.890625 C 9.34375 -33.890625 9.546875 -33.6875 9.546875 -33.359375 L 9.546875 -0.53125 C 9.546875 -0.203125 9.75 0 10.078125 0 L 15.578125 0 C 15.921875 0 16.109375 -0.203125 16.109375 -0.53125 L 16.109375 -33.359375 C 16.109375 -33.6875 16.3125 -33.890625 16.640625 -33.890625 L 17.5 -33.890625 C 21.359375 -33.890625 23.546875 -32.5625 25.203125 -31.4375 C 25.59375 -31.09375 25.859375 -31.359375 25.59375 -31.828125 Z M 25.59375 -31.828125 "/></g></g></g><g fill="#000000" fill-opacity="1"><g transform="translate(505.434703, 640.765236)"><g><path d="M 18.640625 0.59375 C 23.734375 0.59375 28.375 -2.1875 29.703125 -8.09375 C 29.96875 -9.28125 30.046875 -11.609375 30.046875 -12.9375 L 30.046875 -35.28125 C 30.046875 -35.609375 29.84375 -35.8125 29.515625 -35.8125 L 28.578125 -35.8125 C 28.25 -35.8125 28.046875 -35.609375 28.046875 -35.28125 L 28.046875 -11.875 C 28.046875 -10.75 27.78125 -8.359375 27.59375 -7.296875 C 26.984375 -4.3125 23.46875 -1.265625 19.234375 -1.265625 C 14.921875 -1.265625 11.734375 -3.640625 10.875 -7.421875 C 10.671875 -8.359375 10.546875 -10.015625 10.546875 -11.140625 L 10.546875 -35.28125 C 10.546875 -35.609375 10.34375 -35.8125 10.015625 -35.8125 L 4.515625 -35.8125 C 4.171875 -35.8125 3.984375 -35.609375 3.984375 -35.28125 L 3.984375 -13.796875 C 3.984375 -12 4.3125 -9.21875 4.78125 -7.5625 C 6.4375 -1.71875 11.40625 0.59375 18.640625 0.59375 Z M 18.640625 0.59375 "/></g></g></g><g fill="#000000" fill-opacity="1"><g transform="translate(539.449037, 640.765236)"><g><path d="M 4.515625 -0.0625 C 6.234375 -0.125 9.078125 -0.0625 10.546875 0 C 26.125 0.796875 35.875 -6.828125 35.875 -18.296875 C 35.875 -30.234375 24.734375 -36.875 10.484375 -35.75 C 8.296875 -35.609375 4.78125 -35.546875 2.328125 -35.671875 C 1.859375 -35.671875 1.859375 -35.546875 2.1875 -35.28125 C 3.3125 -34.484375 3.984375 -33.421875 3.984375 -32.234375 L 3.984375 -0.53125 C 3.984375 -0.203125 4.171875 0 4.515625 -0.0625 Z M 10.546875 -2.390625 L 10.546875 -33.28125 C 10.546875 -33.625 10.75 -33.8125 11.078125 -33.8125 C 18.296875 -34.15625 25.796875 -31.828125 28.25 -22.28125 C 28.578125 -21.09375 28.90625 -19.359375 28.90625 -18.171875 C 28.90625 -8.21875 23.015625 -2.390625 14.1875 -1.859375 C 13.328125 -1.796875 12 -1.796875 11.078125 -1.859375 C 10.75 -1.859375 10.546875 -2.0625 10.546875 -2.390625 Z M 10.546875 -2.390625 "/></g></g></g><g fill="#000000" fill-opacity="1"><g transform="translate(576.645995, 640.765236)"><g><path d="M 10.546875 -0.53125 L 10.546875 -35.28125 C 10.546875 -35.609375 10.34375 -35.8125 10.015625 -35.8125 L 4.515625 -35.8125 C 4.171875 -35.8125 3.984375 -35.609375 3.984375 -35.28125 L 3.984375 -0.53125 C 3.984375 -0.203125 4.171875 0 4.515625 0 L 10.015625 0 C 10.34375 0 10.546875 -0.203125 10.546875 -0.53125 Z M 10.546875 -0.53125 "/></g></g></g><g fill="#000000" fill-opacity="1"><g transform="translate(591.166716, 640.765236)"><g><path d="M 3.109375 -17.90625 C 3.109375 -7.359375 12.203125 0.796875 25.390625 0.796875 C 38.46875 0.796875 47.875 -7.359375 47.875 -17.90625 C 47.875 -28.453125 38.46875 -36.140625 25.390625 -36.140625 C 12.203125 -36.140625 3.109375 -28.453125 3.109375 -17.90625 Z M 10.8125 -15.3125 C 10.609375 -16.515625 10.546875 -17.703125 10.546875 -18.96875 C 10.546875 -26.328125 14.515625 -32.421875 22.484375 -34.015625 C 23.46875 -34.21875 24.53125 -34.21875 25.46875 -34.21875 C 33.484375 -34.21875 38.65625 -28.453125 39.984375 -20.421875 C 40.1875 -19.234375 40.3125 -18.03125 40.3125 -16.84375 C 40.3125 -9.421875 36.34375 -2.921875 28.375 -1.328125 C 27.390625 -1.125 26.328125 -1.0625 25.390625 -1.0625 C 17.109375 -1.0625 12.140625 -7.359375 10.8125 -15.3125 Z M 10.8125 -15.3125 "/></g></g></g><g fill="#000000" fill-opacity="1"><g transform="translate(642.165985, 640.765236)"><g/></g></g></svg>