<svg width="600" height="500" xmlns="http://www.w3.org/2000/svg">
 <g>
  <title>Layer 1</title>
  <g id="svg_3">
   <defs transform="translate(-100 0) translate(-5.70567 0) translate(0 1) translate(0.834579 0) translate(0 -97.8397)">
    <g id="svg_4"/>
    <clipPath id="svg_2">
     <path id="svg_5" d="m111.375,57.27753l377.25,0l0,377.25l-377.25,0l0,-377.25zm0,0" clip-rule="nonzero"/>
    </clipPath>
    <clipPath id="svg_1">
     <path id="svg_6" d="m198.12891,108.4494l204.94141,0l0,275.25l-204.94141,0l0,-275.25zm0,0" clip-rule="nonzero"/>
    </clipPath>
   </defs>
   <g id="svg_7" clip-path="url(#svg_2)">
    <path id="svg_8" fill="#000000" d="m300,434.52753c-103.97656,0 -188.625,-84.64844 -188.625,-188.625c0,-103.97656 84.64844,-188.625 188.625,-188.625c103.97657,0 188.625,84.64844 188.625,188.625c0,103.97656 -84.64843,188.625 -188.625,188.625zm0,-374.46485c-102.48828,0 -185.83593,83.34766 -185.83593,185.83985c0,102.48828 83.34765,185.83594 185.83593,185.83594c102.48829,0 185.83985,-83.34766 185.83985,-185.83594c0,-102.48828 -83.35156,-185.83985 -185.83985,-185.83985zm0,0" fill-rule="nonzero"/>
   </g>
   <g id="svg_9" clip-path="url(#svg_1)">
    <path id="svg_10" fill="#060606" d="m402.80469,229.99628c0.49219,-6.72266 -0.97265,-13.625 -4.70312,-19.31641c-4.36719,-6.6289 -11.17969,-10.99609 -18.4961,-13.75781c-1.24609,-0.47656 -2.51953,-0.90234 -3.80859,-1.30078c1.41016,-4.95313 2.23437,-10.00781 2.46875,-15.15625c0.20312,-4.14063 0.03906,-8.26953 -0.5,-12.37891c-0.53906,-4.11328 -1.4375,-8.14453 -2.69922,-12.09375c-1.25781,-3.95312 -2.86328,-7.75781 -4.80859,-11.42187c-1.94141,-3.66407 -4.19922,-7.125 -6.76563,-10.38282c-2.49609,-3.08203 -5.23828,-5.92968 -8.21875,-8.54296c-2.98437,-2.61329 -6.16797,-4.95704 -9.55078,-7.02735c-3.38281,-2.07422 -6.91797,-3.84375 -10.60156,-5.3125c-3.6836,-1.46875 -7.46485,-2.61719 -11.34766,-3.4414c-3.77344,-0.79297 -7.58984,-1.26172 -11.44531,-1.41407c-0.26953,0.00391 -0.52734,0.06641 -0.76953,0.19141c-0.24219,0.12109 -0.44922,0.29297 -0.61328,0.50781c-0.16407,0.21875 -0.27344,0.45703 -0.32422,0.72656c-0.05469,0.26563 -0.04688,0.53125 0.02344,0.79297c3.54687,14.45703 7.52343,31.14453 1.29687,45.44922c-5.9375,13.57813 -20.07031,20.53516 -33.80859,23.70703c-16.57032,3.82032 -34.09766,3.03125 -50.21875,8.88282c-12.41016,4.5 -25.30469,13.42187 -28.48828,27.04296c-2.54297,10.89063 1.36328,24.59375 11.85937,29.95313c1.30078,0.66406 2.65625,1.18359 4.06641,1.55859c2.18359,0.58203 3.11718,-2.79297 0.9375,-3.375c-11.03125,-2.94531 -15.73438,-16.02343 -13.66407,-26.38672c2.67969,-13.39062 15.66797,-21.89843 27.76563,-25.95312c16.05469,-5.38281 33.33203,-4.59375 49.67969,-8.58203c13.42968,-3.2461 27.15234,-10.17969 33.83593,-22.89063c7.26172,-13.83203 4.77344,-30.21484 1.4336,-44.8125c-0.2461,-1.0625 -0.50781,-2.11328 -0.75781,-3.17187c3.50781,0.27734 6.96875,0.83594 10.38671,1.66406c3.42188,0.83203 6.75,1.92969 9.9961,3.28906c3.24609,1.35938 6.35937,2.96875 9.34765,4.82813c2.98829,1.85547 5.8125,3.9375 8.46875,6.24219c2.86719,2.51562 5.49219,5.26562 7.8711,8.24218c2.3789,2.98047 4.48047,6.14453 6.30078,9.4961c1.82422,3.35156 3.33594,6.83593 4.53906,10.45312c1.20703,3.6211 2.08594,7.31641 2.63672,11.08985c1.32813,8.79687 1.02344,18.46875 -1.57812,27.30078c-5.58985,-1.46094 -11.27735,-2.17188 -17.05469,-2.13672c-7.8711,0.09375 -16.60938,2.23828 -21.97656,8.4375c-2.64063,3.03515 -4.22266,6.875 -3.54297,10.92969c0.64843,3.66015 3.10156,6.73046 6.07422,8.80468c6.2539,4.35938 14.49218,3.75 20.96875,0.28125c8.75781,-4.69922 14.42187,-12.875 17.69921,-22.02734c6.63672,1.94531 13.07813,5.11328 17.82813,10.26172c2.15625,2.38672 3.82422,5.07422 5,8.0625c1.17969,2.99219 1.78906,6.09375 1.83984,9.30859c0.32422,12.87891 -6.83203,25.88672 -17.19922,33.33203c-13.01171,9.34375 -29.25781,12.22657 -44.89843,13.4375c-18.26953,1.41407 -36.71094,1.57032 -55.02344,1.26563c-19.07031,-0.3125 -38.10156,-1.38281 -57.09766,-3.21094c-4.6289,-0.43359 -9.25781,-0.92578 -13.88281,-1.48047c-1.11719,-0.12109 -2.01172,1.22656 -1.6875,2.21875c7.08984,21.62891 14.1875,43.25391 21.28906,64.88281c3.54688,10.8125 7.09375,21.625 10.64063,32.4375c0.85547,2.59766 1.64062,5.26172 2.59375,7.83985c0.7539,2.03515 1.79687,4.05469 3.76172,5.15625c1.96875,1.10156 4.42578,1.05078 6.66406,1.01172l8.43359,-0.1211l68.39063,-1.02734l34.1914,-0.51953c4.45704,-0.0625 9.48047,-0.1875 11.46485,-4.94922c0.91015,-2.17188 1.04687,-4.62109 1.36328,-6.92969l1.19531,-8.5625c3.125,-22.49219 6.25391,-44.96875 9.38672,-67.42578c0.37891,-2.76172 0.76563,-5.52734 1.15625,-8.28906c0.05078,-0.22656 0.0625,-0.44922 0.02734,-0.67969c-0.03125,-0.22656 -0.10546,-0.44141 -0.21875,-0.64062c-0.11328,-0.19922 -0.25781,-0.3711 -0.4375,-0.51563c-0.17968,-0.14453 -0.3789,-0.25 -0.59765,-0.32031c-0.82031,-0.23047 -2.02735,0.28515 -2.15625,1.22656l-9.08203,65.28125c-0.76563,5.53125 -1.53516,11.05859 -2.3086,16.58594c-0.33984,2.45312 -0.55468,4.96875 -1.08593,7.39062c-0.48047,2.17969 -1.4961,3.53907 -3.73438,4.03516c-2.23828,0.49219 -4.61328,0.28906 -6.86719,0.32422l-8.43359,0.12109l-16.55859,0.25391l-66.21485,0.99219l-16.55078,0.24609c-2.04297,0.03516 -5.02734,0.55469 -6.74609,-0.84375c-1.58594,-1.29688 -2.04688,-3.84766 -2.64063,-5.67578l-10.38281,-31.66797l-20.61719,-62.83594l-1.71484,-5.23047c19.35156,2.16407 38.77344,3.55469 58.26953,4.17188c19.92969,0.61719 39.92187,0.48047 59.83203,-0.64844c16.69922,-0.96094 34.20313,-3.13281 48.73828,-12.06641c12.25,-7.55859 21.07813,-20.66015 22.15625,-35.1914zm-38.70703,-19.29688c-4.37891,5.07032 -10.49219,9.57032 -17.46094,9.63672c-6.17578,0.0586 -14.57031,-4.51172 -13.18359,-11.80859c1.44141,-7.59766 10.55859,-11.25781 17.33203,-12.15235c6.77344,-0.89453 13.96875,0 20.66406,1.69922c-1.69531,4.64844 -4.14843,8.85547 -7.35156,12.625zm0,0" fill-rule="nonzero"/>
   </g>
   <path id="svg_11" fill="#060606" d="m274.64063,303.34393c-0.55078,-2.17968 -3.92969,-1.25781 -3.37891,0.9336l11.13282,43.85937l3.15234,12.41797c0.55078,2.17969 3.93359,1.25781 3.375,-0.93359c-3.71094,-14.61719 -7.42188,-29.23438 -11.12891,-43.85938l-3.15234,-12.41797zm0,0" fill-rule="nonzero"/>
   <path id="svg_12" fill="#060606" d="m336.19922,300.10565c-1.17968,13.26172 -2.64843,26.49219 -4.39843,39.69532c-0.49219,3.71875 -1.01172,7.42968 -1.5586,11.13281c-0.05469,0.22265 -0.0625,0.44922 -0.03125,0.67578c0.03125,0.23047 0.10547,0.44141 0.21875,0.64453c0.11328,0.19922 0.26172,0.37109 0.44141,0.51563c0.17969,0.14453 0.3789,0.25 0.59765,0.3164c0.82422,0.22656 2.01954,-0.27734 2.15625,-1.21875c1.94922,-13.38281 3.60938,-26.80469 4.98047,-40.26562c0.39063,-3.82813 0.75391,-7.66016 1.09766,-11.4961c0,-0.23047 -0.04688,-0.45312 -0.13672,-0.66797c-0.08984,-0.21484 -0.21484,-0.40234 -0.37891,-0.5664c-0.16406,-0.16406 -0.35156,-0.29297 -0.5664,-0.37891c-0.21485,-0.08984 -0.4375,-0.13281 -0.67188,-0.13281c-0.23047,0 -0.45312,0.04297 -0.66797,0.13281c-0.21484,0.08594 -0.40234,0.21485 -0.5664,0.37891c-0.16406,0.16406 -0.29297,0.35156 -0.38281,0.5664c-0.08594,0.21485 -0.13282,0.4375 -0.13282,0.66797zm0,0" fill-rule="nonzero"/>
   <g id="svg_13" fill="#000000"/>
   <g id="svg_14" fill="#000000">
    <g id="svg_15">
     <g id="svg_16"/>
    </g>
   </g>
   <g id="svg_17" fill="#000000">
    <g id="svg_18">
     <g id="svg_19"/>
    </g>
   </g>
   <g id="svg_20" fill="#000000">
    <g id="svg_21">
     <g id="svg_22"/>
    </g>
   </g>
  </g>
 </g>
</svg>