<svg width="711" height="1207" viewBox="0 0 711 1207" fill="none" xmlns="http://www.w3.org/2000/svg">
<g clip-path="url(#clip0_86_405)">
<path d="M1.1145 -13.7343L1.59448 10.1757" stroke="black" stroke-opacity="0.25" stroke-miterlimit="10"/>
<path d="M1.5943 10.175L72.6743 10.085" stroke="black" stroke-opacity="0.25" stroke-miterlimit="10"/>
<path d="M72.6744 10.0852L733.254 9.82523" stroke="black" stroke-opacity="0.25" stroke-miterlimit="10"/>
<path d="M757.524 98.085L662.174 98.095" stroke="black" stroke-opacity="0.25" stroke-miterlimit="10"/>
<path d="M662.174 98.0957L662.194 293.656" stroke="black" stroke-opacity="0.25" stroke-miterlimit="10"/>
<path d="M662.194 293.655L757.544 293.655" stroke="black" stroke-opacity="0.25" stroke-miterlimit="10"/>
<path d="M662.224 594.146L662.244 789.696" stroke="black" stroke-opacity="0.25" stroke-miterlimit="10"/>
<path d="M662.245 789.696L757.495 789.686" stroke="black" stroke-opacity="0.25" stroke-miterlimit="10"/>
<path d="M757.475 594.136L662.225 594.136" stroke="black" stroke-opacity="0.25" stroke-miterlimit="10"/>
<path d="M733.804 1126L662.254 1126" stroke="black" stroke-opacity="0.25" stroke-miterlimit="10"/>
<path d="M662.254 1126L662.214 1285.95" stroke="black" stroke-opacity="0.25" stroke-miterlimit="10"/>
<path d="M1.6145 662.405L1.6145 754.105" stroke="black" stroke-opacity="0.25" stroke-miterlimit="10"/>
<path d="M1.61438 754.105L87.4644 754.106" stroke="black" stroke-opacity="0.25" stroke-miterlimit="10"/>
<path d="M87.4644 754.095L87.4444 662.405" stroke="black" stroke-opacity="0.25" stroke-miterlimit="10"/>
<path d="M87.4543 662.405L1.61438 662.405" stroke="black" stroke-opacity="0.25" stroke-miterlimit="10"/>
<path d="M73.1245 34.0157L1.59448 34.2757" stroke="black" stroke-opacity="0.25" stroke-miterlimit="10"/>
<path d="M1.59448 34.2754L1.59448 136.675" stroke="black" stroke-opacity="0.25" stroke-miterlimit="10"/>
<path d="M1.59448 136.676L73.1245 136.756" stroke="black" stroke-opacity="0.25" stroke-miterlimit="10"/>
<path d="M73.1245 136.756L73.1245 34.0157" stroke="black" stroke-opacity="0.25" stroke-miterlimit="10"/>
<path d="M1.6145 1038.06L1.61449 1256.22" stroke="black" stroke-opacity="0.25" stroke-miterlimit="10"/>
<path d="M63.6245 1271.73L63.6145 1038.06" stroke="black" stroke-opacity="0.25" stroke-miterlimit="10"/>
<path d="M63.6145 1038.06L25.4645 1038.06" stroke="black" stroke-opacity="0.25" stroke-miterlimit="10"/>
<path d="M25.4644 1038.06L1.60437 1038.06" stroke="black" stroke-opacity="0.25" stroke-miterlimit="10"/>
<path d="M1.59448 10.1651L1.59448 34.0151" stroke="black" stroke-opacity="0.25" stroke-miterlimit="10"/>
<path d="M1.59448 34.0157L73.1245 34.0157" stroke="black" stroke-opacity="0.25" stroke-miterlimit="10"/>
<path d="M73.1245 34.0157L73.1245 136.666" stroke="black" stroke-opacity="0.25" stroke-miterlimit="10"/>
<path d="M73.1245 136.665L1.59448 136.665" stroke="black" stroke-opacity="0.25" stroke-miterlimit="10"/>
<path d="M1.59448 136.676L1.61448 662.406" stroke="black" stroke-opacity="0.25" stroke-miterlimit="10"/>
<path d="M1.61438 662.405L87.4543 662.405" stroke="black" stroke-opacity="0.25" stroke-miterlimit="10"/>
<path d="M87.4543 662.405L87.4644 754.105" stroke="black" stroke-opacity="0.25" stroke-miterlimit="10"/>
<path d="M87.4644 754.096L1.60437 754.096" stroke="black" stroke-opacity="0.25" stroke-miterlimit="10"/>
<path d="M1.6145 754.106L1.6145 771.886" stroke="black" stroke-opacity="0.25" stroke-miterlimit="10"/>
<path d="M1.6145 771.886L1.61449 1038.06" stroke="black" stroke-opacity="0.25" stroke-miterlimit="10"/>
<path d="M1.6145 1038.06L63.6145 1038.06" stroke="black" stroke-opacity="0.25" stroke-miterlimit="10"/>
<path d="M63.6145 1038.06L63.6245 1286.04" stroke="black" stroke-opacity="0.25" stroke-miterlimit="10"/>
<path d="M662.204 1286.02L662.194 1073.06" stroke="black" stroke-opacity="0.25" stroke-miterlimit="10"/>
<path d="M662.194 1073.06L709.964 1073.06" stroke="black" stroke-opacity="0.25" stroke-miterlimit="10"/>
<path d="M709.964 1073.06L709.964 877.926" stroke="black" stroke-opacity="0.25" stroke-miterlimit="10"/>
<path d="M709.964 877.926L662.184 877.926" stroke="black" stroke-opacity="0.25" stroke-miterlimit="10"/>
<path d="M662.194 877.926L662.194 541.676" stroke="black" stroke-opacity="0.25" stroke-miterlimit="10"/>
<path d="M662.195 541.676L709.915 541.676" stroke="black" stroke-opacity="0.25" stroke-miterlimit="10"/>
<path d="M709.915 541.665L709.915 346.115" stroke="black" stroke-opacity="0.25" stroke-miterlimit="10"/>
<path d="M709.915 346.115L662.215 346.115" stroke="black" stroke-opacity="0.25" stroke-miterlimit="10"/>
<path d="M662.204 346.116L662.174 10.0957" stroke="black" stroke-opacity="0.25" stroke-miterlimit="10"/>
<path d="M662.174 10.0957L1.5943 10.1657" stroke="black" stroke-opacity="0.25" stroke-miterlimit="10"/>
<path d="M334.294 901.865L334.294 1262.18" stroke="black" stroke-opacity="0.25" stroke-miterlimit="10"/>
<path d="M638.674 1262.06L638.584 1049.23" stroke="black" stroke-opacity="0.25" stroke-miterlimit="10"/>
<path d="M638.584 1049.23L686.284 1049.21" stroke="black" stroke-opacity="0.25" stroke-miterlimit="10"/>
<path d="M686.284 1049.21L686.344 901.785" stroke="black" stroke-opacity="0.25" stroke-miterlimit="10"/>
<path d="M686.344 901.785L645.704 901.855" stroke="black" stroke-opacity="0.25" stroke-miterlimit="10"/>
<path d="M645.694 901.856L500.034 901.855" stroke="black" stroke-opacity="0.25" stroke-miterlimit="10"/>
<path d="M500.034 901.856L334.294 901.866" stroke="black" stroke-opacity="0.25" stroke-miterlimit="10"/>
<path d="M638.184 34.0059L404.044 34.1859" stroke="black" stroke-opacity="0.25" stroke-miterlimit="10"/>
<path d="M404.044 34.1856L404.404 517.946" stroke="black" stroke-opacity="0.25" stroke-miterlimit="10"/>
<path d="M404.414 517.935L686.064 517.825" stroke="black" stroke-opacity="0.25" stroke-miterlimit="10"/>
<path d="M686.064 517.826L686.064 369.976" stroke="black" stroke-opacity="0.25" stroke-miterlimit="10"/>
<path d="M686.064 369.976L638.204 369.976" stroke="black" stroke-opacity="0.25" stroke-miterlimit="10"/>
<path d="M638.204 369.975L638.184 33.9952" stroke="black" stroke-opacity="0.25" stroke-miterlimit="10"/>
<path d="M404.424 529.865L404.694 889.895" stroke="black" stroke-opacity="0.25" stroke-miterlimit="10"/>
<path d="M404.694 889.896L488.115 889.896" stroke="black" stroke-opacity="0.25" stroke-miterlimit="10"/>
<path d="M488.115 889.896L638.354 889.896" stroke="black" stroke-opacity="0.25" stroke-miterlimit="10"/>
<path d="M638.354 889.895L638.334 529.795" stroke="black" stroke-opacity="0.25" stroke-miterlimit="10"/>
<path d="M638.334 529.806L442.784 529.806" stroke="black" stroke-opacity="0.25" stroke-miterlimit="10"/>
<path d="M442.784 529.806L404.424 529.866" stroke="black" stroke-opacity="0.25" stroke-miterlimit="10"/>
<path d="M25.4644 778.065L25.4643 1014.21" stroke="black" stroke-opacity="0.25" stroke-miterlimit="10"/>
<path d="M25.4644 1014.21L87.4644 1014.21" stroke="black" stroke-opacity="0.25" stroke-miterlimit="10"/>
<path d="M87.4644 1014.21L87.4643 1262.19" stroke="black" stroke-opacity="0.25" stroke-miterlimit="10"/>
<path d="M322.374 1262.19L322.364 901.865" stroke="black" stroke-opacity="0.25" stroke-miterlimit="10"/>
<path d="M322.365 901.865L252.044 901.865" stroke="black" stroke-opacity="0.25" stroke-miterlimit="10"/>
<path d="M252.044 901.866L252.034 777.966" stroke="black" stroke-opacity="0.25" stroke-miterlimit="10"/>
<path d="M252.034 777.976L25.4644 778.056" stroke="black" stroke-opacity="0.25" stroke-miterlimit="10"/>
<path d="M392.395 377.325L263.935 377.325" stroke="black" stroke-opacity="0.25" stroke-miterlimit="10"/>
<path d="M263.934 377.325L263.934 666.265" stroke="black" stroke-opacity="0.25" stroke-miterlimit="10"/>
<path d="M263.934 666.266L111.304 666.276" stroke="black" stroke-opacity="0.25" stroke-miterlimit="10"/>
<path d="M111.304 666.275L111.304 765.955" stroke="black" stroke-opacity="0.25" stroke-miterlimit="10"/>
<path d="M111.304 765.955L264.004 765.955" stroke="black" stroke-opacity="0.25" stroke-miterlimit="10"/>
<path d="M264.004 765.955L263.934 889.905" stroke="black" stroke-opacity="0.25" stroke-miterlimit="10"/>
<path d="M263.934 889.906L392.774 889.896" stroke="black" stroke-opacity="0.25" stroke-miterlimit="10"/>
<path d="M392.774 889.905L392.674 765.905" stroke="black" stroke-opacity="0.25" stroke-miterlimit="10"/>
<path d="M392.674 765.896L330.954 765.896" stroke="black" stroke-opacity="0.25" stroke-miterlimit="10"/>
<path d="M330.954 765.906L330.944 559.856" stroke="black" stroke-opacity="0.25" stroke-miterlimit="10"/>
<path d="M330.944 559.855L392.524 559.856" stroke="black" stroke-opacity="0.25" stroke-miterlimit="10"/>
<path d="M392.524 559.855L392.384 377.325" stroke="black" stroke-opacity="0.25" stroke-miterlimit="10"/>
<path d="M25.4543 282.065L25.4543 413.185" stroke="black" stroke-opacity="0.25" stroke-miterlimit="10"/>
<path d="M25.4543 413.186L25.4543 638.556" stroke="black" stroke-opacity="0.25" stroke-miterlimit="10"/>
<path d="M25.4544 638.565L111.304 638.565" stroke="black" stroke-opacity="0.25" stroke-miterlimit="10"/>
<path d="M111.304 638.556L111.304 654.346" stroke="black" stroke-opacity="0.25" stroke-miterlimit="10"/>
<path d="M111.304 654.346L233.004 654.346" stroke="black" stroke-opacity="0.25" stroke-miterlimit="10"/>
<path d="M233.004 654.345L232.984 556.545" stroke="black" stroke-opacity="0.25" stroke-miterlimit="10"/>
<path d="M232.984 556.545L252.014 556.545" stroke="black" stroke-opacity="0.25" stroke-miterlimit="10"/>
<path d="M252.014 556.546L251.994 281.936" stroke="black" stroke-opacity="0.25" stroke-miterlimit="10"/>
<path d="M251.994 281.936L25.4543 282.066" stroke="black" stroke-opacity="0.25" stroke-miterlimit="10"/>
<path d="M392.954 34.0059L96.9843 34.0159" stroke="black" stroke-opacity="0.25" stroke-miterlimit="10"/>
<path d="M96.9844 34.0157L96.9844 160.516" stroke="black" stroke-opacity="0.25" stroke-miterlimit="10"/>
<path d="M96.9844 160.516L25.4344 160.516" stroke="black" stroke-opacity="0.25" stroke-miterlimit="10"/>
<path d="M25.4344 160.516L25.4543 270.016" stroke="black" stroke-opacity="0.25" stroke-miterlimit="10"/>
<path d="M25.4543 270.016L263.914 270.016" stroke="black" stroke-opacity="0.25" stroke-miterlimit="10"/>
<path d="M263.914 270.016L263.934 365.406" stroke="black" stroke-opacity="0.25" stroke-miterlimit="10"/>
<path d="M263.934 365.405L392.954 365.405" stroke="black" stroke-opacity="0.25" stroke-miterlimit="10"/>
<path d="M392.954 365.406L392.954 34.0059" stroke="black" stroke-opacity="0.25" stroke-miterlimit="10"/>
<path d="M392.724 765.896L335.484 765.896" stroke="black" stroke-opacity="0.25" stroke-miterlimit="10"/>
<path d="M335.484 765.905L335.484 753.025" stroke="black" stroke-opacity="0.25" stroke-miterlimit="10"/>
<path d="M335.484 753.025L392.704 753.025" stroke="black" stroke-opacity="0.25" stroke-miterlimit="10"/>
<path d="M392.704 753.016L392.724 765.896" stroke="black" stroke-opacity="0.25" stroke-miterlimit="10"/>
<path d="M392.704 753.016L335.484 753.016" stroke="black" stroke-opacity="0.25" stroke-miterlimit="10"/>
<path d="M335.484 753.026L335.484 740.146" stroke="black" stroke-opacity="0.25" stroke-miterlimit="10"/>
<path d="M335.484 740.146L392.704 740.146" stroke="black" stroke-opacity="0.25" stroke-miterlimit="10"/>
<path d="M392.704 740.146L392.704 753.026" stroke="black" stroke-opacity="0.25" stroke-miterlimit="10"/>
<path d="M392.704 740.146L335.484 740.146" stroke="black" stroke-opacity="0.25" stroke-miterlimit="10"/>
<path d="M335.484 740.146L335.484 727.266" stroke="black" stroke-opacity="0.25" stroke-miterlimit="10"/>
<path d="M335.484 727.266L392.704 727.266" stroke="black" stroke-opacity="0.25" stroke-miterlimit="10"/>
<path d="M392.704 727.266L392.704 740.146" stroke="black" stroke-opacity="0.25" stroke-miterlimit="10"/>
<path d="M392.704 727.266L335.484 727.266" stroke="black" stroke-opacity="0.25" stroke-miterlimit="10"/>
<path d="M335.485 727.266L335.485 714.386" stroke="black" stroke-opacity="0.25" stroke-miterlimit="10"/>
<path d="M335.484 714.386L392.704 714.386" stroke="black" stroke-opacity="0.25" stroke-miterlimit="10"/>
<path d="M392.704 714.386L392.704 727.266" stroke="black" stroke-opacity="0.25" stroke-miterlimit="10"/>
<path d="M392.704 714.386L335.484 714.386" stroke="black" stroke-opacity="0.25" stroke-miterlimit="10"/>
<path d="M335.484 714.386L335.484 701.506" stroke="black" stroke-opacity="0.25" stroke-miterlimit="10"/>
<path d="M335.484 701.506L364.094 701.506" stroke="black" stroke-opacity="0.25" stroke-miterlimit="10"/>
<path d="M364.094 701.506L335.484 701.506" stroke="black" stroke-opacity="0.25" stroke-miterlimit="10"/>
<path d="M335.484 701.505L335.484 688.625" stroke="black" stroke-opacity="0.25" stroke-miterlimit="10"/>
<path d="M372.804 701.506L392.704 701.506" stroke="black" stroke-opacity="0.25" stroke-miterlimit="10"/>
<path d="M392.704 701.506L392.704 710.466" stroke="black" stroke-opacity="0.25" stroke-miterlimit="10"/>
<path d="M392.704 701.506L372.804 701.506" stroke="black" stroke-opacity="0.25" stroke-miterlimit="10"/>
<path d="M344.194 688.636L392.704 688.636" stroke="black" stroke-opacity="0.25" stroke-miterlimit="10"/>
<path d="M392.704 688.636L392.704 701.506" stroke="black" stroke-opacity="0.25" stroke-miterlimit="10"/>
<path d="M392.704 688.636L344.194 688.636" stroke="black" stroke-opacity="0.25" stroke-miterlimit="10"/>
<path d="M335.484 684.706L335.484 675.756" stroke="black" stroke-opacity="0.25" stroke-miterlimit="10"/>
<path d="M335.484 675.756L392.704 675.756" stroke="black" stroke-opacity="0.25" stroke-miterlimit="10"/>
<path d="M392.704 675.756L392.704 688.636" stroke="black" stroke-opacity="0.25" stroke-miterlimit="10"/>
<path d="M392.704 675.756L335.484 675.756" stroke="black" stroke-opacity="0.25" stroke-miterlimit="10"/>
<path d="M335.484 675.755L335.484 662.875" stroke="black" stroke-opacity="0.25" stroke-miterlimit="10"/>
<path d="M335.484 662.875L392.704 662.875" stroke="black" stroke-opacity="0.25" stroke-miterlimit="10"/>
<path d="M392.704 662.875L392.704 675.755" stroke="black" stroke-opacity="0.25" stroke-miterlimit="10"/>
<path d="M392.704 662.875L335.484 662.875" stroke="black" stroke-opacity="0.25" stroke-miterlimit="10"/>
<path d="M335.484 662.875L335.484 649.995" stroke="black" stroke-opacity="0.25" stroke-miterlimit="10"/>
<path d="M335.484 649.995L392.704 649.995" stroke="black" stroke-opacity="0.25" stroke-miterlimit="10"/>
<path d="M392.704 649.995L392.704 662.875" stroke="black" stroke-opacity="0.25" stroke-miterlimit="10"/>
<path d="M392.704 649.995L335.484 649.995" stroke="black" stroke-opacity="0.25" stroke-miterlimit="10"/>
<path d="M335.484 649.995L335.484 637.115" stroke="black" stroke-opacity="0.25" stroke-miterlimit="10"/>
<path d="M335.484 637.125L392.704 637.125" stroke="black" stroke-opacity="0.25" stroke-miterlimit="10"/>
<path d="M392.704 637.115L392.704 649.995" stroke="black" stroke-opacity="0.25" stroke-miterlimit="10"/>
<path d="M392.704 637.115L335.484 637.115" stroke="black" stroke-opacity="0.25" stroke-miterlimit="10"/>
<path d="M335.484 637.125L335.484 624.245" stroke="black" stroke-opacity="0.25" stroke-miterlimit="10"/>
<path d="M335.484 624.245L392.704 624.245" stroke="black" stroke-opacity="0.25" stroke-miterlimit="10"/>
<path d="M392.704 624.245L392.704 637.125" stroke="black" stroke-opacity="0.25" stroke-miterlimit="10"/>
<path d="M392.704 624.245L335.484 624.245" stroke="black" stroke-opacity="0.25" stroke-miterlimit="10"/>
<path d="M335.484 624.245L335.484 611.365" stroke="black" stroke-opacity="0.25" stroke-miterlimit="10"/>
<path d="M335.484 611.365L392.704 611.365" stroke="black" stroke-opacity="0.25" stroke-miterlimit="10"/>
<path d="M392.704 611.365L392.704 624.245" stroke="black" stroke-opacity="0.25" stroke-miterlimit="10"/>
<path d="M392.704 611.365L335.484 611.365" stroke="black" stroke-opacity="0.25" stroke-miterlimit="10"/>
<path d="M335.484 611.365L335.484 598.485" stroke="black" stroke-opacity="0.25" stroke-miterlimit="10"/>
<path d="M335.484 598.485L392.704 598.485" stroke="black" stroke-opacity="0.25" stroke-miterlimit="10"/>
<path d="M392.704 598.485L392.704 611.365" stroke="black" stroke-opacity="0.25" stroke-miterlimit="10"/>
<path d="M392.704 598.485L335.484 598.485" stroke="black" stroke-opacity="0.25" stroke-miterlimit="10"/>
<path d="M335.484 598.486L335.484 585.606" stroke="black" stroke-opacity="0.25" stroke-miterlimit="10"/>
<path d="M335.484 585.605L392.704 585.606" stroke="black" stroke-opacity="0.25" stroke-miterlimit="10"/>
<path d="M392.704 585.606L392.704 598.486" stroke="black" stroke-opacity="0.25" stroke-miterlimit="10"/>
<path d="M392.704 585.606L335.484 585.605" stroke="black" stroke-opacity="0.25" stroke-miterlimit="10"/>
<path d="M335.484 585.605L335.484 572.735" stroke="black" stroke-opacity="0.25" stroke-miterlimit="10"/>
<path d="M335.484 572.735L392.704 572.735" stroke="black" stroke-opacity="0.25" stroke-miterlimit="10"/>
<path d="M392.705 572.726L392.705 585.606" stroke="black" stroke-opacity="0.25" stroke-miterlimit="10"/>
<path d="M392.705 572.726L335.485 572.726" stroke="black" stroke-opacity="0.25" stroke-miterlimit="10"/>
<path d="M335.484 572.736L335.484 559.856" stroke="black" stroke-opacity="0.25" stroke-miterlimit="10"/>
<path d="M335.484 559.855L392.704 559.856" stroke="black" stroke-opacity="0.25" stroke-miterlimit="10"/>
<path d="M392.704 559.856L392.704 572.736" stroke="black" stroke-opacity="0.25" stroke-miterlimit="10"/>
<path d="M392.704 714.386L335.484 688.636" stroke="black" stroke-opacity="0.25" stroke-miterlimit="10"/>
<path d="M392.704 710.466L335.484 684.716" stroke="black" stroke-opacity="0.25" stroke-miterlimit="10"/>
<path d="M364.094 765.896L364.094 753.016" stroke="black" stroke-opacity="0.25" stroke-miterlimit="10"/>
<path d="M364.094 753.026L364.094 701.506" stroke="black" stroke-opacity="0.25" stroke-miterlimit="10"/>
<path d="M376.014 713.436L364.094 701.506" stroke="black" stroke-opacity="0.25" stroke-miterlimit="10"/>
<path d="M364.094 701.506L352.174 713.436" stroke="black" stroke-opacity="0.25" stroke-miterlimit="10"/>
<path d="M364.094 697.585L364.094 572.735" stroke="black" stroke-opacity="0.25" stroke-miterlimit="10"/>
<path d="M364.094 572.736L364.094 559.856" stroke="black" stroke-opacity="0.25" stroke-miterlimit="10"/>
<path d="M376.014 571.776L364.094 559.856" stroke="black" stroke-opacity="0.25" stroke-miterlimit="10"/>
<path d="M364.094 559.856L352.174 571.776" stroke="black" stroke-opacity="0.25" stroke-miterlimit="10"/>
<path d="M392.724 765.896L335.484 765.896" stroke="black" stroke-opacity="0.25" stroke-miterlimit="10"/>
<path d="M335.484 765.905L335.484 753.025" stroke="black" stroke-opacity="0.25" stroke-miterlimit="10"/>
<path d="M335.484 753.025L392.704 753.025" stroke="black" stroke-opacity="0.25" stroke-miterlimit="10"/>
<path d="M392.704 753.016L392.724 765.896" stroke="black" stroke-opacity="0.25" stroke-miterlimit="10"/>
<path d="M392.704 753.016L335.484 753.016" stroke="black" stroke-opacity="0.25" stroke-miterlimit="10"/>
<path d="M335.484 753.026L335.484 740.146" stroke="black" stroke-opacity="0.25" stroke-miterlimit="10"/>
<path d="M335.484 740.146L392.704 740.146" stroke="black" stroke-opacity="0.25" stroke-miterlimit="10"/>
<path d="M392.704 740.146L392.704 753.026" stroke="black" stroke-opacity="0.25" stroke-miterlimit="10"/>
<path d="M392.704 740.146L335.484 740.146" stroke="black" stroke-opacity="0.25" stroke-miterlimit="10"/>
<path d="M335.484 740.146L335.484 727.266" stroke="black" stroke-opacity="0.25" stroke-miterlimit="10"/>
<path d="M335.484 727.266L392.704 727.266" stroke="black" stroke-opacity="0.25" stroke-miterlimit="10"/>
<path d="M392.704 727.266L392.704 740.146" stroke="black" stroke-opacity="0.25" stroke-miterlimit="10"/>
<path d="M392.704 727.266L335.484 727.266" stroke="black" stroke-opacity="0.25" stroke-miterlimit="10"/>
<path d="M335.485 727.266L335.485 714.386" stroke="black" stroke-opacity="0.25" stroke-miterlimit="10"/>
<path d="M335.484 714.386L392.704 714.386" stroke="black" stroke-opacity="0.25" stroke-miterlimit="10"/>
<path d="M392.704 714.386L392.704 727.266" stroke="black" stroke-opacity="0.25" stroke-miterlimit="10"/>
<path d="M392.704 714.386L335.484 714.386" stroke="black" stroke-opacity="0.25" stroke-miterlimit="10"/>
<path d="M335.484 714.386L335.484 701.506" stroke="black" stroke-opacity="0.25" stroke-miterlimit="10"/>
<path d="M335.484 701.506L364.094 701.506" stroke="black" stroke-opacity="0.25" stroke-miterlimit="10"/>
<path d="M364.094 701.506L335.484 701.506" stroke="black" stroke-opacity="0.25" stroke-miterlimit="10"/>
<path d="M335.484 701.505L335.484 688.625" stroke="black" stroke-opacity="0.25" stroke-miterlimit="10"/>
<path d="M372.804 701.506L392.704 701.506" stroke="black" stroke-opacity="0.25" stroke-miterlimit="10"/>
<path d="M392.704 701.506L392.704 710.466" stroke="black" stroke-opacity="0.25" stroke-miterlimit="10"/>
<path d="M392.704 701.506L372.804 701.506" stroke="black" stroke-opacity="0.25" stroke-miterlimit="10"/>
<path d="M344.194 688.636L349.374 688.636" stroke="black" stroke-opacity="0.25" stroke-miterlimit="10"/>
<path d="M364.884 688.636L372.024 688.636" stroke="black" stroke-opacity="0.25" stroke-miterlimit="10"/>
<path d="M387.534 688.636L392.704 688.636" stroke="black" stroke-opacity="0.25" stroke-miterlimit="10"/>
<path d="M392.704 688.636L392.704 701.506" stroke="black" stroke-opacity="0.25" stroke-miterlimit="10"/>
<path d="M392.704 688.636L387.534 688.636" stroke="black" stroke-opacity="0.25" stroke-miterlimit="10"/>
<path d="M372.024 688.636L364.884 688.636" stroke="black" stroke-opacity="0.25" stroke-miterlimit="10"/>
<path d="M349.374 688.636L344.194 688.636" stroke="black" stroke-opacity="0.25" stroke-miterlimit="10"/>
<path d="M335.484 684.706L335.484 675.756" stroke="black" stroke-opacity="0.25" stroke-miterlimit="10"/>
<path d="M335.484 675.756L345.014 675.756" stroke="black" stroke-opacity="0.25" stroke-miterlimit="10"/>
<path d="M360.524 675.756L367.664 675.756" stroke="black" stroke-opacity="0.25" stroke-miterlimit="10"/>
<path d="M383.174 675.756L392.714 675.756" stroke="black" stroke-opacity="0.25" stroke-miterlimit="10"/>
<path d="M392.704 675.756L392.704 688.636" stroke="black" stroke-opacity="0.25" stroke-miterlimit="10"/>
<path d="M392.704 675.756L383.174 675.756" stroke="black" stroke-opacity="0.25" stroke-miterlimit="10"/>
<path d="M367.664 675.756L360.524 675.756" stroke="black" stroke-opacity="0.25" stroke-miterlimit="10"/>
<path d="M345.014 675.756L335.484 675.756" stroke="black" stroke-opacity="0.25" stroke-miterlimit="10"/>
<path d="M335.484 675.755L335.484 662.875" stroke="black" stroke-opacity="0.25" stroke-miterlimit="10"/>
<path d="M335.484 662.875L345.014 662.875" stroke="black" stroke-opacity="0.25" stroke-miterlimit="10"/>
<path d="M360.524 662.875L367.664 662.875" stroke="black" stroke-opacity="0.25" stroke-miterlimit="10"/>
<path d="M383.174 662.875L392.714 662.875" stroke="black" stroke-opacity="0.25" stroke-miterlimit="10"/>
<path d="M392.704 662.875L392.704 675.755" stroke="black" stroke-opacity="0.25" stroke-miterlimit="10"/>
<path d="M392.704 662.875L383.174 662.875" stroke="black" stroke-opacity="0.25" stroke-miterlimit="10"/>
<path d="M367.664 662.875L360.524 662.875" stroke="black" stroke-opacity="0.25" stroke-miterlimit="10"/>
<path d="M345.014 662.875L335.484 662.875" stroke="black" stroke-opacity="0.25" stroke-miterlimit="10"/>
<path d="M335.484 662.875L335.484 649.995" stroke="black" stroke-opacity="0.25" stroke-miterlimit="10"/>
<path d="M335.484 649.995L345.014 649.995" stroke="black" stroke-opacity="0.25" stroke-miterlimit="10"/>
<path d="M360.524 649.995L367.664 649.995" stroke="black" stroke-opacity="0.25" stroke-miterlimit="10"/>
<path d="M383.174 649.995L392.714 649.995" stroke="black" stroke-opacity="0.25" stroke-miterlimit="10"/>
<path d="M392.704 649.995L392.704 662.875" stroke="black" stroke-opacity="0.25" stroke-miterlimit="10"/>
<path d="M392.704 649.995L383.174 649.995" stroke="black" stroke-opacity="0.25" stroke-miterlimit="10"/>
<path d="M367.664 649.995L360.524 649.995" stroke="black" stroke-opacity="0.25" stroke-miterlimit="10"/>
<path d="M345.014 649.995L335.484 649.995" stroke="black" stroke-opacity="0.25" stroke-miterlimit="10"/>
<path d="M335.484 649.995L335.484 637.115" stroke="black" stroke-opacity="0.25" stroke-miterlimit="10"/>
<path d="M335.484 637.125L345.014 637.125" stroke="black" stroke-opacity="0.25" stroke-miterlimit="10"/>
<path d="M360.524 637.115L367.664 637.115" stroke="black" stroke-opacity="0.25" stroke-miterlimit="10"/>
<path d="M383.174 637.115L392.714 637.115" stroke="black" stroke-opacity="0.25" stroke-miterlimit="10"/>
<path d="M392.704 637.115L392.704 649.995" stroke="black" stroke-opacity="0.25" stroke-miterlimit="10"/>
<path d="M392.704 637.115L383.174 637.115" stroke="black" stroke-opacity="0.25" stroke-miterlimit="10"/>
<path d="M367.664 637.115L360.524 637.115" stroke="black" stroke-opacity="0.25" stroke-miterlimit="10"/>
<path d="M345.014 637.125L335.484 637.125" stroke="black" stroke-opacity="0.25" stroke-miterlimit="10"/>
<path d="M335.484 637.125L335.484 624.245" stroke="black" stroke-opacity="0.25" stroke-miterlimit="10"/>
<path d="M335.484 624.245L345.014 624.245" stroke="black" stroke-opacity="0.25" stroke-miterlimit="10"/>
<path d="M360.524 624.245L367.664 624.245" stroke="black" stroke-opacity="0.25" stroke-miterlimit="10"/>
<path d="M383.174 624.245L392.714 624.245" stroke="black" stroke-opacity="0.25" stroke-miterlimit="10"/>
<path d="M392.704 624.245L392.704 637.125" stroke="black" stroke-opacity="0.25" stroke-miterlimit="10"/>
<path d="M392.704 624.245L383.174 624.245" stroke="black" stroke-opacity="0.25" stroke-miterlimit="10"/>
<path d="M367.664 624.245L360.524 624.245" stroke="black" stroke-opacity="0.25" stroke-miterlimit="10"/>
<path d="M345.014 624.245L335.484 624.245" stroke="black" stroke-opacity="0.25" stroke-miterlimit="10"/>
<path d="M335.484 624.245L335.484 611.365" stroke="black" stroke-opacity="0.25" stroke-miterlimit="10"/>
<path d="M335.484 611.365L345.014 611.365" stroke="black" stroke-opacity="0.25" stroke-miterlimit="10"/>
<path d="M360.524 611.365L367.664 611.365" stroke="black" stroke-opacity="0.25" stroke-miterlimit="10"/>
<path d="M383.174 611.365L392.714 611.365" stroke="black" stroke-opacity="0.25" stroke-miterlimit="10"/>
<path d="M392.704 611.365L392.704 624.245" stroke="black" stroke-opacity="0.25" stroke-miterlimit="10"/>
<path d="M392.704 611.365L383.174 611.365" stroke="black" stroke-opacity="0.25" stroke-miterlimit="10"/>
<path d="M367.664 611.365L360.524 611.365" stroke="black" stroke-opacity="0.25" stroke-miterlimit="10"/>
<path d="M345.014 611.365L335.484 611.365" stroke="black" stroke-opacity="0.25" stroke-miterlimit="10"/>
<path d="M335.484 611.365L335.484 598.485" stroke="black" stroke-opacity="0.25" stroke-miterlimit="10"/>
<path d="M335.484 598.485L345.014 598.485" stroke="black" stroke-opacity="0.25" stroke-miterlimit="10"/>
<path d="M360.524 598.485L367.664 598.485" stroke="black" stroke-opacity="0.25" stroke-miterlimit="10"/>
<path d="M383.174 598.485L392.714 598.485" stroke="black" stroke-opacity="0.25" stroke-miterlimit="10"/>
<path d="M392.704 598.485L392.704 611.365" stroke="black" stroke-opacity="0.25" stroke-miterlimit="10"/>
<path d="M392.704 598.485L383.174 598.485" stroke="black" stroke-opacity="0.25" stroke-miterlimit="10"/>
<path d="M367.664 598.485L360.524 598.485" stroke="black" stroke-opacity="0.25" stroke-miterlimit="10"/>
<path d="M345.014 598.485L335.484 598.485" stroke="black" stroke-opacity="0.25" stroke-miterlimit="10"/>
<path d="M335.484 598.486L335.484 585.606" stroke="black" stroke-opacity="0.25" stroke-miterlimit="10"/>
<path d="M335.484 585.606L345.014 585.606" stroke="black" stroke-opacity="0.25" stroke-miterlimit="10"/>
<path d="M360.524 585.606L367.664 585.606" stroke="black" stroke-opacity="0.25" stroke-miterlimit="10"/>
<path d="M383.174 585.606L392.714 585.606" stroke="black" stroke-opacity="0.25" stroke-miterlimit="10"/>
<path d="M392.704 585.606L392.704 598.486" stroke="black" stroke-opacity="0.25" stroke-miterlimit="10"/>
<path d="M392.704 585.606L383.174 585.606" stroke="black" stroke-opacity="0.25" stroke-miterlimit="10"/>
<path d="M367.664 585.606L360.524 585.606" stroke="black" stroke-opacity="0.25" stroke-miterlimit="10"/>
<path d="M345.014 585.606L335.484 585.606" stroke="black" stroke-opacity="0.25" stroke-miterlimit="10"/>
<path d="M335.484 585.605L335.484 572.735" stroke="black" stroke-opacity="0.25" stroke-miterlimit="10"/>
<path d="M335.484 572.735L345.014 572.735" stroke="black" stroke-opacity="0.25" stroke-miterlimit="10"/>
<path d="M360.524 572.735L367.664 572.735" stroke="black" stroke-opacity="0.25" stroke-miterlimit="10"/>
<path d="M383.174 572.735L392.714 572.735" stroke="black" stroke-opacity="0.25" stroke-miterlimit="10"/>
<path d="M392.705 572.726L392.705 585.606" stroke="black" stroke-opacity="0.25" stroke-miterlimit="10"/>
<path d="M392.705 572.726L383.175 572.726" stroke="black" stroke-opacity="0.25" stroke-miterlimit="10"/>
<path d="M367.664 572.735L360.524 572.735" stroke="black" stroke-opacity="0.25" stroke-miterlimit="10"/>
<path d="M345.014 572.735L335.484 572.735" stroke="black" stroke-opacity="0.25" stroke-miterlimit="10"/>
<path d="M335.484 572.736L335.484 559.856" stroke="black" stroke-opacity="0.25" stroke-miterlimit="10"/>
<path d="M335.484 559.856L345.014 559.856" stroke="black" stroke-opacity="0.25" stroke-miterlimit="10"/>
<path d="M360.524 559.856L367.664 559.856" stroke="black" stroke-opacity="0.25" stroke-miterlimit="10"/>
<path d="M383.174 559.856L392.714 559.856" stroke="black" stroke-opacity="0.25" stroke-miterlimit="10"/>
<path d="M392.704 559.856L392.704 572.736" stroke="black" stroke-opacity="0.25" stroke-miterlimit="10"/>
<path d="M392.704 714.386L335.484 688.636" stroke="black" stroke-opacity="0.25" stroke-miterlimit="10"/>
<path d="M392.704 710.466L335.484 684.716" stroke="black" stroke-opacity="0.25" stroke-miterlimit="10"/>
<path d="M364.094 765.896L364.094 753.016" stroke="black" stroke-opacity="0.25" stroke-miterlimit="10"/>
<path d="M364.094 753.026L364.094 701.506" stroke="black" stroke-opacity="0.25" stroke-miterlimit="10"/>
<path d="M376.014 713.436L364.094 701.506" stroke="black" stroke-opacity="0.25" stroke-miterlimit="10"/>
<path d="M364.094 701.506L352.174 713.436" stroke="black" stroke-opacity="0.25" stroke-miterlimit="10"/>
<path d="M364.094 697.585L364.094 572.735" stroke="black" stroke-opacity="0.25" stroke-miterlimit="10"/>
<path d="M364.094 572.736L364.094 559.856" stroke="black" stroke-opacity="0.25" stroke-miterlimit="10"/>
<path d="M376.014 571.776L364.094 559.856" stroke="black" stroke-opacity="0.25" stroke-miterlimit="10"/>
<path d="M364.094 559.856L352.174 571.776" stroke="black" stroke-opacity="0.25" stroke-miterlimit="10"/>
<path d="M150.004 745.445L150.004 680.575" stroke="black" stroke-opacity="0.25" stroke-miterlimit="10"/>
<path d="M150.004 680.575L239.194 680.575" stroke="black" stroke-opacity="0.25" stroke-miterlimit="10"/>
<path d="M239.194 680.575L239.194 745.445" stroke="black" stroke-opacity="0.25" stroke-miterlimit="10"/>
<path d="M239.194 745.445L149.994 745.445" stroke="black" stroke-opacity="0.25" stroke-miterlimit="10"/>
<path fill-rule="evenodd" clip-rule="evenodd" d="M385.294 455.936L364.644 444.006L364.634 467.846L385.294 455.936Z" fill="black" fill-opacity="0.25" stroke="black" stroke-opacity="0.25" stroke-miterlimit="10"/>
<path fill-rule="evenodd" clip-rule="evenodd" d="M299.705 384.476L287.775 405.126L311.625 405.136L299.705 384.476Z" fill="black" fill-opacity="0.25" stroke="black" stroke-opacity="0.25" stroke-miterlimit="10"/>
<path fill-rule="evenodd" clip-rule="evenodd" d="M385.574 832.665L364.934 820.735L364.914 844.575L385.574 832.665Z" fill="black" fill-opacity="0.25" stroke="black" stroke-opacity="0.25" stroke-miterlimit="10"/>
<path fill-rule="evenodd" clip-rule="evenodd" d="M271.544 835.205L292.194 847.145L292.194 823.295L271.544 835.205Z" fill="black" fill-opacity="0.25" stroke="black" stroke-opacity="0.25" stroke-miterlimit="10"/>
<path d="M709.914 594.136L722.234 594.136" stroke="black" stroke-opacity="0.25" stroke-miterlimit="10"/>
<path d="M722.254 789.686L709.934 789.686" stroke="black" stroke-opacity="0.25" stroke-miterlimit="10"/>
<path d="M709.954 877.926L733.734 877.926" stroke="black" stroke-opacity="0.25" stroke-miterlimit="10"/>
<path d="M721.834 293.655L709.514 293.655" stroke="black" stroke-opacity="0.25" stroke-miterlimit="10"/>
<path d="M709.514 293.655L709.534 312.735" stroke="black" stroke-opacity="0.25" stroke-miterlimit="10"/>
<path d="M709.564 336.585L709.614 372.355" stroke="black" stroke-opacity="0.25" stroke-miterlimit="10"/>
<path d="M709.655 396.205L709.705 431.975" stroke="black" stroke-opacity="0.25" stroke-miterlimit="10"/>
<path d="M709.734 455.825L709.784 491.595" stroke="black" stroke-opacity="0.25" stroke-miterlimit="10"/>
<path d="M709.814 515.445L709.864 551.215" stroke="black" stroke-opacity="0.25" stroke-miterlimit="10"/>
<path d="M709.905 575.065L709.915 594.135" stroke="black" stroke-opacity="0.25" stroke-miterlimit="10"/>
<path d="M709.955 877.925L709.955 845.735" stroke="black" stroke-opacity="0.25" stroke-miterlimit="10"/>
<path d="M709.935 821.885L709.935 789.695" stroke="black" stroke-opacity="0.25" stroke-miterlimit="10"/>
<path d="M249.674 668.176L249.674 676.766" stroke="black" stroke-opacity="0.25" stroke-miterlimit="10"/>
<path d="M139.504 668.176L139.504 676.766" stroke="black" stroke-opacity="0.25" stroke-miterlimit="10"/>
<path d="M249.674 668.176L139.494 668.176" stroke="black" stroke-opacity="0.25" stroke-miterlimit="10"/>
<path d="M148.094 676.766L241.094 676.756" stroke="black" stroke-opacity="0.25" stroke-miterlimit="10"/>
<path d="M139.504 764.045L139.504 755.455" stroke="black" stroke-opacity="0.25" stroke-miterlimit="10"/>
<path d="M249.674 764.045L249.674 755.455" stroke="black" stroke-opacity="0.25" stroke-miterlimit="10"/>
<path d="M139.504 764.045L249.674 764.045" stroke="black" stroke-opacity="0.25" stroke-miterlimit="10"/>
<path d="M241.094 755.455L148.094 755.455" stroke="black" stroke-opacity="0.25" stroke-miterlimit="10"/>
<path d="M249.674 691.066L249.674 676.756" stroke="black" stroke-opacity="0.25" stroke-miterlimit="10"/>
<path d="M241.094 676.756L241.094 691.076" stroke="black" stroke-opacity="0.25" stroke-miterlimit="10"/>
<path d="M241.094 691.065L249.674 691.065" stroke="black" stroke-opacity="0.25" stroke-miterlimit="10"/>
<path d="M249.674 755.456L249.674 741.146" stroke="black" stroke-opacity="0.25" stroke-miterlimit="10"/>
<path d="M241.094 741.155L249.674 741.155" stroke="black" stroke-opacity="0.25" stroke-miterlimit="10"/>
<path d="M241.094 741.155L241.094 755.465" stroke="black" stroke-opacity="0.25" stroke-miterlimit="10"/>
<path d="M139.504 676.766L139.504 755.456" stroke="black" stroke-opacity="0.25" stroke-miterlimit="10"/>
<path d="M148.094 755.456L148.094 676.766" stroke="black" stroke-opacity="0.25" stroke-miterlimit="10"/>
</g>
<defs>
<clipPath id="clip0_86_405">
<rect width="1207" height="758" fill="white" transform="translate(758 3.31332e-05) rotate(90)"/>
</clipPath>
</defs>
</svg>
