<svg width="81" height="34" xmlns="http://www.w3.org/2000/svg">
 <g id="Layer_1">
  <title>Layer 1</title>
  <g>
   <g clip-path="url(#svg_1)">
    <path fill="#42469C" d="m5.88974,22.8216l-5.88974,10.8923l12.4105,0c4.0546,0 7.7829,-2.2028 9.6905,-5.7358l5.8898,-10.8923l-12.4106,0c-4.0546,0 -7.78283,2.2028 -9.69046,5.7358z"/>
    <path fill="#42469C" d="m42.8592,33.7139l12.1204,0l-15,-27.72778c-1.9874,-3.68322 -5.8752,-5.98612 -10.1112,-5.98612l-12.1204,0l14.9928,27.7278c1.9946,3.6832 5.8824,5.9861 10.1184,5.9861z"/>
    <path fill="#00B0A2" d="m68.3338,33.7139l12.1204,0l-14.9927,-27.72778c-1.9947,-3.68322 -5.8825,-5.98612 -10.1185,-5.98612l-12.1203,0l14.9927,27.7278c1.9946,3.6832 5.8825,5.9861 10.1184,5.9861z"/>
    <path fill="white" d="m90.1592,2.68195l0,2.91797l6.3612,0l0,2.58182l-6.3612,0l0,2.73916l7.1808,0l0,2.5818l-10.0822,0l0,-13.40973l10.0822,0l0,2.58183l-7.1808,0l0,0.00715z"/>
    <path fill="white" d="m115.313,0.09297l0,13.41693l-2.901,0l0,-7.28062l-3.402,5.27092l-1.697,0l0,-0.0214l-3.424,-5.30674l0.044,7.33784l-2.923,0l0,-13.41693l2.081,0l5.085,7.88852l5.077,-7.88852l2.06,0z"/>
    <path fill="white" d="m128.797,10.9281l-6.165,0l-1.059,2.5818l-3.083,0l5.868,-13.4956l2.72,0l5.839,13.4956l-3.061,0l-1.059,-2.5818zm-1.08,-2.58187l-2.024,-4.91333l-2.002,4.91333l4.018,0l0.008,0z"/>
    <path fill="white" d="m139.003,0.09297l0,13.41693l-2.901,0l0,-13.41693l2.901,0z"/>
    <path fill="white" d="m153.032,10.9638l0,2.5461l-9.843,0l0,-13.41693l2.902,0l0,10.87083l6.941,0z"/>
    <path fill="white" d="m101.569,20.3113l0,13.4169l-2.9011,0l0,-7.2806l-3.4018,5.271l-1.6973,0l0,-0.0215l-3.4236,-5.3067l0.0435,7.3378l-2.9231,0l0,-13.4169l2.0817,0l5.0847,7.8885l5.0846,-7.8885l2.0604,0l-0.008,0z"/>
    <path fill="white" d="m115.053,31.1393l-6.165,0l-1.059,2.5818l-3.083,0l5.861,-13.4956l2.72,0l5.839,13.4956l-3.061,0l-1.059,-2.5818l0.007,0zm-1.081,-2.5819l-2.023,-4.9133l-2.002,4.9133l4.018,0l0.007,0z"/>
    <path fill="white" d="m127.616,29.5658l-2.357,0l0,4.1624l-2.902,0l0,-13.4169l5.803,0c1.574,0 2.865,0.4291 3.881,1.2802c1.015,0.8439 1.523,1.9525 1.523,3.3328c0,0.944 -0.247,1.7879 -0.754,2.5174c-0.501,0.7295 -1.197,1.2802 -2.089,1.645l3.721,4.6344l-3.482,0l-3.344,-4.1624l0,0.0071zm-2.357,-2.6247l2.8,0c0.761,0 1.392,-0.1859 1.893,-0.565c0.5,-0.3719 0.747,-0.8582 0.747,-1.4518c0,-0.5936 -0.247,-1.0728 -0.747,-1.4519c-0.501,-0.379 -1.132,-0.565 -1.893,-0.565l-2.8,0l0,4.0266l0,0.0071z"/>
    <path fill="white" d="m142.484,28.3786l-2.118,2.3673l0,2.9823l-2.901,0l0,-13.4169l2.901,0l0,6.5726l5.926,-6.5726l3.446,0l-5.281,5.9003l5.825,7.5166l-3.605,0l-4.186,-5.3496l-0.007,0z"/>
    <path fill="white" d="m156.013,22.8931l0,2.918l6.361,0l0,2.5818l-6.361,0l0,2.7392l7.181,0l0,2.5818l-10.083,0l0,-13.4169l10.083,0l0,2.5818l-7.181,0l0,0.0143z"/>
    <path fill="white" d="m177.563,22.9146l-4.541,0l0,10.8136l-2.901,0l0,-10.8136l-4.541,0l0,-2.6033l11.983,0l0,2.6033z"/>
    <path fill="white" d="m183.647,20.3113l0,13.4169l-2.901,0l0,-13.4169l2.901,0z"/>
    <path fill="white" d="m200.113,20.3113l0,13.4169l-2.241,0l-7.144,-8.146l0,8.146l-2.902,0l0,-13.4169l2.183,0l7.203,8.3677l0,-8.3677l2.901,0z"/>
    <path fill="white" d="m217.999,26.2474l0,7.4808l-2.219,0l-0.16,-1.8523c-1.03,1.4232 -2.531,2.1312 -4.519,2.1312c-1.987,0 -3.757,-0.6651 -5.099,-1.9953c-1.349,-1.3303 -2.023,-2.9323 -2.023,-4.8132c0,-2.0884 0.689,-3.8048 2.059,-5.1494c1.386,-1.3445 3.105,-2.0097 5.143,-2.0097c1.589,0 3.003,0.4363 4.243,1.3017c1.226,0.8439 2.031,2.0669 2.423,3.6689l-3.083,0c-0.536,-1.5091 -1.712,-2.2672 -3.539,-2.2672c-1.284,0 -2.321,0.4006 -3.119,1.2016c-0.798,0.801 -1.204,1.8809 -1.204,3.2326c0,1.1443 0.384,2.117 1.16,2.918c0.784,0.7867 1.806,1.1872 3.061,1.1872c0.907,0 1.683,-0.2217 2.321,-0.658c0.638,-0.4363 1.117,-1.0585 1.444,-1.8452l-4.019,0l0,-2.5246l7.145,0l-0.015,-0.0071z"/>
   </g>
   <defs transform="translate(-27.993 -232.996) translate(27.993 0) translate(0 232.996)">
    <clipPath id="svg_1">
     <rect x="0" y="0" fill="white" height="34" width="218"/>
    </clipPath>
   </defs>
  </g>
 </g>

</svg>