<svg width="63" height="72" viewBox="0 0 63 72" fill="none" xmlns="http://www.w3.org/2000/svg">
<path d="M10.1185 29.0158C9.50327 34.7531 11.1486 40.3616 14.7684 44.8112C17.7587 48.4882 19.404 52.9236 19.404 57.316C19.404 58.1029 20.0479 58.7467 20.8348 58.7467H21.9222V65.8575C21.9222 66.2438 22.0795 66.6015 22.3371 66.8734L26.5864 71.1227C26.8582 71.3802 27.2159 71.5376 27.6022 71.5376H35.128C35.5143 71.5376 35.872 71.3802 36.1438 71.1227L40.3931 66.8734C40.665 66.6015 40.808 66.2438 40.808 65.8575V58.7467H41.8954C42.6823 58.7467 43.3262 58.1029 43.3262 57.316C43.3262 52.8377 44.9143 48.4739 47.7901 45.0115C50.9663 41.1914 52.7262 36.3555 52.7262 31.3765C52.7262 25.4961 50.394 20.0307 46.159 15.953C41.924 11.8897 36.3584 9.77221 30.4637 10.0154C19.9907 10.4304 11.2345 18.5999 10.1185 29.0158ZM37.9465 65.2566L34.5414 68.6761H28.1888L24.7694 65.2566V58.7324H37.9465V65.2566ZM44.1846 17.999C47.8616 21.5186 49.879 26.2687 49.879 31.3479C49.879 35.6544 48.3624 39.8465 45.6153 43.1516C42.6108 46.757 40.8367 51.221 40.5362 55.8709H39.3773H23.3529H22.2083C21.8935 51.3068 20.0622 46.7713 16.9861 42.9942C13.8527 39.1455 12.4363 34.2952 12.9657 29.3162C13.9386 20.3168 21.5072 13.2346 30.5925 12.8626C35.686 12.6623 40.5076 14.4794 44.1846 17.999Z" fill="white"/>
<path d="M32.7951 5.86607V1.43075C32.7951 0.643836 32.1513 0 31.3643 0C30.5774 0 29.9336 0.643836 29.9336 1.43075V5.86607C29.9336 6.65298 30.5774 7.29681 31.3643 7.29681C32.1513 7.29681 32.7951 6.66729 32.7951 5.86607Z" fill="white"/>
<path d="M18.6183 10.7162C18.8615 10.7162 19.1047 10.659 19.3336 10.5302C20.0204 10.1296 20.2493 9.25684 19.863 8.57008L17.6454 4.72137C17.2448 4.03461 16.372 3.80569 15.6852 4.19199C14.9985 4.5926 14.7696 5.46536 15.1559 6.15212L17.3735 10.0008C17.6454 10.4587 18.1318 10.7162 18.6183 10.7162Z" fill="white"/>
<path d="M8.57156 19.8591C8.80048 19.9879 9.0437 20.0451 9.28693 20.0451C9.78769 20.0451 10.2598 19.7876 10.5317 19.3297C10.9323 18.643 10.6891 17.7702 10.0023 17.3696L6.15359 15.152C5.46683 14.7514 4.59408 14.9946 4.19347 15.6813C3.79286 16.3681 4.03609 17.2409 4.72285 17.6415L8.57156 19.8591Z" fill="white"/>
<path d="M0 31.3619C0 32.1488 0.643836 32.7926 1.43075 32.7926H5.86607C6.65298 32.7926 7.29681 32.1488 7.29681 31.3619C7.29681 30.575 6.65298 29.9312 5.86607 29.9312H1.43075C0.643836 29.9312 0 30.575 0 31.3619Z" fill="white"/>
<path d="M5.43967 47.758C5.6829 47.758 5.92613 47.7008 6.15505 47.572L10.0038 45.3543C10.6905 44.9537 10.9194 44.081 10.5331 43.3942C10.1325 42.7075 9.25977 42.4785 8.57301 42.8648L4.7243 45.0825C4.03754 45.4831 3.80862 46.3559 4.19492 47.0426C4.46677 47.5005 4.95322 47.758 5.43967 47.758Z" fill="white"/>
<path d="M44.114 10.7167C44.6148 10.7167 45.0869 10.4592 45.3587 10.0013L47.5764 6.15262C47.977 5.46586 47.7338 4.5931 47.047 4.19249C46.3603 3.79188 45.4875 4.03511 45.0869 4.72187L42.8693 8.57058C42.4686 9.25734 42.7119 10.1301 43.3986 10.5307C43.6275 10.6595 43.8708 10.7167 44.114 10.7167Z" fill="white"/>
<path d="M56.573 15.1515L52.7243 17.3691C52.0375 17.7697 51.8086 18.6425 52.1949 19.3293C52.4668 19.7871 52.9389 20.0446 53.4397 20.0446C53.6829 20.0446 53.9261 19.9874 54.155 19.8586L58.0038 17.641C58.6905 17.2404 58.9194 16.3676 58.5331 15.6808C58.1325 14.9941 57.2598 14.7652 56.573 15.1515Z" fill="white"/>
<path d="M62.7265 31.3619C62.7265 30.575 62.0827 29.9312 61.2958 29.9312H56.8604C56.0735 29.9312 55.4297 30.575 55.4297 31.3619C55.4297 32.1488 56.0735 32.7926 56.8604 32.7926H61.2958C62.0827 32.7926 62.7265 32.1488 62.7265 31.3619Z" fill="white"/>
<path d="M54.1575 42.8649C53.4707 42.4642 52.598 42.7075 52.1974 43.3942C51.7968 44.081 52.04 44.9537 52.7268 45.3544L56.5755 47.572C56.8044 47.7008 57.0476 47.758 57.2908 47.758C57.7916 47.758 58.2637 47.5005 58.5356 47.0426C58.9362 46.3559 58.693 45.4831 58.0062 45.0825L54.1575 42.8649Z" fill="white"/>
<path d="M28.4318 36.6131C28.7179 36.8992 29.0756 37.028 29.4476 37.028C29.8196 37.028 30.1773 36.8849 30.4634 36.6131L38.9477 28.1287C39.5057 27.5707 39.5057 26.6694 38.9477 26.1114C38.3898 25.5534 37.4884 25.5534 36.9304 26.1114L29.4619 33.5799L25.8421 29.9601C25.2841 29.4021 24.3827 29.4021 23.8247 29.9601C23.2668 30.5181 23.2668 31.4194 23.8247 31.9774L28.4318 36.6131Z" fill="white"/>
</svg>
