<svg width="25.600098" height="48.000000" viewBox="0 0 25.6001 48" fill="none" xmlns="http://www.w3.org/2000/svg" xmlns:xlink="http://www.w3.org/1999/xlink">
	<desc>
			Created with Pixso.
	</desc>
	<defs/>
	<path id="Vector" d="M22.39 6.4L17.6 6.4L17.6 2.13C17.6 0.95 16.64 0 15.46 0L10.13 0C8.95 0 8 0.95 8 2.13L8 6.4L3.19 6.4C1.43 6.4 0 7.83 0 9.59L0 44.8C0 46.56 1.43 48 3.19 48L22.39 48C24.16 48 25.6 46.56 25.6 44.8L25.6 9.59C25.6 7.83 24.16 6.4 22.39 6.4ZM10.13 2.13L15.46 2.13L15.46 6.4L10.13 6.4L10.13 2.13ZM23.46 44.8C23.46 45.38 22.98 45.86 22.39 45.86L3.19 45.86C2.61 45.86 2.13 45.38 2.13 44.8L2.13 9.59C2.13 9.01 2.61 8.53 3.19 8.53L9.06 8.53L16.53 8.53L22.39 8.53C22.98 8.53 23.46 9.01 23.46 9.59L23.46 44.8ZM19.2 24.53L16 24.53L16 16C16 15.53 15.69 15.11 15.24 14.98C14.79 14.84 14.3 15.01 14.04 15.4L5.51 28.2C5.29 28.53 5.27 28.95 5.46 29.3C5.64 29.64 6 29.86 6.39 29.86L9.6 29.86L9.6 38.4C9.6 38.86 9.9 39.28 10.35 39.41C10.45 39.45 10.56 39.46 10.66 39.46C11.01 39.46 11.35 39.29 11.55 38.99L20.08 26.19C20.3 25.86 20.32 25.44 20.13 25.09C19.95 24.75 19.59 24.53 19.2 24.53ZM11.73 34.87L11.73 28.8C11.73 28.21 11.25 27.73 10.66 27.73L8.39 27.73L13.86 19.52L13.86 25.59C13.86 26.18 14.34 26.66 14.93 26.66L17.2 26.66L11.73 34.87Z" fill="#FFFFFF" fill-opacity="1.000000" fill-rule="nonzero"/>
</svg>
