<svg width="48.000000" height="42.945312" viewBox="0 0 48 42.9453" fill="none" xmlns="http://www.w3.org/2000/svg" xmlns:xlink="http://www.w3.org/1999/xlink">
	<desc>
			Created with Pixso.
	</desc>
	<defs/>
	<path id="Union" d="M44.965 33.459C45.1838 32.8535 45.7565 32.416 46.4346 32.416C47.3004 32.416 47.998 33.1133 48 33.9805C48 34.8457 47.3024 35.543 46.4366 35.543C45.7584 35.543 45.1858 35.1055 44.9669 34.502L43.3097 34.502C43.1729 34.502 43.0381 34.4395 42.9442 34.3457L41.0153 32.416L39.5359 32.416L39.5359 33.459L40.1809 33.459C40.474 33.459 40.7026 33.6895 40.7026 33.9805C40.7026 34.2734 40.472 34.502 40.1809 34.502L39.5339 34.502L39.5339 41.3809C39.5339 42.2461 38.8363 42.9453 37.9705 42.9453L10.0375 42.9453C9.17163 42.9453 8.474 42.2461 8.474 41.3809L8.474 34.502L7.81738 34.502C7.52417 34.502 7.29553 34.2715 7.29553 33.9805C7.29553 33.6875 7.52612 33.459 7.81738 33.459L8.474 33.459L8.474 32.416L6.98474 32.416L5.05591 34.3457C4.96204 34.4492 4.82532 34.502 4.69043 34.502L3.0332 34.502C2.81421 35.1055 2.2417 35.543 1.56348 35.543C0.697754 35.543 0 34.8457 0 33.9805C0 33.1133 0.697754 32.416 1.56348 32.416C2.2417 32.416 2.81421 32.8535 3.0332 33.459L4.48328 33.4609L6.41211 31.5312C6.45325 31.4785 6.51575 31.4473 6.57825 31.416C6.64087 31.3848 6.70337 31.375 6.77563 31.375L8.474 31.373L8.474 30.332L7.81726 30.334C7.52417 30.334 7.29553 30.1016 7.29553 29.8105C7.29553 29.5176 7.52612 29.2891 7.81726 29.2891L8.474 29.2891L8.474 28.248L5.11841 28.248C4.89954 28.8516 4.3269 29.2891 3.6488 29.2891C2.78296 29.2891 2.08533 28.5918 2.08533 27.7266C2.08533 26.8594 2.78296 26.1621 3.6488 26.1621C4.3269 26.1621 4.89954 26.5996 5.11841 27.2051L8.474 27.2051L8.474 26.1621L7.81726 26.1641C7.52417 26.1641 7.29553 25.9336 7.29553 25.6426C7.29553 25.3496 7.52612 25.1211 7.81726 25.1211L8.474 25.1191L8.474 24.0781L6.77563 24.0801C6.48254 24.0801 6.25391 23.8496 6.25391 23.5566C6.25391 23.2637 6.4845 23.0352 6.77563 23.0352L8.474 23.0352L8.474 21.9941L7.81726 21.9941C7.52417 21.9941 7.29553 21.7637 7.29553 21.4727C7.29553 21.1797 7.52612 20.9512 7.81726 20.9512L8.474 20.9512L8.474 19.9082L6.77563 19.9102C6.48254 19.9102 6.25391 19.6797 6.25391 19.3887C6.25391 19.0957 6.4845 18.8672 6.77563 18.8672L8.474 18.8652L8.474 17.8242L7.81726 17.8262C7.52417 17.8262 7.29553 17.5957 7.29553 17.3027C7.29553 17.0098 7.52612 16.7812 7.81726 16.7812L8.474 16.7812L8.474 15.7402L5.11841 15.7402C4.89954 16.3438 4.3269 16.7812 3.6488 16.7812C2.78296 16.7812 2.08533 16.084 2.08533 15.2188C2.08533 14.3535 2.78296 13.6543 3.6488 13.6543C4.3269 13.6543 4.89954 14.0918 5.11841 14.6973L8.474 14.6973L8.474 13.6543L7.81726 13.6562C7.52417 13.6562 7.29553 13.4258 7.29553 13.1348C7.29553 12.8418 7.52612 12.6133 7.81726 12.6133L8.474 12.6113L8.474 11.5703L6.76392 11.5723C6.70142 11.5723 6.62903 11.5625 6.56653 11.5312C6.50403 11.5 6.45312 11.4688 6.40039 11.416L4.47144 9.48633L3.03308 9.48633C2.81421 10.0898 2.24158 10.5273 1.56348 10.5273C0.697632 10.5273 0 9.83008 0 8.96484C0 8.09961 0.697632 7.40039 1.56348 7.40039C2.24158 7.40039 2.81421 7.83789 3.03308 8.44336L4.70007 8.44336C4.83691 8.44336 4.9718 8.50586 5.06555 8.59961L6.99451 10.5273L8.47388 10.5273L8.47388 9.48633L7.81726 9.48633C7.52405 9.48633 7.29541 9.25586 7.29541 8.96484C7.29541 8.67188 7.52612 8.44336 7.81726 8.44336L8.47388 8.44336L8.47388 1.5625C8.47388 0.697266 9.17163 0 10.0374 0L37.9724 0C38.8381 0 39.5359 0.697266 39.5359 1.5625L39.5359 8.44336L40.1827 8.44336C40.476 8.44336 40.7046 8.67383 40.7046 8.96484C40.7046 9.25781 40.474 9.48633 40.1827 9.48633L39.5359 9.48633L39.5359 10.5273L41.0035 10.5273L42.9325 8.59961C43.0262 8.49609 43.1631 8.44336 43.298 8.44336L44.9552 8.44336C45.1741 7.83789 45.7467 7.40039 46.4248 7.40039C47.2906 7.40039 47.9883 8.09961 47.9883 8.96484C47.9883 9.83008 47.2906 10.5273 46.4248 10.5273C45.7467 10.5273 45.1741 10.0898 44.9552 9.48633L43.5168 9.48633L41.5879 11.416C41.5469 11.4688 41.4844 11.5 41.4218 11.5312C41.3593 11.5625 41.2968 11.5723 41.2244 11.5723L39.5359 11.5723L39.5359 12.6133L40.1827 12.6113C40.476 12.6113 40.7046 12.8418 40.7046 13.1328C40.7046 13.4258 40.474 13.6543 40.1827 13.6543L39.5359 13.6543L39.5359 14.6973L42.8817 14.6973C43.1006 14.0918 43.6731 13.6543 44.3513 13.6543C45.217 13.6543 45.9148 14.3535 45.9148 15.2188C45.9148 16.084 45.217 16.7812 44.3513 16.7812C43.6731 16.7812 43.1006 16.3438 42.8817 15.7402L39.5359 15.7402L39.5359 16.7812L40.1827 16.7812C40.476 16.7812 40.7046 17.0117 40.7046 17.3027C40.7046 17.5977 40.474 17.8262 40.1827 17.8262L39.5359 17.8262L39.5359 18.8672L41.2244 18.8652C41.5176 18.8652 41.7462 19.0957 41.7462 19.3867C41.7462 19.6797 41.5156 19.9082 41.2244 19.9082L39.5359 19.9082L39.5359 20.9512L40.1827 20.9512C40.476 20.9512 40.7046 21.1816 40.7046 21.4727C40.7046 21.7656 40.474 21.9941 40.1827 21.9941L39.5359 21.9941L39.5359 23.0352L41.2244 23.0352C41.5176 23.0352 41.7462 23.2656 41.7462 23.5566C41.7462 23.8516 41.5156 24.0801 41.2244 24.0801L39.5359 24.0801L39.5359 25.1211L40.1827 25.1191C40.476 25.1191 40.7046 25.3496 40.7046 25.6406C40.7046 25.9336 40.474 26.1621 40.1827 26.1621L39.5359 26.1621L39.5359 27.2051L42.8817 27.2051C43.1006 26.5996 43.6731 26.1621 44.3513 26.1621C45.217 26.1621 45.9148 26.8594 45.9148 27.7266C45.9148 28.5918 45.217 29.2891 44.3513 29.2891C43.6731 29.2891 43.1006 28.8516 42.8817 28.248L39.5359 28.248L39.5359 29.2891L40.1827 29.2891C40.476 29.2891 40.7046 29.5195 40.7046 29.8105C40.7046 30.1055 40.474 30.334 40.1827 30.334L39.5359 30.334L39.5359 31.375L41.2341 31.373C41.2966 31.373 41.369 31.3828 41.4315 31.4141C41.4941 31.4453 41.5449 31.4766 41.5977 31.5293L43.5266 33.459L44.965 33.459ZM37.9705 41.8906C38.2635 41.8906 38.4923 41.6602 38.4923 41.3691L38.4943 1.57617C38.4943 1.2832 38.2635 1.05273 37.9724 1.05273L10.0393 1.05273C9.74622 1.05273 9.51758 1.28516 9.51758 1.57617L9.51562 41.3691C9.51562 41.6621 9.74622 41.8906 10.0374 41.8906L37.9705 41.8906ZM11.8101 4.31641L36.2 4.31641C36.4912 4.31641 36.7218 4.54688 36.7218 4.83789L36.7218 15.1562C36.7218 15.4492 36.4912 15.6797 36.2 15.6797L11.8101 15.6797C11.517 15.6797 11.2883 15.4473 11.2883 15.1562L11.2883 4.83789C11.2883 4.54492 11.5189 4.31641 11.8101 4.31641ZM12.3319 14.6348L35.6782 14.6348L35.6802 5.35742L12.3319 5.35742L12.3319 14.6348ZM13.9675 9.41211C13.8738 9.49609 13.7604 9.52734 13.6451 9.52734C13.4985 9.52734 13.3422 9.46484 13.2386 9.31836C13.1632 9.2207 13.1259 9.10547 13.1259 8.99023C13.1259 8.83984 13.192 8.69141 13.3226 8.58984L16.8032 5.85938C17.0221 5.68164 17.3544 5.72461 17.5322 5.95312C17.6077 6.05078 17.645 6.16602 17.645 6.2793C17.645 6.43164 17.5787 6.58008 17.4481 6.68164L13.9675 9.41211ZM13.864 11.6855C13.7175 11.6855 13.5612 11.623 13.4575 11.4883C13.3812 11.3887 13.3434 11.2734 13.3434 11.1582C13.3434 11.0039 13.41 10.8535 13.5416 10.7461L19.0549 6.43164C19.2836 6.25391 19.6061 6.29688 19.7839 6.52539C19.8594 6.62305 19.8967 6.73828 19.8967 6.85352C19.8967 7.00391 19.8304 7.15234 19.6998 7.25391L14.1865 11.5703C14.0927 11.6543 13.9794 11.6855 13.864 11.6855ZM1.05347 8.96484C1.05347 9.25781 1.28406 9.48633 1.5752 9.48633C1.85669 9.48633 2.09509 9.25586 2.09705 8.96484C2.09705 8.67188 1.86646 8.44336 1.5752 8.44336C1.2821 8.44336 1.05347 8.67383 1.05347 8.96484ZM46.9564 8.97656C46.9564 8.68359 46.7258 8.45508 46.4346 8.45508C46.1532 8.45508 45.9148 8.68359 45.9128 8.97656C45.9128 9.26953 46.1434 9.49805 46.4346 9.49805C46.7278 9.49805 46.9564 9.26758 46.9564 8.97656ZM3.13672 15.2188C3.13672 15.5117 3.36731 15.7402 3.65857 15.7402C3.93994 15.7402 4.17065 15.5098 4.18042 15.2188C4.18042 14.9258 3.94971 14.6973 3.65857 14.6973C3.36536 14.6973 3.13672 14.9277 3.13672 15.2188ZM44.873 15.2188C44.873 14.9258 44.6425 14.6973 44.3513 14.6973C44.0698 14.6973 43.8392 14.9375 43.8295 15.2188C43.8295 15.5117 44.0601 15.7402 44.3513 15.7402C44.6444 15.7402 44.873 15.5098 44.873 15.2188ZM28.9984 22.0566L25.2559 22.0566C24.9646 22.0566 24.734 21.8262 24.734 21.5371L24.734 17.7949C24.734 17.502 24.9646 17.2734 25.2559 17.2734L28.9984 17.2715C29.2915 17.2715 29.5201 17.502 29.5201 17.793L29.5201 21.5352C29.5201 21.8281 29.2896 22.0566 28.9984 22.0566ZM12.7679 17.2734L16.5105 17.2734C16.8036 17.2734 17.0322 17.502 17.0322 17.7949L17.0322 21.5371C17.0322 21.8301 16.8016 22.0586 16.5105 22.0586L12.7679 22.0586C12.4747 22.0586 12.2461 21.8281 12.2461 21.5371L12.2461 17.7949C12.2461 17.502 12.4767 17.2734 12.7679 17.2734ZM19.0117 17.2734L22.7543 17.2734C23.0454 17.2734 23.276 17.502 23.276 17.7949L23.276 21.5371C23.276 21.8301 23.0454 22.0586 22.7543 22.0586L19.0117 22.0586C18.7185 22.0586 18.4899 21.8281 18.4899 21.5371L18.4899 17.7949C18.4899 17.502 18.7205 17.2734 19.0117 17.2734ZM31.4978 17.2734L35.2404 17.2734C35.5334 17.2734 35.7621 17.502 35.7621 17.7949L35.7621 21.5371C35.7621 21.8301 35.5315 22.0586 35.2404 22.0586L31.4978 22.0586C31.2046 22.0586 30.976 21.8281 30.976 21.5371L30.976 17.7949C30.976 17.502 31.2065 17.2734 31.4978 17.2734ZM28.4766 18.3145L25.7777 18.3145L25.7777 21.0137L28.4766 21.0137L28.4766 18.3145ZM13.2917 21.0137L15.9906 21.0137L15.9906 18.3145L13.2917 18.3145L13.2917 21.0137ZM19.5336 21.0137L22.2324 21.0137L22.2324 18.3145L19.5336 18.3145L19.5336 21.0137ZM32.0216 21.0137L34.7205 21.0137L34.7205 18.3145L32.0216 18.3145L32.0216 21.0137ZM12.7679 23.1289L16.5105 23.1289C16.8036 23.1289 17.0322 23.3574 17.0322 23.6504L17.0322 27.3926C17.0322 27.6855 16.8016 27.9141 16.5105 27.9141L12.7679 27.9141C12.4747 27.9141 12.2461 27.6836 12.2461 27.3926L12.2461 23.6504C12.2461 23.3574 12.4767 23.1289 12.7679 23.1289ZM19.0117 23.1289L22.7543 23.1289C23.0454 23.1289 23.276 23.3574 23.276 23.6504L23.276 27.3926C23.276 27.6855 23.0454 27.9141 22.7543 27.9141L19.0117 27.9141C18.7185 27.9141 18.4899 27.6836 18.4899 27.3926L18.4899 23.6504C18.4899 23.3574 18.7205 23.1289 19.0117 23.1289ZM25.2559 27.9141C24.9626 27.9141 24.734 27.6836 24.734 27.3926L24.734 23.6523C24.734 23.3594 24.9646 23.1309 25.2559 23.1309L28.9984 23.1289C29.2915 23.1289 29.5201 23.3594 29.5201 23.6504L29.5201 27.3926C29.5201 27.6855 29.2896 27.9141 28.9984 27.9141L25.2559 27.9141ZM31.4978 23.1289L35.2404 23.1289C35.5334 23.1289 35.7621 23.3574 35.7621 23.6504L35.7621 27.3926C35.7621 27.6855 35.5315 27.9141 35.2404 27.9141L31.4978 27.9141C31.2046 27.9141 30.976 27.6836 30.976 27.3926L30.976 23.6504C30.976 23.3574 31.2065 23.1289 31.4978 23.1289ZM13.2917 26.8711L15.9906 26.8711L15.9906 24.1719L13.2917 24.1719L13.2917 26.8711ZM19.5336 26.8711L22.2324 26.8711L22.2324 24.1719L19.5336 24.1719L19.5336 26.8711ZM32.0216 26.8711L34.7205 26.8711L34.7205 24.1719L32.0216 24.1719L32.0216 26.8711ZM28.4766 24.1719L25.7776 24.1719L25.7776 26.873L28.4766 26.8711L28.4766 24.1719ZM3.13672 27.7266C3.13672 28.0195 3.36731 28.248 3.65857 28.248C3.93994 28.248 4.17065 28.0078 4.18042 27.7266C4.18042 27.4336 3.94971 27.2031 3.65857 27.2031C3.36536 27.2031 3.13672 27.4355 3.13672 27.7266ZM44.873 27.7266C44.873 27.4336 44.6425 27.2051 44.3513 27.2051C44.0698 27.2051 43.8392 27.4355 43.8295 27.7266C43.8295 28.0195 44.0601 28.248 44.3513 28.248C44.6444 28.248 44.873 28.0176 44.873 27.7266ZM12.7679 28.9766L16.5105 28.9766C16.8036 28.9766 17.0322 29.2168 17.0322 29.498L17.0322 33.2402C17.0322 33.5332 16.8016 33.7617 16.5105 33.7617L12.7679 33.7617C12.4747 33.7617 12.2461 33.5312 12.2461 33.2402L12.2461 29.498C12.2461 29.2051 12.4767 28.9766 12.7679 28.9766ZM19.0117 28.9766L22.7543 28.9766C23.0454 28.9766 23.276 29.2168 23.276 29.498L23.276 33.2402C23.276 33.5332 23.0454 33.7617 22.7543 33.7617L19.0117 33.7617C18.7185 33.7617 18.4899 33.5312 18.4899 33.2402L18.4899 29.498C18.4899 29.2051 18.7205 28.9766 19.0117 28.9766ZM25.2559 33.7734C24.9626 33.7734 24.734 33.541 24.734 33.25L24.734 29.498C24.734 29.2051 24.9646 28.9766 25.2559 28.9766L28.9965 28.9766C29.2896 28.9766 29.5182 29.207 29.5182 29.498L29.5201 33.25C29.5201 33.543 29.2896 33.7734 28.9984 33.7734L25.2559 33.7734ZM31.4979 28.9766L35.2405 28.9766C35.5337 28.9766 35.7621 29.2168 35.7621 29.498L35.7621 39.0977C35.7621 39.3906 35.5315 39.6211 35.2402 39.6211L25.2556 39.6211C24.9625 39.6211 24.7339 39.3887 24.7339 39.0977L24.7339 35.3555C24.7339 35.0625 24.9645 34.834 25.2556 34.834L30.9762 34.8359L30.9762 29.498C30.9762 29.2051 31.2068 28.9766 31.4979 28.9766ZM13.2917 32.7285L15.9906 32.7285L15.9886 30.0176L13.2898 30.0176L13.2917 32.7285ZM19.5336 32.7285L22.2324 32.7285L22.2324 30.0176L19.5336 30.0176L19.5336 32.7285ZM28.4766 30.0176L25.7776 30.0176L25.7776 32.7188L28.4766 32.7168L28.4766 30.0176ZM25.7777 38.5762L34.7206 38.5762L34.719 30.0195L32.02 30.0195L32.022 35.3555C32.022 35.6484 31.7914 35.877 31.5001 35.877L25.7777 35.877L25.7777 38.5762ZM1.05347 33.9688C1.05347 34.2617 1.28406 34.4902 1.5752 34.4902C1.85669 34.4902 2.09509 34.2617 2.09705 33.9688C2.09705 33.6758 1.86646 33.4473 1.5752 33.4473C1.2821 33.4473 1.05347 33.6777 1.05347 33.9688ZM45.9128 33.9688C45.9128 34.2617 46.1434 34.4902 46.4346 34.4902C46.7278 34.4902 46.9564 34.2617 46.9564 33.9688C46.9564 33.6758 46.7258 33.4473 46.4346 33.4473C46.1415 33.4473 45.9128 33.6777 45.9128 33.9688ZM12.7679 34.834L16.5105 34.834C16.8036 34.834 17.0322 35.0645 17.0322 35.3555L17.0322 39.0977C17.0322 39.3906 16.8016 39.6191 16.5105 39.6191L12.7679 39.6191C12.4747 39.6191 12.2461 39.3887 12.2461 39.0977L12.2461 35.3555C12.2461 35.0625 12.4767 34.834 12.7679 34.834ZM19.0117 34.834L22.7543 34.834C23.0454 34.834 23.276 35.0645 23.276 35.3555L23.276 39.0977C23.276 39.3906 23.0454 39.6191 22.7543 39.6191L19.0117 39.6191C18.7185 39.6191 18.4899 39.3887 18.4899 39.0977L18.4899 35.3555C18.4899 35.0625 18.7205 34.834 19.0117 34.834ZM13.2917 38.5762L15.9906 38.5762L15.9906 35.877L13.2917 35.877L13.2917 38.5762ZM19.5336 38.5762L22.2324 38.5762L22.2324 35.877L19.5336 35.877L19.5336 38.5762Z" clip-rule="evenodd" fill="#FFFFFF" fill-opacity="1.000000" fill-rule="evenodd"/>
</svg>
