<svg width="43.199951" height="48.000000" viewBox="0 0 43.2 48" fill="none" xmlns="http://www.w3.org/2000/svg" xmlns:xlink="http://www.w3.org/1999/xlink">
	<desc>
			Created with Pixso.
	</desc>
	<defs/>
	<path id="Union" d="M4 0L39.2 0C41.4055 0 43.2 1.79492 43.2 4L43.2 37.5996C43.2 38.043 42.8418 38.4004 42.3999 38.4004C41.9583 38.4004 41.6001 38.043 41.6001 37.5996L41.6001 17.918L1.6001 17.918L1.6001 44C1.6001 45.3242 2.67651 46.4004 4 46.4004L39.2 46.4004C40.5234 46.4004 41.6001 45.3242 41.6001 44L41.6001 41.1406C41.6001 40.6992 41.9583 40.3398 42.3999 40.3398C42.8418 40.3398 43.2 40.6992 43.2 41.1406L43.2 44C43.2 46.2051 41.4055 48 39.2 48L4 48C1.79443 48 0 46.2051 0 44L0 4C0 1.79492 1.79443 0 4 0ZM1.6001 4L1.6001 16.3164L41.6001 16.3164L41.6001 4C41.6001 2.67578 40.5234 1.59961 39.2 1.59961L4 1.59961C2.67651 1.59961 1.6001 2.67578 1.6001 4ZM13.4336 4.80078L37.6001 4.80078C38.0417 4.80078 38.3999 5.1582 38.3999 5.59961L38.3999 12.3164C38.3999 12.7598 38.0417 13.1172 37.6001 13.1172L5.6001 13.1172C5.1582 13.1172 4.80005 12.7598 4.80005 12.3164L4.80005 5.59961C4.80005 5.1582 5.1582 4.80078 5.6001 4.80078L10.2258 4.80078C10.6675 4.80078 11.0259 5.1582 11.0259 5.59961C11.0259 6.04297 10.6675 6.40039 10.2258 6.40039L6.3999 6.40039L6.3999 11.5176L36.8 11.5176L36.8 6.40039L13.4336 6.40039C12.9917 6.40039 12.6335 6.04297 12.6335 5.59961C12.6335 5.1582 12.9917 4.80078 13.4336 4.80078ZM10.9331 21.1172C11.375 21.1172 11.7332 21.4746 11.7332 21.918L11.7332 26.7168C11.7332 27.1602 11.375 27.5176 10.9331 27.5176L5.6001 27.5176C5.1582 27.5176 4.80005 27.1602 4.80005 26.7168L4.80005 21.918C4.80005 21.4746 5.1582 21.1172 5.6001 21.1172L10.9331 21.1172ZM19.8223 21.1172C20.2642 21.1172 20.6223 21.4746 20.6223 21.918L20.6223 26.7168C20.6223 27.1602 20.2642 27.5176 19.8223 27.5176L14.489 27.5176C14.0474 27.5176 13.689 27.1602 13.689 26.7168L13.689 21.918C13.689 21.4746 14.0474 21.1172 14.489 21.1172L19.8223 21.1172ZM28.7109 21.1172C29.1528 21.1172 29.511 21.4746 29.511 21.918L29.511 26.7168C29.511 27.1602 29.1528 27.5176 28.7109 27.5176L23.3777 27.5176C22.936 27.5176 22.5776 27.1602 22.5776 26.7168L22.5776 21.918C22.5776 21.4746 22.936 21.1172 23.3777 21.1172L28.7109 21.1172ZM37.6001 21.1172C38.0417 21.1172 38.3999 21.4746 38.3999 21.918L38.3999 26.7168C38.3999 27.1602 38.0417 27.5176 37.6001 27.5176L32.2668 27.5176C31.825 27.5176 31.4668 27.1602 31.4668 26.7168L31.4668 21.918C31.4668 21.4746 31.825 21.1172 32.2668 21.1172L37.6001 21.1172ZM6.3999 25.918L10.1333 25.918L10.1333 22.7168L6.3999 22.7168L6.3999 25.918ZM15.2891 25.918L19.0222 25.918L19.0222 22.7168L15.2891 22.7168L15.2891 25.918ZM24.1777 25.918L27.9109 25.918L27.9109 22.7168L24.1777 22.7168L24.1777 25.918ZM33.0669 25.918L36.8 25.918L36.8 22.7168L33.0669 22.7168L33.0669 25.918ZM10.9331 28.959C11.375 28.959 11.7332 29.3164 11.7332 29.7578L11.7332 34.5586C11.7332 35 11.375 35.3594 10.9331 35.3594L5.6001 35.3594C5.1582 35.3594 4.80005 35 4.80005 34.5586L4.80005 29.7578C4.80005 29.3164 5.1582 28.959 5.6001 28.959L10.9331 28.959ZM19.8223 28.959C20.2642 28.959 20.6223 29.3164 20.6223 29.7578L20.6223 34.5586C20.6223 35 20.2642 35.3594 19.8223 35.3594L14.489 35.3594C14.0474 35.3594 13.689 35 13.689 34.5586L13.689 29.7578C13.689 29.3164 14.0474 28.959 14.489 28.959L19.8223 28.959ZM28.7109 28.959C29.1528 28.959 29.511 29.3164 29.511 29.7578L29.511 34.5586C29.511 35 29.1528 35.3594 28.7109 35.3594L23.3777 35.3594C22.936 35.3594 22.5776 35 22.5776 34.5586L22.5776 29.7578C22.5776 29.3164 22.936 28.959 23.3777 28.959L28.7109 28.959ZM37.6001 28.959C38.0417 28.959 38.3999 29.3164 38.3999 29.7578L38.3999 34.5586C38.3999 35 38.0417 35.3594 37.6001 35.3594L32.2668 35.3594C31.825 35.3594 31.4668 35 31.4668 34.5586L31.4668 29.7578C31.4668 29.3164 31.825 28.959 32.2668 28.959L37.6001 28.959ZM6.3999 33.7578L10.1333 33.7578L10.1333 30.5586L6.3999 30.5586L6.3999 33.7578ZM15.2891 33.7578L19.0222 33.7578L19.0222 30.5586L15.2891 30.5586L15.2891 33.7578ZM24.1777 33.7578L27.9109 33.7578L27.9109 30.5586L24.1777 30.5586L24.1777 33.7578ZM33.0669 33.7578L36.8 33.7578L36.8 30.5586L33.0669 30.5586L33.0669 33.7578ZM5.6001 36.8008L10.9331 36.8008C11.375 36.8008 11.7332 37.1582 11.7332 37.5996L11.7332 42.4004C11.7332 42.8418 11.375 43.1992 10.9331 43.1992L5.6001 43.1992C5.1582 43.1992 4.80005 42.8418 4.80005 42.4004L4.80005 37.5996C4.80005 37.1582 5.1582 36.8008 5.6001 36.8008ZM14.489 36.8008L19.8223 36.8008C20.2642 36.8008 20.6223 37.1582 20.6223 37.5996L20.6223 42.4004C20.6223 42.8418 20.2642 43.1992 19.8223 43.1992L14.489 43.1992C14.0474 43.1992 13.689 42.8418 13.689 42.4004L13.689 37.5996C13.689 37.1582 14.0474 36.8008 14.489 36.8008ZM23.3777 36.8008L28.7109 36.8008C29.1528 36.8008 29.511 37.1582 29.511 37.5996L29.511 42.4004C29.511 42.8418 29.1528 43.1992 28.7109 43.1992L23.3777 43.1992C22.936 43.1992 22.5776 42.8418 22.5776 42.4004L22.5776 37.5996C22.5776 37.1582 22.936 36.8008 23.3777 36.8008ZM32.2668 36.8008L37.6001 36.8008C38.0417 36.8008 38.3999 37.1582 38.3999 37.5996L38.3999 42.4004C38.3999 42.8418 38.0417 43.1992 37.6001 43.1992L32.2668 43.1992C31.825 43.1992 31.4668 42.8418 31.4668 42.4004L31.4668 37.5996C31.4668 37.1582 31.825 36.8008 32.2668 36.8008ZM6.3999 41.5996L10.1333 41.5996L10.1333 38.4004L6.3999 38.4004L6.3999 41.5996ZM15.2891 41.5996L19.0222 41.5996L19.0222 38.4004L15.2891 38.4004L15.2891 41.5996ZM24.1777 41.5996L27.9109 41.5996L27.9109 38.4004L24.1777 38.4004L24.1777 41.5996ZM33.0669 41.5996L36.8 41.5996L36.8 38.4004L33.0669 38.4004L33.0669 41.5996Z" clip-rule="evenodd" fill="#FFFFFF" fill-opacity="1.000000" fill-rule="evenodd"/>
</svg>
