<svg width="46.043823" height="47.996094" viewBox="0 0 46.0438 47.9961" fill="none" xmlns="http://www.w3.org/2000/svg" xmlns:xlink="http://www.w3.org/1999/xlink">
	<desc>
			Created with Pixso.
	</desc>
	<defs/>
	<path id="Union" d="M22.4016 41.041L5.08557 41.041C3.33496 41.041 1.91211 39.6152 1.91211 37.8652L1.91211 5.08594C1.91211 3.33594 3.33496 1.91211 5.08557 1.91211L31.3776 1.91211C33.1282 1.91211 34.5511 3.33594 34.5511 5.08594L34.5511 19.2285C34.5511 19.7578 34.9794 20.1836 35.5063 20.1836C36.0353 20.1836 36.4615 19.7559 36.4615 19.2285L36.4635 5.08594C36.4635 2.28125 34.182 0 31.3778 0L5.08569 0C2.28125 0 0 2.28125 0 5.08594L0 37.8672C0 40.6738 2.28149 42.9531 5.08569 42.9531L22.4017 42.9531C22.9307 42.9531 23.3569 42.5254 23.3569 41.998C23.3569 41.4688 22.9286 41.043 22.4017 41.043L22.4016 41.041ZM12.6921 5.80664C12.3191 5.43359 11.7152 5.43359 11.3402 5.80664L8.56335 8.58008L7.245 7.26367C6.87195 6.89258 6.26611 6.89062 5.89111 7.26562C5.70483 7.45312 5.61157 7.69727 5.61157 7.94141C5.61157 8.1875 5.70532 8.43164 5.89307 8.61914L7.88831 10.6133C8.07581 10.7988 8.32056 10.8926 8.56531 10.8926C8.80994 10.8926 9.05469 10.7988 9.24219 10.6113L12.694 7.16016C12.8805 6.97266 12.9738 6.72852 12.9738 6.48438C12.9738 6.23828 12.8805 5.99414 12.694 5.80859L12.6921 5.80664ZM29.8939 7.24609L15.4214 7.24609C14.8925 7.24609 14.4662 7.67383 14.4662 8.20117C14.4662 8.73047 14.8944 9.15625 15.4214 9.15625L29.8939 9.15625C30.4229 9.15625 30.8491 8.72852 30.8491 8.20117C30.8491 7.67188 30.4208 7.24609 29.8939 7.24609ZM11.9801 14.2754C11.6071 13.9023 11.0032 13.9023 10.6282 14.2754L9.29407 15.6094L7.95984 14.2754C7.58691 13.9023 6.98291 13.9023 6.60803 14.2754C6.42151 14.4609 6.32825 14.7051 6.32825 14.9512C6.32825 15.1953 6.42151 15.4395 6.60803 15.627L7.94214 16.9609L6.60803 18.2949C6.42151 18.4805 6.32825 18.7266 6.32825 18.9707C6.32825 19.2148 6.42151 19.4609 6.60803 19.6465C6.79553 19.834 7.04016 19.9277 7.28491 19.9277C7.52966 19.9277 7.77429 19.834 7.96179 19.6465L9.2959 18.3125L10.6301 19.6465C10.8175 19.834 11.0623 19.9277 11.307 19.9277C11.5516 19.9277 11.7964 19.834 11.9839 19.6465C12.1704 19.4609 12.2637 19.2148 12.2637 18.9707C12.2637 18.7266 12.1704 18.4805 11.9839 18.2949L10.6498 16.9609L11.9839 15.627C12.1704 15.4395 12.2637 15.1953 12.2637 14.9512C12.2637 14.7051 12.1704 14.4609 11.9839 14.2754L11.9801 14.2754ZM29.8939 16L15.4214 16C14.8925 16 14.4662 16.4277 14.4662 16.9551C14.4662 17.4844 14.8944 17.9102 15.4214 17.9102L29.8939 17.9102C30.4229 17.9102 30.8491 17.4824 30.8491 16.9551C30.8491 16.4258 30.4208 16 29.8939 16ZM44.7998 22.4473L41.6085 20.375C40.9988 19.9727 40.2626 19.834 39.55 19.9941C38.8357 20.1445 38.2219 20.5664 37.8252 21.1777L26.4199 38.7422C25.7737 39.7383 25.4351 40.8789 25.4351 42.0566C25.4351 42.1309 25.4364 42.2051 25.4391 42.2793L25.6049 47.0723C25.6167 47.3848 25.7786 47.6738 26.0391 47.8418C26.1969 47.9453 26.3785 47.9961 26.5601 47.9961C26.6804 47.9961 26.8029 47.9746 26.9192 47.9277L31.3657 46.1289C32.5302 45.6582 33.509 44.8516 34.1979 43.7949L45.6051 26.2305C45.902 25.7715 46.0438 25.2559 46.0438 24.7461C46.0438 23.8516 45.6051 22.9727 44.7998 22.4492L44.7998 22.4473ZM43.9985 25.1875L42.9781 26.7598L38.4073 23.791L39.4277 22.2188C39.5481 22.0352 39.7316 21.9102 39.9468 21.8633C40.0039 21.8516 40.0612 21.8438 40.1204 21.8438C40.2783 21.8438 40.4323 21.8906 40.5664 21.9766L43.7577 24.0488C44.0005 24.207 44.1327 24.4707 44.1327 24.7402C44.1327 24.8945 44.0898 25.0488 44.0005 25.1855L43.9985 25.1875ZM12.6921 23.3027C12.3191 22.9316 11.7131 22.9297 11.3383 23.3047L8.56335 26.082L7.245 24.7656C6.87195 24.3945 6.26611 24.3926 5.89111 24.7676C5.70483 24.9531 5.61157 25.1973 5.61157 25.4434C5.61157 25.6875 5.70532 25.9336 5.89307 26.1211L7.88831 28.1152C8.07581 28.3008 8.32056 28.3926 8.56531 28.3926C8.80994 28.3926 9.05664 28.3008 9.24219 28.1133L12.694 24.6582C12.8802 24.4727 12.9735 24.2285 12.9735 23.9844C12.9735 23.7383 12.8798 23.4922 12.692 23.3047L12.6921 23.3027ZM30.8488 25.709C30.8488 25.1797 30.4204 24.7539 29.8936 24.7539L15.421 24.7539C14.8921 24.7539 14.4658 25.1816 14.4658 25.709C14.4658 26.2383 14.894 26.6641 15.421 26.6641L29.8936 26.6641C30.4225 26.6641 30.8488 26.2363 30.8488 25.709ZM32.5933 42.752C32.1196 43.4766 31.4486 44.0293 30.6493 44.3535L27.4698 45.6406L27.3495 42.2129C27.3475 42.1602 27.3467 42.1094 27.3467 42.0586C27.3467 41.25 27.5807 40.4688 28.0225 39.7852L37.3652 25.3965L41.936 28.3652L32.5933 42.7539L32.5933 42.752ZM11.9801 31.7793C11.6071 31.4062 11.0032 31.4062 10.6282 31.7793L9.29407 33.1133L7.95984 31.7793C7.58691 31.4062 6.98291 31.4062 6.60803 31.7793C6.42151 31.9648 6.32825 32.209 6.32825 32.4551C6.32825 32.6992 6.42151 32.9434 6.60803 33.1309L7.94214 34.4648L6.60803 35.7988C6.42151 35.9844 6.32825 36.2305 6.32825 36.4746C6.32825 36.7188 6.42151 36.9648 6.60803 37.1504C6.79553 37.3379 7.04016 37.4316 7.28491 37.4316C7.52966 37.4316 7.77429 37.3379 7.96179 37.1504L9.2959 35.8164L10.6301 37.1504C10.8175 37.3379 11.0623 37.4316 11.307 37.4316C11.5516 37.4316 11.7964 37.3379 11.9839 37.1504C12.1704 36.9648 12.2637 36.7188 12.2637 36.4746C12.2637 36.2305 12.1704 35.9844 11.9839 35.7988L10.6498 34.4648L11.9839 33.1309C12.1704 32.9434 12.2637 32.6992 12.2637 32.4551C12.2637 32.209 12.1704 31.9648 11.9839 31.7793L11.9801 31.7793ZM15.4174 33.498C14.8884 33.498 14.4622 33.9258 14.4622 34.4531C14.4622 34.9824 14.8904 35.4082 15.4174 35.4082L25.605 35.4082C26.1339 35.4082 26.5602 34.9805 26.5602 34.4531C26.5602 33.9238 26.1318 33.498 25.605 33.498L15.4174 33.498Z" clip-rule="evenodd" fill="#FFFFFF" fill-opacity="1.000000" fill-rule="evenodd"/>
</svg>
