<svg width="48.000000" height="34.054688" viewBox="0 0 48 34.0547" fill="none" xmlns="http://www.w3.org/2000/svg" xmlns:xlink="http://www.w3.org/1999/xlink">
	<desc>
			Created with Pixso.
	</desc>
	<defs/>
	<path id="Vector" d="M47.1 32.25L45.09 32.25L45.09 19.21C45.09 18.71 44.68 18.31 44.19 18.31L37.67 18.31C37.18 18.31 36.77 18.71 36.77 19.21L36.77 32.25L33.8 32.25L33.8 6.15C33.8 5.66 33.4 5.25 32.9 5.25L26.38 5.25C25.89 5.25 25.49 5.66 25.49 6.15L25.49 32.25L22.51 32.25L22.51 12.47C22.51 11.98 22.11 11.58 21.61 11.58L15.1 11.58C14.6 11.58 14.2 11.98 14.2 12.47L14.2 32.25L11.22 32.25L11.22 0.89C11.22 0.4 10.81 0 10.32 0L3.8 0C3.3 0 2.9 0.4 2.9 0.89L2.9 32.25L0.89 32.25C0.4 32.25 0 32.66 0 33.15C0 33.65 0.4 34.05 0.89 34.05L47.1 34.05C47.59 34.05 48 33.65 48 33.15C48 32.66 47.59 32.25 47.1 32.25L47.1 32.25ZM4.7 32.25L4.7 1.79L9.42 1.79L9.42 32.25L4.7 32.25ZM15.99 32.25L15.99 13.37L20.71 13.37L20.71 32.25L15.99 32.25ZM27.28 32.25L27.28 7.05L32 7.05L32 32.25L27.28 32.25ZM38.57 32.25L38.57 20.11L43.29 20.11L43.29 32.25L38.57 32.25Z" fill="#FFFFFF" fill-opacity="1.000000" fill-rule="nonzero"/>
</svg>
