<svg width="20.800049" height="48.000000" viewBox="0 0 20.8 48" fill="none" xmlns="http://www.w3.org/2000/svg" xmlns:xlink="http://www.w3.org/1999/xlink">
	<desc>
			Created with Pixso.
	</desc>
	<defs/>
	<path id="Vector" d="M20 8L16.79 8L16.79 0.8C16.79 0.58 16.71 0.38 16.56 0.23C16.41 0.08 16.21 0 16 0L4.8 0C4.58 0 4.38 0.08 4.23 0.23C4.08 0.38 4 0.58 4 0.8L4 8L0.8 8C0.58 8 0.38 8.08 0.23 8.23C0.08 8.38 0 8.58 0 8.8L0 20C0 21.9 0.52 23.76 1.51 25.38C2.5 27.01 3.91 28.33 5.6 29.21L5.6 34.4C5.6 34.61 5.68 34.81 5.83 34.96C5.98 35.11 6.18 35.19 6.39 35.19L7.19 35.19L7.19 47.19C7.19 47.41 7.28 47.61 7.43 47.76C7.58 47.91 7.78 48 8 48C8.21 48 8.41 47.91 8.56 47.76C8.71 47.61 8.8 47.41 8.8 47.19L8.8 35.19L12 35.19L12 47.19C12 47.41 12.08 47.61 12.23 47.76C12.38 47.91 12.58 48 12.8 48C13.01 48 13.21 47.91 13.36 47.76C13.51 47.61 13.6 47.41 13.6 47.19L13.6 35.19L14.39 35.19C14.61 35.19 14.81 35.11 14.96 34.96C15.11 34.81 15.2 34.61 15.2 34.4L15.2 29.21C16.88 28.33 18.29 27.01 19.28 25.38C20.27 23.76 20.79 21.9 20.8 20L20.8 8.8C20.8 8.58 20.71 8.38 20.56 8.23C20.41 8.08 20.21 8 20 8ZM5.6 1.59L15.2 1.59L15.2 8L5.6 8L5.6 1.59ZM13.6 33.59L7.19 33.59L7.19 29.88C9.27 30.57 11.52 30.57 13.6 29.88L13.6 33.59ZM19.2 20C19.2 22.33 18.27 24.57 16.62 26.22C14.97 27.87 12.73 28.8 10.39 28.8C8.06 28.8 5.82 27.87 4.17 26.22C2.52 24.57 1.6 22.33 1.6 20L1.6 9.59L19.2 9.59L19.2 20Z" fill="#FFFFFF" fill-opacity="1.000000" fill-rule="nonzero"/>
	<path id="Vector" d="M15.19 18.4L12.92 18.4L13.59 13.71C13.61 13.55 13.58 13.39 13.51 13.25C13.45 13.11 13.33 12.99 13.2 12.91C13.06 12.83 12.9 12.79 12.74 12.8C12.58 12.81 12.43 12.87 12.31 12.96L5.11 18.56C4.98 18.66 4.88 18.81 4.83 18.97C4.78 19.13 4.79 19.3 4.84 19.45C4.89 19.61 5 19.75 5.13 19.84C5.27 19.94 5.43 20 5.59 20L7.87 20L7.2 24.68C7.18 24.84 7.21 25 7.28 25.14C7.34 25.29 7.45 25.41 7.59 25.49C7.73 25.57 7.89 25.6 8.05 25.59C8.2 25.58 8.36 25.52 8.48 25.43L15.68 19.83C15.81 19.73 15.91 19.58 15.96 19.42C16.01 19.27 16 19.09 15.95 18.94C15.9 18.78 15.79 18.64 15.66 18.55C15.52 18.45 15.36 18.4 15.19 18.4ZM9.07 22.95L9.59 19.31C9.6 19.2 9.59 19.08 9.56 18.97C9.53 18.86 9.47 18.76 9.4 18.67C9.32 18.58 9.23 18.52 9.13 18.47C9.02 18.42 8.91 18.4 8.79 18.4L7.93 18.4L11.72 15.44L11.2 19.08C11.19 19.2 11.19 19.31 11.23 19.42C11.26 19.53 11.32 19.63 11.39 19.72C11.47 19.81 11.56 19.88 11.66 19.92C11.77 19.97 11.88 20 11.99 20L12.86 20L9.07 22.95Z" fill="#FFFFFF" fill-opacity="1.000000" fill-rule="nonzero"/>
</svg>
