<?xml version="1.0" encoding="UTF-8"?><svg id="Layer_1" xmlns="http://www.w3.org/2000/svg" viewBox="0 0 1920 1080"><rect x="1251.72" y="185.57" width="31.28" height=".5" fill="#7e786e"/><rect x="1306.45" y="185.57" width="31.28" height=".5" fill="#7e786e"/><rect x="1361.17" y="185.57" width="31.28" height=".5" fill="#7e786e"/><path d="M1641.53,185.57h-225.64v.5h28.56v71.12h-52.1v-47.7h-195.11v-23.43h31.03v-.5h-31.53v23.93h-32.9v.5h32.9v47.2h-88.14v-47.2h24.49v-.5h-24.49v-47.74h-195.82v47.74h-24.49v.5h24.49v47.2h-51.99v-47.2h9.51v-.5h-215.06v.5h9.51v47.2h-51.96v-47.2h23.38v-.5h-23.38v-47.7h-196.07v24.29h-37.88v.5h37.88v70.61h-87.76v-70.62h26v-.5h-76.5v732.16h1326.48v-461.06h36.58V185.57ZM1444.95,186.07h196.08v71.12h-196.08v-71.12ZM1604.95,257.7h36.08v47.83h-36.08v-47.83ZM913.29,162.26h194.82v94.93h-194.82v-94.93ZM417.24,162.3h195.07v94.89h-195.07v-94.89ZM665.27,257.7v-47.7h195.04v47.7h336.95v-47.7h194.61v47.7h212.6v597.98h-247.68v62.06h-283.39v-85.74h-92.32v85.74H455.82v-71.53h-102.89v71.53h-23.95V257.7h336.29ZM1574.75,917.74h-217.48v-61.56h247.18v37.69h-29.7v23.86ZM1072.88,917.74h-91.32v-85.24h91.32v85.24ZM455.32,917.74h-101.89v-71.03h101.89v71.03ZM328.47,186.57v731.16h-22.91v-71.53h-26.6v-22.87h26.6v-235h-26.6v-12.54h26.6V209.48h-26.6v-22.9h49.5ZM278.97,588.83h26.1v234h-26.1v-234ZM278.97,575.28V209.98h26.1v365.31h-26.1ZM278.97,846.7h26.1v71.03h-26.1v-71.03ZM1575.25,917.74v-23.36h29.2v23.36h-29.2ZM1604.95,456.68v-150.65h36.08v150.65h-36.08Z" fill="#7e786e"/><path d="M1581.38,280.66h-212.81v-47.31h-148.46v352.25h361.27v-304.95ZM1580.88,585.1h-360.27V233.85h147.46v47.31h212.81v303.95Z" fill="#7e786e"/><path d="M1096.79,894.4h236.54v-61.56h248.04v-235.9h-361.27v70.64h-123.32v226.82ZM1097.29,668.07h123.32v-70.64h360.27v234.9h-248.04v61.56h-235.54v-225.82Z" fill="#7e786e"/><path d="M1208.36,655.9v-129.52h-512.79v129.52h289.41v152.63h100.34v-152.63h123.04ZM1020.54,546.69l-3.83,8.37h-8.61v-28.19h12.44v19.81ZM1021.04,526.87h8.55l-8.55,18.72v-18.72ZM891.18,555.06h-12.08l12.08-12.08v12.08ZM891.18,555.56v12.08l-12.08-12.08h12.08ZM891.68,555.56h12.44v28.19h-12.44v-28.19ZM904.61,555.56h12.44v28.19h-12.44v-28.19ZM917.55,555.56h12.44v28.19h-12.44v-28.19ZM930.48,555.56h12.44v28.19h-12.44v-28.19ZM943.42,555.56h12.44v28.19h-12.44v-28.19ZM956.36,555.56h12.44v28.19h-12.44v-28.19ZM969.29,555.56h12.44v28.19h-12.44v-28.19ZM982.23,555.56h12.44v28.19h-12.44v-28.19ZM995.17,555.56h12.44v19.44l-4,8.74h-8.44v-28.19ZM1008.1,555.56h8.38l-8.38,18.35v-18.35ZM1007.6,555.06h-12.44v-28.19h12.44v28.19ZM994.67,555.06h-12.44v-28.19h12.44v28.19ZM981.73,555.06h-12.44v-28.19h12.44v28.19ZM968.79,555.06h-12.44v-28.19h12.44v28.19ZM955.86,555.06h-12.44v-28.19h12.44v28.19ZM942.92,555.06h-12.44v-28.19h12.44v28.19ZM929.98,555.06h-12.44v-28.19h12.44v28.19ZM917.05,555.06h-12.44v-28.19h12.44v28.19ZM904.11,555.06h-12.44v-28.19h12.44v28.19ZM891.18,542.27l-12.44,12.44v-27.83h12.44v15.4ZM891.18,568.35v15.4h-12.44v-27.83l12.44,12.44ZM878.74,584.24h125.19l26.21-57.37h3.2l-26.05,57.02-.16.35h78.1v4.35h-206.48v-4.35ZM1059.85,583.74v-28.19h12.44v28.19h-12.44ZM1033.47,567.64l-12.08-12.08h12.08v12.08ZM1021.39,555.06l12.08-12.08v12.08h-12.08ZM1033.47,542.27l-12.2,12.2,12.2-26.69v14.5ZM1007.9,583.74l12.64-27.66v27.66h-12.64ZM1021.04,555.91l12.44,12.44v15.4h-12.44v-27.83ZM1033.97,555.56h12.44v28.19h-12.44v-28.19ZM1046.91,555.56h12.44v28.19h-12.44v-28.19ZM1059.85,555.06v-28.19h12.44v28.19h-12.44ZM1059.35,555.06h-12.44v-28.19h12.44v28.19ZM1046.41,555.06h-12.44v-28.19h12.44v28.19ZM1085.22,583.74h-12.44v-28.19h12.44v28.19ZM1085.22,555.06h-12.44v-28.19h12.44v28.19ZM696.06,526.87h182.17v62.22h207.48v-62.22h122.14v128.52h-511.79v-128.52ZM1084.81,808.02h-99.34v-152.13h99.34v152.13Z" fill="#7e786e"/><path d="M1082.65,780.41v-110.8h-22.84v9.01h14.34v92.69h-78.02v-92.69h14.34v-9.01h-22.84v110.8h95.02ZM988.13,670.12h21.84v8.01h-14.34v93.69h79.02v-93.69h-14.34v-8.01h21.84v109.8h-94.02v-109.8Z" fill="#7e786e"/><path d="M684.55,526.37h-331.62v296.48h126.24v71.55h109.99v-238.48h95.39v-129.54ZM588.66,655.41v238.48h-108.99v-71.55h-126.24v-295.48h330.62v128.54s-95.39,0-95.39,0Z" fill="#7e786e"/><path d="M837.09,515.79V233.27h-148.47v47.39h-335.69v235.13h484.16ZM353.43,281.16h335.69v-47.39h147.47v281.52h-483.16v-234.13Z" fill="#7e786e"/><path d="M1208.36,280.66h-360.76v235.13h360.76v-235.13ZM1207.86,515.29h-359.76v-234.13h359.76v234.13Z" fill="#7e786e"/><path d="M1000.24,769.52h69.81v-88.84h-69.81v88.84ZM1000.74,681.18h68.81v87.84h-68.81v-87.84Z" fill="#7e786e"/><polygon points="763.28 554.94 786.77 554.94 775.02 534.59 763.28 554.94" fill="#7e786e"/><polygon points="723.84 631.75 723.84 608.26 703.5 620.01 723.84 631.75" fill="#7e786e"/><polygon points="1139.96 555.01 1163.45 555.01 1151.7 534.66 1139.96 555.01" fill="#7e786e"/><polygon points="1151.7 647.6 1163.45 627.26 1139.96 627.26 1151.7 647.6" fill="#7e786e"/><path d="M875.69,667.32h-275.11v227.08h357.12v-85.87h15.79v-122.18s-97.8,0-97.8,0v-19.03ZM973,686.85v121.18h-15.79v85.87h-356.12s0-226.08,0-226.08h274.11v19.03h97.8Z" fill="#7e786e"/></svg>