<svg width="1310" height="780" viewBox="0 0 1310 780" fill="none" xmlns="http://www.w3.org/2000/svg">
<g clip-path="url(#clip0_220_473)">
<path d="M0 705.457L27.2153 705.312" stroke="#F7F4F0" stroke-opacity="0.4" stroke-miterlimit="10"/>
<path d="M27.2153 705.312L27.2462 779.341" stroke="#F7F4F0" stroke-opacity="0.4" stroke-miterlimit="10"/>
<path d="M27.2463 779.341L51.8761 778.847" stroke="#F7F4F0" stroke-opacity="0.4" stroke-miterlimit="10"/>
<path d="M51.8759 778.847L51.7832 705.662" stroke="#F7F4F0" stroke-opacity="0.4" stroke-miterlimit="10"/>
<path d="M51.7832 705.662L51.5154 25.5239" stroke="#F7F4F0" stroke-opacity="0.4" stroke-miterlimit="10"/>
<path d="M51.5155 25.5239L0 25.5445" stroke="#F7F4F0" stroke-opacity="0.4" stroke-miterlimit="10"/>
<path d="M0 426.258L27.1123 426.237" stroke="#F7F4F0" stroke-opacity="0.4" stroke-miterlimit="10"/>
<path d="M27.1123 426.237L26.9578 50.0903" stroke="#F7F4F0" stroke-opacity="0.4" stroke-miterlimit="10"/>
<path d="M26.9578 50.0801L0 50.1007" stroke="#F7F4F0" stroke-opacity="0.4" stroke-miterlimit="10"/>
<path d="M0 779.485L27.5965 779.341" stroke="#F7F4F0" stroke-opacity="0.4" stroke-miterlimit="10"/>
<path d="M27.5965 779.341L27.2153 705.312" stroke="#F7F4F0" stroke-opacity="0.4" stroke-miterlimit="10"/>
<path d="M27.2153 705.312L0 705.457" stroke="#F7F4F0" stroke-opacity="0.4" stroke-miterlimit="10"/>
<path d="M142.432 0.5354L142.443 98.7085" stroke="#F7F4F0" stroke-opacity="0.4" stroke-miterlimit="10"/>
<path d="M142.443 98.7086L343.89 98.688" stroke="#F7F4F0" stroke-opacity="0.4" stroke-miterlimit="10"/>
<path d="M343.89 98.688V0.514893" stroke="#F7F4F0" stroke-opacity="0.4" stroke-miterlimit="10"/>
<path d="M343.879 0.514893L142.443 0.535485" stroke="#F7F4F0" stroke-opacity="0.4" stroke-miterlimit="10"/>
<path d="M653.426 98.6571L854.862 98.6365" stroke="#F7F4F0" stroke-opacity="0.4" stroke-miterlimit="10"/>
<path d="M854.862 98.6365L854.852 0.566406" stroke="#F7F4F0" stroke-opacity="0.4" stroke-miterlimit="10"/>
<path d="M854.852 0.566406L653.415 0.586998" stroke="#F7F4F0" stroke-opacity="0.4" stroke-miterlimit="10"/>
<path d="M653.415 0.586914V98.6571" stroke="#F7F4F0" stroke-opacity="0.4" stroke-miterlimit="10"/>
<path d="M1201.3 24.9578V98.6262" stroke="#F7F4F0" stroke-opacity="0.4" stroke-miterlimit="10"/>
<path d="M1201.3 98.6262L1366.06 98.6674" stroke="#F7F4F0" stroke-opacity="0.4" stroke-miterlimit="10"/>
<path d="M1403.46 24.937L1201.3 24.9576" stroke="#F7F4F0" stroke-opacity="0.4" stroke-miterlimit="10"/>
<path d="M723.74 778.826H818.201" stroke="#F7F4F0" stroke-opacity="0.4" stroke-miterlimit="10"/>
<path d="M818.201 778.826V690.435" stroke="#F7F4F0" stroke-opacity="0.4" stroke-miterlimit="10"/>
<path d="M818.19 690.435L723.74 690.455" stroke="#F7F4F0" stroke-opacity="0.4" stroke-miterlimit="10"/>
<path d="M723.74 690.445V778.826" stroke="#F7F4F0" stroke-opacity="0.4" stroke-miterlimit="10"/>
<path d="M76.4336 705.199L76.7014 778.847" stroke="#F7F4F0" stroke-opacity="0.4" stroke-miterlimit="10"/>
<path d="M76.7014 778.847H182.184" stroke="#F7F4F0" stroke-opacity="0.4" stroke-miterlimit="10"/>
<path d="M182.184 778.847L182.266 705.199" stroke="#F7F4F0" stroke-opacity="0.4" stroke-miterlimit="10"/>
<path d="M182.266 705.199H76.4336" stroke="#F7F4F0" stroke-opacity="0.4" stroke-miterlimit="10"/>
<path d="M1110.7 778.826H1335.43" stroke="#F7F4F0" stroke-opacity="0.4" stroke-miterlimit="10"/>
<path d="M1351.4 714.98L1110.7 714.991" stroke="#F7F4F0" stroke-opacity="0.4" stroke-miterlimit="10"/>
<path d="M1110.7 714.991V754.27" stroke="#F7F4F0" stroke-opacity="0.4" stroke-miterlimit="10"/>
<path d="M1110.7 754.27V778.836" stroke="#F7F4F0" stroke-opacity="0.4" stroke-miterlimit="10"/>
<path d="M51.8657 778.847H76.4337" stroke="#F7F4F0" stroke-opacity="0.4" stroke-miterlimit="10"/>
<path d="M76.4336 778.847V705.199" stroke="#F7F4F0" stroke-opacity="0.4" stroke-miterlimit="10"/>
<path d="M76.4336 705.199H182.174" stroke="#F7F4F0" stroke-opacity="0.4" stroke-miterlimit="10"/>
<path d="M182.174 705.199V778.847" stroke="#F7F4F0" stroke-opacity="0.4" stroke-miterlimit="10"/>
<path d="M182.184 778.847L723.74 778.826" stroke="#F7F4F0" stroke-opacity="0.4" stroke-miterlimit="10"/>
<path d="M723.74 778.826V690.445" stroke="#F7F4F0" stroke-opacity="0.4" stroke-miterlimit="10"/>
<path d="M723.74 690.445L818.201 690.435" stroke="#F7F4F0" stroke-opacity="0.4" stroke-miterlimit="10"/>
<path d="M818.19 690.435V778.837" stroke="#F7F4F0" stroke-opacity="0.4" stroke-miterlimit="10"/>
<path d="M818.201 778.826H836.516" stroke="#F7F4F0" stroke-opacity="0.4" stroke-miterlimit="10"/>
<path d="M836.516 778.826H1110.7" stroke="#F7F4F0" stroke-opacity="0.4" stroke-miterlimit="10"/>
<path d="M1110.7 778.826V714.991" stroke="#F7F4F0" stroke-opacity="0.4" stroke-miterlimit="10"/>
<path d="M1110.7 714.991L1366.14 714.98" stroke="#F7F4F0" stroke-opacity="0.4" stroke-miterlimit="10"/>
<path d="M1366.12 98.6777L1146.75 98.688" stroke="#F7F4F0" stroke-opacity="0.4" stroke-miterlimit="10"/>
<path d="M1146.75 98.688V49.5037" stroke="#F7F4F0" stroke-opacity="0.4" stroke-miterlimit="10"/>
<path d="M1146.75 49.5037L945.748 49.5037" stroke="#F7F4F0" stroke-opacity="0.4" stroke-miterlimit="10"/>
<path d="M945.748 49.5037V98.6983" stroke="#F7F4F0" stroke-opacity="0.4" stroke-miterlimit="10"/>
<path d="M945.748 98.688L599.376 98.688" stroke="#F7F4F0" stroke-opacity="0.4" stroke-miterlimit="10"/>
<path d="M599.376 98.6878V49.5549" stroke="#F7F4F0" stroke-opacity="0.4" stroke-miterlimit="10"/>
<path d="M599.366 49.5549L397.929 49.5549" stroke="#F7F4F0" stroke-opacity="0.4" stroke-miterlimit="10"/>
<path d="M397.929 49.5549V98.6672" stroke="#F7F4F0" stroke-opacity="0.4" stroke-miterlimit="10"/>
<path d="M397.929 98.6777L51.7937 98.7086" stroke="#F7F4F0" stroke-opacity="0.4" stroke-miterlimit="10"/>
<path d="M51.7937 98.7085L51.8658 778.847" stroke="#F7F4F0" stroke-opacity="0.4" stroke-miterlimit="10"/>
<path d="M970.409 436.296H1341.57" stroke="#F7F4F0" stroke-opacity="0.4" stroke-miterlimit="10"/>
<path d="M1341.44 122.904L1122.21 122.997" stroke="#F7F4F0" stroke-opacity="0.4" stroke-miterlimit="10"/>
<path d="M1122.2 122.997L1122.18 73.8848" stroke="#F7F4F0" stroke-opacity="0.4" stroke-miterlimit="10"/>
<path d="M1122.18 73.8845L970.326 73.8228" stroke="#F7F4F0" stroke-opacity="0.4" stroke-miterlimit="10"/>
<path d="M970.326 73.8228L970.399 115.666" stroke="#F7F4F0" stroke-opacity="0.4" stroke-miterlimit="10"/>
<path d="M970.399 115.677V265.649" stroke="#F7F4F0" stroke-opacity="0.4" stroke-miterlimit="10"/>
<path d="M970.399 265.649L970.409 436.296" stroke="#F7F4F0" stroke-opacity="0.4" stroke-miterlimit="10"/>
<path d="M76.4233 123.409L76.6088 364.481" stroke="#F7F4F0" stroke-opacity="0.4" stroke-miterlimit="10"/>
<path d="M76.6089 364.481L574.932 364.111" stroke="#F7F4F0" stroke-opacity="0.4" stroke-miterlimit="10"/>
<path d="M574.921 364.1L574.808 74.1111" stroke="#F7F4F0" stroke-opacity="0.4" stroke-miterlimit="10"/>
<path d="M574.808 74.1111L422.507 74.1111" stroke="#F7F4F0" stroke-opacity="0.4" stroke-miterlimit="10"/>
<path d="M422.507 74.1111V123.388" stroke="#F7F4F0" stroke-opacity="0.4" stroke-miterlimit="10"/>
<path d="M422.507 123.388L76.4131 123.409" stroke="#F7F4F0" stroke-opacity="0.4" stroke-miterlimit="10"/>
<path d="M587.21 364.09L958.079 363.812" stroke="#F7F4F0" stroke-opacity="0.4" stroke-miterlimit="10"/>
<path d="M958.079 363.812V277.922" stroke="#F7F4F0" stroke-opacity="0.4" stroke-miterlimit="10"/>
<path d="M958.079 277.922V123.234" stroke="#F7F4F0" stroke-opacity="0.4" stroke-miterlimit="10"/>
<path d="M958.079 123.234L587.138 123.254" stroke="#F7F4F0" stroke-opacity="0.4" stroke-miterlimit="10"/>
<path d="M587.149 123.254V324.594" stroke="#F7F4F0" stroke-opacity="0.4" stroke-miterlimit="10"/>
<path d="M587.149 324.594L587.21 364.09" stroke="#F7F4F0" stroke-opacity="0.4" stroke-miterlimit="10"/>
<path d="M842.882 754.27H1086.13" stroke="#F7F4F0" stroke-opacity="0.4" stroke-miterlimit="10"/>
<path d="M1086.13 754.27V690.435" stroke="#F7F4F0" stroke-opacity="0.4" stroke-miterlimit="10"/>
<path d="M1086.13 690.435H1341.58" stroke="#F7F4F0" stroke-opacity="0.4" stroke-miterlimit="10"/>
<path d="M1341.58 448.569L970.409 448.58" stroke="#F7F4F0" stroke-opacity="0.4" stroke-miterlimit="10"/>
<path d="M970.409 448.58V520.982" stroke="#F7F4F0" stroke-opacity="0.4" stroke-miterlimit="10"/>
<path d="M970.409 520.981L842.779 520.992" stroke="#F7F4F0" stroke-opacity="0.4" stroke-miterlimit="10"/>
<path d="M842.789 520.992L842.872 754.27" stroke="#F7F4F0" stroke-opacity="0.4" stroke-miterlimit="10"/>
<path d="M430.078 376.476V508.739" stroke="#F7F4F0" stroke-opacity="0.4" stroke-miterlimit="10"/>
<path d="M430.078 508.74H727.716" stroke="#F7F4F0" stroke-opacity="0.4" stroke-miterlimit="10"/>
<path d="M727.717 508.74L727.727 665.889" stroke="#F7F4F0" stroke-opacity="0.4" stroke-miterlimit="10"/>
<path d="M727.727 665.889H830.407" stroke="#F7F4F0" stroke-opacity="0.4" stroke-miterlimit="10"/>
<path d="M830.407 665.889V508.667" stroke="#F7F4F0" stroke-opacity="0.4" stroke-miterlimit="10"/>
<path d="M830.407 508.667L958.089 508.74" stroke="#F7F4F0" stroke-opacity="0.4" stroke-miterlimit="10"/>
<path d="M958.089 508.74L958.079 376.085" stroke="#F7F4F0" stroke-opacity="0.4" stroke-miterlimit="10"/>
<path d="M958.089 376.085L830.356 376.188" stroke="#F7F4F0" stroke-opacity="0.4" stroke-miterlimit="10"/>
<path d="M830.346 376.188V439.735" stroke="#F7F4F0" stroke-opacity="0.4" stroke-miterlimit="10"/>
<path d="M830.356 439.735L618.103 439.745" stroke="#F7F4F0" stroke-opacity="0.4" stroke-miterlimit="10"/>
<path d="M618.103 439.746V376.342" stroke="#F7F4F0" stroke-opacity="0.4" stroke-miterlimit="10"/>
<path d="M618.103 376.342L430.078 376.486" stroke="#F7F4F0" stroke-opacity="0.4" stroke-miterlimit="10"/>
<path d="M331.951 754.28H467.018" stroke="#F7F4F0" stroke-opacity="0.4" stroke-miterlimit="10"/>
<path d="M467.018 754.28H699.172" stroke="#F7F4F0" stroke-opacity="0.4" stroke-miterlimit="10"/>
<path d="M699.183 754.281V665.889" stroke="#F7F4F0" stroke-opacity="0.4" stroke-miterlimit="10"/>
<path d="M699.172 665.889H715.438" stroke="#F7F4F0" stroke-opacity="0.4" stroke-miterlimit="10"/>
<path d="M715.438 665.889V540.585" stroke="#F7F4F0" stroke-opacity="0.4" stroke-miterlimit="10"/>
<path d="M715.438 540.585L614.694 540.606" stroke="#F7F4F0" stroke-opacity="0.4" stroke-miterlimit="10"/>
<path d="M614.694 540.606V521.012" stroke="#F7F4F0" stroke-opacity="0.4" stroke-miterlimit="10"/>
<path d="M614.694 521.012L331.817 521.033" stroke="#F7F4F0" stroke-opacity="0.4" stroke-miterlimit="10"/>
<path d="M331.817 521.033L331.951 754.28" stroke="#F7F4F0" stroke-opacity="0.4" stroke-miterlimit="10"/>
<path d="M76.4233 375.899L76.4336 680.632" stroke="#F7F4F0" stroke-opacity="0.4" stroke-miterlimit="10"/>
<path d="M76.4336 680.632H206.742" stroke="#F7F4F0" stroke-opacity="0.4" stroke-miterlimit="10"/>
<path d="M206.742 680.632V754.301" stroke="#F7F4F0" stroke-opacity="0.4" stroke-miterlimit="10"/>
<path d="M206.742 754.301L319.538 754.28" stroke="#F7F4F0" stroke-opacity="0.4" stroke-miterlimit="10"/>
<path d="M319.538 754.28V508.76" stroke="#F7F4F0" stroke-opacity="0.4" stroke-miterlimit="10"/>
<path d="M319.538 508.76L417.8 508.74" stroke="#F7F4F0" stroke-opacity="0.4" stroke-miterlimit="10"/>
<path d="M417.8 508.739V375.899" stroke="#F7F4F0" stroke-opacity="0.4" stroke-miterlimit="10"/>
<path d="M417.8 375.899H76.4233" stroke="#F7F4F0" stroke-opacity="0.4" stroke-miterlimit="10"/>
<path d="M27.1123 438.531H0" stroke="#F7F4F0" stroke-opacity="0.4" stroke-miterlimit="10"/>
<path d="M0 681.137L27.205 681.117" stroke="#F7F4F0" stroke-opacity="0.4" stroke-miterlimit="10"/>
<path d="M27.205 681.116L27.1123 438.531" stroke="#F7F4F0" stroke-opacity="0.4" stroke-miterlimit="10"/>
<path d="M830.346 376.136V435.071" stroke="#F7F4F0" stroke-opacity="0.4" stroke-miterlimit="10"/>
<path d="M830.356 435.071H817.088" stroke="#F7F4F0" stroke-opacity="0.4" stroke-miterlimit="10"/>
<path d="M817.088 435.071V376.157" stroke="#F7F4F0" stroke-opacity="0.4" stroke-miterlimit="10"/>
<path d="M817.078 376.157L830.346 376.136" stroke="#F7F4F0" stroke-opacity="0.4" stroke-miterlimit="10"/>
<path d="M817.078 376.157V435.071" stroke="#F7F4F0" stroke-opacity="0.4" stroke-miterlimit="10"/>
<path d="M817.088 435.071H803.821" stroke="#F7F4F0" stroke-opacity="0.4" stroke-miterlimit="10"/>
<path d="M803.821 435.071V376.157" stroke="#F7F4F0" stroke-opacity="0.4" stroke-miterlimit="10"/>
<path d="M803.821 376.157H817.088" stroke="#F7F4F0" stroke-opacity="0.4" stroke-miterlimit="10"/>
<path d="M803.821 376.157V435.071" stroke="#F7F4F0" stroke-opacity="0.4" stroke-miterlimit="10"/>
<path d="M803.82 435.071H790.553" stroke="#F7F4F0" stroke-opacity="0.4" stroke-miterlimit="10"/>
<path d="M790.553 435.071V376.157" stroke="#F7F4F0" stroke-opacity="0.4" stroke-miterlimit="10"/>
<path d="M790.553 376.157H803.82" stroke="#F7F4F0" stroke-opacity="0.4" stroke-miterlimit="10"/>
<path d="M790.553 376.157V435.071" stroke="#F7F4F0" stroke-opacity="0.4" stroke-miterlimit="10"/>
<path d="M790.553 435.071H777.285" stroke="#F7F4F0" stroke-opacity="0.4" stroke-miterlimit="10"/>
<path d="M777.285 435.071V376.157" stroke="#F7F4F0" stroke-opacity="0.4" stroke-miterlimit="10"/>
<path d="M777.285 376.157H790.553" stroke="#F7F4F0" stroke-opacity="0.4" stroke-miterlimit="10"/>
<path d="M777.285 376.157V435.071" stroke="#F7F4F0" stroke-opacity="0.4" stroke-miterlimit="10"/>
<path d="M777.285 435.071H764.017" stroke="#F7F4F0" stroke-opacity="0.4" stroke-miterlimit="10"/>
<path d="M764.017 435.071V405.614" stroke="#F7F4F0" stroke-opacity="0.4" stroke-miterlimit="10"/>
<path d="M764.017 405.614V435.071" stroke="#F7F4F0" stroke-opacity="0.4" stroke-miterlimit="10"/>
<path d="M764.017 435.071H750.75" stroke="#F7F4F0" stroke-opacity="0.4" stroke-miterlimit="10"/>
<path d="M764.017 396.646V376.157" stroke="#F7F4F0" stroke-opacity="0.4" stroke-miterlimit="10"/>
<path d="M764.017 376.157H773.247" stroke="#F7F4F0" stroke-opacity="0.4" stroke-miterlimit="10"/>
<path d="M764.017 376.157V396.646" stroke="#F7F4F0" stroke-opacity="0.4" stroke-miterlimit="10"/>
<path d="M750.76 426.103V376.157" stroke="#F7F4F0" stroke-opacity="0.4" stroke-miterlimit="10"/>
<path d="M750.76 376.157H764.017" stroke="#F7F4F0" stroke-opacity="0.4" stroke-miterlimit="10"/>
<path d="M750.76 376.157V426.103" stroke="#F7F4F0" stroke-opacity="0.4" stroke-miterlimit="10"/>
<path d="M746.712 435.071H737.492" stroke="#F7F4F0" stroke-opacity="0.4" stroke-miterlimit="10"/>
<path d="M737.492 435.071V376.157" stroke="#F7F4F0" stroke-opacity="0.4" stroke-miterlimit="10"/>
<path d="M737.492 376.157H750.76" stroke="#F7F4F0" stroke-opacity="0.4" stroke-miterlimit="10"/>
<path d="M737.492 376.157V435.071" stroke="#F7F4F0" stroke-opacity="0.4" stroke-miterlimit="10"/>
<path d="M737.492 435.071H724.225" stroke="#F7F4F0" stroke-opacity="0.4" stroke-miterlimit="10"/>
<path d="M724.225 435.071V376.157" stroke="#F7F4F0" stroke-opacity="0.4" stroke-miterlimit="10"/>
<path d="M724.225 376.157H737.492" stroke="#F7F4F0" stroke-opacity="0.4" stroke-miterlimit="10"/>
<path d="M724.225 376.157V435.071" stroke="#F7F4F0" stroke-opacity="0.4" stroke-miterlimit="10"/>
<path d="M724.225 435.071H710.957" stroke="#F7F4F0" stroke-opacity="0.4" stroke-miterlimit="10"/>
<path d="M710.957 435.071V376.157" stroke="#F7F4F0" stroke-opacity="0.4" stroke-miterlimit="10"/>
<path d="M710.957 376.157H724.225" stroke="#F7F4F0" stroke-opacity="0.4" stroke-miterlimit="10"/>
<path d="M710.957 376.157V435.071" stroke="#F7F4F0" stroke-opacity="0.4" stroke-miterlimit="10"/>
<path d="M710.957 435.071H697.689" stroke="#F7F4F0" stroke-opacity="0.4" stroke-miterlimit="10"/>
<path d="M697.699 435.071V376.157" stroke="#F7F4F0" stroke-opacity="0.4" stroke-miterlimit="10"/>
<path d="M697.689 376.157H710.957" stroke="#F7F4F0" stroke-opacity="0.4" stroke-miterlimit="10"/>
<path d="M697.689 376.157V435.071" stroke="#F7F4F0" stroke-opacity="0.4" stroke-miterlimit="10"/>
<path d="M697.699 435.071H684.432" stroke="#F7F4F0" stroke-opacity="0.4" stroke-miterlimit="10"/>
<path d="M684.432 435.071V376.157" stroke="#F7F4F0" stroke-opacity="0.4" stroke-miterlimit="10"/>
<path d="M684.432 376.157H697.699" stroke="#F7F4F0" stroke-opacity="0.4" stroke-miterlimit="10"/>
<path d="M684.432 376.157V435.071" stroke="#F7F4F0" stroke-opacity="0.4" stroke-miterlimit="10"/>
<path d="M684.432 435.071H671.164" stroke="#F7F4F0" stroke-opacity="0.4" stroke-miterlimit="10"/>
<path d="M671.164 435.071V376.157" stroke="#F7F4F0" stroke-opacity="0.4" stroke-miterlimit="10"/>
<path d="M671.164 376.157H684.432" stroke="#F7F4F0" stroke-opacity="0.4" stroke-miterlimit="10"/>
<path d="M671.164 376.157V435.071" stroke="#F7F4F0" stroke-opacity="0.4" stroke-miterlimit="10"/>
<path d="M671.164 435.071H657.896" stroke="#F7F4F0" stroke-opacity="0.4" stroke-miterlimit="10"/>
<path d="M657.896 435.071V376.157" stroke="#F7F4F0" stroke-opacity="0.4" stroke-miterlimit="10"/>
<path d="M657.896 376.157H671.164" stroke="#F7F4F0" stroke-opacity="0.4" stroke-miterlimit="10"/>
<path d="M657.896 376.157V435.071" stroke="#F7F4F0" stroke-opacity="0.4" stroke-miterlimit="10"/>
<path d="M657.896 435.071H644.628" stroke="#F7F4F0" stroke-opacity="0.4" stroke-miterlimit="10"/>
<path d="M644.628 435.071V376.157" stroke="#F7F4F0" stroke-opacity="0.4" stroke-miterlimit="10"/>
<path d="M644.628 376.157H657.896" stroke="#F7F4F0" stroke-opacity="0.4" stroke-miterlimit="10"/>
<path d="M644.628 376.157V435.071" stroke="#F7F4F0" stroke-opacity="0.4" stroke-miterlimit="10"/>
<path d="M644.629 435.071H631.371" stroke="#F7F4F0" stroke-opacity="0.4" stroke-miterlimit="10"/>
<path d="M631.371 435.071V376.157" stroke="#F7F4F0" stroke-opacity="0.4" stroke-miterlimit="10"/>
<path d="M631.361 376.157H644.629" stroke="#F7F4F0" stroke-opacity="0.4" stroke-miterlimit="10"/>
<path d="M631.361 376.157V435.071" stroke="#F7F4F0" stroke-opacity="0.4" stroke-miterlimit="10"/>
<path d="M631.371 435.071H618.103" stroke="#F7F4F0" stroke-opacity="0.4" stroke-miterlimit="10"/>
<path d="M618.103 435.071V376.157" stroke="#F7F4F0" stroke-opacity="0.4" stroke-miterlimit="10"/>
<path d="M618.103 376.157H631.371" stroke="#F7F4F0" stroke-opacity="0.4" stroke-miterlimit="10"/>
<path d="M777.285 376.157L750.76 435.071" stroke="#F7F4F0" stroke-opacity="0.4" stroke-miterlimit="10"/>
<path d="M773.247 376.157L746.722 435.071" stroke="#F7F4F0" stroke-opacity="0.4" stroke-miterlimit="10"/>
<path d="M830.346 405.614H817.078" stroke="#F7F4F0" stroke-opacity="0.4" stroke-miterlimit="10"/>
<path d="M817.088 405.614H764.017" stroke="#F7F4F0" stroke-opacity="0.4" stroke-miterlimit="10"/>
<path d="M776.306 393.341L764.017 405.614" stroke="#F7F4F0" stroke-opacity="0.4" stroke-miterlimit="10"/>
<path d="M764.017 405.614L776.306 417.887" stroke="#F7F4F0" stroke-opacity="0.4" stroke-miterlimit="10"/>
<path d="M759.98 405.614H631.371" stroke="#F7F4F0" stroke-opacity="0.4" stroke-miterlimit="10"/>
<path d="M631.371 405.614H618.103" stroke="#F7F4F0" stroke-opacity="0.4" stroke-miterlimit="10"/>
<path d="M630.382 393.341L618.103 405.614" stroke="#F7F4F0" stroke-opacity="0.4" stroke-miterlimit="10"/>
<path d="M618.103 405.614L630.382 417.887" stroke="#F7F4F0" stroke-opacity="0.4" stroke-miterlimit="10"/>
<path d="M830.346 376.136V435.071" stroke="#F7F4F0" stroke-opacity="0.4" stroke-miterlimit="10"/>
<path d="M830.356 435.071H817.088" stroke="#F7F4F0" stroke-opacity="0.4" stroke-miterlimit="10"/>
<path d="M817.088 435.071V376.157" stroke="#F7F4F0" stroke-opacity="0.4" stroke-miterlimit="10"/>
<path d="M817.078 376.157L830.346 376.136" stroke="#F7F4F0" stroke-opacity="0.4" stroke-miterlimit="10"/>
<path d="M817.078 376.157V435.071" stroke="#F7F4F0" stroke-opacity="0.4" stroke-miterlimit="10"/>
<path d="M817.088 435.071H803.821" stroke="#F7F4F0" stroke-opacity="0.4" stroke-miterlimit="10"/>
<path d="M803.821 435.071V376.157" stroke="#F7F4F0" stroke-opacity="0.4" stroke-miterlimit="10"/>
<path d="M803.821 376.157H817.088" stroke="#F7F4F0" stroke-opacity="0.4" stroke-miterlimit="10"/>
<path d="M803.821 376.157V435.071" stroke="#F7F4F0" stroke-opacity="0.4" stroke-miterlimit="10"/>
<path d="M803.82 435.071H790.553" stroke="#F7F4F0" stroke-opacity="0.4" stroke-miterlimit="10"/>
<path d="M790.553 435.071V376.157" stroke="#F7F4F0" stroke-opacity="0.4" stroke-miterlimit="10"/>
<path d="M790.553 376.157H803.82" stroke="#F7F4F0" stroke-opacity="0.4" stroke-miterlimit="10"/>
<path d="M790.553 376.157V435.071" stroke="#F7F4F0" stroke-opacity="0.4" stroke-miterlimit="10"/>
<path d="M790.553 435.071H777.285" stroke="#F7F4F0" stroke-opacity="0.4" stroke-miterlimit="10"/>
<path d="M777.285 435.071V376.157" stroke="#F7F4F0" stroke-opacity="0.4" stroke-miterlimit="10"/>
<path d="M777.285 376.157H790.553" stroke="#F7F4F0" stroke-opacity="0.4" stroke-miterlimit="10"/>
<path d="M777.285 376.157V435.071" stroke="#F7F4F0" stroke-opacity="0.4" stroke-miterlimit="10"/>
<path d="M777.285 435.071H764.017" stroke="#F7F4F0" stroke-opacity="0.4" stroke-miterlimit="10"/>
<path d="M764.017 435.071V405.614" stroke="#F7F4F0" stroke-opacity="0.4" stroke-miterlimit="10"/>
<path d="M764.017 405.614V435.071" stroke="#F7F4F0" stroke-opacity="0.4" stroke-miterlimit="10"/>
<path d="M764.017 435.071H750.75" stroke="#F7F4F0" stroke-opacity="0.4" stroke-miterlimit="10"/>
<path d="M764.017 396.646V376.157" stroke="#F7F4F0" stroke-opacity="0.4" stroke-miterlimit="10"/>
<path d="M764.017 376.157H773.247" stroke="#F7F4F0" stroke-opacity="0.4" stroke-miterlimit="10"/>
<path d="M764.017 376.157V396.646" stroke="#F7F4F0" stroke-opacity="0.4" stroke-miterlimit="10"/>
<path d="M750.76 426.103V420.77" stroke="#F7F4F0" stroke-opacity="0.4" stroke-miterlimit="10"/>
<path d="M750.76 404.801V397.449" stroke="#F7F4F0" stroke-opacity="0.4" stroke-miterlimit="10"/>
<path d="M750.76 381.48V376.157" stroke="#F7F4F0" stroke-opacity="0.4" stroke-miterlimit="10"/>
<path d="M750.76 376.157H764.017" stroke="#F7F4F0" stroke-opacity="0.4" stroke-miterlimit="10"/>
<path d="M750.76 376.157V381.48" stroke="#F7F4F0" stroke-opacity="0.4" stroke-miterlimit="10"/>
<path d="M750.76 397.449V404.801" stroke="#F7F4F0" stroke-opacity="0.4" stroke-miterlimit="10"/>
<path d="M750.76 420.77V426.103" stroke="#F7F4F0" stroke-opacity="0.4" stroke-miterlimit="10"/>
<path d="M746.712 435.071H737.492" stroke="#F7F4F0" stroke-opacity="0.4" stroke-miterlimit="10"/>
<path d="M737.492 435.071V425.259" stroke="#F7F4F0" stroke-opacity="0.4" stroke-miterlimit="10"/>
<path d="M737.492 409.29V401.938" stroke="#F7F4F0" stroke-opacity="0.4" stroke-miterlimit="10"/>
<path d="M737.492 385.969V376.146" stroke="#F7F4F0" stroke-opacity="0.4" stroke-miterlimit="10"/>
<path d="M737.492 376.157H750.76" stroke="#F7F4F0" stroke-opacity="0.4" stroke-miterlimit="10"/>
<path d="M737.492 376.157V385.969" stroke="#F7F4F0" stroke-opacity="0.4" stroke-miterlimit="10"/>
<path d="M737.492 401.938V409.29" stroke="#F7F4F0" stroke-opacity="0.4" stroke-miterlimit="10"/>
<path d="M737.492 425.259V435.071" stroke="#F7F4F0" stroke-opacity="0.4" stroke-miterlimit="10"/>
<path d="M737.492 435.071H724.225" stroke="#F7F4F0" stroke-opacity="0.4" stroke-miterlimit="10"/>
<path d="M724.225 435.071V425.259" stroke="#F7F4F0" stroke-opacity="0.4" stroke-miterlimit="10"/>
<path d="M724.225 409.29V401.938" stroke="#F7F4F0" stroke-opacity="0.4" stroke-miterlimit="10"/>
<path d="M724.225 385.969V376.146" stroke="#F7F4F0" stroke-opacity="0.4" stroke-miterlimit="10"/>
<path d="M724.225 376.157H737.492" stroke="#F7F4F0" stroke-opacity="0.4" stroke-miterlimit="10"/>
<path d="M724.225 376.157V385.969" stroke="#F7F4F0" stroke-opacity="0.4" stroke-miterlimit="10"/>
<path d="M724.225 401.938V409.29" stroke="#F7F4F0" stroke-opacity="0.4" stroke-miterlimit="10"/>
<path d="M724.225 425.259V435.071" stroke="#F7F4F0" stroke-opacity="0.4" stroke-miterlimit="10"/>
<path d="M724.225 435.071H710.957" stroke="#F7F4F0" stroke-opacity="0.4" stroke-miterlimit="10"/>
<path d="M710.957 435.071V425.259" stroke="#F7F4F0" stroke-opacity="0.4" stroke-miterlimit="10"/>
<path d="M710.957 409.29V401.938" stroke="#F7F4F0" stroke-opacity="0.4" stroke-miterlimit="10"/>
<path d="M710.957 385.969V376.146" stroke="#F7F4F0" stroke-opacity="0.4" stroke-miterlimit="10"/>
<path d="M710.957 376.157H724.225" stroke="#F7F4F0" stroke-opacity="0.4" stroke-miterlimit="10"/>
<path d="M710.957 376.157V385.969" stroke="#F7F4F0" stroke-opacity="0.4" stroke-miterlimit="10"/>
<path d="M710.957 401.938V409.29" stroke="#F7F4F0" stroke-opacity="0.4" stroke-miterlimit="10"/>
<path d="M710.957 425.259V435.071" stroke="#F7F4F0" stroke-opacity="0.4" stroke-miterlimit="10"/>
<path d="M710.957 435.071H697.689" stroke="#F7F4F0" stroke-opacity="0.4" stroke-miterlimit="10"/>
<path d="M697.699 435.071V425.259" stroke="#F7F4F0" stroke-opacity="0.4" stroke-miterlimit="10"/>
<path d="M697.689 409.29V401.938" stroke="#F7F4F0" stroke-opacity="0.4" stroke-miterlimit="10"/>
<path d="M697.689 385.969V376.146" stroke="#F7F4F0" stroke-opacity="0.4" stroke-miterlimit="10"/>
<path d="M697.689 376.157H710.957" stroke="#F7F4F0" stroke-opacity="0.4" stroke-miterlimit="10"/>
<path d="M697.689 376.157V385.969" stroke="#F7F4F0" stroke-opacity="0.4" stroke-miterlimit="10"/>
<path d="M697.689 401.938V409.29" stroke="#F7F4F0" stroke-opacity="0.4" stroke-miterlimit="10"/>
<path d="M697.699 425.259V435.071" stroke="#F7F4F0" stroke-opacity="0.4" stroke-miterlimit="10"/>
<path d="M697.699 435.071H684.432" stroke="#F7F4F0" stroke-opacity="0.4" stroke-miterlimit="10"/>
<path d="M684.432 435.071V425.259" stroke="#F7F4F0" stroke-opacity="0.4" stroke-miterlimit="10"/>
<path d="M684.432 409.29V401.938" stroke="#F7F4F0" stroke-opacity="0.4" stroke-miterlimit="10"/>
<path d="M684.432 385.969V376.146" stroke="#F7F4F0" stroke-opacity="0.4" stroke-miterlimit="10"/>
<path d="M684.432 376.157H697.699" stroke="#F7F4F0" stroke-opacity="0.4" stroke-miterlimit="10"/>
<path d="M684.432 376.157V385.969" stroke="#F7F4F0" stroke-opacity="0.4" stroke-miterlimit="10"/>
<path d="M684.432 401.938V409.29" stroke="#F7F4F0" stroke-opacity="0.4" stroke-miterlimit="10"/>
<path d="M684.432 425.259V435.071" stroke="#F7F4F0" stroke-opacity="0.4" stroke-miterlimit="10"/>
<path d="M684.432 435.071H671.164" stroke="#F7F4F0" stroke-opacity="0.4" stroke-miterlimit="10"/>
<path d="M671.164 435.071V425.259" stroke="#F7F4F0" stroke-opacity="0.4" stroke-miterlimit="10"/>
<path d="M671.164 409.29V401.938" stroke="#F7F4F0" stroke-opacity="0.4" stroke-miterlimit="10"/>
<path d="M671.164 385.969V376.146" stroke="#F7F4F0" stroke-opacity="0.4" stroke-miterlimit="10"/>
<path d="M671.164 376.157H684.432" stroke="#F7F4F0" stroke-opacity="0.4" stroke-miterlimit="10"/>
<path d="M671.164 376.157V385.969" stroke="#F7F4F0" stroke-opacity="0.4" stroke-miterlimit="10"/>
<path d="M671.164 401.938V409.29" stroke="#F7F4F0" stroke-opacity="0.4" stroke-miterlimit="10"/>
<path d="M671.164 425.259V435.071" stroke="#F7F4F0" stroke-opacity="0.4" stroke-miterlimit="10"/>
<path d="M671.164 435.071H657.896" stroke="#F7F4F0" stroke-opacity="0.4" stroke-miterlimit="10"/>
<path d="M657.896 435.071V425.259" stroke="#F7F4F0" stroke-opacity="0.4" stroke-miterlimit="10"/>
<path d="M657.896 409.29V401.938" stroke="#F7F4F0" stroke-opacity="0.4" stroke-miterlimit="10"/>
<path d="M657.896 385.969V376.146" stroke="#F7F4F0" stroke-opacity="0.4" stroke-miterlimit="10"/>
<path d="M657.896 376.157H671.164" stroke="#F7F4F0" stroke-opacity="0.4" stroke-miterlimit="10"/>
<path d="M657.896 376.157V385.969" stroke="#F7F4F0" stroke-opacity="0.4" stroke-miterlimit="10"/>
<path d="M657.896 401.938V409.29" stroke="#F7F4F0" stroke-opacity="0.4" stroke-miterlimit="10"/>
<path d="M657.896 425.259V435.071" stroke="#F7F4F0" stroke-opacity="0.4" stroke-miterlimit="10"/>
<path d="M657.896 435.071H644.628" stroke="#F7F4F0" stroke-opacity="0.4" stroke-miterlimit="10"/>
<path d="M644.628 435.071V425.259" stroke="#F7F4F0" stroke-opacity="0.4" stroke-miterlimit="10"/>
<path d="M644.628 409.29V401.938" stroke="#F7F4F0" stroke-opacity="0.4" stroke-miterlimit="10"/>
<path d="M644.628 385.969V376.146" stroke="#F7F4F0" stroke-opacity="0.4" stroke-miterlimit="10"/>
<path d="M644.628 376.157H657.896" stroke="#F7F4F0" stroke-opacity="0.4" stroke-miterlimit="10"/>
<path d="M644.628 376.157V385.969" stroke="#F7F4F0" stroke-opacity="0.4" stroke-miterlimit="10"/>
<path d="M644.628 401.938V409.29" stroke="#F7F4F0" stroke-opacity="0.4" stroke-miterlimit="10"/>
<path d="M644.628 425.259V435.071" stroke="#F7F4F0" stroke-opacity="0.4" stroke-miterlimit="10"/>
<path d="M644.629 435.071H631.371" stroke="#F7F4F0" stroke-opacity="0.4" stroke-miterlimit="10"/>
<path d="M631.371 435.071V425.259" stroke="#F7F4F0" stroke-opacity="0.4" stroke-miterlimit="10"/>
<path d="M631.371 409.29V401.938" stroke="#F7F4F0" stroke-opacity="0.4" stroke-miterlimit="10"/>
<path d="M631.371 385.969V376.146" stroke="#F7F4F0" stroke-opacity="0.4" stroke-miterlimit="10"/>
<path d="M631.361 376.157H644.629" stroke="#F7F4F0" stroke-opacity="0.4" stroke-miterlimit="10"/>
<path d="M631.361 376.157V385.969" stroke="#F7F4F0" stroke-opacity="0.4" stroke-miterlimit="10"/>
<path d="M631.371 401.938V409.29" stroke="#F7F4F0" stroke-opacity="0.4" stroke-miterlimit="10"/>
<path d="M631.371 425.259V435.071" stroke="#F7F4F0" stroke-opacity="0.4" stroke-miterlimit="10"/>
<path d="M631.371 435.071H618.103" stroke="#F7F4F0" stroke-opacity="0.4" stroke-miterlimit="10"/>
<path d="M618.103 435.071V425.259" stroke="#F7F4F0" stroke-opacity="0.4" stroke-miterlimit="10"/>
<path d="M618.103 409.29V401.938" stroke="#F7F4F0" stroke-opacity="0.4" stroke-miterlimit="10"/>
<path d="M618.103 385.969V376.146" stroke="#F7F4F0" stroke-opacity="0.4" stroke-miterlimit="10"/>
<path d="M618.103 376.157H631.371" stroke="#F7F4F0" stroke-opacity="0.4" stroke-miterlimit="10"/>
<path d="M777.285 376.157L750.76 435.071" stroke="#F7F4F0" stroke-opacity="0.4" stroke-miterlimit="10"/>
<path d="M773.247 376.157L746.722 435.071" stroke="#F7F4F0" stroke-opacity="0.4" stroke-miterlimit="10"/>
<path d="M830.346 405.614H817.078" stroke="#F7F4F0" stroke-opacity="0.4" stroke-miterlimit="10"/>
<path d="M817.088 405.614H764.017" stroke="#F7F4F0" stroke-opacity="0.4" stroke-miterlimit="10"/>
<path d="M776.306 393.341L764.017 405.614" stroke="#F7F4F0" stroke-opacity="0.4" stroke-miterlimit="10"/>
<path d="M764.017 405.614L776.306 417.887" stroke="#F7F4F0" stroke-opacity="0.4" stroke-miterlimit="10"/>
<path d="M759.98 405.614H631.371" stroke="#F7F4F0" stroke-opacity="0.4" stroke-miterlimit="10"/>
<path d="M631.371 405.614H618.103" stroke="#F7F4F0" stroke-opacity="0.4" stroke-miterlimit="10"/>
<path d="M630.382 393.341L618.103 405.614" stroke="#F7F4F0" stroke-opacity="0.4" stroke-miterlimit="10"/>
<path d="M618.103 405.614L630.382 417.887" stroke="#F7F4F0" stroke-opacity="0.4" stroke-miterlimit="10"/>
<path d="M809.28 626.043H742.457" stroke="#F7F4F0" stroke-opacity="0.4" stroke-miterlimit="10"/>
<path d="M742.457 626.043V534.212" stroke="#F7F4F0" stroke-opacity="0.4" stroke-miterlimit="10"/>
<path d="M742.457 534.212H809.28" stroke="#F7F4F0" stroke-opacity="0.4" stroke-miterlimit="10"/>
<path d="M809.28 534.212V626.053" stroke="#F7F4F0" stroke-opacity="0.4" stroke-miterlimit="10"/>
<path fill-rule="evenodd" clip-rule="evenodd" d="M511.055 383.786L498.766 405.048L523.323 405.058L511.055 383.786Z" fill="#F7F4F0" fill-opacity="0.4" stroke="#F7F4F0" stroke-opacity="0.4" stroke-miterlimit="10"/>
<path fill-rule="evenodd" clip-rule="evenodd" d="M437.444 471.91L458.715 484.194L458.726 459.637L437.444 471.91Z" fill="#F7F4F0" fill-opacity="0.4" stroke="#F7F4F0" stroke-opacity="0.4" stroke-miterlimit="10"/>
<path fill-rule="evenodd" clip-rule="evenodd" d="M899.126 383.498L886.837 404.749L911.394 404.77L899.126 383.498Z" fill="#F7F4F0" fill-opacity="0.4" stroke="#F7F4F0" stroke-opacity="0.4" stroke-miterlimit="10"/>
<path fill-rule="evenodd" clip-rule="evenodd" d="M901.742 500.904L914.042 479.643H889.474L901.742 500.904Z" fill="#F7F4F0" fill-opacity="0.4" stroke="#F7F4F0" stroke-opacity="0.4" stroke-miterlimit="10"/>
<path d="M0 25.5447H17.1409" stroke="#F7F4F0" stroke-opacity="0.4" stroke-miterlimit="10"/>
<path d="M41.709 25.524L78.5558 25.5034" stroke="#F7F4F0" stroke-opacity="0.4" stroke-miterlimit="10"/>
<path d="M103.124 25.5035L142.443 25.4829" stroke="#F7F4F0" stroke-opacity="0.4" stroke-miterlimit="10"/>
<path d="M142.443 0.514893L169.462 0.514893" stroke="#F7F4F0" stroke-opacity="0.4" stroke-miterlimit="10"/>
<path d="M194.03 0.514893L230.877 0.514893" stroke="#F7F4F0" stroke-opacity="0.4" stroke-miterlimit="10"/>
<path d="M255.445 0.514893L292.292 0.514893" stroke="#F7F4F0" stroke-opacity="0.4" stroke-miterlimit="10"/>
<path d="M316.86 0.514893L343.879 0.514893" stroke="#F7F4F0" stroke-opacity="0.4" stroke-miterlimit="10"/>
<path d="M653.415 49.5551V36.8704" stroke="#F7F4F0" stroke-opacity="0.4" stroke-miterlimit="10"/>
<path d="M653.415 13.2512V0.566406" stroke="#F7F4F0" stroke-opacity="0.4" stroke-miterlimit="10"/>
<path d="M653.415 0.566406L680.435 0.566406" stroke="#F7F4F0" stroke-opacity="0.4" stroke-miterlimit="10"/>
<path d="M705.003 0.566406L741.849 0.566406" stroke="#F7F4F0" stroke-opacity="0.4" stroke-miterlimit="10"/>
<path d="M766.417 0.566406L803.264 0.566406" stroke="#F7F4F0" stroke-opacity="0.4" stroke-miterlimit="10"/>
<path d="M827.832 0.566406L854.852 0.566406" stroke="#F7F4F0" stroke-opacity="0.4" stroke-miterlimit="10"/>
<path d="M854.852 0.566406V13.2306" stroke="#F7F4F0" stroke-opacity="0.4" stroke-miterlimit="10"/>
<path d="M854.852 36.8496V49.5344" stroke="#F7F4F0" stroke-opacity="0.4" stroke-miterlimit="10"/>
<path d="M945.748 49.5139V25.0298" stroke="#F7F4F0" stroke-opacity="0.4" stroke-miterlimit="10"/>
<path d="M945.748 25.0195L978.083 25.0195" stroke="#F7F4F0" stroke-opacity="0.4" stroke-miterlimit="10"/>
<path d="M1002.65 25.0195L1039.5 25.0195" stroke="#F7F4F0" stroke-opacity="0.4" stroke-miterlimit="10"/>
<path d="M1064.07 25.0195L1100.91 25.0195" stroke="#F7F4F0" stroke-opacity="0.4" stroke-miterlimit="10"/>
<path d="M1125.48 25.0195L1162.33 25.0195" stroke="#F7F4F0" stroke-opacity="0.4" stroke-miterlimit="10"/>
<path d="M1186.9 25.0195L1223.74 25.0195" stroke="#F7F4F0" stroke-opacity="0.4" stroke-miterlimit="10"/>
<path d="M1248.31 25.0195L1285.16 25.0195" stroke="#F7F4F0" stroke-opacity="0.4" stroke-miterlimit="10"/>
<path d="M1309.73 25.0195L1346.57 25.0195" stroke="#F7F4F0" stroke-opacity="0.4" stroke-miterlimit="10"/>
<path d="M142.443 25.4932V0.514893" stroke="#F7F4F0" stroke-opacity="0.4" stroke-miterlimit="10"/>
<path d="M343.879 0.514893L343.89 13.1791" stroke="#F7F4F0" stroke-opacity="0.4" stroke-miterlimit="10"/>
<path d="M343.89 37.282V49.9668" stroke="#F7F4F0" stroke-opacity="0.4" stroke-miterlimit="10"/>
<path d="M343.89 49.9669L363.544 49.9463" stroke="#F7F4F0" stroke-opacity="0.4" stroke-miterlimit="10"/>
<path d="M388.112 49.9155L424.959 49.864" stroke="#F7F4F0" stroke-opacity="0.4" stroke-miterlimit="10"/>
<path d="M449.527 49.8227L486.374 49.7712" stroke="#F7F4F0" stroke-opacity="0.4" stroke-miterlimit="10"/>
<path d="M510.942 49.7404L547.788 49.689" stroke="#F7F4F0" stroke-opacity="0.4" stroke-miterlimit="10"/>
<path d="M572.356 49.6579L609.203 49.6064" stroke="#F7F4F0" stroke-opacity="0.4" stroke-miterlimit="10"/>
<path d="M633.771 49.5652L653.415 49.5549" stroke="#F7F4F0" stroke-opacity="0.4" stroke-miterlimit="10"/>
<path d="M945.748 49.5139H912.589" stroke="#F7F4F0" stroke-opacity="0.4" stroke-miterlimit="10"/>
<path d="M888.021 49.5344H854.862" stroke="#F7F4F0" stroke-opacity="0.4" stroke-miterlimit="10"/>
<path d="M729.684 523.422H738.533" stroke="#F7F4F0" stroke-opacity="0.4" stroke-miterlimit="10"/>
<path d="M729.684 636.854H738.533" stroke="#F7F4F0" stroke-opacity="0.4" stroke-miterlimit="10"/>
<path d="M729.684 523.422V636.864" stroke="#F7F4F0" stroke-opacity="0.4" stroke-miterlimit="10"/>
<path d="M738.533 628.009L738.522 532.256" stroke="#F7F4F0" stroke-opacity="0.4" stroke-miterlimit="10"/>
<path d="M828.44 636.854H819.592" stroke="#F7F4F0" stroke-opacity="0.4" stroke-miterlimit="10"/>
<path d="M828.44 523.422H819.592" stroke="#F7F4F0" stroke-opacity="0.4" stroke-miterlimit="10"/>
<path d="M828.44 636.854V523.422" stroke="#F7F4F0" stroke-opacity="0.4" stroke-miterlimit="10"/>
<path d="M819.592 532.256V628.009" stroke="#F7F4F0" stroke-opacity="0.4" stroke-miterlimit="10"/>
<path d="M753.263 523.422H738.522" stroke="#F7F4F0" stroke-opacity="0.4" stroke-miterlimit="10"/>
<path d="M738.522 532.256H753.274" stroke="#F7F4F0" stroke-opacity="0.4" stroke-miterlimit="10"/>
<path d="M753.263 532.256V523.422" stroke="#F7F4F0" stroke-opacity="0.4" stroke-miterlimit="10"/>
<path d="M819.591 523.422H804.851" stroke="#F7F4F0" stroke-opacity="0.4" stroke-miterlimit="10"/>
<path d="M804.861 532.256V523.422" stroke="#F7F4F0" stroke-opacity="0.4" stroke-miterlimit="10"/>
<path d="M804.861 532.256H819.602" stroke="#F7F4F0" stroke-opacity="0.4" stroke-miterlimit="10"/>
<path d="M738.533 636.854H819.592" stroke="#F7F4F0" stroke-opacity="0.4" stroke-miterlimit="10"/>
<path d="M819.592 628.009H738.533" stroke="#F7F4F0" stroke-opacity="0.4" stroke-miterlimit="10"/>
</g>
<defs>
<clipPath id="clip0_220_473">
<rect width="1404" height="780" fill="white"/>
</clipPath>
</defs>
</svg>
