<svg width="1378" height="1709" viewBox="0 0 1378 1709" fill="none" xmlns="http://www.w3.org/2000/svg">
<g clip-path="url(#clip0_86_10960)">
<path d="M49.0022 710.619L76.4982 728.356" stroke="#F7F4F0" stroke-opacity="0.4" stroke-miterlimit="10"/>
<path d="M76.4983 728.355L27.8657 802.946" stroke="#F7F4F0" stroke-opacity="0.4" stroke-miterlimit="10"/>
<path d="M27.8656 802.946L52.9885 818.631" stroke="#F7F4F0" stroke-opacity="0.4" stroke-miterlimit="10"/>
<path d="M52.9885 818.631L101.004 744.85" stroke="#F7F4F0" stroke-opacity="0.4" stroke-miterlimit="10"/>
<path d="M101.004 744.85L547.831 59.5587" stroke="#F7F4F0" stroke-opacity="0.4" stroke-miterlimit="10"/>
<path d="M547.831 59.5588L495.95 25.7316" stroke="#F7F4F0" stroke-opacity="0.4" stroke-miterlimit="10"/>
<path d="M232.537 429.377L259.848 447.17" stroke="#F7F4F0" stroke-opacity="0.4" stroke-miterlimit="10"/>
<path d="M259.848 447.17L506.957 68.1694" stroke="#F7F4F0" stroke-opacity="0.4" stroke-miterlimit="10"/>
<path d="M506.964 68.1592L479.808 50.4674" stroke="#F7F4F0" stroke-opacity="0.4" stroke-miterlimit="10"/>
<path d="M0.33834 785.19L28.2182 803.177" stroke="#F7F4F0" stroke-opacity="0.4" stroke-miterlimit="10"/>
<path d="M28.2184 803.176L76.4983 728.355" stroke="#F7F4F0" stroke-opacity="0.4" stroke-miterlimit="10"/>
<path d="M76.4982 728.356L49.0022 710.619" stroke="#F7F4F0" stroke-opacity="0.4" stroke-miterlimit="10"/>
<path d="M655.796 94.1239L591.271 193.022" stroke="#F7F4F0" stroke-opacity="0.4" stroke-miterlimit="10"/>
<path d="M591.271 193.022L794.108 325.361" stroke="#F7F4F0" stroke-opacity="0.4" stroke-miterlimit="10"/>
<path d="M794.108 325.361L858.644 226.47" stroke="#F7F4F0" stroke-opacity="0.4" stroke-miterlimit="10"/>
<path d="M858.633 226.463L655.806 94.1306" stroke="#F7F4F0" stroke-opacity="0.4" stroke-miterlimit="10"/>
<path d="M1105.78 528.709L1308.61 661.042" stroke="#F7F4F0" stroke-opacity="0.4" stroke-miterlimit="10"/>
<path d="M1308.61 661.042L1373.06 562.247" stroke="#F7F4F0" stroke-opacity="0.4" stroke-miterlimit="10"/>
<path d="M1373.06 562.247L1170.24 429.915" stroke="#F7F4F0" stroke-opacity="0.4" stroke-miterlimit="10"/>
<path d="M1170.24 429.915L1105.77 528.703" stroke="#F7F4F0" stroke-opacity="0.4" stroke-miterlimit="10"/>
<path d="M729.458 1260.06L824.564 1322.12" stroke="#F7F4F0" stroke-opacity="0.4" stroke-miterlimit="10"/>
<path d="M824.564 1322.12L882.669 1233.08" stroke="#F7F4F0" stroke-opacity="0.4" stroke-miterlimit="10"/>
<path d="M882.659 1233.08L787.549 1171.04" stroke="#F7F4F0" stroke-opacity="0.4" stroke-miterlimit="10"/>
<path d="M787.556 1171.03L729.458 1260.06" stroke="#F7F4F0" stroke-opacity="0.4" stroke-miterlimit="10"/>
<path d="M126.127 760.58L77.9838 834.943" stroke="#F7F4F0" stroke-opacity="0.4" stroke-miterlimit="10"/>
<path d="M77.9836 834.943L184.187 904.25" stroke="#F7F4F0" stroke-opacity="0.4" stroke-miterlimit="10"/>
<path d="M184.187 904.25L232.683 830.117" stroke="#F7F4F0" stroke-opacity="0.4" stroke-miterlimit="10"/>
<path d="M232.683 830.117L126.127 760.58" stroke="#F7F4F0" stroke-opacity="0.4" stroke-miterlimit="10"/>
<path d="M1119.06 1514.31L1345.32 1661.96" stroke="#F7F4F0" stroke-opacity="0.4" stroke-miterlimit="10"/>
<path d="M1345.32 1661.96L1355.02 1647.11" stroke="#F7F4F0" stroke-opacity="0.4" stroke-miterlimit="10"/>
<path d="M1355.02 1647.11L1361.47 1637.23" stroke="#F7F4F0" stroke-opacity="0.4" stroke-miterlimit="10"/>
<path d="M1361.47 1637.23L1377.55 1647.72" stroke="#F7F4F0" stroke-opacity="0.4" stroke-miterlimit="10"/>
<path d="M1377.55 1647.72L1392.39 1657.41" stroke="#F7F4F0" stroke-opacity="0.4" stroke-miterlimit="10"/>
<path d="M1403.38 1608.15L1161.02 1450" stroke="#F7F4F0" stroke-opacity="0.4" stroke-miterlimit="10"/>
<path d="M1161.02 1450L1135.2 1489.57" stroke="#F7F4F0" stroke-opacity="0.4" stroke-miterlimit="10"/>
<path d="M1135.2 1489.57L1119.05 1514.32" stroke="#F7F4F0" stroke-opacity="0.4" stroke-miterlimit="10"/>
<path d="M52.9783 818.625L77.7141 834.767" stroke="#F7F4F0" stroke-opacity="0.4" stroke-miterlimit="10"/>
<path d="M77.7141 834.767L126.127 760.58" stroke="#F7F4F0" stroke-opacity="0.4" stroke-miterlimit="10"/>
<path d="M126.127 760.58L232.59 830.056" stroke="#F7F4F0" stroke-opacity="0.4" stroke-miterlimit="10"/>
<path d="M232.59 830.056L184.177 904.243" stroke="#F7F4F0" stroke-opacity="0.4" stroke-miterlimit="10"/>
<path d="M184.187 904.25L729.458 1260.06" stroke="#F7F4F0" stroke-opacity="0.4" stroke-miterlimit="10"/>
<path d="M729.458 1260.06L787.556 1171.03" stroke="#F7F4F0" stroke-opacity="0.4" stroke-miterlimit="10"/>
<path d="M787.556 1171.03L882.669 1233.08" stroke="#F7F4F0" stroke-opacity="0.4" stroke-miterlimit="10"/>
<path d="M882.659 1233.08L824.547 1322.12" stroke="#F7F4F0" stroke-opacity="0.4" stroke-miterlimit="10"/>
<path d="M824.563 1322.12L843.004 1334.15" stroke="#F7F4F0" stroke-opacity="0.4" stroke-miterlimit="10"/>
<path d="M843.004 1334.15L1119.06 1514.31" stroke="#F7F4F0" stroke-opacity="0.4" stroke-miterlimit="10"/>
<path d="M1119.06 1514.31L1161.02 1450" stroke="#F7F4F0" stroke-opacity="0.4" stroke-miterlimit="10"/>
<path d="M1161.02 1450L1418.22 1617.83" stroke="#F7F4F0" stroke-opacity="0.4" stroke-miterlimit="10"/>
<path d="M1400.08 720.81L1051.34 493.227" stroke="#F7F4F0" stroke-opacity="0.4" stroke-miterlimit="10"/>
<path d="M1051.34 493.227L1083.64 443.735" stroke="#F7F4F0" stroke-opacity="0.4" stroke-miterlimit="10"/>
<path d="M1083.63 443.728L880.815 311.375" stroke="#F7F4F0" stroke-opacity="0.4" stroke-miterlimit="10"/>
<path d="M880.815 311.375L848.53 360.847" stroke="#F7F4F0" stroke-opacity="0.4" stroke-miterlimit="10"/>
<path d="M848.524 360.857L500.003 133.462" stroke="#F7F4F0" stroke-opacity="0.4" stroke-miterlimit="10"/>
<path d="M500.002 133.462L52.9781 818.625" stroke="#F7F4F0" stroke-opacity="0.4" stroke-miterlimit="10"/>
<path d="M1202.98 1077.09L1576.67 1320.96" stroke="#F7F4F0" stroke-opacity="0.4" stroke-miterlimit="10"/>
<path d="M1413.73 754.119L1315.14 905.189" stroke="#F7F4F0" stroke-opacity="0.4" stroke-miterlimit="10"/>
<path d="M1315.14 905.189L1202.98 1077.09" stroke="#F7F4F0" stroke-opacity="0.4" stroke-miterlimit="10"/>
<path d="M508.563 174.526L350.278 417.484" stroke="#F7F4F0" stroke-opacity="0.4" stroke-miterlimit="10"/>
<path d="M350.279 417.484L852.25 744.531" stroke="#F7F4F0" stroke-opacity="0.4" stroke-miterlimit="10"/>
<path d="M852.247 744.514L1042.76 452.328" stroke="#F7F4F0" stroke-opacity="0.4" stroke-miterlimit="10"/>
<path d="M1042.76 452.329L889.419 352.26" stroke="#F7F4F0" stroke-opacity="0.4" stroke-miterlimit="10"/>
<path d="M889.419 352.26L857.026 401.898" stroke="#F7F4F0" stroke-opacity="0.4" stroke-miterlimit="10"/>
<path d="M857.026 401.898L508.553 174.519" stroke="#F7F4F0" stroke-opacity="0.4" stroke-miterlimit="10"/>
<path d="M864.627 752.578L1238.21 995.976" stroke="#F7F4F0" stroke-opacity="0.4" stroke-miterlimit="10"/>
<path d="M1238.21 995.975L1294.67 909.457" stroke="#F7F4F0" stroke-opacity="0.4" stroke-miterlimit="10"/>
<path d="M1294.67 909.457L1396.36 753.637" stroke="#F7F4F0" stroke-opacity="0.4" stroke-miterlimit="10"/>
<path d="M1396.36 753.637L1022.87 509.933" stroke="#F7F4F0" stroke-opacity="0.4" stroke-miterlimit="10"/>
<path d="M1022.88 509.94L890.527 712.753" stroke="#F7F4F0" stroke-opacity="0.4" stroke-miterlimit="10"/>
<path d="M890.527 712.753L864.627 752.578" stroke="#F7F4F0" stroke-opacity="0.4" stroke-miterlimit="10"/>
<path d="M865.556 1313.6L1110.47 1473.43" stroke="#F7F4F0" stroke-opacity="0.4" stroke-miterlimit="10"/>
<path d="M1110.47 1473.43L1152.43 1409.12" stroke="#F7F4F0" stroke-opacity="0.4" stroke-miterlimit="10"/>
<path d="M1152.43 1409.12L1409.62 1576.96" stroke="#F7F4F0" stroke-opacity="0.4" stroke-miterlimit="10"/>
<path d="M1568.61 1333.33L1194.9 1089.46" stroke="#F7F4F0" stroke-opacity="0.4" stroke-miterlimit="10"/>
<path d="M1194.9 1089.47L1147.31 1162.4" stroke="#F7F4F0" stroke-opacity="0.4" stroke-miterlimit="10"/>
<path d="M1147.31 1162.4L1018.8 1078.55" stroke="#F7F4F0" stroke-opacity="0.4" stroke-miterlimit="10"/>
<path d="M1018.81 1078.56L865.545 1313.59" stroke="#F7F4F0" stroke-opacity="0.4" stroke-miterlimit="10"/>
<path d="M698.279 661.812L611.334 795.044" stroke="#F7F4F0" stroke-opacity="0.4" stroke-miterlimit="10"/>
<path d="M611.334 795.044L911.006 990.605" stroke="#F7F4F0" stroke-opacity="0.4" stroke-miterlimit="10"/>
<path d="M911.006 990.605L807.712 1148.91" stroke="#F7F4F0" stroke-opacity="0.4" stroke-miterlimit="10"/>
<path d="M807.712 1148.91L911.095 1216.38" stroke="#F7F4F0" stroke-opacity="0.4" stroke-miterlimit="10"/>
<path d="M911.095 1216.38L1014.45 1058.01" stroke="#F7F4F0" stroke-opacity="0.4" stroke-miterlimit="10"/>
<path d="M1014.45 1058.01L1142.95 1141.97" stroke="#F7F4F0" stroke-opacity="0.4" stroke-miterlimit="10"/>
<path d="M1142.95 1141.97L1230.14 1008.34" stroke="#F7F4F0" stroke-opacity="0.4" stroke-miterlimit="10"/>
<path d="M1230.15 1008.34L1101.48 924.522" stroke="#F7F4F0" stroke-opacity="0.4" stroke-miterlimit="10"/>
<path d="M1101.47 924.516L1059.7 988.528" stroke="#F7F4F0" stroke-opacity="0.4" stroke-miterlimit="10"/>
<path d="M1059.71 988.535L845.997 849.086" stroke="#F7F4F0" stroke-opacity="0.4" stroke-miterlimit="10"/>
<path d="M845.997 849.086L887.676 785.218" stroke="#F7F4F0" stroke-opacity="0.4" stroke-miterlimit="10"/>
<path d="M887.676 785.218L698.272 661.823" stroke="#F7F4F0" stroke-opacity="0.4" stroke-miterlimit="10"/>
<path d="M351.126 977.907L487.116 1066.65" stroke="#F7F4F0" stroke-opacity="0.4" stroke-miterlimit="10"/>
<path d="M487.116 1066.65L720.857 1219.19" stroke="#F7F4F0" stroke-opacity="0.4" stroke-miterlimit="10"/>
<path d="M720.868 1219.2L778.973 1130.16" stroke="#F7F4F0" stroke-opacity="0.4" stroke-miterlimit="10"/>
<path d="M778.963 1130.15L795.339 1140.84" stroke="#F7F4F0" stroke-opacity="0.4" stroke-miterlimit="10"/>
<path d="M795.339 1140.84L877.709 1014.62" stroke="#F7F4F0" stroke-opacity="0.4" stroke-miterlimit="10"/>
<path d="M877.709 1014.62L776.263 948.444" stroke="#F7F4F0" stroke-opacity="0.4" stroke-miterlimit="10"/>
<path d="M776.263 948.444L789.143 928.707" stroke="#F7F4F0" stroke-opacity="0.4" stroke-miterlimit="10"/>
<path d="M789.143 928.707L504.319 742.865" stroke="#F7F4F0" stroke-opacity="0.4" stroke-miterlimit="10"/>
<path d="M504.319 742.865L351.126 977.907" stroke="#F7F4F0" stroke-opacity="0.4" stroke-miterlimit="10"/>
<path d="M342.586 428.864L142.276 735.834" stroke="#F7F4F0" stroke-opacity="0.4" stroke-miterlimit="10"/>
<path d="M142.276 735.834L273.475 821.452" stroke="#F7F4F0" stroke-opacity="0.4" stroke-miterlimit="10"/>
<path d="M273.475 821.452L225.048 895.66" stroke="#F7F4F0" stroke-opacity="0.4" stroke-miterlimit="10"/>
<path d="M225.048 895.66L338.629 969.751" stroke="#F7F4F0" stroke-opacity="0.4" stroke-miterlimit="10"/>
<path d="M338.629 969.751L500.024 722.434" stroke="#F7F4F0" stroke-opacity="0.4" stroke-miterlimit="10"/>
<path d="M500.024 722.434L598.971 786.976" stroke="#F7F4F0" stroke-opacity="0.4" stroke-miterlimit="10"/>
<path d="M598.971 786.976L686.295 653.164" stroke="#F7F4F0" stroke-opacity="0.4" stroke-miterlimit="10"/>
<path d="M686.295 653.164L342.586 428.864" stroke="#F7F4F0" stroke-opacity="0.4" stroke-miterlimit="10"/>
<path d="M251.767 459.554L224.469 441.74" stroke="#F7F4F0" stroke-opacity="0.4" stroke-miterlimit="10"/>
<path d="M64.9887 686.122L92.3931 703.976" stroke="#F7F4F0" stroke-opacity="0.4" stroke-miterlimit="10"/>
<path d="M92.3932 703.976L251.767 459.554" stroke="#F7F4F0" stroke-opacity="0.4" stroke-miterlimit="10"/>
<path d="M1101.5 924.464L1062.76 983.83" stroke="#F7F4F0" stroke-opacity="0.4" stroke-miterlimit="10"/>
<path d="M1062.77 983.837L1049.42 975.119" stroke="#F7F4F0" stroke-opacity="0.4" stroke-miterlimit="10"/>
<path d="M1049.41 975.119L1088.14 915.774" stroke="#F7F4F0" stroke-opacity="0.4" stroke-miterlimit="10"/>
<path d="M1088.13 915.767L1101.5 924.464" stroke="#F7F4F0" stroke-opacity="0.4" stroke-miterlimit="10"/>
<path d="M1088.13 915.767L1049.4 975.112" stroke="#F7F4F0" stroke-opacity="0.4" stroke-miterlimit="10"/>
<path d="M1049.42 975.119L1036.06 966.402" stroke="#F7F4F0" stroke-opacity="0.4" stroke-miterlimit="10"/>
<path d="M1036.06 966.402L1074.78 907.056" stroke="#F7F4F0" stroke-opacity="0.4" stroke-miterlimit="10"/>
<path d="M1074.78 907.056L1088.14 915.774" stroke="#F7F4F0" stroke-opacity="0.4" stroke-miterlimit="10"/>
<path d="M1074.78 907.056L1036.06 966.402" stroke="#F7F4F0" stroke-opacity="0.4" stroke-miterlimit="10"/>
<path d="M1036.06 966.402L1022.7 957.684" stroke="#F7F4F0" stroke-opacity="0.4" stroke-miterlimit="10"/>
<path d="M1022.7 957.684L1061.43 898.339" stroke="#F7F4F0" stroke-opacity="0.4" stroke-miterlimit="10"/>
<path d="M1061.43 898.339L1074.78 907.056" stroke="#F7F4F0" stroke-opacity="0.4" stroke-miterlimit="10"/>
<path d="M1061.43 898.339L1022.7 957.684" stroke="#F7F4F0" stroke-opacity="0.4" stroke-miterlimit="10"/>
<path d="M1022.7 957.684L1009.34 948.966" stroke="#F7F4F0" stroke-opacity="0.4" stroke-miterlimit="10"/>
<path d="M1009.34 948.967L1048.07 889.621" stroke="#F7F4F0" stroke-opacity="0.4" stroke-miterlimit="10"/>
<path d="M1048.07 889.621L1061.43 898.339" stroke="#F7F4F0" stroke-opacity="0.4" stroke-miterlimit="10"/>
<path d="M1048.07 889.621L1009.34 948.967" stroke="#F7F4F0" stroke-opacity="0.4" stroke-miterlimit="10"/>
<path d="M1009.34 948.967L995.981 940.249" stroke="#F7F4F0" stroke-opacity="0.4" stroke-miterlimit="10"/>
<path d="M995.982 940.249L1015.35 910.576" stroke="#F7F4F0" stroke-opacity="0.4" stroke-miterlimit="10"/>
<path d="M1015.35 910.576L995.982 940.249" stroke="#F7F4F0" stroke-opacity="0.4" stroke-miterlimit="10"/>
<path d="M995.981 940.249L982.623 931.532" stroke="#F7F4F0" stroke-opacity="0.4" stroke-miterlimit="10"/>
<path d="M1021.24 901.543L1034.71 880.904" stroke="#F7F4F0" stroke-opacity="0.4" stroke-miterlimit="10"/>
<path d="M1034.71 880.904L1044 886.968" stroke="#F7F4F0" stroke-opacity="0.4" stroke-miterlimit="10"/>
<path d="M1034.71 880.904L1021.24 901.543" stroke="#F7F4F0" stroke-opacity="0.4" stroke-miterlimit="10"/>
<path d="M988.529 922.505L1021.36 872.193" stroke="#F7F4F0" stroke-opacity="0.4" stroke-miterlimit="10"/>
<path d="M1021.36 872.193L1034.71 880.904" stroke="#F7F4F0" stroke-opacity="0.4" stroke-miterlimit="10"/>
<path d="M1021.36 872.193L988.529 922.505" stroke="#F7F4F0" stroke-opacity="0.4" stroke-miterlimit="10"/>
<path d="M978.557 928.878L969.275 922.821" stroke="#F7F4F0" stroke-opacity="0.4" stroke-miterlimit="10"/>
<path d="M969.275 922.821L1008 863.476" stroke="#F7F4F0" stroke-opacity="0.4" stroke-miterlimit="10"/>
<path d="M1008 863.476L1021.36 872.193" stroke="#F7F4F0" stroke-opacity="0.4" stroke-miterlimit="10"/>
<path d="M1008 863.476L969.275 922.821" stroke="#F7F4F0" stroke-opacity="0.4" stroke-miterlimit="10"/>
<path d="M969.275 922.821L955.917 914.103" stroke="#F7F4F0" stroke-opacity="0.4" stroke-miterlimit="10"/>
<path d="M955.917 914.103L994.645 854.758" stroke="#F7F4F0" stroke-opacity="0.4" stroke-miterlimit="10"/>
<path d="M994.645 854.758L1008 863.476" stroke="#F7F4F0" stroke-opacity="0.4" stroke-miterlimit="10"/>
<path d="M994.645 854.758L955.917 914.103" stroke="#F7F4F0" stroke-opacity="0.4" stroke-miterlimit="10"/>
<path d="M955.917 914.103L942.558 905.386" stroke="#F7F4F0" stroke-opacity="0.4" stroke-miterlimit="10"/>
<path d="M942.558 905.386L981.286 846.041" stroke="#F7F4F0" stroke-opacity="0.4" stroke-miterlimit="10"/>
<path d="M981.286 846.041L994.645 854.758" stroke="#F7F4F0" stroke-opacity="0.4" stroke-miterlimit="10"/>
<path d="M981.286 846.041L942.558 905.386" stroke="#F7F4F0" stroke-opacity="0.4" stroke-miterlimit="10"/>
<path d="M942.558 905.386L929.2 896.668" stroke="#F7F4F0" stroke-opacity="0.4" stroke-miterlimit="10"/>
<path d="M929.21 896.675L967.938 837.33" stroke="#F7F4F0" stroke-opacity="0.4" stroke-miterlimit="10"/>
<path d="M967.928 837.323L981.286 846.041" stroke="#F7F4F0" stroke-opacity="0.4" stroke-miterlimit="10"/>
<path d="M967.928 837.323L929.2 896.668" stroke="#F7F4F0" stroke-opacity="0.4" stroke-miterlimit="10"/>
<path d="M929.21 896.675L915.852 887.958" stroke="#F7F4F0" stroke-opacity="0.4" stroke-miterlimit="10"/>
<path d="M915.852 887.958L954.58 828.612" stroke="#F7F4F0" stroke-opacity="0.4" stroke-miterlimit="10"/>
<path d="M954.58 828.612L967.938 837.33" stroke="#F7F4F0" stroke-opacity="0.4" stroke-miterlimit="10"/>
<path d="M954.58 828.612L915.852 887.958" stroke="#F7F4F0" stroke-opacity="0.4" stroke-miterlimit="10"/>
<path d="M915.852 887.958L902.493 879.24" stroke="#F7F4F0" stroke-opacity="0.4" stroke-miterlimit="10"/>
<path d="M902.493 879.24L941.221 819.895" stroke="#F7F4F0" stroke-opacity="0.4" stroke-miterlimit="10"/>
<path d="M941.221 819.895L954.58 828.612" stroke="#F7F4F0" stroke-opacity="0.4" stroke-miterlimit="10"/>
<path d="M941.221 819.895L902.493 879.24" stroke="#F7F4F0" stroke-opacity="0.4" stroke-miterlimit="10"/>
<path d="M902.493 879.24L889.135 870.523" stroke="#F7F4F0" stroke-opacity="0.4" stroke-miterlimit="10"/>
<path d="M889.135 870.523L927.863 811.177" stroke="#F7F4F0" stroke-opacity="0.4" stroke-miterlimit="10"/>
<path d="M927.863 811.177L941.221 819.895" stroke="#F7F4F0" stroke-opacity="0.4" stroke-miterlimit="10"/>
<path d="M927.863 811.177L889.135 870.523" stroke="#F7F4F0" stroke-opacity="0.4" stroke-miterlimit="10"/>
<path d="M889.135 870.523L875.777 861.805" stroke="#F7F4F0" stroke-opacity="0.4" stroke-miterlimit="10"/>
<path d="M875.776 861.805L914.504 802.46" stroke="#F7F4F0" stroke-opacity="0.4" stroke-miterlimit="10"/>
<path d="M914.504 802.46L927.863 811.177" stroke="#F7F4F0" stroke-opacity="0.4" stroke-miterlimit="10"/>
<path d="M914.504 802.46L875.776 861.805" stroke="#F7F4F0" stroke-opacity="0.4" stroke-miterlimit="10"/>
<path d="M875.776 861.805L862.428 853.094" stroke="#F7F4F0" stroke-opacity="0.4" stroke-miterlimit="10"/>
<path d="M862.429 853.094L901.156 793.749" stroke="#F7F4F0" stroke-opacity="0.4" stroke-miterlimit="10"/>
<path d="M901.146 793.742L914.505 802.46" stroke="#F7F4F0" stroke-opacity="0.4" stroke-miterlimit="10"/>
<path d="M901.146 793.742L862.418 853.087" stroke="#F7F4F0" stroke-opacity="0.4" stroke-miterlimit="10"/>
<path d="M862.428 853.094L849.07 844.377" stroke="#F7F4F0" stroke-opacity="0.4" stroke-miterlimit="10"/>
<path d="M849.07 844.377L887.798 785.031" stroke="#F7F4F0" stroke-opacity="0.4" stroke-miterlimit="10"/>
<path d="M887.798 785.031L901.156 793.749" stroke="#F7F4F0" stroke-opacity="0.4" stroke-miterlimit="10"/>
<path d="M1048.07 889.621L982.633 931.538" stroke="#F7F4F0" stroke-opacity="0.4" stroke-miterlimit="10"/>
<path d="M1044 886.968L978.568 928.885" stroke="#F7F4F0" stroke-opacity="0.4" stroke-miterlimit="10"/>
<path d="M1082.13 954.157L1068.77 945.44" stroke="#F7F4F0" stroke-opacity="0.4" stroke-miterlimit="10"/>
<path d="M1068.78 945.446L1015.35 910.576" stroke="#F7F4F0" stroke-opacity="0.4" stroke-miterlimit="10"/>
<path d="M1035.79 906.288L1015.35 910.577" stroke="#F7F4F0" stroke-opacity="0.4" stroke-miterlimit="10"/>
<path d="M1015.35 910.576L1019.65 931.014" stroke="#F7F4F0" stroke-opacity="0.4" stroke-miterlimit="10"/>
<path d="M1011.28 907.923L881.792 823.422" stroke="#F7F4F0" stroke-opacity="0.4" stroke-miterlimit="10"/>
<path d="M881.792 823.422L868.434 814.704" stroke="#F7F4F0" stroke-opacity="0.4" stroke-miterlimit="10"/>
<path d="M888.865 810.409L868.434 814.704" stroke="#F7F4F0" stroke-opacity="0.4" stroke-miterlimit="10"/>
<path d="M868.434 814.704L872.729 835.135" stroke="#F7F4F0" stroke-opacity="0.4" stroke-miterlimit="10"/>
<path d="M1101.5 924.464L1062.76 983.83" stroke="#F7F4F0" stroke-opacity="0.4" stroke-miterlimit="10"/>
<path d="M1062.77 983.837L1049.42 975.119" stroke="#F7F4F0" stroke-opacity="0.4" stroke-miterlimit="10"/>
<path d="M1049.41 975.119L1088.14 915.774" stroke="#F7F4F0" stroke-opacity="0.4" stroke-miterlimit="10"/>
<path d="M1088.13 915.767L1101.5 924.464" stroke="#F7F4F0" stroke-opacity="0.4" stroke-miterlimit="10"/>
<path d="M1088.13 915.767L1049.4 975.112" stroke="#F7F4F0" stroke-opacity="0.4" stroke-miterlimit="10"/>
<path d="M1049.42 975.119L1036.06 966.402" stroke="#F7F4F0" stroke-opacity="0.4" stroke-miterlimit="10"/>
<path d="M1036.06 966.402L1074.78 907.056" stroke="#F7F4F0" stroke-opacity="0.4" stroke-miterlimit="10"/>
<path d="M1074.78 907.056L1088.14 915.774" stroke="#F7F4F0" stroke-opacity="0.4" stroke-miterlimit="10"/>
<path d="M1074.78 907.056L1036.06 966.402" stroke="#F7F4F0" stroke-opacity="0.4" stroke-miterlimit="10"/>
<path d="M1036.06 966.402L1022.7 957.684" stroke="#F7F4F0" stroke-opacity="0.4" stroke-miterlimit="10"/>
<path d="M1022.7 957.684L1061.43 898.339" stroke="#F7F4F0" stroke-opacity="0.4" stroke-miterlimit="10"/>
<path d="M1061.43 898.339L1074.78 907.056" stroke="#F7F4F0" stroke-opacity="0.4" stroke-miterlimit="10"/>
<path d="M1061.43 898.339L1022.7 957.684" stroke="#F7F4F0" stroke-opacity="0.4" stroke-miterlimit="10"/>
<path d="M1022.7 957.684L1009.34 948.966" stroke="#F7F4F0" stroke-opacity="0.4" stroke-miterlimit="10"/>
<path d="M1009.34 948.967L1048.07 889.621" stroke="#F7F4F0" stroke-opacity="0.4" stroke-miterlimit="10"/>
<path d="M1048.07 889.621L1061.43 898.339" stroke="#F7F4F0" stroke-opacity="0.4" stroke-miterlimit="10"/>
<path d="M1048.07 889.621L1009.34 948.967" stroke="#F7F4F0" stroke-opacity="0.4" stroke-miterlimit="10"/>
<path d="M1009.34 948.967L995.981 940.249" stroke="#F7F4F0" stroke-opacity="0.4" stroke-miterlimit="10"/>
<path d="M995.982 940.249L1015.35 910.576" stroke="#F7F4F0" stroke-opacity="0.4" stroke-miterlimit="10"/>
<path d="M1015.35 910.576L995.982 940.249" stroke="#F7F4F0" stroke-opacity="0.4" stroke-miterlimit="10"/>
<path d="M995.981 940.249L982.623 931.532" stroke="#F7F4F0" stroke-opacity="0.4" stroke-miterlimit="10"/>
<path d="M1021.24 901.543L1034.71 880.904" stroke="#F7F4F0" stroke-opacity="0.4" stroke-miterlimit="10"/>
<path d="M1034.71 880.904L1044 886.968" stroke="#F7F4F0" stroke-opacity="0.4" stroke-miterlimit="10"/>
<path d="M1034.71 880.904L1021.24 901.543" stroke="#F7F4F0" stroke-opacity="0.4" stroke-miterlimit="10"/>
<path d="M988.528 922.505L992.034 917.133" stroke="#F7F4F0" stroke-opacity="0.4" stroke-miterlimit="10"/>
<path d="M1002.53 901.046L1007.36 893.641" stroke="#F7F4F0" stroke-opacity="0.4" stroke-miterlimit="10"/>
<path d="M1017.86 877.555L1021.36 872.193" stroke="#F7F4F0" stroke-opacity="0.4" stroke-miterlimit="10"/>
<path d="M1021.36 872.193L1034.71 880.904" stroke="#F7F4F0" stroke-opacity="0.4" stroke-miterlimit="10"/>
<path d="M1021.36 872.193L1017.86 877.555" stroke="#F7F4F0" stroke-opacity="0.4" stroke-miterlimit="10"/>
<path d="M1007.36 893.641L1002.53 901.046" stroke="#F7F4F0" stroke-opacity="0.4" stroke-miterlimit="10"/>
<path d="M992.034 917.133L988.528 922.505" stroke="#F7F4F0" stroke-opacity="0.4" stroke-miterlimit="10"/>
<path d="M978.557 928.878L969.275 922.821" stroke="#F7F4F0" stroke-opacity="0.4" stroke-miterlimit="10"/>
<path d="M969.275 922.821L975.725 912.937" stroke="#F7F4F0" stroke-opacity="0.4" stroke-miterlimit="10"/>
<path d="M986.223 896.851L991.055 889.446" stroke="#F7F4F0" stroke-opacity="0.4" stroke-miterlimit="10"/>
<path d="M1001.55 873.36L1008.01 863.465" stroke="#F7F4F0" stroke-opacity="0.4" stroke-miterlimit="10"/>
<path d="M1008 863.476L1021.36 872.193" stroke="#F7F4F0" stroke-opacity="0.4" stroke-miterlimit="10"/>
<path d="M1008 863.476L1001.55 873.36" stroke="#F7F4F0" stroke-opacity="0.4" stroke-miterlimit="10"/>
<path d="M991.055 889.446L986.223 896.851" stroke="#F7F4F0" stroke-opacity="0.4" stroke-miterlimit="10"/>
<path d="M975.725 912.937L969.275 922.821" stroke="#F7F4F0" stroke-opacity="0.4" stroke-miterlimit="10"/>
<path d="M969.275 922.821L955.917 914.103" stroke="#F7F4F0" stroke-opacity="0.4" stroke-miterlimit="10"/>
<path d="M955.917 914.103L962.367 904.219" stroke="#F7F4F0" stroke-opacity="0.4" stroke-miterlimit="10"/>
<path d="M972.864 888.133L977.697 880.728" stroke="#F7F4F0" stroke-opacity="0.4" stroke-miterlimit="10"/>
<path d="M988.194 864.642L994.651 854.748" stroke="#F7F4F0" stroke-opacity="0.4" stroke-miterlimit="10"/>
<path d="M994.645 854.758L1008 863.476" stroke="#F7F4F0" stroke-opacity="0.4" stroke-miterlimit="10"/>
<path d="M994.645 854.758L988.194 864.642" stroke="#F7F4F0" stroke-opacity="0.4" stroke-miterlimit="10"/>
<path d="M977.697 880.728L972.864 888.133" stroke="#F7F4F0" stroke-opacity="0.4" stroke-miterlimit="10"/>
<path d="M962.367 904.219L955.917 914.103" stroke="#F7F4F0" stroke-opacity="0.4" stroke-miterlimit="10"/>
<path d="M955.917 914.103L942.558 905.386" stroke="#F7F4F0" stroke-opacity="0.4" stroke-miterlimit="10"/>
<path d="M942.558 905.386L949.008 895.502" stroke="#F7F4F0" stroke-opacity="0.4" stroke-miterlimit="10"/>
<path d="M959.506 879.416L964.338 872.011" stroke="#F7F4F0" stroke-opacity="0.4" stroke-miterlimit="10"/>
<path d="M974.836 855.925L981.293 846.03" stroke="#F7F4F0" stroke-opacity="0.4" stroke-miterlimit="10"/>
<path d="M981.286 846.041L994.645 854.758" stroke="#F7F4F0" stroke-opacity="0.4" stroke-miterlimit="10"/>
<path d="M981.286 846.041L974.836 855.924" stroke="#F7F4F0" stroke-opacity="0.4" stroke-miterlimit="10"/>
<path d="M964.338 872.011L959.506 879.416" stroke="#F7F4F0" stroke-opacity="0.4" stroke-miterlimit="10"/>
<path d="M949.008 895.502L942.558 905.386" stroke="#F7F4F0" stroke-opacity="0.4" stroke-miterlimit="10"/>
<path d="M942.558 905.386L929.2 896.668" stroke="#F7F4F0" stroke-opacity="0.4" stroke-miterlimit="10"/>
<path d="M929.21 896.675L935.66 886.791" stroke="#F7F4F0" stroke-opacity="0.4" stroke-miterlimit="10"/>
<path d="M946.147 870.698L950.98 863.293" stroke="#F7F4F0" stroke-opacity="0.4" stroke-miterlimit="10"/>
<path d="M961.478 847.207L967.935 837.313" stroke="#F7F4F0" stroke-opacity="0.4" stroke-miterlimit="10"/>
<path d="M967.928 837.323L981.286 846.041" stroke="#F7F4F0" stroke-opacity="0.4" stroke-miterlimit="10"/>
<path d="M967.928 837.323L961.478 847.207" stroke="#F7F4F0" stroke-opacity="0.4" stroke-miterlimit="10"/>
<path d="M950.98 863.293L946.147 870.698" stroke="#F7F4F0" stroke-opacity="0.4" stroke-miterlimit="10"/>
<path d="M935.66 886.791L929.21 896.675" stroke="#F7F4F0" stroke-opacity="0.4" stroke-miterlimit="10"/>
<path d="M929.21 896.675L915.852 887.958" stroke="#F7F4F0" stroke-opacity="0.4" stroke-miterlimit="10"/>
<path d="M915.852 887.958L922.302 878.074" stroke="#F7F4F0" stroke-opacity="0.4" stroke-miterlimit="10"/>
<path d="M932.799 861.988L937.632 854.583" stroke="#F7F4F0" stroke-opacity="0.4" stroke-miterlimit="10"/>
<path d="M948.13 838.496L954.586 828.602" stroke="#F7F4F0" stroke-opacity="0.4" stroke-miterlimit="10"/>
<path d="M954.58 828.612L967.938 837.33" stroke="#F7F4F0" stroke-opacity="0.4" stroke-miterlimit="10"/>
<path d="M954.58 828.612L948.129 838.496" stroke="#F7F4F0" stroke-opacity="0.4" stroke-miterlimit="10"/>
<path d="M937.632 854.583L932.799 861.988" stroke="#F7F4F0" stroke-opacity="0.4" stroke-miterlimit="10"/>
<path d="M922.302 878.074L915.852 887.958" stroke="#F7F4F0" stroke-opacity="0.4" stroke-miterlimit="10"/>
<path d="M915.852 887.958L902.493 879.24" stroke="#F7F4F0" stroke-opacity="0.4" stroke-miterlimit="10"/>
<path d="M902.493 879.24L908.943 869.356" stroke="#F7F4F0" stroke-opacity="0.4" stroke-miterlimit="10"/>
<path d="M919.441 853.27L924.273 845.865" stroke="#F7F4F0" stroke-opacity="0.4" stroke-miterlimit="10"/>
<path d="M934.771 829.779L941.228 819.885" stroke="#F7F4F0" stroke-opacity="0.4" stroke-miterlimit="10"/>
<path d="M941.221 819.895L954.58 828.612" stroke="#F7F4F0" stroke-opacity="0.4" stroke-miterlimit="10"/>
<path d="M941.221 819.895L934.771 829.779" stroke="#F7F4F0" stroke-opacity="0.4" stroke-miterlimit="10"/>
<path d="M924.273 845.865L919.441 853.27" stroke="#F7F4F0" stroke-opacity="0.4" stroke-miterlimit="10"/>
<path d="M908.943 869.356L902.493 879.24" stroke="#F7F4F0" stroke-opacity="0.4" stroke-miterlimit="10"/>
<path d="M902.493 879.24L889.135 870.523" stroke="#F7F4F0" stroke-opacity="0.4" stroke-miterlimit="10"/>
<path d="M889.135 870.523L895.585 860.639" stroke="#F7F4F0" stroke-opacity="0.4" stroke-miterlimit="10"/>
<path d="M906.083 844.553L910.915 837.147" stroke="#F7F4F0" stroke-opacity="0.4" stroke-miterlimit="10"/>
<path d="M921.413 821.061L927.87 811.167" stroke="#F7F4F0" stroke-opacity="0.4" stroke-miterlimit="10"/>
<path d="M927.863 811.177L941.221 819.895" stroke="#F7F4F0" stroke-opacity="0.4" stroke-miterlimit="10"/>
<path d="M927.863 811.177L921.413 821.061" stroke="#F7F4F0" stroke-opacity="0.4" stroke-miterlimit="10"/>
<path d="M910.915 837.147L906.083 844.553" stroke="#F7F4F0" stroke-opacity="0.4" stroke-miterlimit="10"/>
<path d="M895.585 860.639L889.135 870.523" stroke="#F7F4F0" stroke-opacity="0.4" stroke-miterlimit="10"/>
<path d="M889.135 870.523L875.777 861.805" stroke="#F7F4F0" stroke-opacity="0.4" stroke-miterlimit="10"/>
<path d="M875.776 861.805L882.227 851.921" stroke="#F7F4F0" stroke-opacity="0.4" stroke-miterlimit="10"/>
<path d="M892.724 835.835L897.557 828.43" stroke="#F7F4F0" stroke-opacity="0.4" stroke-miterlimit="10"/>
<path d="M908.054 812.344L914.511 802.449" stroke="#F7F4F0" stroke-opacity="0.4" stroke-miterlimit="10"/>
<path d="M914.504 802.46L927.863 811.177" stroke="#F7F4F0" stroke-opacity="0.4" stroke-miterlimit="10"/>
<path d="M914.504 802.46L908.054 812.344" stroke="#F7F4F0" stroke-opacity="0.4" stroke-miterlimit="10"/>
<path d="M897.557 828.43L892.724 835.835" stroke="#F7F4F0" stroke-opacity="0.4" stroke-miterlimit="10"/>
<path d="M882.227 851.921L875.776 861.805" stroke="#F7F4F0" stroke-opacity="0.4" stroke-miterlimit="10"/>
<path d="M875.776 861.805L862.428 853.094" stroke="#F7F4F0" stroke-opacity="0.4" stroke-miterlimit="10"/>
<path d="M862.429 853.094L868.879 843.21" stroke="#F7F4F0" stroke-opacity="0.4" stroke-miterlimit="10"/>
<path d="M879.376 827.124L884.209 819.719" stroke="#F7F4F0" stroke-opacity="0.4" stroke-miterlimit="10"/>
<path d="M894.706 803.633L901.163 793.739" stroke="#F7F4F0" stroke-opacity="0.4" stroke-miterlimit="10"/>
<path d="M901.146 793.742L914.505 802.46" stroke="#F7F4F0" stroke-opacity="0.4" stroke-miterlimit="10"/>
<path d="M901.146 793.742L894.696 803.626" stroke="#F7F4F0" stroke-opacity="0.4" stroke-miterlimit="10"/>
<path d="M884.209 819.719L879.376 827.124" stroke="#F7F4F0" stroke-opacity="0.4" stroke-miterlimit="10"/>
<path d="M868.879 843.21L862.429 853.094" stroke="#F7F4F0" stroke-opacity="0.4" stroke-miterlimit="10"/>
<path d="M862.428 853.094L849.07 844.377" stroke="#F7F4F0" stroke-opacity="0.4" stroke-miterlimit="10"/>
<path d="M849.07 844.377L855.52 834.493" stroke="#F7F4F0" stroke-opacity="0.4" stroke-miterlimit="10"/>
<path d="M866.018 818.407L870.85 811.002" stroke="#F7F4F0" stroke-opacity="0.4" stroke-miterlimit="10"/>
<path d="M881.348 794.916L887.805 785.021" stroke="#F7F4F0" stroke-opacity="0.4" stroke-miterlimit="10"/>
<path d="M887.798 785.031L901.156 793.749" stroke="#F7F4F0" stroke-opacity="0.4" stroke-miterlimit="10"/>
<path d="M1048.07 889.621L982.633 931.538" stroke="#F7F4F0" stroke-opacity="0.4" stroke-miterlimit="10"/>
<path d="M1044 886.968L978.568 928.885" stroke="#F7F4F0" stroke-opacity="0.4" stroke-miterlimit="10"/>
<path d="M1082.13 954.157L1068.77 945.44" stroke="#F7F4F0" stroke-opacity="0.4" stroke-miterlimit="10"/>
<path d="M1068.78 945.446L1015.35 910.576" stroke="#F7F4F0" stroke-opacity="0.4" stroke-miterlimit="10"/>
<path d="M1035.79 906.288L1015.35 910.577" stroke="#F7F4F0" stroke-opacity="0.4" stroke-miterlimit="10"/>
<path d="M1015.35 910.576L1019.65 931.014" stroke="#F7F4F0" stroke-opacity="0.4" stroke-miterlimit="10"/>
<path d="M1011.28 907.923L881.792 823.422" stroke="#F7F4F0" stroke-opacity="0.4" stroke-miterlimit="10"/>
<path d="M881.792 823.422L868.434 814.704" stroke="#F7F4F0" stroke-opacity="0.4" stroke-miterlimit="10"/>
<path d="M888.865 810.409L868.434 814.704" stroke="#F7F4F0" stroke-opacity="0.4" stroke-miterlimit="10"/>
<path d="M868.434 814.704L872.729 835.135" stroke="#F7F4F0" stroke-opacity="0.4" stroke-miterlimit="10"/>
<path d="M916.016 1162.36L848.737 1118.45" stroke="#F7F4F0" stroke-opacity="0.4" stroke-miterlimit="10"/>
<path d="M848.737 1118.45L909.103 1025.95" stroke="#F7F4F0" stroke-opacity="0.4" stroke-miterlimit="10"/>
<path d="M909.103 1025.95L976.382 1069.86" stroke="#F7F4F0" stroke-opacity="0.4" stroke-miterlimit="10"/>
<path d="M976.382 1069.86L916.009 1162.37" stroke="#F7F4F0" stroke-opacity="0.4" stroke-miterlimit="10"/>
<path fill-rule="evenodd" clip-rule="evenodd" d="M775.003 722.381L748.653 735.724L773.372 751.87L775.003 722.381Z" fill="#F7F4F0" fill-opacity="0.4" stroke="#F7F4F0" stroke-opacity="0.4" stroke-miterlimit="10"/>
<path fill-rule="evenodd" clip-rule="evenodd" d="M642.959 762.784L656.302 789.134L672.454 764.405L642.959 762.784Z" fill="#F7F4F0" fill-opacity="0.4" stroke="#F7F4F0" stroke-opacity="0.4" stroke-miterlimit="10"/>
<path fill-rule="evenodd" clip-rule="evenodd" d="M1165.92 977.071L1139.57 990.403L1164.28 1006.56L1165.92 977.071Z" fill="#F7F4F0" fill-opacity="0.4" stroke="#F7F4F0" stroke-opacity="0.4" stroke-miterlimit="10"/>
<path fill-rule="evenodd" clip-rule="evenodd" d="M1091.37 1097.06L1117.73 1083.72L1093 1067.58L1091.37 1097.06Z" fill="#F7F4F0" fill-opacity="0.4" stroke="#F7F4F0" stroke-opacity="0.4" stroke-miterlimit="10"/>
<path d="M495.95 25.7314L513.208 36.9938" stroke="#F7F4F0" stroke-opacity="0.4" stroke-miterlimit="10"/>
<path d="M537.958 53.1153L575.07 77.3046" stroke="#F7F4F0" stroke-opacity="0.4" stroke-miterlimit="10"/>
<path d="M599.806 93.447L639.407 119.261" stroke="#F7F4F0" stroke-opacity="0.4" stroke-miterlimit="10"/>
<path d="M655.82 94.1099L683.024 111.863" stroke="#F7F4F0" stroke-opacity="0.4" stroke-miterlimit="10"/>
<path d="M707.76 128.005L744.859 152.215" stroke="#F7F4F0" stroke-opacity="0.4" stroke-miterlimit="10"/>
<path d="M769.594 168.358L806.693 192.568" stroke="#F7F4F0" stroke-opacity="0.4" stroke-miterlimit="10"/>
<path d="M831.429 208.71L858.633 226.463" stroke="#F7F4F0" stroke-opacity="0.4" stroke-miterlimit="10"/>
<path d="M1138.05 479.241L1146.39 466.464" stroke="#F7F4F0" stroke-opacity="0.4" stroke-miterlimit="10"/>
<path d="M1161.91 442.672L1170.25 429.894" stroke="#F7F4F0" stroke-opacity="0.4" stroke-miterlimit="10"/>
<path d="M1170.25 429.894L1197.45 447.647" stroke="#F7F4F0" stroke-opacity="0.4" stroke-miterlimit="10"/>
<path d="M1222.19 463.789L1259.29 487.999" stroke="#F7F4F0" stroke-opacity="0.4" stroke-miterlimit="10"/>
<path d="M1284.02 504.142L1321.12 528.352" stroke="#F7F4F0" stroke-opacity="0.4" stroke-miterlimit="10"/>
<path d="M1345.86 544.494L1373.06 562.247" stroke="#F7F4F0" stroke-opacity="0.4" stroke-miterlimit="10"/>
<path d="M1373.06 562.247L1364.74 575.004" stroke="#F7F4F0" stroke-opacity="0.4" stroke-miterlimit="10"/>
<path d="M1349.21 598.796L1340.87 611.573" stroke="#F7F4F0" stroke-opacity="0.4" stroke-miterlimit="10"/>
<path d="M639.4 119.271L655.82 94.1099" stroke="#F7F4F0" stroke-opacity="0.4" stroke-miterlimit="10"/>
<path d="M858.633 226.463L850.318 239.227" stroke="#F7F4F0" stroke-opacity="0.4" stroke-miterlimit="10"/>
<path d="M834.474 263.506L826.136 276.284" stroke="#F7F4F0" stroke-opacity="0.4" stroke-miterlimit="10"/>
<path d="M826.136 276.284L845.938 289.177" stroke="#F7F4F0" stroke-opacity="0.4" stroke-miterlimit="10"/>
<path d="M870.694 305.288L907.826 329.446" stroke="#F7F4F0" stroke-opacity="0.4" stroke-miterlimit="10"/>
<path d="M932.589 345.547L969.722 369.705" stroke="#F7F4F0" stroke-opacity="0.4" stroke-miterlimit="10"/>
<path d="M994.478 385.816L1031.61 409.974" stroke="#F7F4F0" stroke-opacity="0.4" stroke-miterlimit="10"/>
<path d="M1056.37 426.086L1093.5 450.244" stroke="#F7F4F0" stroke-opacity="0.4" stroke-miterlimit="10"/>
<path d="M1118.26 466.344L1138.05 479.241" stroke="#F7F4F0" stroke-opacity="0.4" stroke-miterlimit="10"/>
<path d="M1374.27 633.367L1340.88 611.58" stroke="#F7F4F0" stroke-opacity="0.4" stroke-miterlimit="10"/>
<path d="M1361.47 1637.23L1392.39 1657.41" stroke="#F7F4F0" stroke-opacity="0.4" stroke-miterlimit="10"/>
<path d="M1392.39 1657.41L1376.2 1682.09" stroke="#F7F4F0" stroke-opacity="0.4" stroke-miterlimit="10"/>
<path d="M1376.19 1682.09L1345.32 1661.96" stroke="#F7F4F0" stroke-opacity="0.4" stroke-miterlimit="10"/>
<path d="M1345.32 1661.96L1361.47 1637.23" stroke="#F7F4F0" stroke-opacity="0.4" stroke-miterlimit="10"/>
<path d="M903.335 1006.69L912.244 1012.5" stroke="#F7F4F0" stroke-opacity="0.4" stroke-miterlimit="10"/>
<path d="M828.769 1120.95L837.678 1126.76" stroke="#F7F4F0" stroke-opacity="0.4" stroke-miterlimit="10"/>
<path d="M903.335 1006.69L828.763 1120.96" stroke="#F7F4F0" stroke-opacity="0.4" stroke-miterlimit="10"/>
<path d="M843.492 1117.85L906.427 1021.39" stroke="#F7F4F0" stroke-opacity="0.4" stroke-miterlimit="10"/>
<path d="M928.2 1185.84L919.291 1180.02" stroke="#F7F4F0" stroke-opacity="0.4" stroke-miterlimit="10"/>
<path d="M1002.77 1071.57L993.857 1065.76" stroke="#F7F4F0" stroke-opacity="0.4" stroke-miterlimit="10"/>
<path d="M928.2 1185.84L1002.77 1071.57" stroke="#F7F4F0" stroke-opacity="0.4" stroke-miterlimit="10"/>
<path d="M988.05 1074.66L925.105 1171.11" stroke="#F7F4F0" stroke-opacity="0.4" stroke-miterlimit="10"/>
<path d="M927.075 1022.18L912.234 1012.49" stroke="#F7F4F0" stroke-opacity="0.4" stroke-miterlimit="10"/>
<path d="M906.427 1021.39L921.279 1031.09" stroke="#F7F4F0" stroke-opacity="0.4" stroke-miterlimit="10"/>
<path d="M921.268 1031.08L927.075 1022.18" stroke="#F7F4F0" stroke-opacity="0.4" stroke-miterlimit="10"/>
<path d="M993.857 1065.76L979.015 1056.08" stroke="#F7F4F0" stroke-opacity="0.4" stroke-miterlimit="10"/>
<path d="M973.219 1064.98L979.026 1056.08" stroke="#F7F4F0" stroke-opacity="0.4" stroke-miterlimit="10"/>
<path d="M973.219 1064.98L988.06 1074.67" stroke="#F7F4F0" stroke-opacity="0.4" stroke-miterlimit="10"/>
<path d="M837.678 1126.76L919.291 1180.02" stroke="#F7F4F0" stroke-opacity="0.4" stroke-miterlimit="10"/>
<path d="M925.105 1171.11L843.492 1117.85" stroke="#F7F4F0" stroke-opacity="0.4" stroke-miterlimit="10"/>
</g>
<defs>
<clipPath id="clip0_86_10960">
<rect width="1687.97" height="938.212" fill="white" transform="translate(512.742) rotate(33.1279)"/>
</clipPath>
</defs>
</svg>
