<svg width="941" height="1513" viewBox="0 0 941 1513" fill="none" xmlns="http://www.w3.org/2000/svg">
<g clip-path="url(#clip0_23_204)">
<path d="M69.933 177.335L76.9062 202.819" stroke="#7E786E" stroke-opacity="0.4" stroke-miterlimit="10"/>
<path d="M76.9063 202.819L7.46406 221.457" stroke="#7E786E" stroke-opacity="0.4" stroke-miterlimit="10"/>
<path d="M7.46394 221.457L14.1159 244.428" stroke="#7E786E" stroke-opacity="0.4" stroke-miterlimit="10"/>
<path d="M14.1161 244.428L82.7508 225.944" stroke="#7E786E" stroke-opacity="0.4" stroke-miterlimit="10"/>
<path d="M82.7507 225.944L720.755 54.7221" stroke="#7E786E" stroke-opacity="0.4" stroke-miterlimit="10"/>
<path d="M720.755 54.7221L707.792 6.42131" stroke="#7E786E" stroke-opacity="0.4" stroke-miterlimit="10"/>
<path d="M331.863 107.151L338.695 132.569" stroke="#7E786E" stroke-opacity="0.4" stroke-miterlimit="10"/>
<path d="M338.695 132.569L691.537 37.8698" stroke="#7E786E" stroke-opacity="0.4" stroke-miterlimit="10"/>
<path d="M691.547 37.8672L684.754 12.5941" stroke="#7E786E" stroke-opacity="0.4" stroke-miterlimit="10"/>
<path d="M0.482998 195.944L7.552 221.785" stroke="#7E786E" stroke-opacity="0.4" stroke-miterlimit="10"/>
<path d="M7.55206 221.785L76.9063 202.819" stroke="#7E786E" stroke-opacity="0.4" stroke-miterlimit="10"/>
<path d="M76.9062 202.819L69.933 177.335" stroke="#7E786E" stroke-opacity="0.4" stroke-miterlimit="10"/>
<path d="M767.041 133.693L674.943 158.381" stroke="#7E786E" stroke-opacity="0.4" stroke-miterlimit="10"/>
<path d="M674.943 158.381L725.577 347.272" stroke="#7E786E" stroke-opacity="0.4" stroke-miterlimit="10"/>
<path d="M725.577 347.272L817.678 322.594" stroke="#7E786E" stroke-opacity="0.4" stroke-miterlimit="10"/>
<path d="M817.675 322.584L767.044 133.703" stroke="#7E786E" stroke-opacity="0.4" stroke-miterlimit="10"/>
<path d="M803.378 637.516L854.01 826.397" stroke="#7E786E" stroke-opacity="0.4" stroke-miterlimit="10"/>
<path d="M854.009 826.397L946.011 801.735" stroke="#7E786E" stroke-opacity="0.4" stroke-miterlimit="10"/>
<path d="M946.011 801.735L895.38 612.854" stroke="#7E786E" stroke-opacity="0.4" stroke-miterlimit="10"/>
<path d="M895.38 612.854L803.376 637.506" stroke="#7E786E" stroke-opacity="0.4" stroke-miterlimit="10"/>
<path d="M1010.17 1132.73L941.062 1151.25" stroke="#7E786E" stroke-opacity="0.4" stroke-miterlimit="10"/>
<path d="M941.063 1151.25L982.422 1305.76" stroke="#7E786E" stroke-opacity="0.4" stroke-miterlimit="10"/>
<path d="M982.413 1305.76L789.985 1357.26" stroke="#7E786E" stroke-opacity="0.4" stroke-miterlimit="10"/>
<path d="M789.984 1357.26L799.384 1392.41" stroke="#7E786E" stroke-opacity="0.4" stroke-miterlimit="10"/>
<path d="M799.384 1392.41L1060.99 1322.29" stroke="#7E786E" stroke-opacity="0.4" stroke-miterlimit="10"/>
<path d="M182.945 874.428L206.679 963.004" stroke="#7E786E" stroke-opacity="0.4" stroke-miterlimit="10"/>
<path d="M206.679 963.004L289.603 940.784" stroke="#7E786E" stroke-opacity="0.4" stroke-miterlimit="10"/>
<path d="M289.601 940.774L265.85 852.214" stroke="#7E786E" stroke-opacity="0.4" stroke-miterlimit="10"/>
<path d="M265.86 852.211L182.945 874.428" stroke="#7E786E" stroke-opacity="0.4" stroke-miterlimit="10"/>
<path d="M89.379 248.942L20.3536 267.707" stroke="#7E786E" stroke-opacity="0.4" stroke-miterlimit="10"/>
<path d="M20.3536 267.707L46.8567 366.617" stroke="#7E786E" stroke-opacity="0.4" stroke-miterlimit="10"/>
<path d="M46.8566 366.617L115.97 348.181" stroke="#7E786E" stroke-opacity="0.4" stroke-miterlimit="10"/>
<path d="M115.97 348.181L89.379 248.942" stroke="#7E786E" stroke-opacity="0.4" stroke-miterlimit="10"/>
<path d="M280.17 1237.28L336.634 1448" stroke="#7E786E" stroke-opacity="0.4" stroke-miterlimit="10"/>
<path d="M336.634 1448L350.466 1444.3" stroke="#7E786E" stroke-opacity="0.4" stroke-miterlimit="10"/>
<path d="M350.466 1444.3L359.671 1441.83" stroke="#7E786E" stroke-opacity="0.4" stroke-miterlimit="10"/>
<path d="M359.671 1441.83L363.686 1456.81" stroke="#7E786E" stroke-opacity="0.4" stroke-miterlimit="10"/>
<path d="M363.686 1456.81L367.39 1470.64" stroke="#7E786E" stroke-opacity="0.4" stroke-miterlimit="10"/>
<path d="M367.39 1470.64L404.249 1460.76" stroke="#7E786E" stroke-opacity="0.4" stroke-miterlimit="10"/>
<path d="M404.249 1460.76L400.545 1446.94" stroke="#7E786E" stroke-opacity="0.4" stroke-miterlimit="10"/>
<path d="M400.545 1446.94L340.058 1221.23" stroke="#7E786E" stroke-opacity="0.4" stroke-miterlimit="10"/>
<path d="M340.058 1221.23L303.208 1231.11" stroke="#7E786E" stroke-opacity="0.4" stroke-miterlimit="10"/>
<path d="M303.208 1231.11L280.161 1237.28" stroke="#7E786E" stroke-opacity="0.4" stroke-miterlimit="10"/>
<path d="M14.1134 244.418L20.2862 267.455" stroke="#7E786E" stroke-opacity="0.4" stroke-miterlimit="10"/>
<path d="M20.2863 267.455L89.379 248.942" stroke="#7E786E" stroke-opacity="0.4" stroke-miterlimit="10"/>
<path d="M89.379 248.942L115.947 348.094" stroke="#7E786E" stroke-opacity="0.4" stroke-miterlimit="10"/>
<path d="M115.947 348.094L46.8539 366.608" stroke="#7E786E" stroke-opacity="0.4" stroke-miterlimit="10"/>
<path d="M46.8565 366.617L182.945 874.428" stroke="#7E786E" stroke-opacity="0.4" stroke-miterlimit="10"/>
<path d="M182.945 874.428L265.86 852.211" stroke="#7E786E" stroke-opacity="0.4" stroke-miterlimit="10"/>
<path d="M265.86 852.211L289.603 940.784" stroke="#7E786E" stroke-opacity="0.4" stroke-miterlimit="10"/>
<path d="M289.601 940.775L206.666 962.997" stroke="#7E786E" stroke-opacity="0.4" stroke-miterlimit="10"/>
<path d="M206.679 963.004L211.28 980.178" stroke="#7E786E" stroke-opacity="0.4" stroke-miterlimit="10"/>
<path d="M211.28 980.178L280.17 1237.28" stroke="#7E786E" stroke-opacity="0.4" stroke-miterlimit="10"/>
<path d="M280.17 1237.28L340.058 1221.23" stroke="#7E786E" stroke-opacity="0.4" stroke-miterlimit="10"/>
<path d="M340.058 1221.23L404.249 1460.76" stroke="#7E786E" stroke-opacity="0.4" stroke-miterlimit="10"/>
<path d="M404.249 1460.76L609.264 1405.82" stroke="#7E786E" stroke-opacity="0.4" stroke-miterlimit="10"/>
<path d="M609.255 1405.82L710.619 1378.66" stroke="#7E786E" stroke-opacity="0.4" stroke-miterlimit="10"/>
<path d="M710.619 1378.66L982.44 1305.82" stroke="#7E786E" stroke-opacity="0.4" stroke-miterlimit="10"/>
<path d="M982.428 1305.82L927.3 1100.12" stroke="#7E786E" stroke-opacity="0.4" stroke-miterlimit="10"/>
<path d="M927.3 1100.12L973.442 1087.75" stroke="#7E786E" stroke-opacity="0.4" stroke-miterlimit="10"/>
<path d="M973.442 1087.75L922.939 899.27" stroke="#7E786E" stroke-opacity="0.4" stroke-miterlimit="10"/>
<path d="M922.939 899.27L876.787 911.637" stroke="#7E786E" stroke-opacity="0.4" stroke-miterlimit="10"/>
<path d="M876.797 911.634L789.769 586.841" stroke="#7E786E" stroke-opacity="0.4" stroke-miterlimit="10"/>
<path d="M789.769 586.841L835.863 574.491" stroke="#7E786E" stroke-opacity="0.4" stroke-miterlimit="10"/>
<path d="M835.86 574.481L785.248 385.594" stroke="#7E786E" stroke-opacity="0.4" stroke-miterlimit="10"/>
<path d="M785.248 385.594L739.173 397.94" stroke="#7E786E" stroke-opacity="0.4" stroke-miterlimit="10"/>
<path d="M739.164 397.942L652.167 73.3797" stroke="#7E786E" stroke-opacity="0.4" stroke-miterlimit="10"/>
<path d="M652.167 73.3797L14.1134 244.418" stroke="#7E786E" stroke-opacity="0.4" stroke-miterlimit="10"/>
<path d="M566.266 1019.62L659.521 1367.66" stroke="#7E786E" stroke-opacity="0.4" stroke-miterlimit="10"/>
<path d="M659.521 1367.66L953.491 1288.77" stroke="#7E786E" stroke-opacity="0.4" stroke-miterlimit="10"/>
<path d="M953.498 1288.76L898.327 1083.21" stroke="#7E786E" stroke-opacity="0.4" stroke-miterlimit="10"/>
<path d="M898.327 1083.21L944.397 1070.84" stroke="#7E786E" stroke-opacity="0.4" stroke-miterlimit="10"/>
<path d="M944.397 1070.84L906.299 928.43" stroke="#7E786E" stroke-opacity="0.4" stroke-miterlimit="10"/>
<path d="M906.299 928.43L867.062 939.016" stroke="#7E786E" stroke-opacity="0.4" stroke-miterlimit="10"/>
<path d="M867.053 939.019L726.356 976.719" stroke="#7E786E" stroke-opacity="0.4" stroke-miterlimit="10"/>
<path d="M726.356 976.719L566.266 1019.62" stroke="#7E786E" stroke-opacity="0.4" stroke-miterlimit="10"/>
<path d="M635.182 102.684L409.067 163.458" stroke="#7E786E" stroke-opacity="0.4" stroke-miterlimit="10"/>
<path d="M409.067 163.458L534.621 630.641" stroke="#7E786E" stroke-opacity="0.4" stroke-miterlimit="10"/>
<path d="M534.628 630.629L806.653 557.626" stroke="#7E786E" stroke-opacity="0.4" stroke-miterlimit="10"/>
<path d="M806.653 557.626L768.386 414.814" stroke="#7E786E" stroke-opacity="0.4" stroke-miterlimit="10"/>
<path d="M768.386 414.814L722.157 427.201" stroke="#7E786E" stroke-opacity="0.4" stroke-miterlimit="10"/>
<path d="M722.157 427.201L635.18 102.674" stroke="#7E786E" stroke-opacity="0.4" stroke-miterlimit="10"/>
<path d="M537.726 642.15L631.169 989.842" stroke="#7E786E" stroke-opacity="0.4" stroke-miterlimit="10"/>
<path d="M631.169 989.842L711.746 968.251" stroke="#7E786E" stroke-opacity="0.4" stroke-miterlimit="10"/>
<path d="M711.747 968.251L856.867 929.366" stroke="#7E786E" stroke-opacity="0.4" stroke-miterlimit="10"/>
<path d="M856.867 929.366L763.647 581.542" stroke="#7E786E" stroke-opacity="0.4" stroke-miterlimit="10"/>
<path d="M763.65 581.551L574.763 632.163" stroke="#7E786E" stroke-opacity="0.4" stroke-miterlimit="10"/>
<path d="M574.763 632.163L537.726 642.15" stroke="#7E786E" stroke-opacity="0.4" stroke-miterlimit="10"/>
<path d="M235.917 979.974L297.035 1208.07" stroke="#7E786E" stroke-opacity="0.4" stroke-miterlimit="10"/>
<path d="M297.035 1208.07L356.922 1192.02" stroke="#7E786E" stroke-opacity="0.4" stroke-miterlimit="10"/>
<path d="M356.922 1192.02L421.104 1431.55" stroke="#7E786E" stroke-opacity="0.4" stroke-miterlimit="10"/>
<path d="M421.104 1431.55L648.007 1370.74" stroke="#7E786E" stroke-opacity="0.4" stroke-miterlimit="10"/>
<path d="M648.01 1370.75L554.742 1022.71" stroke="#7E786E" stroke-opacity="0.4" stroke-miterlimit="10"/>
<path d="M554.742 1022.71L486.818 1040.91" stroke="#7E786E" stroke-opacity="0.4" stroke-miterlimit="10"/>
<path d="M486.818 1040.91L454.741 921.237" stroke="#7E786E" stroke-opacity="0.4" stroke-miterlimit="10"/>
<path d="M454.744 921.247L235.915 979.965" stroke="#7E786E" stroke-opacity="0.4" stroke-miterlimit="10"/>
<path d="M486.625 497.921L362.542 531.169" stroke="#7E786E" stroke-opacity="0.4" stroke-miterlimit="10"/>
<path d="M362.542 531.169L437.325 810.263" stroke="#7E786E" stroke-opacity="0.4" stroke-miterlimit="10"/>
<path d="M437.326 810.263L289.899 849.777" stroke="#7E786E" stroke-opacity="0.4" stroke-miterlimit="10"/>
<path d="M289.899 849.777L315.698 946.06" stroke="#7E786E" stroke-opacity="0.4" stroke-miterlimit="10"/>
<path d="M315.698 946.06L463.195 906.538" stroke="#7E786E" stroke-opacity="0.4" stroke-miterlimit="10"/>
<path d="M463.195 906.538L495.208 1026.28" stroke="#7E786E" stroke-opacity="0.4" stroke-miterlimit="10"/>
<path d="M495.208 1026.28L619.655 992.927" stroke="#7E786E" stroke-opacity="0.4" stroke-miterlimit="10"/>
<path d="M619.658 992.937L587.468 873.188" stroke="#7E786E" stroke-opacity="0.4" stroke-miterlimit="10"/>
<path d="M587.465 873.178L527.848 889.153" stroke="#7E786E" stroke-opacity="0.4" stroke-miterlimit="10"/>
<path d="M527.851 889.162L474.511 690.136" stroke="#7E786E" stroke-opacity="0.4" stroke-miterlimit="10"/>
<path d="M474.511 690.136L533.993 674.198" stroke="#7E786E" stroke-opacity="0.4" stroke-miterlimit="10"/>
<path d="M533.993 674.198L486.616 497.924" stroke="#7E786E" stroke-opacity="0.4" stroke-miterlimit="10"/>
<path d="M107.533 500.878L141.47 627.53" stroke="#7E786E" stroke-opacity="0.4" stroke-miterlimit="10"/>
<path d="M141.47 627.53L199.8 845.221" stroke="#7E786E" stroke-opacity="0.4" stroke-miterlimit="10"/>
<path d="M199.802 845.23L282.727 823.011" stroke="#7E786E" stroke-opacity="0.4" stroke-miterlimit="10"/>
<path d="M282.724 823.001L286.811 838.253" stroke="#7E786E" stroke-opacity="0.4" stroke-miterlimit="10"/>
<path d="M286.811 838.253L404.364 806.755" stroke="#7E786E" stroke-opacity="0.4" stroke-miterlimit="10"/>
<path d="M404.364 806.755L379.032 712.292" stroke="#7E786E" stroke-opacity="0.4" stroke-miterlimit="10"/>
<path d="M379.033 712.292L397.414 707.367" stroke="#7E786E" stroke-opacity="0.4" stroke-miterlimit="10"/>
<path d="M397.414 707.367L326.32 442.119" stroke="#7E786E" stroke-opacity="0.4" stroke-miterlimit="10"/>
<path d="M326.32 442.119L107.533 500.878" stroke="#7E786E" stroke-opacity="0.4" stroke-miterlimit="10"/>
<path d="M398.308 166.154L112.426 242.767" stroke="#7E786E" stroke-opacity="0.4" stroke-miterlimit="10"/>
<path d="M112.426 242.767L145.166 364.956" stroke="#7E786E" stroke-opacity="0.4" stroke-miterlimit="10"/>
<path d="M145.167 364.956L76.0546 383.475" stroke="#7E786E" stroke-opacity="0.4" stroke-miterlimit="10"/>
<path d="M76.0545 383.475L104.415 489.238" stroke="#7E786E" stroke-opacity="0.4" stroke-miterlimit="10"/>
<path d="M104.414 489.238L334.749 427.52" stroke="#7E786E" stroke-opacity="0.4" stroke-miterlimit="10"/>
<path d="M334.749 427.52L359.457 519.655" stroke="#7E786E" stroke-opacity="0.4" stroke-miterlimit="10"/>
<path d="M359.457 519.655L484.081 486.262" stroke="#7E786E" stroke-opacity="0.4" stroke-miterlimit="10"/>
<path d="M484.081 486.262L398.308 166.154" stroke="#7E786E" stroke-opacity="0.4" stroke-miterlimit="10"/>
<path d="M327.161 135.659L320.349 110.236" stroke="#7E786E" stroke-opacity="0.4" stroke-miterlimit="10"/>
<path d="M92.7481 171.222L99.6028 196.727" stroke="#7E786E" stroke-opacity="0.4" stroke-miterlimit="10"/>
<path d="M99.603 196.727L327.161 135.659" stroke="#7E786E" stroke-opacity="0.4" stroke-miterlimit="10"/>
<path d="M587.513 873.165L532.224 887.98" stroke="#7E786E" stroke-opacity="0.4" stroke-miterlimit="10"/>
<path d="M532.226 887.99L528.893 875.549" stroke="#7E786E" stroke-opacity="0.4" stroke-miterlimit="10"/>
<path d="M528.893 875.549L584.163 860.739" stroke="#7E786E" stroke-opacity="0.4" stroke-miterlimit="10"/>
<path d="M584.16 860.729L587.513 873.165" stroke="#7E786E" stroke-opacity="0.4" stroke-miterlimit="10"/>
<path d="M584.16 860.729L528.89 875.539" stroke="#7E786E" stroke-opacity="0.4" stroke-miterlimit="10"/>
<path d="M528.893 875.549L525.559 863.108" stroke="#7E786E" stroke-opacity="0.4" stroke-miterlimit="10"/>
<path d="M525.559 863.107L580.829 848.298" stroke="#7E786E" stroke-opacity="0.4" stroke-miterlimit="10"/>
<path d="M580.829 848.298L584.163 860.739" stroke="#7E786E" stroke-opacity="0.4" stroke-miterlimit="10"/>
<path d="M580.829 848.298L525.559 863.107" stroke="#7E786E" stroke-opacity="0.4" stroke-miterlimit="10"/>
<path d="M525.559 863.108L522.225 850.666" stroke="#7E786E" stroke-opacity="0.4" stroke-miterlimit="10"/>
<path d="M522.225 850.666L577.496 835.857" stroke="#7E786E" stroke-opacity="0.4" stroke-miterlimit="10"/>
<path d="M577.496 835.857L580.829 848.298" stroke="#7E786E" stroke-opacity="0.4" stroke-miterlimit="10"/>
<path d="M577.496 835.857L522.225 850.666" stroke="#7E786E" stroke-opacity="0.4" stroke-miterlimit="10"/>
<path d="M522.226 850.666L518.892 838.225" stroke="#7E786E" stroke-opacity="0.4" stroke-miterlimit="10"/>
<path d="M518.892 838.225L574.162 823.416" stroke="#7E786E" stroke-opacity="0.4" stroke-miterlimit="10"/>
<path d="M574.162 823.416L577.496 835.857" stroke="#7E786E" stroke-opacity="0.4" stroke-miterlimit="10"/>
<path d="M574.162 823.416L518.892 838.225" stroke="#7E786E" stroke-opacity="0.4" stroke-miterlimit="10"/>
<path d="M518.892 838.225L515.558 825.784" stroke="#7E786E" stroke-opacity="0.4" stroke-miterlimit="10"/>
<path d="M515.558 825.784L543.193 818.379" stroke="#7E786E" stroke-opacity="0.4" stroke-miterlimit="10"/>
<path d="M543.193 818.379L515.558 825.784" stroke="#7E786E" stroke-opacity="0.4" stroke-miterlimit="10"/>
<path d="M515.558 825.784L512.225 813.343" stroke="#7E786E" stroke-opacity="0.4" stroke-miterlimit="10"/>
<path d="M551.607 816.125L570.829 810.974" stroke="#7E786E" stroke-opacity="0.4" stroke-miterlimit="10"/>
<path d="M570.829 810.974L573.148 819.629" stroke="#7E786E" stroke-opacity="0.4" stroke-miterlimit="10"/>
<path d="M570.829 810.974L551.607 816.125" stroke="#7E786E" stroke-opacity="0.4" stroke-miterlimit="10"/>
<path d="M520.641 811.098L567.498 798.543" stroke="#7E786E" stroke-opacity="0.4" stroke-miterlimit="10"/>
<path d="M567.498 798.543L570.829 810.974" stroke="#7E786E" stroke-opacity="0.4" stroke-miterlimit="10"/>
<path d="M567.498 798.543L520.641 811.098" stroke="#7E786E" stroke-opacity="0.4" stroke-miterlimit="10"/>
<path d="M511.21 809.557L508.894 800.911" stroke="#7E786E" stroke-opacity="0.4" stroke-miterlimit="10"/>
<path d="M508.894 800.912L564.164 786.102" stroke="#7E786E" stroke-opacity="0.4" stroke-miterlimit="10"/>
<path d="M564.164 786.102L567.498 798.543" stroke="#7E786E" stroke-opacity="0.4" stroke-miterlimit="10"/>
<path d="M564.164 786.102L508.894 800.912" stroke="#7E786E" stroke-opacity="0.4" stroke-miterlimit="10"/>
<path d="M508.894 800.911L505.56 788.47" stroke="#7E786E" stroke-opacity="0.4" stroke-miterlimit="10"/>
<path d="M505.56 788.47L560.83 773.661" stroke="#7E786E" stroke-opacity="0.4" stroke-miterlimit="10"/>
<path d="M560.83 773.661L564.164 786.102" stroke="#7E786E" stroke-opacity="0.4" stroke-miterlimit="10"/>
<path d="M560.83 773.661L505.56 788.47" stroke="#7E786E" stroke-opacity="0.4" stroke-miterlimit="10"/>
<path d="M505.56 788.47L502.227 776.029" stroke="#7E786E" stroke-opacity="0.4" stroke-miterlimit="10"/>
<path d="M502.227 776.029L557.497 761.22" stroke="#7E786E" stroke-opacity="0.4" stroke-miterlimit="10"/>
<path d="M557.497 761.22L560.83 773.661" stroke="#7E786E" stroke-opacity="0.4" stroke-miterlimit="10"/>
<path d="M557.497 761.22L502.227 776.029" stroke="#7E786E" stroke-opacity="0.4" stroke-miterlimit="10"/>
<path d="M502.226 776.029L498.893 763.588" stroke="#7E786E" stroke-opacity="0.4" stroke-miterlimit="10"/>
<path d="M498.895 763.598L554.166 748.788" stroke="#7E786E" stroke-opacity="0.4" stroke-miterlimit="10"/>
<path d="M554.163 748.778L557.497 761.22" stroke="#7E786E" stroke-opacity="0.4" stroke-miterlimit="10"/>
<path d="M554.163 748.778L498.893 763.588" stroke="#7E786E" stroke-opacity="0.4" stroke-miterlimit="10"/>
<path d="M498.896 763.598L495.562 751.157" stroke="#7E786E" stroke-opacity="0.4" stroke-miterlimit="10"/>
<path d="M495.562 751.157L550.832 736.347" stroke="#7E786E" stroke-opacity="0.4" stroke-miterlimit="10"/>
<path d="M550.832 736.347L554.166 748.788" stroke="#7E786E" stroke-opacity="0.4" stroke-miterlimit="10"/>
<path d="M550.832 736.347L495.562 751.157" stroke="#7E786E" stroke-opacity="0.4" stroke-miterlimit="10"/>
<path d="M495.562 751.157L492.228 738.716" stroke="#7E786E" stroke-opacity="0.4" stroke-miterlimit="10"/>
<path d="M492.228 738.716L547.499 723.906" stroke="#7E786E" stroke-opacity="0.4" stroke-miterlimit="10"/>
<path d="M547.499 723.906L550.832 736.347" stroke="#7E786E" stroke-opacity="0.4" stroke-miterlimit="10"/>
<path d="M547.499 723.906L492.228 738.716" stroke="#7E786E" stroke-opacity="0.4" stroke-miterlimit="10"/>
<path d="M492.228 738.716L488.895 726.274" stroke="#7E786E" stroke-opacity="0.4" stroke-miterlimit="10"/>
<path d="M488.895 726.274L544.165 711.465" stroke="#7E786E" stroke-opacity="0.4" stroke-miterlimit="10"/>
<path d="M544.165 711.465L547.499 723.906" stroke="#7E786E" stroke-opacity="0.4" stroke-miterlimit="10"/>
<path d="M544.165 711.465L488.895 726.274" stroke="#7E786E" stroke-opacity="0.4" stroke-miterlimit="10"/>
<path d="M488.895 726.274L485.561 713.833" stroke="#7E786E" stroke-opacity="0.4" stroke-miterlimit="10"/>
<path d="M485.561 713.833L540.831 699.024" stroke="#7E786E" stroke-opacity="0.4" stroke-miterlimit="10"/>
<path d="M540.831 699.024L544.165 711.465" stroke="#7E786E" stroke-opacity="0.4" stroke-miterlimit="10"/>
<path d="M540.831 699.024L485.561 713.833" stroke="#7E786E" stroke-opacity="0.4" stroke-miterlimit="10"/>
<path d="M485.561 713.833L482.23 701.402" stroke="#7E786E" stroke-opacity="0.4" stroke-miterlimit="10"/>
<path d="M482.23 701.402L537.501 686.592" stroke="#7E786E" stroke-opacity="0.4" stroke-miterlimit="10"/>
<path d="M537.498 686.583L540.832 699.024" stroke="#7E786E" stroke-opacity="0.4" stroke-miterlimit="10"/>
<path d="M537.498 686.583L482.228 701.392" stroke="#7E786E" stroke-opacity="0.4" stroke-miterlimit="10"/>
<path d="M482.23 701.402L478.897 688.961" stroke="#7E786E" stroke-opacity="0.4" stroke-miterlimit="10"/>
<path d="M478.897 688.961L534.167 674.151" stroke="#7E786E" stroke-opacity="0.4" stroke-miterlimit="10"/>
<path d="M534.167 674.151L537.5 686.592" stroke="#7E786E" stroke-opacity="0.4" stroke-miterlimit="10"/>
<path d="M574.162 823.416L512.227 813.353" stroke="#7E786E" stroke-opacity="0.4" stroke-miterlimit="10"/>
<path d="M573.148 819.629L511.213 809.566" stroke="#7E786E" stroke-opacity="0.4" stroke-miterlimit="10"/>
<path d="M559.859 880.575L556.525 868.134" stroke="#7E786E" stroke-opacity="0.4" stroke-miterlimit="10"/>
<path d="M556.528 868.144L543.193 818.379" stroke="#7E786E" stroke-opacity="0.4" stroke-miterlimit="10"/>
<path d="M557.795 826.818L543.194 818.379" stroke="#7E786E" stroke-opacity="0.4" stroke-miterlimit="10"/>
<path d="M543.193 818.379L534.767 832.988" stroke="#7E786E" stroke-opacity="0.4" stroke-miterlimit="10"/>
<path d="M542.179 814.593L509.865 693.997" stroke="#7E786E" stroke-opacity="0.4" stroke-miterlimit="10"/>
<path d="M509.865 693.997L506.532 681.556" stroke="#7E786E" stroke-opacity="0.4" stroke-miterlimit="10"/>
<path d="M521.131 689.985L506.532 681.556" stroke="#7E786E" stroke-opacity="0.4" stroke-miterlimit="10"/>
<path d="M506.532 681.556L498.103 696.155" stroke="#7E786E" stroke-opacity="0.4" stroke-miterlimit="10"/>
<path d="M587.513 873.165L532.224 887.98" stroke="#7E786E" stroke-opacity="0.4" stroke-miterlimit="10"/>
<path d="M532.226 887.99L528.893 875.549" stroke="#7E786E" stroke-opacity="0.4" stroke-miterlimit="10"/>
<path d="M528.893 875.549L584.163 860.739" stroke="#7E786E" stroke-opacity="0.4" stroke-miterlimit="10"/>
<path d="M584.16 860.729L587.513 873.165" stroke="#7E786E" stroke-opacity="0.4" stroke-miterlimit="10"/>
<path d="M584.16 860.729L528.89 875.539" stroke="#7E786E" stroke-opacity="0.4" stroke-miterlimit="10"/>
<path d="M528.893 875.549L525.559 863.108" stroke="#7E786E" stroke-opacity="0.4" stroke-miterlimit="10"/>
<path d="M525.559 863.107L580.829 848.298" stroke="#7E786E" stroke-opacity="0.4" stroke-miterlimit="10"/>
<path d="M580.829 848.298L584.163 860.739" stroke="#7E786E" stroke-opacity="0.4" stroke-miterlimit="10"/>
<path d="M580.829 848.298L525.559 863.107" stroke="#7E786E" stroke-opacity="0.4" stroke-miterlimit="10"/>
<path d="M525.559 863.108L522.225 850.666" stroke="#7E786E" stroke-opacity="0.4" stroke-miterlimit="10"/>
<path d="M522.225 850.666L577.496 835.857" stroke="#7E786E" stroke-opacity="0.4" stroke-miterlimit="10"/>
<path d="M577.496 835.857L580.829 848.298" stroke="#7E786E" stroke-opacity="0.4" stroke-miterlimit="10"/>
<path d="M577.496 835.857L522.225 850.666" stroke="#7E786E" stroke-opacity="0.4" stroke-miterlimit="10"/>
<path d="M522.226 850.666L518.892 838.225" stroke="#7E786E" stroke-opacity="0.4" stroke-miterlimit="10"/>
<path d="M518.892 838.225L574.162 823.416" stroke="#7E786E" stroke-opacity="0.4" stroke-miterlimit="10"/>
<path d="M574.162 823.416L577.496 835.857" stroke="#7E786E" stroke-opacity="0.4" stroke-miterlimit="10"/>
<path d="M574.162 823.416L518.892 838.225" stroke="#7E786E" stroke-opacity="0.4" stroke-miterlimit="10"/>
<path d="M518.892 838.225L515.558 825.784" stroke="#7E786E" stroke-opacity="0.4" stroke-miterlimit="10"/>
<path d="M515.558 825.784L543.193 818.379" stroke="#7E786E" stroke-opacity="0.4" stroke-miterlimit="10"/>
<path d="M543.193 818.379L515.558 825.784" stroke="#7E786E" stroke-opacity="0.4" stroke-miterlimit="10"/>
<path d="M515.558 825.784L512.225 813.343" stroke="#7E786E" stroke-opacity="0.4" stroke-miterlimit="10"/>
<path d="M551.607 816.125L570.829 810.974" stroke="#7E786E" stroke-opacity="0.4" stroke-miterlimit="10"/>
<path d="M570.829 810.974L573.148 819.629" stroke="#7E786E" stroke-opacity="0.4" stroke-miterlimit="10"/>
<path d="M570.829 810.974L551.607 816.125" stroke="#7E786E" stroke-opacity="0.4" stroke-miterlimit="10"/>
<path d="M520.641 811.098L525.644 809.758" stroke="#7E786E" stroke-opacity="0.4" stroke-miterlimit="10"/>
<path d="M540.626 805.743L547.522 803.895" stroke="#7E786E" stroke-opacity="0.4" stroke-miterlimit="10"/>
<path d="M562.504 799.881L567.498 798.543" stroke="#7E786E" stroke-opacity="0.4" stroke-miterlimit="10"/>
<path d="M567.498 798.543L570.829 810.974" stroke="#7E786E" stroke-opacity="0.4" stroke-miterlimit="10"/>
<path d="M567.498 798.543L562.504 799.881" stroke="#7E786E" stroke-opacity="0.4" stroke-miterlimit="10"/>
<path d="M547.522 803.895L540.626 805.743" stroke="#7E786E" stroke-opacity="0.4" stroke-miterlimit="10"/>
<path d="M525.644 809.758L520.641 811.098" stroke="#7E786E" stroke-opacity="0.4" stroke-miterlimit="10"/>
<path d="M511.21 809.557L508.894 800.911" stroke="#7E786E" stroke-opacity="0.4" stroke-miterlimit="10"/>
<path d="M508.894 800.911L518.099 798.445" stroke="#7E786E" stroke-opacity="0.4" stroke-miterlimit="10"/>
<path d="M533.08 794.431L539.977 792.583" stroke="#7E786E" stroke-opacity="0.4" stroke-miterlimit="10"/>
<path d="M554.959 788.568L564.174 786.099" stroke="#7E786E" stroke-opacity="0.4" stroke-miterlimit="10"/>
<path d="M564.164 786.102L567.498 798.543" stroke="#7E786E" stroke-opacity="0.4" stroke-miterlimit="10"/>
<path d="M564.164 786.102L554.959 788.568" stroke="#7E786E" stroke-opacity="0.4" stroke-miterlimit="10"/>
<path d="M539.977 792.583L533.08 794.431" stroke="#7E786E" stroke-opacity="0.4" stroke-miterlimit="10"/>
<path d="M518.099 798.445L508.894 800.911" stroke="#7E786E" stroke-opacity="0.4" stroke-miterlimit="10"/>
<path d="M508.894 800.911L505.56 788.47" stroke="#7E786E" stroke-opacity="0.4" stroke-miterlimit="10"/>
<path d="M505.56 788.47L514.765 786.004" stroke="#7E786E" stroke-opacity="0.4" stroke-miterlimit="10"/>
<path d="M529.747 781.99L536.644 780.142" stroke="#7E786E" stroke-opacity="0.4" stroke-miterlimit="10"/>
<path d="M551.625 776.127L560.84 773.658" stroke="#7E786E" stroke-opacity="0.4" stroke-miterlimit="10"/>
<path d="M560.83 773.661L564.164 786.102" stroke="#7E786E" stroke-opacity="0.4" stroke-miterlimit="10"/>
<path d="M560.83 773.661L551.625 776.127" stroke="#7E786E" stroke-opacity="0.4" stroke-miterlimit="10"/>
<path d="M536.644 780.142L529.747 781.99" stroke="#7E786E" stroke-opacity="0.4" stroke-miterlimit="10"/>
<path d="M514.765 786.004L505.56 788.47" stroke="#7E786E" stroke-opacity="0.4" stroke-miterlimit="10"/>
<path d="M505.56 788.47L502.227 776.029" stroke="#7E786E" stroke-opacity="0.4" stroke-miterlimit="10"/>
<path d="M502.226 776.029L511.432 773.563" stroke="#7E786E" stroke-opacity="0.4" stroke-miterlimit="10"/>
<path d="M526.413 769.548L533.31 767.7" stroke="#7E786E" stroke-opacity="0.4" stroke-miterlimit="10"/>
<path d="M548.291 763.686L557.506 761.217" stroke="#7E786E" stroke-opacity="0.4" stroke-miterlimit="10"/>
<path d="M557.497 761.22L560.83 773.661" stroke="#7E786E" stroke-opacity="0.4" stroke-miterlimit="10"/>
<path d="M557.497 761.22L548.292 763.686" stroke="#7E786E" stroke-opacity="0.4" stroke-miterlimit="10"/>
<path d="M533.31 767.7L526.413 769.548" stroke="#7E786E" stroke-opacity="0.4" stroke-miterlimit="10"/>
<path d="M511.432 773.563L502.226 776.029" stroke="#7E786E" stroke-opacity="0.4" stroke-miterlimit="10"/>
<path d="M502.226 776.029L498.893 763.588" stroke="#7E786E" stroke-opacity="0.4" stroke-miterlimit="10"/>
<path d="M498.896 763.598L508.101 761.131" stroke="#7E786E" stroke-opacity="0.4" stroke-miterlimit="10"/>
<path d="M523.08 757.107L529.976 755.259" stroke="#7E786E" stroke-opacity="0.4" stroke-miterlimit="10"/>
<path d="M544.958 751.245L554.173 748.776" stroke="#7E786E" stroke-opacity="0.4" stroke-miterlimit="10"/>
<path d="M554.163 748.778L557.497 761.22" stroke="#7E786E" stroke-opacity="0.4" stroke-miterlimit="10"/>
<path d="M554.163 748.778L544.958 751.245" stroke="#7E786E" stroke-opacity="0.4" stroke-miterlimit="10"/>
<path d="M529.976 755.259L523.08 757.107" stroke="#7E786E" stroke-opacity="0.4" stroke-miterlimit="10"/>
<path d="M508.101 761.131L498.896 763.598" stroke="#7E786E" stroke-opacity="0.4" stroke-miterlimit="10"/>
<path d="M498.896 763.598L495.562 751.157" stroke="#7E786E" stroke-opacity="0.4" stroke-miterlimit="10"/>
<path d="M495.562 751.157L504.767 748.69" stroke="#7E786E" stroke-opacity="0.4" stroke-miterlimit="10"/>
<path d="M519.749 744.676L526.645 742.828" stroke="#7E786E" stroke-opacity="0.4" stroke-miterlimit="10"/>
<path d="M541.627 738.814L550.842 736.344" stroke="#7E786E" stroke-opacity="0.4" stroke-miterlimit="10"/>
<path d="M550.832 736.347L554.166 748.788" stroke="#7E786E" stroke-opacity="0.4" stroke-miterlimit="10"/>
<path d="M550.832 736.347L541.627 738.814" stroke="#7E786E" stroke-opacity="0.4" stroke-miterlimit="10"/>
<path d="M526.645 742.828L519.749 744.676" stroke="#7E786E" stroke-opacity="0.4" stroke-miterlimit="10"/>
<path d="M504.767 748.69L495.562 751.157" stroke="#7E786E" stroke-opacity="0.4" stroke-miterlimit="10"/>
<path d="M495.562 751.157L492.228 738.716" stroke="#7E786E" stroke-opacity="0.4" stroke-miterlimit="10"/>
<path d="M492.228 738.716L501.434 736.249" stroke="#7E786E" stroke-opacity="0.4" stroke-miterlimit="10"/>
<path d="M516.415 732.235L523.312 730.387" stroke="#7E786E" stroke-opacity="0.4" stroke-miterlimit="10"/>
<path d="M538.293 726.372L547.508 723.903" stroke="#7E786E" stroke-opacity="0.4" stroke-miterlimit="10"/>
<path d="M547.499 723.906L550.832 736.347" stroke="#7E786E" stroke-opacity="0.4" stroke-miterlimit="10"/>
<path d="M547.499 723.906L538.293 726.372" stroke="#7E786E" stroke-opacity="0.4" stroke-miterlimit="10"/>
<path d="M523.312 730.387L516.415 732.235" stroke="#7E786E" stroke-opacity="0.4" stroke-miterlimit="10"/>
<path d="M501.434 736.249L492.228 738.716" stroke="#7E786E" stroke-opacity="0.4" stroke-miterlimit="10"/>
<path d="M492.228 738.716L488.895 726.274" stroke="#7E786E" stroke-opacity="0.4" stroke-miterlimit="10"/>
<path d="M488.895 726.274L498.1 723.808" stroke="#7E786E" stroke-opacity="0.4" stroke-miterlimit="10"/>
<path d="M513.082 719.794L519.978 717.946" stroke="#7E786E" stroke-opacity="0.4" stroke-miterlimit="10"/>
<path d="M534.96 713.931L544.175 711.462" stroke="#7E786E" stroke-opacity="0.4" stroke-miterlimit="10"/>
<path d="M544.165 711.465L547.499 723.906" stroke="#7E786E" stroke-opacity="0.4" stroke-miterlimit="10"/>
<path d="M544.165 711.465L534.96 713.931" stroke="#7E786E" stroke-opacity="0.4" stroke-miterlimit="10"/>
<path d="M519.978 717.946L513.082 719.794" stroke="#7E786E" stroke-opacity="0.4" stroke-miterlimit="10"/>
<path d="M498.1 723.808L488.895 726.274" stroke="#7E786E" stroke-opacity="0.4" stroke-miterlimit="10"/>
<path d="M488.895 726.274L485.561 713.833" stroke="#7E786E" stroke-opacity="0.4" stroke-miterlimit="10"/>
<path d="M485.561 713.833L494.766 711.367" stroke="#7E786E" stroke-opacity="0.4" stroke-miterlimit="10"/>
<path d="M509.748 707.352L516.645 705.504" stroke="#7E786E" stroke-opacity="0.4" stroke-miterlimit="10"/>
<path d="M531.626 701.49L540.841 699.021" stroke="#7E786E" stroke-opacity="0.4" stroke-miterlimit="10"/>
<path d="M540.831 699.024L544.165 711.465" stroke="#7E786E" stroke-opacity="0.4" stroke-miterlimit="10"/>
<path d="M540.831 699.024L531.626 701.49" stroke="#7E786E" stroke-opacity="0.4" stroke-miterlimit="10"/>
<path d="M516.645 705.504L509.748 707.352" stroke="#7E786E" stroke-opacity="0.4" stroke-miterlimit="10"/>
<path d="M494.766 711.367L485.561 713.833" stroke="#7E786E" stroke-opacity="0.4" stroke-miterlimit="10"/>
<path d="M485.561 713.833L482.23 701.402" stroke="#7E786E" stroke-opacity="0.4" stroke-miterlimit="10"/>
<path d="M482.23 701.402L491.435 698.935" stroke="#7E786E" stroke-opacity="0.4" stroke-miterlimit="10"/>
<path d="M506.417 694.921L513.314 693.073" stroke="#7E786E" stroke-opacity="0.4" stroke-miterlimit="10"/>
<path d="M528.295 689.059L537.51 686.59" stroke="#7E786E" stroke-opacity="0.4" stroke-miterlimit="10"/>
<path d="M537.498 686.583L540.832 699.024" stroke="#7E786E" stroke-opacity="0.4" stroke-miterlimit="10"/>
<path d="M537.498 686.583L528.293 689.049" stroke="#7E786E" stroke-opacity="0.4" stroke-miterlimit="10"/>
<path d="M513.314 693.073L506.417 694.921" stroke="#7E786E" stroke-opacity="0.4" stroke-miterlimit="10"/>
<path d="M491.435 698.935L482.23 701.402" stroke="#7E786E" stroke-opacity="0.4" stroke-miterlimit="10"/>
<path d="M482.23 701.402L478.897 688.961" stroke="#7E786E" stroke-opacity="0.4" stroke-miterlimit="10"/>
<path d="M478.896 688.961L488.102 686.494" stroke="#7E786E" stroke-opacity="0.4" stroke-miterlimit="10"/>
<path d="M503.083 682.48L509.98 680.632" stroke="#7E786E" stroke-opacity="0.4" stroke-miterlimit="10"/>
<path d="M524.962 676.618L534.177 674.148" stroke="#7E786E" stroke-opacity="0.4" stroke-miterlimit="10"/>
<path d="M534.167 674.151L537.5 686.592" stroke="#7E786E" stroke-opacity="0.4" stroke-miterlimit="10"/>
<path d="M574.162 823.416L512.227 813.353" stroke="#7E786E" stroke-opacity="0.4" stroke-miterlimit="10"/>
<path d="M573.148 819.629L511.213 809.566" stroke="#7E786E" stroke-opacity="0.4" stroke-miterlimit="10"/>
<path d="M559.859 880.575L556.525 868.134" stroke="#7E786E" stroke-opacity="0.4" stroke-miterlimit="10"/>
<path d="M556.528 868.144L543.193 818.379" stroke="#7E786E" stroke-opacity="0.4" stroke-miterlimit="10"/>
<path d="M557.795 826.818L543.194 818.379" stroke="#7E786E" stroke-opacity="0.4" stroke-miterlimit="10"/>
<path d="M543.193 818.379L534.767 832.988" stroke="#7E786E" stroke-opacity="0.4" stroke-miterlimit="10"/>
<path d="M542.179 814.593L509.865 693.997" stroke="#7E786E" stroke-opacity="0.4" stroke-miterlimit="10"/>
<path d="M509.865 693.997L506.532 681.556" stroke="#7E786E" stroke-opacity="0.4" stroke-miterlimit="10"/>
<path d="M521.131 689.985L506.532 681.556" stroke="#7E786E" stroke-opacity="0.4" stroke-miterlimit="10"/>
<path d="M506.532 681.556L498.103 696.155" stroke="#7E786E" stroke-opacity="0.4" stroke-miterlimit="10"/>
<path d="M347.771 916.233L330.981 853.573" stroke="#7E786E" stroke-opacity="0.4" stroke-miterlimit="10"/>
<path d="M330.981 853.573L417.132 830.489" stroke="#7E786E" stroke-opacity="0.4" stroke-miterlimit="10"/>
<path d="M417.132 830.489L433.922 893.149" stroke="#7E786E" stroke-opacity="0.4" stroke-miterlimit="10"/>
<path d="M433.922 893.149L347.761 916.235" stroke="#7E786E" stroke-opacity="0.4" stroke-miterlimit="10"/>
<path fill-rule="evenodd" clip-rule="evenodd" d="M500.113 575.69L477.079 569.511L483.239 592.541L500.113 575.69Z" fill="#7E786E" fill-opacity="0.4" stroke="#7E786E" stroke-opacity="0.4" stroke-miterlimit="10"/>
<path fill-rule="evenodd" clip-rule="evenodd" d="M398.944 528.817L392.765 551.851L415.805 545.688L398.944 528.817Z" fill="#7E786E" fill-opacity="0.4" stroke="#7E786E" stroke-opacity="0.4" stroke-miterlimit="10"/>
<path fill-rule="evenodd" clip-rule="evenodd" d="M597.888 939.511L574.864 933.329L581.015 956.362L597.888 939.511Z" fill="#7E786E" fill-opacity="0.4" stroke="#7E786E" stroke-opacity="0.4" stroke-miterlimit="10"/>
<path fill-rule="evenodd" clip-rule="evenodd" d="M488.401 971.477L511.438 977.666L505.265 954.628L488.401 971.477Z" fill="#7E786E" fill-opacity="0.4" stroke="#7E786E" stroke-opacity="0.4" stroke-miterlimit="10"/>
<path d="M707.792 6.4213L712.099 22.4943" stroke="#7E786E" stroke-opacity="0.4" stroke-miterlimit="10"/>
<path d="M718.291 45.5265L727.568 80.0725" stroke="#7E786E" stroke-opacity="0.4" stroke-miterlimit="10"/>
<path d="M733.741 103.11L743.639 139.974" stroke="#7E786E" stroke-opacity="0.4" stroke-miterlimit="10"/>
<path d="M767.063 133.698L773.852 159.034" stroke="#7E786E" stroke-opacity="0.4" stroke-miterlimit="10"/>
<path d="M780.025 182.071L789.283 216.622" stroke="#7E786E" stroke-opacity="0.4" stroke-miterlimit="10"/>
<path d="M795.455 239.66L804.713 274.211" stroke="#7E786E" stroke-opacity="0.4" stroke-miterlimit="10"/>
<path d="M810.886 297.248L817.675 322.584" stroke="#7E786E" stroke-opacity="0.4" stroke-miterlimit="10"/>
<path d="M936.336 1318.14L945.729 1353.19" stroke="#7E786E" stroke-opacity="0.4" stroke-miterlimit="10"/>
<path d="M849.44 625.163L861.341 621.974" stroke="#7E786E" stroke-opacity="0.4" stroke-miterlimit="10"/>
<path d="M883.499 616.037L895.399 612.848" stroke="#7E786E" stroke-opacity="0.4" stroke-miterlimit="10"/>
<path d="M895.399 612.848L902.188 638.185" stroke="#7E786E" stroke-opacity="0.4" stroke-miterlimit="10"/>
<path d="M908.361 661.222L917.619 695.773" stroke="#7E786E" stroke-opacity="0.4" stroke-miterlimit="10"/>
<path d="M923.792 718.81L933.05 753.362" stroke="#7E786E" stroke-opacity="0.4" stroke-miterlimit="10"/>
<path d="M939.223 776.399L946.012 801.735" stroke="#7E786E" stroke-opacity="0.4" stroke-miterlimit="10"/>
<path d="M946.011 801.735L934.13 804.919" stroke="#7E786E" stroke-opacity="0.4" stroke-miterlimit="10"/>
<path d="M911.972 810.856L900.072 814.045" stroke="#7E786E" stroke-opacity="0.4" stroke-miterlimit="10"/>
<path d="M922.929 899.273L945.899 893.118" stroke="#7E786E" stroke-opacity="0.4" stroke-miterlimit="10"/>
<path d="M743.63 139.977L767.063 133.698" stroke="#7E786E" stroke-opacity="0.4" stroke-miterlimit="10"/>
<path d="M817.675 322.584L805.797 325.778" stroke="#7E786E" stroke-opacity="0.4" stroke-miterlimit="10"/>
<path d="M783.184 331.836L771.284 335.025" stroke="#7E786E" stroke-opacity="0.4" stroke-miterlimit="10"/>
<path d="M771.284 335.025L776.242 353.45" stroke="#7E786E" stroke-opacity="0.4" stroke-miterlimit="10"/>
<path d="M782.443 376.479L791.75 411.018" stroke="#7E786E" stroke-opacity="0.4" stroke-miterlimit="10"/>
<path d="M797.961 434.045L807.268 468.583" stroke="#7E786E" stroke-opacity="0.4" stroke-miterlimit="10"/>
<path d="M813.469 491.612L822.776 526.151" stroke="#7E786E" stroke-opacity="0.4" stroke-miterlimit="10"/>
<path d="M828.977 549.18L838.284 583.718" stroke="#7E786E" stroke-opacity="0.4" stroke-miterlimit="10"/>
<path d="M844.495 606.745L849.441 625.163" stroke="#7E786E" stroke-opacity="0.4" stroke-miterlimit="10"/>
<path d="M922.93 899.273L914.598 868.18" stroke="#7E786E" stroke-opacity="0.4" stroke-miterlimit="10"/>
<path d="M908.406 845.147L900.074 814.054" stroke="#7E786E" stroke-opacity="0.4" stroke-miterlimit="10"/>
<path d="M359.671 1441.83L367.389 1470.64" stroke="#7E786E" stroke-opacity="0.4" stroke-miterlimit="10"/>
<path d="M367.39 1470.64L344.346 1476.75" stroke="#7E786E" stroke-opacity="0.4" stroke-miterlimit="10"/>
<path d="M344.344 1476.74L336.634 1448" stroke="#7E786E" stroke-opacity="0.4" stroke-miterlimit="10"/>
<path d="M336.634 1448L359.671 1441.83" stroke="#7E786E" stroke-opacity="0.4" stroke-miterlimit="10"/>
<path d="M424.046 815.799L426.269 824.096" stroke="#7E786E" stroke-opacity="0.4" stroke-miterlimit="10"/>
<path d="M317.63 844.313L319.853 852.61" stroke="#7E786E" stroke-opacity="0.4" stroke-miterlimit="10"/>
<path d="M424.046 815.799L317.62 844.316" stroke="#7E786E" stroke-opacity="0.4" stroke-miterlimit="10"/>
<path d="M328.15 850.387L417.979 826.307" stroke="#7E786E" stroke-opacity="0.4" stroke-miterlimit="10"/>
<path d="M342.443 936.916L340.22 928.619" stroke="#7E786E" stroke-opacity="0.4" stroke-miterlimit="10"/>
<path d="M448.859 908.402L446.636 900.105" stroke="#7E786E" stroke-opacity="0.4" stroke-miterlimit="10"/>
<path d="M342.443 936.916L448.859 908.402" stroke="#7E786E" stroke-opacity="0.4" stroke-miterlimit="10"/>
<path d="M438.348 902.326L348.517 926.396" stroke="#7E786E" stroke-opacity="0.4" stroke-miterlimit="10"/>
<path d="M429.97 837.909L426.266 824.087" stroke="#7E786E" stroke-opacity="0.4" stroke-miterlimit="10"/>
<path d="M417.979 826.307L421.685 840.139" stroke="#7E786E" stroke-opacity="0.4" stroke-miterlimit="10"/>
<path d="M421.683 840.13L429.97 837.909" stroke="#7E786E" stroke-opacity="0.4" stroke-miterlimit="10"/>
<path d="M446.635 900.105L442.932 886.283" stroke="#7E786E" stroke-opacity="0.4" stroke-miterlimit="10"/>
<path d="M434.647 888.513L442.934 886.292" stroke="#7E786E" stroke-opacity="0.4" stroke-miterlimit="10"/>
<path d="M434.647 888.513L438.351 902.335" stroke="#7E786E" stroke-opacity="0.4" stroke-miterlimit="10"/>
<path d="M319.853 852.61L340.22 928.619" stroke="#7E786E" stroke-opacity="0.4" stroke-miterlimit="10"/>
<path d="M348.517 926.396L328.15 850.387" stroke="#7E786E" stroke-opacity="0.4" stroke-miterlimit="10"/>
</g>
<defs>
<clipPath id="clip0_23_204">
<rect width="1362.97" height="757.57" fill="white" transform="translate(731.756) rotate(75)"/>
</clipPath>
</defs>
</svg>
